<svg xmlns="http://www.w3.org/2000/svg" width="24.833" height="34.363" viewBox="0 0 24.833 34.363">
  <g id="Group_425" data-name="Group 425" transform="translate(-1745.93 -5367.165)">
    <g id="ICONS_5" data-name="ICONS 5" transform="translate(1727.679 5354.454)">
      <path id="Path_1501" data-name="Path 1501" d="M19.307,30.459l9.328,7.827a2.953,2.953,0,0,0,1.44.74h0l.065.012.015,0,.035.006.041.006.03,0,.045.006.039.005.034,0,.024,0,.048,0,.035,0,.037,0h.237l.047,0,.037,0,.035,0,.036,0,.036,0,.034,0,.039-.005.03,0,.045-.006.016,0,.061-.01.015,0,.065-.012h0a2.949,2.949,0,0,0,1.44-.74l9.328-7.827a2.974,2.974,0,0,0,.365-4.178h0a2.974,2.974,0,0,0-4.178-.365L33.859,29.57V15.887a3.192,3.192,0,0,0-3.189-3.176h0a3.192,3.192,0,0,0-3.189,3.176v13.69l-4.362-3.66a2.975,2.975,0,0,0-4.178.365h0A2.974,2.974,0,0,0,19.307,30.459Z" fill="#fffaf1"/>
      <path id="Path_1502" data-name="Path 1502" d="M43.082,44.465h0a2.617,2.617,0,0,1-2.609,2.609H20.86a2.617,2.617,0,0,1-2.609-2.609h0a2.617,2.617,0,0,1,2.609-2.609H40.474A2.616,2.616,0,0,1,43.082,44.465Z" fill="#fffaf1"/>
    </g>
  </g>
</svg>
