<svg xmlns="http://www.w3.org/2000/svg" width="181.473" height="58.125" viewBox="0 0 181.473 58.125"><g transform="translate(0)"><path d="M1947.642,255.745a4.2,4.2,0,0,0-1.543-.331,2.881,2.881,0,0,0,.1,5.717,3.013,3.013,0,0,0,1.526-.428l.1,1.247a4.363,4.363,0,0,1-1.778.31,3.883,3.883,0,0,1-3.938-3.994,3.779,3.779,0,0,1,3.938-3.988,5.474,5.474,0,0,1,1.722.294Z" transform="translate(-1907.626 -207.262)" fill="#322210"/><path d="M1956.35,254.277a3.8,3.8,0,0,1,3.927,4,3.933,3.933,0,1,1-7.865-.014,3.788,3.788,0,0,1,3.939-3.988m0,6.854c1.662,0,2.4-1.494,2.4-2.852a2.445,2.445,0,1,0-4.819-.014c0,1.371.743,2.865,2.418,2.865" transform="translate(-1911.094 -207.262)" fill="#322210"/><path d="M1967.591,253.787l-1.815-.021v-1.129h1.815v-.7c0-1.858.49-3.068,2.591-3.068a6.376,6.376,0,0,1,.948.1l-.056,1.131a2.03,2.03,0,0,0-.69-.088c-1.218,0-1.369.774-1.369,1.812v.821l2.049.015v1.135h-2.049l.01,6.482h-1.434Z" transform="translate(-1915.594 -205.44)" fill="#322210"/><path d="M1976.078,253.787h-1.827v-1.135h1.827v-.708c0-1.863.483-3.079,2.584-3.079a6.392,6.392,0,0,1,.95.1l-.05,1.131a2.849,2.849,0,0,0-.687-.077c-1.225,0-1.385.763-1.385,1.8v.836h2.041v1.135H1977.5v6.482h-1.427Z" transform="translate(-1918.447 -205.44)" fill="#322210"/><path d="M1990.131,261.786a6.083,6.083,0,0,1-2.436.5c-2.741-.009-4-1.649-4-4.13a3.568,3.568,0,0,1,3.62-3.864c2.577,0,3.408,1.852,3.408,4.3h-5.508a2.5,2.5,0,0,0,2.539,2.542,4.606,4.606,0,0,0,2.375-.751Zm-.927-4.238a1.921,1.921,0,0,0-1.914-2.117,2.11,2.11,0,0,0-2.074,2.117Z" transform="translate(-1921.627 -207.266)" fill="#322210"/><path d="M2002.824,261.8a5.965,5.965,0,0,1-2.441.487c-2.74,0-4-1.649-4-4.13a3.564,3.564,0,0,1,3.611-3.862c2.576,0,3.4,1.861,3.4,4.319l-5.5-.007a2.534,2.534,0,0,0,2.546,2.55,4.659,4.659,0,0,0,2.381-.769Zm-.933-4.236a1.935,1.935,0,0,0-1.927-2.129,2.121,2.121,0,0,0-2.068,2.117Z" transform="translate(-1925.9 -207.267)" fill="#322210"/><path d="M2024.8,255.045a6.955,6.955,0,0,1-1.214,3.581l1.847,2.058h-1.887l-.862-1.013a3.713,3.713,0,0,1-3.027,1.2c-2.091,0-3.4-1.175-3.4-2.921a3.186,3.186,0,0,1,2.352-3.057,3.675,3.675,0,0,1-1.088-2.371c0-1.679,1.246-2.453,2.756-2.453a2.335,2.335,0,0,1,2.617,2.371c0,1.329-1.193,2.225-2.313,2.714l2.143,2.437a4.919,4.919,0,0,0,.658-2.539Zm-4.87,4.686a2.589,2.589,0,0,0,1.946-1.006l-2.528-2.941c-.8.528-1.492,1.021-1.492,2.06a1.953,1.953,0,0,0,2.074,1.888m-.046-5.413c.637-.309,1.582-.943,1.582-1.832a1.128,1.128,0,0,0-1.255-1.287,1.217,1.217,0,0,0-1.262,1.343,2.843,2.843,0,0,0,.936,1.776" transform="translate(-1932.589 -205.844)" fill="#322210"/><path d="M2038.983,249.167h1.422V253.8h.027a2.761,2.761,0,0,1,2.553-1.227c2.244,0,3.33,1.818,3.33,3.864,0,2.107-.969,4.126-3.311,4.126a3.09,3.09,0,0,1-2.629-1.258h-.033l.008,1.075h-1.367Zm3.7,4.551c-1.541,0-2.28,1.447-2.28,2.871,0,1.272.671,2.84,2.266,2.84,1.53,0,2.171-1.684,2.133-2.884.022-1.38-.581-2.827-2.119-2.827" transform="translate(-1940.242 -205.542)" fill="#322210"/><path d="M2053.009,255.038a5.05,5.05,0,0,1,2.558-.718c2.2,0,3.1,1.073,3.1,3.155v3.155a14.311,14.311,0,0,0,.063,1.487h-1.341v-.982h-.017a2.881,2.881,0,0,1-2.392,1.169c-1.666,0-2.831-.718-2.831-2.378,0-1.922,2.122-2.516,3.578-2.516.562,0,.96,0,1.513.033,0-1.315-.471-1.983-1.905-1.99a3.722,3.722,0,0,0-2.24.781Zm4.227,3.46c-.3,0-.608-.046-.908-.046-.761,0-2.686.13-2.686,1.474a1.371,1.371,0,0,0,1.462,1.244,1.924,1.924,0,0,0,2.132-2Z" transform="translate(-1944.674 -207.277)" fill="#322210"/><path d="M2065.6,249.178h1.415l.017,6.684,3.1-3.095h1.934l-3.582,3.38,4.034,4.259h-2.043l-3.442-3.925v3.925H2065.6Z" transform="translate(-1949.203 -205.546)" fill="#322210"/><path d="M2083.938,261.818a5.971,5.971,0,0,1-2.449.5c-2.73,0-3.988-1.653-3.988-4.131a3.55,3.55,0,0,1,3.617-3.862c2.564,0,3.4,1.847,3.4,4.306H2079a2.514,2.514,0,0,0,2.552,2.538,4.663,4.663,0,0,0,2.384-.759ZM2083,257.6a1.932,1.932,0,0,0-1.928-2.134,2.141,2.141,0,0,0-2.075,2.128Z" transform="translate(-1953.211 -207.28)" fill="#322210"/><path d="M2090.959,254.508h1.337v1.179h.011a2.367,2.367,0,0,1,2.023-1.358,4.22,4.22,0,0,1,.943.1v1.256a2.485,2.485,0,0,0-.793-.133c-1.274,0-2.116,1.2-2.116,3.116l.024,3.471h-1.429Z" transform="translate(-1957.742 -207.28)" fill="#322210"/><path d="M2100.281,264.21a2.147,2.147,0,0,0,.666.12c1.274,0,1.7-1.728,1.7-1.886a5.367,5.367,0,0,0-.275-.8l-2.621-7.125h1.56l2.078,6.313h.036l2.1-6.313h1.44l-2.836,7.79c-.537,1.474-1.094,3.159-2.975,3.159a4.551,4.551,0,0,1-.96-.1Z" transform="translate(-1960.701 -207.344)" fill="#322210"/><path d="M1904.348,189.306c.676-1.568.72-2.436,2.659-2.436,1.586,0,1.539.577,2.121,1.906l9.945,23.193a14.679,14.679,0,0,0,1.2,2.433,2.225,2.225,0,0,0,1.987,1.146c.823.056,1.733-.094,1.733,1,0,.951-.961,1-1.642,1-2.022,0-3.952-.185-5.873-.185-2.422,0-4.737.185-7.051.185-.679,0-1.542-.094-1.542-1,0-1.63,3.374-.289,3.374-2a5.073,5.073,0,0,0-.49-1.809l-1.546-3.87c-.615-1.68-.477-1.577-2.216-1.577h-6.315c-1.689,0-1.55-.1-2.126,1.431a14.966,14.966,0,0,0-1.068,4.343c0,3.377,4.787,1.337,4.787,3.482,0,.859-.909,1-1.589,1-1.5,0-3.041-.094-4.535-.1s-3.045.1-4.543.1c-.717,0-1.5-.146-1.5-1,0-.815.732-.906,1.354-1,1.4-.24,1.882-.333,2.6-1.618.62-1.158,1.5-3.633,2.026-4.966l2.649-6.58Zm-3.614,13.932a6.52,6.52,0,0,0-.434,1.386c0,.661,1.017.473,1.448.473h4.2c.336,0,1.592.188,1.592-.379a6.523,6.523,0,0,0-.442-1.194l-3.181-8.155Z" transform="translate(-1890.122 -184.567)" fill="#322210"/><path d="M1952.383,202.516c.818,0,2.843-3.614,6.8-3.614,2.022,0,4.1,1.48,4.1,3.614a3.963,3.963,0,0,1-4.01,3.872c-3.082,0-3.42-2.771-4.872-2.771-2.417,0-2.026,4.962-2.026,6.439l.009,4.723a14.14,14.14,0,0,0,.184,3.815c.247.715,1.742.676,2.6.813.538.1,1.158.391,1.158,1,0,.825-.865.916-1.483.916-2.032,0-4.056-.092-6.081-.092s-3.967.092-5.985.092c-.633,0-1.452-.1-1.452-.916,0-.621.582-.9,1.157-1,.677-.094,2.176-.141,2.416-.809a14.179,14.179,0,0,0,.333-3.822v-7.008c0-2,.147-3.1-2.125-3.39-.677-.046-1.45,0-1.45-.807,0-.858,1.544-1.006,2.073-1.135a13.945,13.945,0,0,0,6.22-3.254,2.089,2.089,0,0,1,1.74-.856c.771,0,.681,1.236.681,1.725Z" transform="translate(-1907.366 -188.423)" fill="#322210"/><path d="M1984.754,208.924c0,1.772-.188,6.447,2.366,6.447,1.589,0,2.662-1.388,3.382-1.388a.611.611,0,0,1,.573.67c0,.625-.963,1.577-1.352,1.96a9.54,9.54,0,0,1-6.271,2.426,5.792,5.792,0,0,1-4.435-2,9,9,0,0,1-1.406-5.3v-9.973a14.1,14.1,0,0,0-.146-2.009c-.094-.471-.674-.609-1.154-.609-.627,0-2.178.231-2.178-.539,0-.706,1.016-1.088,1.551-1.286a12.584,12.584,0,0,0,6.406-5.188c.34-.618.827-1.577,1.639-1.577,1.025,0,.832,1.1.832,1.759v3.3c0,1.335.282,1.282,1.542,1.282h2.507c1.023,0,1.742-.228,1.742.966,0,1.324-.348,1.287-1.643,1.287h-2.372c-1.583,0-1.583-.048-1.583,1.853Z" transform="translate(-1918.408 -185.81)" fill="#322210"/><path d="M2013.8,200.972a5.769,5.769,0,0,0-3.867,2.089,9.132,9.132,0,0,0-2.065,5.921c0,4.863,3.429,9.733,8.825,9.733,3.522,0,4.575-1.767,5.492-1.767a.614.614,0,0,1,.578.576c0,1.1-1.4,1.953-2.158,2.473a14.388,14.388,0,0,1-7.388,1.963c-7.1,0-12.877-4.355-12.877-11.461,0-7.3,7.948-11.3,14.662-11.3a13.222,13.222,0,0,1,5.888,1.291,1.934,1.934,0,0,1,1.389,2c0,1.144-.432,4.345-2.015,4.345-1.545,0-2.266-1.628-2.907-2.668-.867-1.437-1.585-3.2-3.555-3.2" transform="translate(-1927.23 -188.719)" fill="#322210"/><path d="M2058.294,214.961c0,.7-.229,2.949,1.115,2.949a1.942,1.942,0,0,0,1.211-.468c.286-.153.772-.582,1.162-.582a.658.658,0,0,1,.625.669c0,.675-.77,1.432-1.255,1.816a8.434,8.434,0,0,1-5.322,2.194,3.427,3.427,0,0,1-3.559-2.289c-.1-.134-.382-1.1-.824-1.1-.567,0-3.557,3.824-8.337,3.824-2.861,0-5.024-1.863-5.024-4.683a5.337,5.337,0,0,1,2.6-4.627,22.391,22.391,0,0,1,5.552-2.576,15.026,15.026,0,0,0,4.584-2.19c.333-.286.527-.339.527-.468v-1.581c0-1.626.338-4.961-2.174-4.961-1.737,0-2.833,1.561-3.474,2.994a3.307,3.307,0,0,1-2.075,2.344,10.311,10.311,0,0,1-3.947,1.05c-.722,0-1.5-.289-1.5-1.1,0-1.533,2.122-3.675,3.289-4.432a15.845,15.845,0,0,1,9.025-2.533,12.97,12.97,0,0,1,6.171,1.339c1.544.955,1.635,2.434,1.635,4.008Zm-6.947-3.163c0-.138.1-2-.527-2a19.982,19.982,0,0,0-3.468,1.865c-1.4.862-2.556,1.905-2.556,3.624a2.593,2.593,0,0,0,2.6,2.767,4.464,4.464,0,0,0,3.483-1.809,4.983,4.983,0,0,0,.466-2.142Z" transform="translate(-1939.941 -188.721)" fill="#322210"/><path d="M2086.449,212.308c0,.137,0,1.765,2.657,2.1.632.088,1.542.23,1.542,1.1,0,.711-.487.8-1.115.8-2.3,0-4.541-.094-6.756-.094-2.307,0-4.631.094-6.938.094-.678,0-1.159-.094-1.159-.815,0-.859.729-1,1.3-1.089,2.946-.34,2.946-1.972,2.946-2.1l-.005-14.89c0-.43.185-.617-1.639-.617-.636,0-1.888.278-1.888-.662,0-1.207,1.3-1.437,2.22-1.531,1.307-.147,1.307-.912,1.448-2.052.725-5.777,5.6-9.158,11.288-9.158,1.443.007,5.594.425,5.594,2.627,0,1.1-1.445,4.142-2.8,4.142-1.972,0-2.842-4.91-4.476-4.91-2.329,0-2.22,5.63-2.22,7.016,0,2.152-.242,2.239,1.5,2.239h3.516c1.01,0,.872.423.922,1.335.04,1.148-.628.953-1.645.953h-2.654c-1.677,0-1.636-.094-1.636.332Z" transform="translate(-1952.261 -183.398)" fill="#322210"/><path d="M2113.007,212.32c0,.138,0,1.761,2.648,2.1.624.082,1.541.223,1.541,1.092,0,.711-.475.809-1.1.809-2.323,0-4.541-.1-6.755-.1-2.321,0-4.647.094-6.955.094-.671,0-1.151-.094-1.151-.8,0-.87.726-1.011,1.284-1.1,2.956-.34,2.956-1.959,2.956-2.1V197.434c0-.434.194-.629-1.642-.629-.644,0-1.873.287-1.873-.662-.019-1.2,1.285-1.437,2.2-1.531,1.311-.136,1.311-.9,1.448-2.05.715-5.773,5.6-9.154,11.3-9.154,1.44,0,5.588.424,5.588,2.633,0,1.085-1.448,4.142-2.8,4.142-1.98,0-2.845-4.911-4.484-4.911-2.314,0-2.223,5.619-2.223,7.006,0,2.152-.243,2.239,1.5,2.239h3.529c1.009,0,.875.435.919,1.335.045,1.148-.633.96-1.647.96h-2.646c-1.7-.007-1.653-.1-1.653.329Z" transform="translate(-1961.203 -183.401)" fill="#322210"/><path d="M2137.831,208.3c-1.192,0-1.677-.152-1.677,1.2,0,4.623,3.128,9.2,8.34,9.2,3.668,0,5.206-2.475,6.371-2.475a.706.706,0,0,1,.725.71c0,.958-1.8,2.245-2.511,2.68a14.277,14.277,0,0,1-8.01,2.375c-6.8,0-12.644-4.909-12.644-11.685,0-6.825,6.518-11.071,13.126-11.071a12.5,12.5,0,0,1,7.29,2.244,6.554,6.554,0,0,1,2.99,5.014c0,1.769-1.069,1.823-2.706,1.813Zm5.463-2.053a2.169,2.169,0,0,0,1.78-2.385,2.953,2.953,0,0,0-3.133-3.011,5.607,5.607,0,0,0-3.966,1.724,6.1,6.1,0,0,0-1.337,3.2c0,.856.848.761,1.573.761a29.784,29.784,0,0,0,5.082-.285" transform="translate(-1970.356 -188.726)" fill="#322210"/><path d="M2142.025,188.25l8.412,2.424a3.2,3.2,0,0,0,2.673-.331,1.772,1.772,0,0,0,.526-2.574c-.45-.7-1.127-.954-2.381-.944l-7.3.179-1.931,1.246" transform="translate(-1974.936 -184.552)" fill="#322210"/></g></svg>