<svg xmlns="http://www.w3.org/2000/svg" width="56.691" height="54.345" viewBox="0 0 56.691 54.345">
  <g id="ICONS_6" data-name="ICONS 6" transform="translate(-2.321 -3.493)">
    <g id="Group_116" data-name="Group 116">
      <g id="Group_115" data-name="Group 115">
        <g id="Group_114" data-name="Group 114">
          <g id="Group_113" data-name="Group 113">
            <path id="Path_353" data-name="Path 353" d="M46.48,46.316a2.9,2.9,0,0,0-1.687-1.689c-1.856-.607-9.284-2.746-9.284-2.746a3.636,3.636,0,0,0-3.314.66l-2.77,2.675-.01.009a2.055,2.055,0,0,1-2.152.245,49.86,49.86,0,0,1-7.3-6.205,47.456,47.456,0,0,1-5.433-6.733,2.057,2.057,0,0,1,.282-2.148l.006-.007,2.726-2.726a3.635,3.635,0,0,0,.718-3.3s-2.01-7.464-2.584-9.331A2.9,2.9,0,0,0,14.019,13.3a4.914,4.914,0,0,0-2.063-.437h-1.3a4.641,4.641,0,0,0-2.01.431c-.225.132-4.477,2.513-5.455,5.168a14.173,14.173,0,0,0-.861,5.168,26.084,26.084,0,0,0,2.44,10.335,49.108,49.108,0,0,0,9.453,12.559A48.5,48.5,0,0,0,25.658,55.2a26.082,26.082,0,0,0,10.291,2.62,14.185,14.185,0,0,0,5.182-.771c2.671-.932,5.126-5.141,5.262-5.364a4.64,4.64,0,0,0,.466-2l.023-1.3A4.931,4.931,0,0,0,46.48,46.316Z" fill="#fffaf2"/>
            <g id="Group_112" data-name="Group 112">
              <g id="Group_109" data-name="Group 109">
                <path id="Path_354" data-name="Path 354" d="M56.836,33.238a2.175,2.175,0,0,1-2.094-1.593C52.2,22.491,46.836,15.7,38.8,11.47A32.936,32.936,0,0,0,27.514,7.836,2.175,2.175,0,1,1,27.873,3.5,37.072,37.072,0,0,1,40.829,7.622a35.741,35.741,0,0,1,10.337,8.121,37.368,37.368,0,0,1,7.766,14.738,2.176,2.176,0,0,1-1.513,2.678A2.212,2.212,0,0,1,56.836,33.238Z" fill="#fffaf2"/>
              </g>
              <g id="Group_110" data-name="Group 110">
                <path id="Path_355" data-name="Path 355" d="M47.557,33.818a2.175,2.175,0,0,1-2.094-1.593A20.127,20.127,0,0,0,35.225,19.258,21.073,21.073,0,0,0,28,16.923a2.175,2.175,0,1,1,.359-4.335,25.439,25.439,0,0,1,8.9,2.822,24.492,24.492,0,0,1,7.084,5.566,25.589,25.589,0,0,1,5.318,10.085,2.176,2.176,0,0,1-1.513,2.678A2.231,2.231,0,0,1,47.557,33.818Z" fill="#fffaf2"/>
              </g>
              <g id="Group_111" data-name="Group 111">
                <path id="Path_356" data-name="Path 356" d="M38.809,34.845a2.175,2.175,0,0,1-2.094-1.593,10.8,10.8,0,0,0-9.007-7.932,2.175,2.175,0,0,1,.359-4.335,15.145,15.145,0,0,1,5.377,1.7A14.788,14.788,0,0,1,40.9,32.087a2.177,2.177,0,0,1-2.1,2.758Z" fill="#fffaf2"/>
              </g>
            </g>
          </g>
        </g>
      </g>
    </g>
  </g>
</svg>
