<svg xmlns="http://www.w3.org/2000/svg" xmlns:xlink="http://www.w3.org/1999/xlink" width="53.286" height="53.286" viewBox="0 0 53.286 53.286">
  <defs>
    <clipPath id="clip-path">
      <circle id="Ellipse_2" data-name="Ellipse 2" cx="26.143" cy="26.143" r="26.143" transform="translate(4.523 4.524)" stroke="#fffaf1" stroke-width="1"/>
    </clipPath>
  </defs>
  <g id="Group_124" data-name="Group 124" transform="translate(-346.703 -294.704)">
    <g id="ICONS_1" data-name="ICONS 1" transform="translate(342.68 290.68)">
      <path id="Path_363" data-name="Path 363" d="M26.143,0A26.143,26.143,0,1,1,0,26.143,26.143,26.143,0,0,1,26.143,0Z" transform="translate(4.523 4.524)" fill="#fffaf1" stroke="#fffaf1" stroke-width="1"/>
      <g id="Group_3" data-name="Group 3">
        <g id="Group_2" data-name="Group 2" clip-path="url(#clip-path)">
          <path id="Path_2" data-name="Path 2" d="M54.09,64.76c-.968-5.957-3.153-20.414-3.153-20.414-1.349-2.93-9.6-5.464-9.6-5.464-3.088-1.385-4.035-2.392-4.317-2.811a4.668,4.668,0,0,1-.531-2.284,17.11,17.11,0,0,0,2.362-4.464l-.02.1a8.825,8.825,0,0,0,1.649-3.195c.795-2.182.272-3-.1-3.288.56-2.213,1.111-6.291-1.38-9.027A13.03,13.03,0,0,0,36.68,11.44a33.792,33.792,0,0,0-3.386-1.588s-.437.961-.532.8c0,0-.672-.171-2.175-1.762a4.088,4.088,0,0,0-1.764.817l-.746-.29-.291.579-1.193-.579a11.6,11.6,0,0,1-2.1.981,9.488,9.488,0,0,0-5.486,5.843s-.8,1.878.15,7.291c-1.881-.577-.383,3.246-.383,3.246.02,2.01.859,1.912,1.072,1.855a16.483,16.483,0,0,0,2.287,4.856,4.548,4.548,0,0,1-.939,3.161c-1.9,2.143-8.989,4.136-8.989,4.136a8.572,8.572,0,0,0-3.7,2.44C6.43,46.224,5.346,60.8,4.786,64.76Z" fill="#178072" stroke="#fffaf1" stroke-width="1" fill-rule="evenodd"/>
        </g>
      </g>
    </g>
  </g>
</svg>
