<svg id="Group_148" data-name="Group 148" xmlns="http://www.w3.org/2000/svg" width="58.946" height="60.245" viewBox="0 0 58.946 60.245">
  <g id="Group_136" data-name="Group 136">
    <g id="Group_132" data-name="Group 132" transform="translate(0 25.997)">
      <g id="Group_131" data-name="Group 131">
        <g id="Group_130" data-name="Group 130">
          <g id="Group_128" data-name="Group 128" transform="translate(4.812)">
            <path id="Path_563" data-name="Path 563" d="M67.857,18.264a5.415,5.415,0,0,0-3.308-1.057,7.187,7.187,0,0,0-1.626.2c.008-.436.017.047.017-.4v-.763H16.424v.763c0,11.182,3.7,18.939,10.716,24.2v.211c0,1.266,1.03,3.211,2.292,3.211H49.687c1.263,0,2.292-1.946,2.292-3.211v-.031a24.4,24.4,0,0,0,6.247-6.727,5.814,5.814,0,0,0,1.238.13c2.773,0,5.848-1.785,8.018-4.657C70.763,25.8,70.924,20.584,67.857,18.264ZM65.281,28.477c-1.574,2.082-3.747,3.453-5.6,3.552a33.641,33.641,0,0,0,3.061-11.7,5.064,5.064,0,0,1,1.8-.372,2.678,2.678,0,0,1,1.643.5C67.968,21.808,67.549,25.477,65.281,28.477Z" transform="translate(-16.424 -16.246)" fill="#178072"/>
          </g>
          <g id="Group_129" data-name="Group 129" transform="translate(0 29.58)">
            <path id="Path_564" data-name="Path 564" d="M14.69,26.9a5.117,5.117,0,0,0,5.1,4.668H68.537a5.119,5.119,0,0,0,5.1-4.668Z" transform="translate(-14.69 -26.904)" fill="#178072"/>
          </g>
        </g>
      </g>
    </g>
    <g id="Group_135" data-name="Group 135" transform="translate(23.811)">
      <g id="Group_133" data-name="Group 133" transform="translate(5.655)">
        <path id="Path_565" data-name="Path 565" d="M29.826,20.228c-3.847-6.12-1.815-10.827.044-13.349-3.1,2.684-6.583,7.269-3.131,12.658,1.657,2.589,2.237,5.043,1.721,7.288a7.512,7.512,0,0,1-1.565,3.114,9.425,9.425,0,0,0,3.866-4.668A5.974,5.974,0,0,0,29.826,20.228Z" transform="translate(-25.307 -6.879)" fill="#178072"/>
      </g>
      <g id="Group_134" data-name="Group 134" transform="translate(0 5.59)">
        <path id="Path_566" data-name="Path 566" d="M27.37,19.356c-3.616-4.413-2.492-8.3-1.282-10.463-2.165,2.409-4.441,6.344-1.2,10.227a7.5,7.5,0,0,1,2.068,5.54,5.954,5.954,0,0,1-.919,2.595A7.434,7.434,0,0,0,28.6,23.217,4.715,4.715,0,0,0,27.37,19.356Z" transform="translate(-23.269 -8.893)" fill="#178072"/>
      </g>
    </g>
  </g>
  <g id="Group_147" data-name="Group 147" transform="translate(16.763 34.112)">
    <g id="Group_146" data-name="Group 146">
      <g id="Group_145" data-name="Group 145">
        <g id="Group_144" data-name="Group 144">
          <g id="Group_143" data-name="Group 143">
            <g id="Group_142" data-name="Group 142">
              <g id="Group_141" data-name="Group 141">
                <g id="Group_140" data-name="Group 140">
                  <g id="Group_139" data-name="Group 139">
                    <g id="Group_138" data-name="Group 138">
                      <g id="Group_137" data-name="Group 137">
                        <path id="Path_567" data-name="Path 567" d="M22.62,19.6c.089-.208.094-.322.352-.322.211,0,.205.078.28.253l1.318,3.075a1.928,1.928,0,0,0,.158.322.3.3,0,0,0,.264.153c.108.008.23-.011.23.133,0,.125-.128.133-.216.133-.269,0-.525-.025-.78-.025-.322,0-.627.025-.935.025-.089,0-.205-.011-.205-.133,0-.216.447-.039.447-.266a.7.7,0,0,0-.064-.239l-.205-.513c-.08-.222-.064-.208-.294-.208h-.838c-.225,0-.205-.014-.283.189a1.981,1.981,0,0,0-.142.575c0,.447.636.178.636.461,0,.114-.119.133-.211.133-.2,0-.4-.011-.6-.014s-.4.014-.6.014c-.094,0-.2-.019-.2-.133s.1-.119.18-.133c.186-.031.25-.044.344-.214.083-.153.2-.483.269-.658l.35-.871Zm-.48,1.846a.829.829,0,0,0-.058.183c0,.089.136.064.191.064h.558c.044,0,.211.025.211-.05a.946.946,0,0,0-.058-.158l-.422-1.08Z" transform="translate(-20.73 -18.973)" fill="#fffaf1"/>
                        <path id="Path_568" data-name="Path 568" d="M23.82,20.2c.108,0,.377-.48.9-.48a.5.5,0,1,1,.011.994c-.408,0-.452-.366-.647-.366-.319,0-.269.658-.269.855v.627a1.9,1.9,0,0,0,.025.505c.033.094.23.089.344.108.072.014.153.053.153.133,0,.108-.114.122-.2.122-.269,0-.538-.011-.8-.011s-.525.011-.794.011c-.083,0-.191-.014-.191-.122,0-.083.078-.119.153-.133s.289-.019.319-.108a1.915,1.915,0,0,0,.044-.508V20.9c0-.266.019-.411-.28-.45-.089-.006-.192,0-.192-.108s.205-.133.275-.15a1.87,1.87,0,0,0,.824-.43.276.276,0,0,1,.23-.114c.1,0,.089.164.089.228V20.2Z" transform="translate(-17.85 -18.328)" fill="#fffaf1"/>
                        <path id="Path_569" data-name="Path 569" d="M24.8,21.828c0,.236-.025.855.314.855.211,0,.352-.183.45-.183a.08.08,0,0,1,.075.089c0,.083-.128.208-.18.261a1.265,1.265,0,0,1-.833.322.77.77,0,0,1-.588-.264,1.19,1.19,0,0,1-.186-.7V20.885a1.722,1.722,0,0,0-.019-.266c-.011-.064-.089-.08-.153-.08-.083,0-.289.031-.289-.072s.136-.144.205-.169a1.655,1.655,0,0,0,.849-.688c.044-.08.108-.208.216-.208.136,0,.111.144.111.233v.436c0,.178.036.169.205.169h.333c.136,0,.23-.031.23.128,0,.175-.047.169-.216.169h-.314c-.211,0-.211-.006-.211.244v1.049Z" transform="translate(-16.004 -18.762)" fill="#fffaf1"/>
                        <path id="Path_570" data-name="Path 570" d="M26.008,19.9a.766.766,0,0,0-.513.278,1.206,1.206,0,0,0-.275.785,1.232,1.232,0,0,0,1.171,1.291c.466,0,.608-.233.727-.233a.083.083,0,0,1,.078.078c0,.147-.186.258-.286.327a1.9,1.9,0,0,1-.98.261,1.558,1.558,0,0,1-1.707-1.518c0-.969,1.055-1.5,1.943-1.5a1.705,1.705,0,0,1,.78.172.257.257,0,0,1,.183.266c0,.153-.058.577-.266.577s-.3-.216-.386-.352c-.114-.2-.208-.433-.469-.433" transform="translate(-14.529 -18.277)" fill="#fffaf1"/>
                        <path id="Path_571" data-name="Path 571" d="M28.1,21.757c0,.094-.031.391.147.391a.269.269,0,0,0,.161-.061c.039-.019.1-.078.153-.078a.088.088,0,0,1,.083.089c0,.089-.1.189-.167.241a1.124,1.124,0,0,1-.7.291.454.454,0,0,1-.472-.3c-.014-.017-.05-.147-.108-.147a1.96,1.96,0,0,1-1.1.508.619.619,0,0,1-.666-.622.708.708,0,0,1,.344-.613,2.972,2.972,0,0,1,.735-.341,2.028,2.028,0,0,0,.608-.291c.044-.039.069-.044.069-.061v-.208c0-.216.044-.658-.289-.658-.23,0-.375.208-.461.4-.064.153-.1.241-.275.311a1.376,1.376,0,0,1-.525.139c-.1,0-.2-.039-.2-.144,0-.2.28-.488.436-.588a2.089,2.089,0,0,1,1.2-.336,1.723,1.723,0,0,1,.819.178.537.537,0,0,1,.216.53v1.377Zm-.921-.419c0-.019.014-.266-.069-.266a2.664,2.664,0,0,0-.461.247.57.57,0,0,0-.339.48.343.343,0,0,0,.344.366.594.594,0,0,0,.461-.239.657.657,0,0,0,.061-.283v-.305Z" transform="translate(-12.405 -18.277)" fill="#fffaf1"/>
                        <path id="Path_572" data-name="Path 572" d="M28.136,23c0,.019,0,.233.352.28.083.011.205.031.205.147,0,.094-.064.105-.147.105-.305,0-.6-.011-.9-.011s-.613.011-.919.011c-.089,0-.153-.011-.153-.108,0-.114.1-.133.172-.144.391-.044.391-.261.391-.28V21.029c0-.058.025-.08-.216-.08-.083,0-.25.036-.25-.089,0-.161.172-.191.294-.2.172-.019.172-.122.191-.272a1.416,1.416,0,0,1,1.5-1.213c.191,0,.741.056.741.347,0,.144-.191.55-.372.55-.261,0-.377-.652-.594-.652-.308,0-.294.747-.294.93,0,.286-.033.3.2.3H28.8c.133,0,.117.056.122.178.006.153-.083.128-.219.128h-.352c-.222,0-.216-.011-.216.044V23Z" transform="translate(-10.346 -19.166)" fill="#fffaf1"/>
                        <path id="Path_573" data-name="Path 573" d="M28.98,23.006c0,.019,0,.233.35.28.083.011.205.031.205.144,0,.094-.064.108-.144.108-.308,0-.6-.014-.9-.014s-.616.011-.921.011c-.089,0-.153-.011-.153-.105,0-.117.1-.133.169-.147.391-.044.391-.261.391-.28V21.029c0-.058.025-.083-.216-.083-.086,0-.247.039-.247-.089,0-.158.169-.191.291-.2.175-.019.175-.119.191-.272a1.413,1.413,0,0,1,1.5-1.213c.191,0,.741.056.741.35,0,.144-.192.55-.372.55-.264,0-.377-.652-.594-.652-.308,0-.294.744-.294.93,0,.286-.033.3.2.3h.469c.133,0,.117.058.122.178.006.153-.083.128-.219.128H29.2c-.225,0-.219-.014-.219.044Z" transform="translate(-8.853 -19.17)" fill="#fffaf1"/>
                        <path id="Path_574" data-name="Path 574" d="M29.529,20.876c-.158,0-.222-.019-.222.158a1.149,1.149,0,0,0,1.1,1.218c.486,0,.691-.327.844-.327a.094.094,0,0,1,.1.094c0,.128-.239.3-.333.355a1.9,1.9,0,0,1-1.063.314,1.52,1.52,0,1,1,.064-3.017,1.668,1.668,0,0,1,.966.3.866.866,0,0,1,.4.663c0,.236-.142.241-.358.241h-1.5Zm.724-.272a.287.287,0,0,0,.236-.316.392.392,0,0,0-.416-.4.742.742,0,0,0-.525.228.8.8,0,0,0-.178.425c0,.114.114.1.208.1a3.6,3.6,0,0,0,.674-.036" transform="translate(-7.326 -18.281)" fill="#fffaf1"/>
                        <path id="Path_575" data-name="Path 575" d="M28.712,19.468l1.116.322a.424.424,0,0,0,.355-.044.234.234,0,0,0,.069-.341c-.058-.094-.15-.128-.316-.125l-.969.025-.255.164" transform="translate(-6.559 -18.977)" fill="#fffaf1"/>
                      </g>
                    </g>
                  </g>
                </g>
              </g>
            </g>
          </g>
        </g>
      </g>
    </g>
  </g>
</svg>
