<svg width="55" height="43" xmlns="http://www.w3.org/2000/svg" xmlns:xlink="http://www.w3.org/1999/xlink" overflow="hidden"><defs><clipPath id="clip0"><rect x="705" y="336" width="55" height="43"/></clipPath></defs><g clip-path="url(#clip0)" transform="translate(-705 -336)"><path d="M758.415 354.543 758.415 354.543 758.415 355.106C758.415 356.231 757.217 357.357 756.02 357.357 753.625 357.357 753.625 357.357 753.625 357.357 748.75 376.731 748.75 376.731 748.75 376.731 748.151 377.857 747.553 378.42 746.355 378.42 745.757 378.42 745.757 378.42 745.757 378.42 745.158 378.42 745.158 378.42 745.158 378.42 718.559 378.42 718.559 378.42 718.559 378.42 717.362 378.42 716.763 377.857 716.165 376.731 711.29 357.357 711.29 357.357 711.29 357.357 708.895 357.357 708.895 357.357 708.895 357.357 707.697 357.357 706.5 356.231 706.5 355.106 706.5 353.418 707.697 352.855 708.895 352.855 718.559 352.855 718.559 352.855 718.559 352.855 726.428 352.855 726.428 352.855 726.428 352.855 736.691 352.855 736.691 352.855 736.691 352.855 742.763 352.855 742.763 352.855 742.763 352.855 746.355 352.855 746.355 352.855 746.355 352.855 756.02 352.855 756.02 352.855 756.02 352.855 757.217 352.855 757.816 353.418 758.415 354.543ZM725.23 359.688 725.23 359.688C725.23 357.92 724.033 357.357 722.75 357.357 721.553 357.357 720.355 357.92 720.355 359.688 720.355 371.586 720.355 371.586 720.355 371.586 720.355 372.712 721.553 373.837 722.75 373.837 724.033 373.837 725.23 372.712 725.23 371.586L725.23 359.688ZM734.895 359.688 734.895 359.688C734.895 357.92 733.697 357.357 732.5 357.357 731.303 357.357 730.02 357.92 730.02 359.688 730.02 371.586 730.02 371.586 730.02 371.586 730.02 372.712 731.303 373.837 732.5 373.837 733.697 373.837 734.895 372.712 734.895 371.586L734.895 359.688ZM744.559 359.688 744.559 359.688C744.559 357.92 743.362 357.357 742.165 357.357 740.967 357.357 739.684 357.92 739.684 359.688 739.684 371.586 739.684 371.586 739.684 371.586 739.684 372.712 740.967 373.837 742.165 373.837 743.362 373.837 744.559 372.712 744.559 371.586L744.559 359.688ZM735.493 340.877 735.493 340.877C734.895 340.314 734.895 340.314 734.895 339.751 734.895 338.626 736.092 337.5 737.29 337.5 738.487 337.5 739.086 338.063 739.684 338.626 745.757 350.604 745.757 350.604 745.757 350.604 740.283 350.604 740.283 350.604 740.283 350.604L735.493 340.877ZM729.421 340.877 729.421 340.877C724.632 350.604 724.632 350.604 724.632 350.604 719.158 350.604 719.158 350.604 719.158 350.604 725.23 338.626 725.23 338.626 725.23 338.626 725.829 338.063 726.428 337.5 727.625 337.5 728.822 337.5 730.02 338.626 730.02 339.751 730.02 340.314 730.02 340.314 729.421 340.877Z" stroke="#FFFFFF" stroke-width="1.33333" stroke-linejoin="round" stroke-miterlimit="10" fill="#FFFFFF" fill-rule="evenodd"/></g></svg>