<svg id="Group_206" data-name="Group 206" xmlns="http://www.w3.org/2000/svg" width="57.186" height="73.139" viewBox="0 0 57.186 73.139">
  <g id="Group_190" data-name="Group 190">
    <g id="Group_185" data-name="Group 185" transform="translate(19.816 3.777)">
      <path id="Path_838" data-name="Path 838" d="M65.406,12.944v4.121h1.585V12.944a9.212,9.212,0,0,1,3.258-7.027,8.59,8.59,0,0,0-2.92.885A10.751,10.751,0,0,0,65.406,12.944Z" transform="translate(-65.406 -5.917)" fill="#223f0f"/>
    </g>
    <g id="Group_186" data-name="Group 186" transform="translate(26.074)">
      <path id="Path_839" data-name="Path 839" d="M72.207,6.141a9.232,9.232,0,0,1,9.223,9.22v4.121h1.582V15.36a10.8,10.8,0,0,0-15.35-9.8,11.266,11.266,0,0,1,3.405.649A9.681,9.681,0,0,1,72.207,6.141Z" transform="translate(-67.661 -4.556)" fill="#223f0f"/>
    </g>
    <g id="Group_187" data-name="Group 187" transform="translate(44.641 14.468)">
      <path id="Path_840" data-name="Path 840" d="M77.4,9.769l-3.053.946L79.18,68.237,86.9,63.461Z" transform="translate(-74.351 -9.769)" fill="#223f0f"/>
    </g>
    <g id="Group_188" data-name="Group 188" transform="translate(0 15.495)">
      <path id="Path_841" data-name="Path 841" d="M102.341,10.139H95.306V11.6a2.151,2.151,0,1,1-2.723.017V10.139h-17.3v1.407a2.153,2.153,0,1,1-2.723.128V10.139h-10.2L58.266,67.783h48.918l-4.843-57.644Z" transform="translate(-58.266 -10.139)" fill="#223f0f"/>
    </g>
    <g id="Group_189" data-name="Group 189" transform="translate(14.859 1.565)">
      <path id="Path_842" data-name="Path 842" d="M65.2,20.154v-4.23a9.227,9.227,0,0,1,4.912-8.148c.183-.1.369-.186.561-.272s.369-.161.561-.23a9.139,9.139,0,0,1,3-.563c.061,0,.122-.006.183-.006.114,0,.225.006.339.008q.258.008.516.033a9.233,9.233,0,0,1,8.368,9.181v6.117h1.585v-6.12A10.82,10.82,0,0,0,78.18,5.794c-.186-.069-.375-.133-.566-.194s-.38-.111-.572-.158A10.821,10.821,0,0,0,74.43,5.12c-.228,0-.452.008-.677.022-.205.014-.408.031-.608.056s-.411.056-.613.092A10.824,10.824,0,0,0,63.62,15.924v6.117H65.2Z" transform="translate(-63.62 -5.12)" fill="#223f0f"/>
    </g>
  </g>
  <g id="Group_205" data-name="Group 205" transform="translate(11.92 32.175)">
    <g id="Group_204" data-name="Group 204">
      <g id="Group_203" data-name="Group 203">
        <g id="Group_201" data-name="Group 201">
          <g id="Group_200" data-name="Group 200">
            <g id="Group_199" data-name="Group 199">
              <g id="Group_198" data-name="Group 198">
                <g id="Group_197" data-name="Group 197">
                  <g id="Group_195" data-name="Group 195" transform="translate(0 1.798)">
                    <g id="Group_194" data-name="Group 194">
                      <g id="Group_193" data-name="Group 193">
                        <g id="Group_192" data-name="Group 192">
                          <g id="Group_191" data-name="Group 191">
                            <path id="Path_843" data-name="Path 843" d="M64.584,17.263c.1-.225.1-.347.38-.347.225,0,.219.083.3.272l1.418,3.305a2.126,2.126,0,0,0,.172.347A.322.322,0,0,0,67.14,21c.117.008.247-.014.247.142,0,.136-.136.142-.233.142-.289,0-.563-.028-.838-.028-.344,0-.674.028-1,.028-.1,0-.219-.014-.219-.142,0-.233.48-.042.48-.286A.753.753,0,0,0,65.5,20.6l-.219-.552c-.089-.239-.069-.225-.316-.225h-.9c-.241,0-.222-.014-.3.2a2.087,2.087,0,0,0-.153.619c0,.48.683.192.683.5,0,.122-.13.142-.228.142-.214,0-.433-.014-.647-.014s-.433.014-.647.014c-.1,0-.214-.019-.214-.142s.105-.13.194-.142c.2-.033.269-.047.372-.23.089-.164.214-.519.289-.708l.377-.938Zm-.516,1.984a.955.955,0,0,0-.061.2c0,.094.144.067.205.067h.6c.047,0,.228.028.228-.053a.8.8,0,0,0-.064-.169l-.452-1.163Z" transform="translate(-62.561 -16.586)" fill="#fffaf1"/>
                            <path id="Path_844" data-name="Path 844" d="M65.879,17.9c.117,0,.405-.516.969-.516a.536.536,0,1,1,.014,1.069c-.439,0-.488-.394-.694-.394-.344,0-.289.708-.289.919v.672a2.077,2.077,0,0,0,.025.544c.036.1.247.1.372.117.078.014.164.056.164.142,0,.117-.122.13-.211.13-.289,0-.577-.014-.866-.014s-.566.014-.852.014c-.089,0-.208-.014-.208-.13,0-.089.083-.128.164-.142.1-.014.311-.019.344-.117a2.07,2.07,0,0,0,.047-.544v-1c0-.286.022-.441-.3-.483-.1-.006-.205,0-.205-.114s.219-.144.294-.161a1.987,1.987,0,0,0,.885-.463.3.3,0,0,1,.247-.122c.111,0,.1.175.1.247V17.9Z" transform="translate(-59.468 -15.892)" fill="#fffaf1"/>
                            <path id="Path_845" data-name="Path 845" d="M66.934,19.655c0,.253-.028.919.336.919.228,0,.38-.2.483-.2a.086.086,0,0,1,.08.094c0,.089-.136.225-.192.28a1.364,1.364,0,0,1-.894.347.825.825,0,0,1-.633-.283,1.279,1.279,0,0,1-.2-.755V18.639a2.43,2.43,0,0,0-.019-.286c-.014-.067-.1-.086-.164-.086-.089,0-.311.033-.311-.078s.144-.155.222-.183a1.8,1.8,0,0,0,.913-.738c.047-.089.117-.225.233-.225.147,0,.119.155.119.25v.469c0,.191.042.183.219.183h.358c.147,0,.247-.033.247.139,0,.189-.05.183-.233.183h-.339c-.225,0-.225-.006-.225.264v1.124Z" transform="translate(-57.483 -16.36)" fill="#fffaf1"/>
                            <path id="Path_846" data-name="Path 846" d="M68.231,17.587a.829.829,0,0,0-.552.3,1.3,1.3,0,0,0-.294.844,1.323,1.323,0,0,0,1.257,1.388c.5,0,.652-.253.783-.253a.087.087,0,0,1,.083.083c0,.155-.2.278-.308.352a2.04,2.04,0,0,1-1.052.28,1.676,1.676,0,0,1-1.835-1.632c0-1.041,1.132-1.61,2.09-1.61a1.886,1.886,0,0,1,.838.183.275.275,0,0,1,.2.286c0,.164-.061.619-.286.619s-.322-.233-.414-.38c-.125-.208-.228-.458-.508-.458" transform="translate(-55.9 -15.838)" fill="#fffaf1"/>
                            <path id="Path_847" data-name="Path 847" d="M70.477,19.583c0,.1-.033.419.158.419a.283.283,0,0,0,.172-.067c.042-.022.111-.083.167-.083a.094.094,0,0,1,.089.094c0,.1-.108.205-.178.258a1.2,1.2,0,0,1-.758.314.489.489,0,0,1-.508-.327c-.014-.019-.055-.158-.117-.158a2.113,2.113,0,0,1-1.188.544.666.666,0,0,1-.716-.666.762.762,0,0,1,.369-.661,3.17,3.17,0,0,1,.791-.366,2.157,2.157,0,0,0,.652-.311c.047-.042.075-.047.075-.067v-.225c0-.23.047-.708-.311-.708-.247,0-.4.222-.494.427a.465.465,0,0,1-.3.333,1.478,1.478,0,0,1-.563.15c-.1,0-.214-.042-.214-.155,0-.219.3-.525.469-.633a2.26,2.26,0,0,1,1.285-.361,1.838,1.838,0,0,1,.88.192.582.582,0,0,1,.233.572v1.485Zm-.991-.452c0-.019.014-.286-.075-.286a2.772,2.772,0,0,0-.494.266.612.612,0,0,0-.364.516.369.369,0,0,0,.372.394.633.633,0,0,0,.5-.258.709.709,0,0,0,.067-.305v-.327Z" transform="translate(-53.617 -15.842)" fill="#fffaf1"/>
                            <path id="Path_848" data-name="Path 848" d="M70.523,20.918c0,.019,0,.253.377.3.089.014.219.033.219.155,0,.1-.069.114-.158.114-.327,0-.647-.014-.963-.014s-.661.014-.988.014c-.1,0-.167-.014-.167-.117,0-.122.1-.142.186-.155.419-.047.419-.28.419-.3V18.8c0-.061.028-.089-.233-.089-.092,0-.269.039-.269-.094,0-.172.186-.205.316-.219.186-.022.186-.13.205-.291a1.521,1.521,0,0,1,1.61-1.3c.205,0,.8.061.8.375,0,.155-.205.591-.4.591-.28,0-.405-.7-.638-.7-.333,0-.316.8-.316,1,0,.305-.033.319.214.319h.5c.144,0,.125.061.13.192.006.164-.089.136-.233.136h-.377c-.239,0-.233-.014-.233.047v2.162Z" transform="translate(-51.406 -16.797)" fill="#fffaf1"/>
                            <path id="Path_849" data-name="Path 849" d="M71.425,20.915c0,.019,0,.25.377.3.089.011.219.031.219.155,0,.1-.067.117-.155.117-.33,0-.647-.014-.963-.014s-.663.014-.991.014c-.094,0-.164-.014-.164-.114,0-.125.1-.144.183-.155.422-.047.422-.28.422-.3V18.8c0-.061.028-.089-.233-.089-.092,0-.266.042-.266-.094,0-.172.183-.205.314-.219.186-.019.186-.128.205-.291a1.522,1.522,0,0,1,1.61-1.3c.205,0,.8.061.8.375,0,.155-.205.591-.4.591-.283,0-.405-.7-.638-.7-.33,0-.316.8-.316,1,0,.305-.033.319.214.319h.5c.144,0,.125.061.13.192.006.164-.092.136-.236.136h-.377c-.241,0-.236-.014-.236.047Z" transform="translate(-49.8 -16.793)" fill="#fffaf1"/>
                            <path id="Path_850" data-name="Path 850" d="M72.015,18.629c-.169,0-.239-.022-.239.169a1.238,1.238,0,0,0,1.188,1.31c.522,0,.741-.352.908-.352a.1.1,0,0,1,.1.1c0,.136-.255.319-.358.383a2.031,2.031,0,0,1-1.141.339,1.724,1.724,0,0,1-1.8-1.665,1.731,1.731,0,0,1,1.871-1.576,1.778,1.778,0,0,1,1.038.319.932.932,0,0,1,.425.713c0,.253-.153.261-.386.258H72.015Zm.777-.291A.306.306,0,0,0,73.045,18a.421.421,0,0,0-.447-.43.815.815,0,0,0-.566.244.875.875,0,0,0-.191.455c0,.122.122.108.225.108a3.9,3.9,0,0,0,.727-.039" transform="translate(-48.156 -15.84)" fill="#fffaf1"/>
                            <path id="Path_851" data-name="Path 851" d="M71.138,17.117l1.2.344a.46.46,0,0,0,.38-.047.253.253,0,0,0,.075-.366c-.064-.1-.161-.136-.339-.133l-1.041.025-.275.178" transform="translate(-47.334 -16.589)" fill="#fffaf1"/>
                          </g>
                        </g>
                      </g>
                    </g>
                  </g>
                  <g id="Group_196" data-name="Group 196" transform="translate(3.83)">
                    <path id="Path_852" data-name="Path 852" d="M64.282,17.843V16.425h-.341v-.233h.935v.233h-.341v1.418Z" transform="translate(-63.941 -16.073)" fill="#fffaf1"/>
                    <path id="Path_853" data-name="Path 853" d="M64.35,17.92V16.149h.241v.733a.588.588,0,0,1-.008.092.431.431,0,0,1,.355-.194c.253,0,.427.178.427.5v.644h-.241v-.636c0-.2-.108-.3-.255-.3a.3.3,0,0,0-.278.3v.633H64.35Z" transform="translate(-63.215 -16.149)" fill="#fffaf1"/>
                    <path id="Path_854" data-name="Path 854" d="M64.8,16.956a.546.546,0,0,1,.547-.58.51.51,0,0,1,.516.58v.061h-.819a.32.32,0,0,0,.327.316.362.362,0,0,0,.314-.164l.167.128a.539.539,0,0,1-.488.241A.553.553,0,0,1,64.8,16.956Zm.25-.1h.572a.278.278,0,0,0-.275-.272A.3.3,0,0,0,65.052,16.853Z" transform="translate(-62.412 -15.746)" fill="#fffaf1"/>
                  </g>
                </g>
              </g>
            </g>
          </g>
        </g>
        <g id="Group_202" data-name="Group 202" transform="translate(2.113 7.316)">
          <path id="Path_855" data-name="Path 855" d="M63.435,18.924c-.031,0-.022-.13.008-.13.558.017,1.285,0,1.485,0,.078,0,.108-.008.139.061.45,1.021,1.03,2.506,1.424,3.541h.017c.425-1.168.952-2.559,1.252-3.572.022-.022.086-.039.38-.039.278,0,.858.008,1.177.022.031,0,.022.125-.008.125-.525.008-.6.022-.619.047a5.833,5.833,0,0,0-.031,1.277c0,.96.008,1.818.017,2.373s.031.641.069.672.194.047.6.061c.031,0,.031.139-.008.139-.078,0-.541-.008-1.113-.008-.194,0-.835.008-1.021.008-.031,0-.039-.13-.008-.13.494-.031.588-.047.619-.078s.055-.125.055-.641c0-.433.008-3.3,0-3.464h-.022c-.472,1.36-1.2,3.217-1.571,4.346-.008.022-.022.031-.092.031s-.078-.008-.092-.031c-.164-.541-1.191-3.169-1.71-4.293h-.022c-.008,1.446,0,2.939,0,3.342,0,.48.039.633.086.68s.155.061.649.108c.022,0,.022.13,0,.13-.225-.008-1.532-.022-1.748-.022-.039,0-.031-.13-.008-.13.511-.022.6-.047.658-.108a.918.918,0,0,0,.155-.611c.022-1.321.039-2.553.039-3.364,0-.169,0-.225-.031-.247S64.06,18.971,63.435,18.924Z" transform="translate(-63.322 -18.785)" fill="#fffaf1"/>
          <path id="Path_856" data-name="Path 856" d="M66.329,19.731c0,.086.3.108.3.411a.381.381,0,0,1-.4.38.389.389,0,0,1-.4-.394.529.529,0,0,1,.186-.4,1.363,1.363,0,0,1,.974-.372,1.274,1.274,0,0,1,.974.347,1.015,1.015,0,0,1,.272.8c0,.386-.022,1.06-.022,1.585,0,.186.053.255.186.255.169,0,.325-.169.4-.558.017-.022.117-.008.117.022-.069.433-.308.758-.719.758a.676.676,0,0,1-.71-.519,1.327,1.327,0,0,1-.966.511.864.864,0,0,1-.927-.774.7.7,0,0,1,.233-.527,2.519,2.519,0,0,1,1.7-.525c.008-.1,0-.325,0-.541,0-.294-.039-.441-.139-.541a.667.667,0,0,0-.472-.147A.684.684,0,0,0,66.329,19.731Zm-.014,2.009c0,.377.125.588.4.588a1.032,1.032,0,0,0,.744-.455c.031-.053.039-.1.047-.341.008-.225.008-.308.017-.666C66.507,20.953,66.316,21.116,66.316,21.741Z" transform="translate(-59.289 -17.775)" fill="#fffaf1"/>
          <path id="Path_857" data-name="Path 857" d="M67.424,22.306a2.362,2.362,0,0,0,.047-.48c0-.278,0-1.013-.008-1.354a2.45,2.45,0,0,0-.069-.844c-.031-.031-.092-.031-.519-.039-.031,0-.031-.139.008-.139.308,0,.982-.022,1.152-.022.108,0,.125.017.125.117-.008.194-.017.588-.017.874h.017c.247-.58.527-1.06.974-1.06a.588.588,0,0,1,.658.55.474.474,0,0,1-.45.5.353.353,0,0,1-.386-.355c0-.264.208-.364.208-.425,0-.031-.039-.061-.13-.061-.239,0-.488.308-.672.7a1.564,1.564,0,0,0-.2.758v.7a1.628,1.628,0,0,0,.055.572,2.419,2.419,0,0,0,.594.039c.039,0,.039.147.008.147H66.841c-.022,0-.031-.139,0-.139C67.338,22.337,67.4,22.329,67.424,22.306Z" transform="translate(-57.111 -17.766)" fill="#fffaf1"/>
          <path id="Path_858" data-name="Path 858" d="M69.118,18.8c.031,0,.047.031.047.061-.017,1.246-.022,2.537-.031,3.627h.008c.433-.45.758-.78,1.069-1.138.155-.164.225-.264.225-.364,0-.147-.1-.164-.533-.186-.039,0-.031-.13,0-.13.225.008.425.008.766.008.311,0,.541-.008.9-.008.031,0,.039.125,0,.125a1.348,1.348,0,0,0-.563.1,4.471,4.471,0,0,0-.913.8c.278.472.55.952.874,1.468a1.629,1.629,0,0,0,.233.311c.086.078.155.1.494.1.031,0,.039.13,0,.13-.588.017-1.138-.008-1.671,0-.017,0-.022-.13.008-.13.239-.008.308-.017.333-.039s.017-.069-.022-.13c-.2-.355-.563-.966-.71-1.213-.086.086-.411.425-.494.511,0,.169,0,.511.008.658,0,.125.008.161.031.186s.078.031.38.039c.022,0,.031.13-.008.13-.658,0-.974-.008-1.679,0-.022,0-.031-.125.008-.125.411-.022.494-.031.525-.061s.039-.1.039-.286c.017-.688.017-1.285.017-2.1,0-.666-.008-1.191-.022-1.832,0-.269-.008-.316-.031-.341s-.078-.031-.5-.039c-.047,0-.047-.13.008-.13C68.213,18.787,68.646,18.8,69.118,18.8Z" transform="translate(-55.289 -18.768)" fill="#fffaf1"/>
          <path id="Path_859" data-name="Path 859" d="M72.292,21.647a1.408,1.408,0,0,1-1.329.966,1.824,1.824,0,0,1-1.291-.527,1.5,1.5,0,0,1-.45-1.121,1.688,1.688,0,0,1,1.632-1.624,1.512,1.512,0,0,1,1.082.45,1.576,1.576,0,0,1,.411,1.069.054.054,0,0,1-.047.061c-1.252-.008-1.871.008-2.273.022a2.353,2.353,0,0,0,.169,1.013.831.831,0,0,0,.844.463,1.16,1.16,0,0,0,1.1-.835C72.178,21.556,72.3,21.611,72.292,21.647Zm-2.079-1.81a2.313,2.313,0,0,0-.186.935l1.571-.008c-.047-.9-.278-1.268-.8-1.268A.646.646,0,0,0,70.213,19.838Z" transform="translate(-52.848 -17.798)" fill="#fffaf1"/>
          <path id="Path_860" data-name="Path 860" d="M71.883,23.209a.976.976,0,0,1-.727-.269.819.819,0,0,1-.208-.649c0-.5.008-1.385.022-2-.047-.008-.463-.008-.55-.008-.039,0-.031-.147-.008-.147.463-.022.6-.061.71-.169a2.213,2.213,0,0,0,.441-.96c.008-.039.125-.039.13,0-.022.264-.022.858-.031,1.1.308.008.819.008.944.008.047,0,.031.164-.008.164-.611,0-.852.008-.935.017-.017.286-.031,1.143-.031,1.771,0,.533.017.619.061.719a.391.391,0,0,0,.355.194c.247,0,.463-.255.6-.766.008-.031.139-.008.13.031C72.649,22.884,72.333,23.209,71.883,23.209Z" transform="translate(-50.769 -18.438)" fill="#fffaf1"/>
        </g>
      </g>
    </g>
  </g>
</svg>
