<svg xmlns="http://www.w3.org/2000/svg" width="56.693" height="40.801" viewBox="0 0 56.693 40.801">
  <g id="ICONS_2" data-name="ICONS 2" transform="translate(-2.321 -10.266)">
    <g id="Group_95" data-name="Group 95">
      <g id="Group_94" data-name="Group 94">
        <path id="Path_343" data-name="Path 343" d="M31.215,15.588A16.989,16.989,0,1,0,48.2,32.577,17.009,17.009,0,0,0,31.215,15.588Z" fill="#fffaf2"/>
        <path id="Path_344" data-name="Path 344" d="M56.568,13.223h0c-.076-.1-.153-.192-.232-.287L54.4,10.6a.921.921,0,0,0-1.629.588l-.006,32.291A18.336,18.336,0,0,1,51.99,47.8a2.583,2.583,0,1,0,4.972-.022,17.073,17.073,0,0,1-.752-4.3L55.6,33.065H58a.923.923,0,0,0,.921-.913l.093-11.881A11.142,11.142,0,0,0,56.568,13.223Z" fill="#fffaf2"/>
        <path id="Path_345" data-name="Path 345" d="M12.364,22.54v-9.4a.922.922,0,0,0-1.1-.9.945.945,0,0,0-.737.939v6.308a.441.441,0,1,1-.882,0V13.175a.945.945,0,0,0-.737-.939.922.922,0,0,0-1.1.9v6.344a.44.44,0,0,1-.441.441H7.326a.441.441,0,0,1-.441-.441V13.175a.945.945,0,0,0-.737-.939.922.922,0,0,0-1.1.9v6.344a.441.441,0,0,1-.882,0V13.175a.945.945,0,0,0-.737-.939.922.922,0,0,0-1.1.9v9.4c0,2.133,1.971,4.031,3.955,4.734L5.662,43.355a16.917,16.917,0,0,1-.73,4.222,2.672,2.672,0,0,0,.3,2.2,2.59,2.59,0,0,0,2.857,1.078,2.357,2.357,0,0,0,.855-.42,2.585,2.585,0,0,0,.938-2.764,18.294,18.294,0,0,1-.773-4.318L8.494,27.242C10.428,26.514,12.364,24.628,12.364,22.54Z" fill="#fffaf2"/>
      </g>
    </g>
  </g>
</svg>
