<svg xmlns="http://www.w3.org/2000/svg" width="56.694" height="56.084" viewBox="0 0 56.694 56.084">
  <g id="ICONS_3" data-name="ICONS 3" transform="translate(-2.32 -2.624)">
    <g id="Group_103" data-name="Group 103">
      <g id="Group_102" data-name="Group 102">
        <g id="Group_101" data-name="Group 101">
          <g id="Group_100" data-name="Group 100">
            <g id="Group_96" data-name="Group 96">
              <path id="Path_346" data-name="Path 346" d="M51.223,40.589A3.5,3.5,0,0,1,50.2,38.505L48.059,22.88c-1.005-7.33-9.216-13.417-15.2-12.6-.724-3.648-1.8-5.888-4.984-5.452s-3.617,2.884-3.333,6.592a10.94,10.94,0,0,0-5.3,2.516h0l-.082.067-.019.015c-.082.068-.163.137-.244.208l-.019.017-.242.215-.017.015-.079.072-.01.009-.158.149-.008.007-.077.074-.018.017c-.078.075-.155.152-.231.229l-.02.021c-.076.077-.151.154-.226.233l-.02.021-.072.077-.007.007-.146.158-.016.017-.07.078c-.007.008-.014.015-.02.023q-.108.12-.213.243l-.024.028c-.069.081-.138.162-.206.244-.008.01-.017.02-.025.031l-.064.078c0,.006-.01.013-.016.019-.041.05-.081.1-.121.151-.008.01-.016.021-.025.031l-.061.078-.025.033c-.038.049-.076.1-.113.148-.007.009-.013.018-.02.026l-.058.078-.029.039c-.062.083-.122.166-.183.251-.01.014-.02.029-.031.043l-.054.076-.026.037-.095.138c-.01.015-.021.03-.031.046l-.051.075-.032.047c-.029.043-.057.086-.085.129l-.033.05-.048.074c-.011.017-.022.035-.034.052l-.072.114-.041.065-.045.072-.035.057-.044.072-.044.073c-.021.035-.042.07-.062.1l-.036.062-.041.071-.039.068-.061.107-.039.07c-.013.023-.026.046-.038.069l-.037.068-.045.083-.053.1-.035.066-.037.072-.034.065-.061.12-.031.062c-.013.025-.025.051-.038.077l-.032.065c-.015.031-.03.063-.046.095l-.038.08-.041.087-.029.063-.039.086-.028.063c-.018.039-.035.079-.052.118l-.026.06c-.013.029-.025.058-.037.087l-.024.057-.054.129c-.008.018-.015.037-.023.055s-.025.06-.037.091-.016.039-.023.058l-.051.13L14.166,21c-.013.034-.026.067-.038.1l-.021.057-.039.106c-.006.015-.011.03-.017.046-.016.043-.031.087-.046.13-.006.018-.013.036-.019.055l-.035.1c-.005.016-.011.032-.016.048-.015.046-.031.092-.046.138-.005.017-.011.033-.016.05l-.033.1c-.005.017-.011.034-.016.051-.015.047-.029.094-.043.14l-.012.039-.033.111-.015.052-.036.127a.281.281,0,0,0-.008.031c-.012.045-.025.091-.036.136,0,.017-.009.033-.013.05-.01.038-.02.076-.029.113,0,.013-.007.026-.01.039-.012.048-.024.1-.035.145,0,.015-.007.03-.011.045-.009.037-.017.075-.026.112,0,.015-.007.03-.01.045-.011.049-.022.1-.032.147,0,.012-.005.024-.008.036l-.024.119-.009.047c-.01.05-.019.1-.029.149l0,.015c-.009.046-.017.092-.025.138,0,.015-.005.031-.008.046l-.021.125c0,.01,0,.02-.005.029-.008.05-.016.1-.023.15l-.006.043c-.006.04-.011.08-.017.119,0,.013,0,.026-.005.039-.007.05-.013.1-.019.15,0,.012,0,.024,0,.035-.005.041-.01.082-.014.123,0,.014,0,.029-.005.043-.005.051-.011.1-.015.152,0,.006,0,.012,0,.018l-.012.137c0,.015,0,.029,0,.044,0,.045-.007.09-.01.136,0,.007,0,.013,0,.02l-.009.153c0,.014,0,.028,0,.042l-.006.124c0,.011,0,.023,0,.034,0,.051,0,.1-.005.152,0,.012,0,.024,0,.035,0,.041,0,.083,0,.124,0,.013,0,.027,0,.04,0,.051,0,.1,0,.153v.022c0,.045,0,.089,0,.134,0,.014,0,.028,0,.042l0,.144v.01l.006.154c0,.014,0,.027,0,.041,0,.043,0,.085.007.128,0,.01,0,.02,0,.03,0,.051.007.1.01.152l0,.036c0,.041.007.083.01.124l0,.038.015.152,0,.026.015.13c0,.014,0,.027.005.041.006.051.013.1.02.153l.111.807h0l2.032,14.82A3.5,3.5,0,0,1,15,45.556c-.641.81-4.581,3.153-4.241,5.636a1.971,1.971,0,0,0,2.107,1.674l21.185-2.9,21.185-2.9a1.971,1.971,0,0,0,1.579-2.18C56.483,42.393,52.058,41.2,51.223,40.589Z" fill="#fffaf2"/>
            </g>
            <g id="Group_97" data-name="Group 97">
              <path id="Path_347" data-name="Path 347" d="M31.549,58.708c3.477,0,9.531-3.9,9.058-7.343l-12.474,1.71C28.6,56.52,28.072,58.708,31.549,58.708Z" fill="#fffaf2"/>
            </g>
            <g id="Group_98" data-name="Group 98">
              <path id="Path_348" data-name="Path 348" d="M8.091,28.36a17.307,17.307,0,0,1-.076-3.972,19.475,19.475,0,0,1,.741-3.76,21.668,21.668,0,0,1,1.382-3.469,22.945,22.945,0,0,1,1.9-3.133,22.525,22.525,0,0,1,2.338-2.751q.44-.44.9-.846L11.524,7.11A25.075,25.075,0,0,0,2.556,29.94L8.2,29.166Z" fill="#fffaf2"/>
            </g>
            <g id="Group_99" data-name="Group 99">
              <path id="Path_349" data-name="Path 349" d="M45.6,9.424a23.075,23.075,0,0,1,2.673,2.506A21.628,21.628,0,0,1,50.536,14.9a19.457,19.457,0,0,1,1.725,3.421,17.322,17.322,0,0,1,1,3.846l.111.807,5.646-.774A25.076,25.076,0,0,0,44.232,2.624L41.514,6.83c.367.179.732.371,1.092.574A22.523,22.523,0,0,1,45.6,9.424Z" fill="#fffaf2"/>
            </g>
          </g>
        </g>
      </g>
    </g>
  </g>
</svg>
