<svg id="Group_168" data-name="Group 168" xmlns="http://www.w3.org/2000/svg" width="89.744" height="55.827" viewBox="0 0 89.744 55.827">
  <g id="Group_161" data-name="Group 161">
    <g id="Group_159" data-name="Group 159">
      <path id="Path_598" data-name="Path 598" d="M85.886,93.7h25.869s17.088-2.162,15.911-25.142H100.357l-.125-13.5a4.222,4.222,0,0,0,.463-1.229l.072-.006,28.045-1.957,15.462-1.08c.766-.053,1.56-.083,2.329-.114,1.238-.047,2.517-.1,3.736-.244.325-.039.846-.056,1.5-.075a31.235,31.235,0,0,0,4.768-.405c1.843-.358,2.867-.985,3.042-1.865a.511.511,0,0,0-.122-.45c-.555-.644-2.786-.916-6.633-.8l-.45.014c-3.328.117-6.747.466-8.035.6-.164.017-.289.031-.366.036q-20,1.907-40,3.811-1.565.15-3.128.3c0-.311-.014-.63-.036-.955,0-.053-.008-.1-.014-.155q13.343-1.432,26.688-2.861,7.706-.824,15.409-1.651c.763-.083,1.557-.142,2.323-.2,1.235-.094,2.512-.191,3.725-.383.322-.05.844-.086,1.5-.13a31.153,31.153,0,0,0,4.749-.583c1.829-.425,2.828-1.091,2.967-1.976a.5.5,0,0,0-.142-.444c-.58-.622-2.82-.81-6.658-.558l-.447.031c-3.319.239-6.725.716-8.007.894l-.366.05-39.821,5.3-2.315.308c-.416-1.468-1.071-2.434-1.735-2.39-.636.044-1.124,1-1.335,2.406.058.117.114.239.167.369l-.039.006c-.4-.982-.949-1.59-1.51-1.551-.436.031-.8.444-1.066,1.107a5.117,5.117,0,0,1,.344.741c-.014,0-.028,0-.039.006-.405-1.063-.98-1.735-1.565-1.693s-1.057.783-1.3,1.887a1.289,1.289,0,0,1,.208.158.274.274,0,0,1-.047.006.731.731,0,0,0-.53-.219.765.765,0,0,0-.547.361l-2.07.275c-1.515.2-3.031.43-4.552.605-1.748.2-5.52,1.263-1.837,1.915,1.6.283,3.63-.255,5.251-.427.888-.094,1.776-.191,2.662-.286a7.523,7.523,0,0,0,.017.9c0,.033.006.064.008.094l-.355.033c-1.524.144-3.047.316-4.571.436-1.754.136-5.565,1.057-1.909,1.846,1.585.341,3.638-.119,5.265-.233l2.015-.142a2.985,2.985,0,0,0,.383.686l.125,13.4H69.977C68.8,91.54,85.886,93.7,85.886,93.7ZM98.192,51.844l-.042,0q-.008-.25-.025-.508c-.014-.191-.033-.38-.058-.563l.042-.006q.037.279.058.566Q98.184,51.594,98.192,51.844Zm-.658,3.308a4.169,4.169,0,0,0,.422-1.135l.042,0h0a3.791,3.791,0,0,0,.788,1.313l.122,13.233H97.659Zm-1.671-3.086-.042,0c0-.186-.014-.377-.028-.569-.011-.161-.028-.322-.047-.477l.042-.006c.019.158.033.316.047.48C95.852,51.692,95.861,51.88,95.863,52.066Zm-.608,3.161a4.291,4.291,0,0,0,.372-1.046l.042,0a4.836,4.836,0,0,1-.214.7,2.423,2.423,0,0,0,.636.76L96.21,68.56h-.833ZM93.632,52.28l-.042,0a.094.094,0,0,0,0-.028,7.664,7.664,0,0,0-.136-.985l.042-.006a7.664,7.664,0,0,1,.136.985A.124.124,0,0,1,93.632,52.28Zm-.91,3.258a1.783,1.783,0,0,0,.724-1.207l.042,0a2.98,2.98,0,0,1-.308.794,2.189,2.189,0,0,0,.638.71l.119,12.728H92.847Z" transform="translate(-69.919 -41.578)" fill="#e54626"/>
    </g>
    <g id="Group_160" data-name="Group 160" transform="translate(16.031 52.807)">
      <rect id="Rectangle_5" data-name="Rectangle 5" width="25.927" height="3.02" fill="#e54626"/>
    </g>
  </g>
  <g id="Group_167" data-name="Group 167" transform="translate(18.645 35.025)">
    <g id="Group_166" data-name="Group 166">
      <g id="Group_165" data-name="Group 165">
        <g id="Group_164" data-name="Group 164">
          <g id="Group_163" data-name="Group 163">
            <g id="Group_162" data-name="Group 162" transform="translate(1.01 7.249)">
              <path id="Path_599" data-name="Path 599" d="M78.186,58.237l-.006-.006-1.1-1.421H77V58.6h.169V57.19l0,.008,1.1,1.421h.083v-1.79h-.167Z" transform="translate(-77.001 -56.81)" fill="#fffaf1"/>
              <path id="Path_600" data-name="Path 600" d="M78.691,56.81a.9.9,0,1,0,.9.9A.884.884,0,0,0,78.691,56.81Zm.724.9a.727.727,0,1,1-.727-.738A.717.717,0,0,1,79.415,57.715Z" transform="translate(-75.607 -56.81)" fill="#fffaf1"/>
              <path id="Path_601" data-name="Path 601" d="M79.6,56.81a.9.9,0,1,0,.9.9A.884.884,0,0,0,79.6,56.81Zm.724.9a.727.727,0,1,1-.727-.738A.717.717,0,0,1,80.323,57.715Z" transform="translate(-73.995 -56.81)" fill="#fffaf1"/>
              <path id="Path_602" data-name="Path 602" d="M80.04,56.817h-.4v1.768h.4a.887.887,0,1,0,0-1.768Zm-.222.167h.211c.505,0,.8.261.8.719s-.291.719-.8.719h-.211Z" transform="translate(-72.311 -56.798)" fill="#fffaf1"/>
              <path id="Path_603" data-name="Path 603" d="M80.606,56.817h-.175v1.768h.991v-.161h-.816Z" transform="translate(-70.912 -56.798)" fill="#fffaf1"/>
              <path id="Path_604" data-name="Path 604" d="M81.246,57.977h.8v-.164h-.8v-.833h.888v-.164H81.071v1.768h1.1v-.161h-.924Z" transform="translate(-69.775 -56.798)" fill="#fffaf1"/>
              <path id="Path_605" data-name="Path 605" d="M83.041,57.6a.393.393,0,0,0,.15-.341.431.431,0,0,0-.491-.444h-.574v1.768h.649a.5.5,0,0,0,.558-.522A.481.481,0,0,0,83.041,57.6Zm-.738-.061v-.561h.391c.219,0,.325.092.325.28a.244.244,0,0,1-.28.28Zm.858.522c0,.239-.133.361-.394.361H82.3v-.719h.461C83.019,57.7,83.16,57.83,83.16,58.063Z" transform="translate(-67.904 -56.798)" fill="#fffaf1"/>
              <path id="Path_606" data-name="Path 606" d="M83.508,56.81l-.716,1.79h.18l.13-.33h.888l.13.33H84.3l-.719-1.79Zm-.339,1.3.364-.916.017-.042c.006.014.011.031.017.042l.361.919h-.758Z" transform="translate(-66.72 -56.81)" fill="#fffaf1"/>
              <path id="Path_607" data-name="Path 607" d="M84.364,58.049a.606.606,0,0,0,.344-.577.635.635,0,0,0-.713-.655h-.377v1.768h.175v-.461h.2a.863.863,0,0,0,.2-.019l.35.48h.214Zm-.572-1.069h.194c.475,0,.544.308.544.491s-.069.488-.544.488h-.194Z" transform="translate(-65.255 -56.798)" fill="#fffaf1"/>
            </g>
            <path id="Path_608" data-name="Path 608" d="M80.011,56.979v-.011a2.141,2.141,0,0,1,2.2-2.179,2.169,2.169,0,0,1,1.66.649l-.588.68a1.554,1.554,0,0,0-1.077-.475,1.246,1.246,0,0,0-1.221,1.31v.011A1.251,1.251,0,0,0,82.2,58.289a1.516,1.516,0,0,0,1.107-.494l.588.6a2.149,2.149,0,0,1-1.726.752,2.123,2.123,0,0,1-2.159-2.165" transform="translate(-70.647 -53.149)" fill="#fffaf1"/>
            <path id="Path_609" data-name="Path 609" d="M81.643,54.751h.913v1.624a1.135,1.135,0,0,1,.944-.516,1.057,1.057,0,0,1,1.093,1.2v2.087H83.68v-1.8c0-.433-.205-.655-.552-.655s-.572.222-.572.655v1.8h-.913V54.751Z" transform="translate(-67.75 -53.216)" fill="#fffaf1"/>
            <path id="Path_610" data-name="Path 610" d="M82.924,57.49v-.011c0-.7.536-1.03,1.3-1.03a2.234,2.234,0,0,1,.788.133v-.056c0-.38-.233-.588-.691-.588a2.37,2.37,0,0,0-.891.175l-.228-.7a2.865,2.865,0,0,1,1.252-.258,1.488,1.488,0,0,1,1.088.361,1.406,1.406,0,0,1,.35,1.03V58.42h-.885v-.35a1.238,1.238,0,0,1-.974.408,1,1,0,0,1-1.107-.988m2.1-.211v-.164A1.414,1.414,0,0,0,84.439,57c-.391,0-.633.155-.633.444v.011c0,.247.205.391.5.391.427,0,.716-.233.716-.563" transform="translate(-65.475 -52.492)" fill="#fffaf1"/>
            <path id="Path_611" data-name="Path 611" d="M78.691,54.751H79.6v1.624a1.135,1.135,0,0,1,.944-.516,1.059,1.059,0,0,1,1.1,1.2v2.087h-.913v-1.8c0-.433-.205-.655-.552-.655s-.572.222-.572.655v1.8h-.913V54.751Z" transform="translate(-72.99 -53.216)" fill="#fffaf1"/>
            <path id="Path_612" data-name="Path 612" d="M81.8,57.193a2.559,2.559,0,1,1-2.559-2.559A2.56,2.56,0,0,1,81.8,57.193m-2.559-1.274a1.331,1.331,0,1,0,1.329,1.329,1.33,1.33,0,0,0-1.329-1.329" transform="translate(-76.548 -53.424)" fill="#fffaf1"/>
            <path id="Path_613" data-name="Path 613" d="M76.807,55.276a2.589,2.589,0,0,0-.119.78,2.558,2.558,0,0,0,1.946,2.484v.236h1.218l-.008-.233a2.561,2.561,0,0,0,1.84-3.253h-.372a1.044,1.044,0,0,1,.117.308,2.22,2.22,0,0,1,.05.475v.011A2.238,2.238,0,0,1,77,56.1v-.011a2.254,2.254,0,0,1,.055-.5,1.587,1.587,0,0,1,.111-.311h-.364Z" transform="translate(-76.546 -52.284)" fill="#fffaf1"/>
            <path id="Path_614" data-name="Path 614" d="M76.637,54.435l2.947,4.413.078-.053-2.811-4.474Z" transform="translate(-76.637 -53.98)" fill="#fffaf1"/>
            <path id="Path_615" data-name="Path 615" d="M76.852,54.378l2.5,4.81.069-.078L77.044,54.2Z" transform="translate(-76.255 -54.198)" fill="#fffaf1"/>
          </g>
        </g>
      </g>
    </g>
  </g>
</svg>
