<svg xmlns="http://www.w3.org/2000/svg" width="239.047" height="245.687" viewBox="0 0 239.047 245.687">
  <path id="Arrow" d="M242.62,224.1,222.1,58.94c-1.352-15.1-11.4-18.861-22.344-8.368l-39.5,37.878a27.275,27.275,0,0,0-3.833-5.2L87.087,10.94a27.633,27.633,0,0,0-38.96-.819L12.136,44.635A27.631,27.631,0,0,0,11.32,83.6L80.656,155.9a27.287,27.287,0,0,0,5.034,4.049l-39.51,37.884c-10.94,10.491-7.6,20.693,7.424,22.677l164.159,27.423C232.787,249.92,243.969,239.2,242.62,224.1Z" transform="translate(-3.684 -2.488)" fill="#178072"/>
</svg>
