<?xml version="1.0" encoding="utf-8"?>
<!-- Generator: Adobe Illustrator 17.0.0, SVG Export Plug-In . SVG Version: 6.00 Build 0)  -->
<!DOCTYPE svg PUBLIC "-//W3C//DTD SVG 1.1//EN" "http://www.w3.org/Graphics/SVG/1.1/DTD/svg11.dtd">
<svg version="1.1" id="Layer_1" xmlns="http://www.w3.org/2000/svg" xmlns:xlink="http://www.w3.org/1999/xlink" x="0px" y="0px"
	 width="151.124px" height="151.124px" viewBox="0 0 151.124 151.124" enable-background="new 0 0 151.124 151.124"
	 xml:space="preserve">
<g>
	<g>
		<path fill="#178072" d="M123.108,25.239c0.631-1.401,1.418-2.884,1.968-4.451c0.529-1.506,1.05-3.08,1.159-4.654
			c0.342-4.93-2.643-9.997-8.019-11.93c-4.474-1.608-10.326-0.032-13.176,3.954c-1.293,1.807-2.137,3.942-3.132,5.956
			c-0.693,1.403-0.649,1.405-2.226,1.189c-12.072-1.665-22.908,1.168-32.33,8.992c-5.624,4.671-9.666,10.54-12.657,17.162
			c-4.148,9.182-8.254,18.383-12.426,27.553c-0.745,1.638-1.607,3.25-2.626,4.729c-3.74,5.427-8.614,9.728-13.997,13.433
			c-3.662,2.518-7.503,4.779-11.271,7.145c-1.411,0.884-2.218,2.109-2.088,3.802c0.129,1.678,1.061,2.81,2.586,3.495
			c33.683,15.155,67.364,30.312,101.046,45.473c1.526,0.686,2.998,0.618,4.329-0.398c1.312-1.003,1.73-2.397,1.457-4.011
			c-0.301-1.783-0.572-3.571-0.894-5.349c-1.064-5.86-1.901-11.74-1.782-17.723c0.107-5.37,1.093-10.504,3.378-15.425
			c3.997-8.609,7.799-17.306,11.721-25.949c2.364-5.207,4.01-10.608,4.526-16.312c1.074-11.882-2.176-22.401-10.139-31.354
			C126.86,28.711,124.969,27.061,123.108,25.239z M116.278,20.826c-2.384-1.073-4.725-2.126-7.068-3.18
			c0.685-1.523,1.222-3.18,2.128-4.606c1.015-1.597,3.17-1.885,4.925-0.967c1.608,0.842,2.494,2.776,1.884,4.532
			C117.642,18.061,116.904,19.438,116.278,20.826z"/>
		<path fill="#178072" d="M56.888,142.326c8.584,4.052,17.424,1.013,21.743-3.3c-11.006-4.953-21.997-9.899-33.003-14.852
			C45.243,129.655,48.345,138.291,56.888,142.326z"/>
	</g>
</g>
</svg>
