<?xml version="1.0" encoding="utf-8"?>
<!-- Generator: Adobe Illustrator 17.0.0, SVG Export Plug-In . SVG Version: 6.00 Build 0)  -->
<!DOCTYPE svg PUBLIC "-//W3C//DTD SVG 1.1//EN" "http://www.w3.org/Graphics/SVG/1.1/DTD/svg11.dtd">
<svg version="1.1" id="Layer_1" xmlns="http://www.w3.org/2000/svg" xmlns:xlink="http://www.w3.org/1999/xlink" x="0px" y="0px"
	 width="151.124px" height="151.124px" viewBox="0 0 151.124 151.124" enable-background="new 0 0 151.124 151.124"
	 xml:space="preserve">
<g>
	<g>
		<path fill="#178072" d="M117.958,81.348V41.999l-0.002-0.031l0-19.143c0-11.869-6.634-19.242-17.314-19.242H18.244h-0.001h-0.001
			h-0.001H18.24c-0.045,0-0.09,0.004-0.136,0.004c0,0-0.033,0.001-0.049,0.001c-8.358,0.118-14.639,8.158-14.639,18.8v2.916
			c0,1.896,1.537,3.433,3.433,3.433h18.559v13.262v61.96c0,0.102,0.007,0.203,0.015,0.304v16.907
			c0,11.87,6.634,19.245,17.312,19.245h51.276c5.65,4.457,12.773,7.127,20.511,7.127c18.299,0,33.186-14.887,33.186-33.185
			C147.708,97.217,134.649,83.073,117.958,81.348z M10.289,21.871c0.171-6.316,3.467-11.218,7.689-11.413
			c4.451,0.856,6.758,6.009,7.309,11.413H10.289z M42.754,42.363v-6.866h57.871v6.866H42.754z M100.625,59.216v6.866H42.754v-6.866
			H100.625z M42.754,82.936h37.158v6.866H42.754V82.936z M114.523,140.675c-14.512,0-26.319-11.807-26.319-26.319
			c0-14.513,11.807-26.319,26.319-26.319c14.513,0,26.319,11.807,26.319,26.319C140.842,128.869,129.036,140.675,114.523,140.675z"
			/>
		<path fill="#178072" d="M114.523,92.657c-11.964,0-21.698,9.734-21.698,21.699s9.734,21.698,21.698,21.698
			c11.965,0,21.698-9.734,21.698-21.698S126.488,92.657,114.523,92.657z M113.591,125.756c-0.524,0.665-1.319,1.061-2.166,1.078
			c-0.019,0-0.038,0-0.038,0c-0.845,0-1.631-0.361-2.17-0.991l-9.483-11.089l4.302-3.679l7.242,8.47l13.192-16.735l4.445,3.505
			L113.591,125.756z"/>
	</g>
</g>
</svg>
