<svg xmlns="http://www.w3.org/2000/svg" width="312.478" height="170.839" viewBox="0 0 312.478 170.839"><path d="M254.552,460.3h-10a1.326,1.326,0,0,0-1.326,1.326v4.389a1.326,1.326,0,0,0,1.326,1.326h1.657v6.577h6.686v-6.577h1.657a1.326,1.326,0,0,0,1.326-1.326v-4.389A1.326,1.326,0,0,0,254.552,460.3Z" transform="translate(-212.532 -371.257)" fill="#ec685a"/><path d="M247.613,512.833a51.413,51.413,0,0,1-8.944-30.482,1.084,1.084,0,0,0-.846-1.082v-1.9H227.261v1.87h-.146a1.084,1.084,0,0,0-1.079,1.164,46.92,46.92,0,0,1-8.429,31.2,2.987,2.987,0,0,0-.541,1.81l1.155,35.723a3.093,3.093,0,0,0,3.066,2.985h23.889a3.094,3.094,0,0,0,3.068-3.037l.445-34.684a6.26,6.26,0,0,0-1.076-3.574Z" transform="translate(-195.577 -383.617)" fill="#3f3d56"/><path d="M258.951,464.365a2.86,2.86,0,0,1-5.721,0" transform="translate(-219.016 -373.891)" opacity="0.2"/><path d="M250.9,596.329h-2.893a7.592,7.592,0,0,0-15.008,0h-2.893a2.135,2.135,0,0,0-2.11,2.459l3.142,20.424h18.043L253,598.857a2.135,2.135,0,0,0-2.1-2.528Z" transform="translate(-202.646 -455.246)" fill="#ec685a"/><path d="M768.357,307.634l-.694,27.734-.859,34.391H737.553l-1.007-40.293L736,307.634Z" transform="translate(-477.009 -199.381)" fill="#e6e6e6"/><rect width="4.142" height="54.877" transform="translate(272.969 93.499)" fill="#ec685a"/><path d="M925.828,560.569l-.783,39.419H898.383l-.918-46.183a18.169,18.169,0,0,1,14.367,1.976A40.319,40.319,0,0,0,925.828,560.569Z" transform="translate(-636.551 -431.419)" fill="#3f3d56"/><rect width="3.8" height="3.8" transform="translate(264.632 133.588)" fill="#e6e6e6"/><rect width="3.8" height="3.8" transform="translate(267.221 125.822)" fill="#e6e6e6"/><rect width="3.8" height="3.8" transform="translate(276.13 128.935) rotate(36.562)" fill="#e6e6e6"/><rect width="3.8" height="3.8" transform="translate(282.997 135.669) rotate(36.562)" fill="#e6e6e6"/><rect width="3.8" height="3.8" transform="translate(271.348 139.552) rotate(36.562)" fill="#e6e6e6"/><circle cx="0.777" cy="0.777" r="0.777" transform="translate(282.547 122.749)" fill="#3f3d56"/><circle cx="0.777" cy="0.777" r="0.777" transform="translate(266.757 117.572)" fill="#3f3d56"/><circle cx="0.777" cy="0.777" r="0.777" transform="translate(279.958 112.136)" fill="#3f3d56"/><circle cx="85.071" cy="85.071" r="85.071" transform="translate(71.347 0)" fill="#ec685a"/><path d="M486.135,396.729a62.093,62.093,0,1,1,43.907-18.187A62.093,62.093,0,0,1,486.135,396.729Zm0-120.357A58.264,58.264,0,1,0,544.4,334.636,58.33,58.33,0,0,0,486.135,276.372Z" transform="translate(-329.717 -249.565)" opacity="0.2"/><circle cx="60.179" cy="60.179" r="60.179" transform="translate(96.239 24.892)" fill="#3f3d56"/><path d="M471.793,360.175a7.637,7.637,0,1,1,13.612-6.932l17,33.387a7.637,7.637,0,1,1-13.611,6.932Z" transform="translate(-360.128 -299.167)" fill="#ff6584"/><path d="M477.271,375.605l-.785-1.541a44.1,44.1,0,0,1,13.612-6.932l.785,1.541C485.367,369.822,480.674,371.948,477.271,375.605Z" transform="translate(-363.711 -310.874)" opacity="0.2"/><path d="M487.678,396.041l-.785-1.541a44.1,44.1,0,0,1,13.611-6.932l.785,1.541C495.773,390.258,491.081,392.384,487.678,396.041Z" transform="translate(-370.455 -324.118)" opacity="0.2"/><path d="M498.084,416.476l-.785-1.541A44.1,44.1,0,0,1,510.911,408l.785,1.541C506.18,410.693,501.487,412.819,498.084,416.476Z" transform="translate(-377.2 -337.362)" opacity="0.2"/><path d="M508.491,436.911l-.785-1.541a44.1,44.1,0,0,1,13.611-6.932l.785,1.541C516.586,431.128,511.894,433.254,508.491,436.911Z" transform="translate(-383.944 -350.607)" opacity="0.2"/><path d="M518.9,457.347l-.785-1.541a44.1,44.1,0,0,1,13.612-6.932l.785,1.541C526.993,451.564,522.3,453.69,518.9,457.347Z" transform="translate(-390.689 -363.851)" opacity="0.2"/><path d="M435.544,395.694a7.637,7.637,0,1,1,13.612-6.932l17,33.387a7.637,7.637,0,1,1-13.611,6.932Z" transform="translate(-336.635 -322.187)" fill="#ff6584"/><path d="M441.023,411.124l-.785-1.541a44.1,44.1,0,0,1,13.612-6.932l.785,1.541C449.118,405.341,444.426,407.467,441.023,411.124Z" transform="translate(-340.218 -333.894)" opacity="0.2"/><path d="M451.43,431.56l-.785-1.541a44.1,44.1,0,0,1,13.612-6.932l.785,1.541C459.525,425.777,454.832,427.9,451.43,431.56Z" transform="translate(-346.962 -347.138)" opacity="0.2"/><path d="M461.836,452l-.785-1.541a44.1,44.1,0,0,1,13.612-6.932l.785,1.541C469.932,446.212,465.239,448.338,461.836,452Z" transform="translate(-353.707 -360.383)" opacity="0.2"/><path d="M472.243,472.43l-.785-1.541a44.1,44.1,0,0,1,13.612-6.932l.785,1.541C480.338,466.647,475.645,468.773,472.243,472.43Z" transform="translate(-360.452 -373.627)" opacity="0.2"/><path d="M482.649,492.866l-.785-1.541a44.1,44.1,0,0,1,13.612-6.932l.785,1.541C490.745,487.083,486.052,489.209,482.649,492.866Z" transform="translate(-367.196 -386.871)" opacity="0.2"/><path d="M624.591,368.8h.054a9.11,9.11,0,0,0,8.53-5.713,29.818,29.818,0,1,0-39.722,16.333,9.032,9.032,0,0,0,10.031-1.86A29.72,29.72,0,0,1,624.591,368.8Z" transform="translate(-427.963 -281.819)" fill="#e6e6e6"/><circle cx="9.847" cy="9.847" r="9.847" transform="translate(171.463 58.264)" fill="#f9a825"/><circle cx="1.16" cy="1.16" r="1.16" transform="translate(158.748 64.684)" fill="#3f3d56"/><circle cx="1.16" cy="1.16" r="1.16" transform="translate(120.452 65.778)" fill="#3f3d56"/><circle cx="1.16" cy="1.16" r="1.16" transform="translate(164.931 52.661)" fill="#3f3d56"/><circle cx="1.16" cy="1.16" r="1.16" transform="translate(164.898 86.099)" fill="#3f3d56"/><circle cx="1.16" cy="1.16" r="1.16" transform="translate(187.875 50.265)" fill="#3f3d56"/><circle cx="1.16" cy="1.16" r="1.16" transform="translate(112.925 81.996)" fill="#3f3d56"/><circle cx="1.16" cy="1.16" r="1.16" transform="translate(121.405 98.682)" fill="#3f3d56"/><circle cx="4.377" cy="4.377" r="4.377" transform="translate(171.463 97.654)" fill="#ff6584"/><path d="M652.936,497.982a3.283,3.283,0,0,1-6.565,0" transform="translate(-473.815 -395.678)" opacity="0.2"/><path d="M646.371,490.382a3.283,3.283,0,0,1,6.565,0" transform="translate(-473.815 -388.625)" opacity="0.2"/><ellipse cx="0.274" cy="0.41" rx="0.274" ry="0.41" transform="translate(173.924 100.115)" fill="#ff6584"/><ellipse cx="0.274" cy="0.41" rx="0.274" ry="0.41" transform="translate(175.566 99.568)" fill="#ff6584"/><ellipse cx="0.274" cy="0.41" rx="0.274" ry="0.41" transform="translate(175.566 103.124)" fill="#ff6584"/><ellipse cx="0.274" cy="0.41" rx="0.274" ry="0.41" transform="translate(177.207 100.936)" fill="#ff6584"/><ellipse cx="0.274" cy="0.41" rx="0.274" ry="0.41" transform="translate(176.933 103.945)" fill="#ff6584"/><ellipse cx="0.274" cy="0.41" rx="0.274" ry="0.41" transform="translate(173.651 102.577)" fill="#ff6584"/><circle cx="4.377" cy="4.377" r="4.377" transform="translate(180.216 85.891)" fill="#ff6584"/><path d="M677.811,464.556a3.283,3.283,0,0,1-6.565,0" transform="translate(-489.936 -374.015)" opacity="0.2"/><path d="M671.246,456.956a3.283,3.283,0,0,1,6.565,0" transform="translate(-489.936 -366.962)" opacity="0.2"/><ellipse cx="0.274" cy="0.41" rx="0.274" ry="0.41" transform="translate(182.678 88.353)" fill="#ff6584"/><ellipse cx="0.274" cy="0.41" rx="0.274" ry="0.41" transform="translate(184.319 87.806)" fill="#ff6584"/><ellipse cx="0.274" cy="0.41" rx="0.274" ry="0.41" transform="translate(184.319 91.362)" fill="#ff6584"/><ellipse cx="0.274" cy="0.41" rx="0.274" ry="0.41" transform="translate(185.96 89.174)" fill="#ff6584"/><ellipse cx="0.274" cy="0.41" rx="0.274" ry="0.41" transform="translate(185.687 92.183)" fill="#ff6584"/><ellipse cx="0.274" cy="0.41" rx="0.274" ry="0.41" transform="translate(182.404 90.815)" fill="#ff6584"/><circle cx="4.377" cy="4.377" r="4.377" transform="translate(188.969 91.909)" fill="#ec685a"/><path d="M702.686,481.658a3.282,3.282,0,0,1-6.565,0" transform="translate(-506.058 -385.099)" opacity="0.2"/><path d="M696.121,474.058a3.283,3.283,0,1,1,6.565,0" transform="translate(-506.058 -378.045)" opacity="0.2"/><ellipse cx="0.274" cy="0.41" rx="0.274" ry="0.41" transform="translate(191.431 94.371)" fill="#ec685a"/><ellipse cx="0.274" cy="0.41" rx="0.274" ry="0.41" transform="translate(193.072 93.824)" fill="#ec685a"/><ellipse cx="0.274" cy="0.41" rx="0.274" ry="0.41" transform="translate(193.072 97.38)" fill="#ec685a"/><ellipse cx="0.274" cy="0.41" rx="0.274" ry="0.41" transform="translate(194.713 95.192)" fill="#ec685a"/><ellipse cx="0.274" cy="0.41" rx="0.274" ry="0.41" transform="translate(194.44 98.201)" fill="#ec685a"/><ellipse cx="0.274" cy="0.41" rx="0.274" ry="0.41" transform="translate(191.157 96.833)" fill="#ec685a"/><circle cx="4.377" cy="4.377" r="4.377" transform="translate(167.086 92.456)" fill="#ec685a"/><path d="M640.5,483.213a3.282,3.282,0,0,1-6.565,0" transform="translate(-465.754 -386.106)" opacity="0.2"/><path d="M633.934,475.612a3.283,3.283,0,0,1,6.565,0" transform="translate(-465.754 -379.053)" opacity="0.2"/><ellipse cx="0.274" cy="0.41" rx="0.274" ry="0.41" transform="translate(169.548 94.918)" fill="#ec685a"/><ellipse cx="0.274" cy="0.41" rx="0.274" ry="0.41" transform="translate(171.189 94.371)" fill="#ec685a"/><ellipse cx="0.274" cy="0.41" rx="0.274" ry="0.41" transform="translate(171.189 97.927)" fill="#ec685a"/><ellipse cx="0.274" cy="0.41" rx="0.274" ry="0.41" transform="translate(172.83 95.739)" fill="#ec685a"/><ellipse cx="0.274" cy="0.41" rx="0.274" ry="0.41" transform="translate(172.557 98.748)" fill="#ec685a"/><ellipse cx="0.274" cy="0.41" rx="0.274" ry="0.41" transform="translate(169.274 97.38)" fill="#ec685a"/><circle cx="4.377" cy="4.377" r="4.377" transform="translate(176.933 94.371)" fill="#ec685a"/><path d="M668.483,488.654a3.282,3.282,0,0,1-6.565,0" transform="translate(-483.891 -389.633)" opacity="0.2"/><path d="M661.918,481.054a3.283,3.283,0,0,1,6.565,0" transform="translate(-483.891 -382.579)" opacity="0.2"/><ellipse cx="0.274" cy="0.41" rx="0.274" ry="0.41" transform="translate(179.395 96.833)" fill="#ec685a"/><ellipse cx="0.274" cy="0.41" rx="0.274" ry="0.41" transform="translate(181.036 96.286)" fill="#ec685a"/><ellipse cx="0.274" cy="0.41" rx="0.274" ry="0.41" transform="translate(181.036 99.842)" fill="#ec685a"/><ellipse cx="0.274" cy="0.41" rx="0.274" ry="0.41" transform="translate(182.678 97.654)" fill="#ec685a"/><ellipse cx="0.274" cy="0.41" rx="0.274" ry="0.41" transform="translate(182.404 100.663)" fill="#ec685a"/><ellipse cx="0.274" cy="0.41" rx="0.274" ry="0.41" transform="translate(179.122 99.295)" fill="#ec685a"/><circle cx="4.377" cy="4.377" r="4.377" transform="translate(183.772 99.021)" fill="#ff6584"/><path d="M687.917,501.869a3.283,3.283,0,0,1-6.565,0" transform="translate(-496.486 -398.197)" opacity="0.2"/><path d="M681.352,494.269a3.283,3.283,0,0,1,6.565,0" transform="translate(-496.486 -391.144)" opacity="0.2"/><ellipse cx="0.274" cy="0.41" rx="0.274" ry="0.41" transform="translate(186.234 101.483)" fill="#ff6584"/><ellipse cx="0.274" cy="0.41" rx="0.274" ry="0.41" transform="translate(187.875 100.936)" fill="#ff6584"/><ellipse cx="0.274" cy="0.41" rx="0.274" ry="0.41" transform="translate(187.875 104.492)" fill="#ff6584"/><ellipse cx="0.274" cy="0.41" rx="0.274" ry="0.41" transform="translate(189.516 102.304)" fill="#ff6584"/><ellipse cx="0.274" cy="0.41" rx="0.274" ry="0.41" transform="translate(189.243 105.313)" fill="#ff6584"/><ellipse cx="0.274" cy="0.41" rx="0.274" ry="0.41" transform="translate(185.96 103.945)" fill="#ff6584"/><circle cx="1.16" cy="1.16" r="1.16" transform="translate(130.705 85.552)" fill="#3f3d56"/><path d="M413.031,344.548l-27.861-7.726,1.067-3.964,27.861,7.727Z" transform="translate(-249.633 -215.728)" fill="#f9a825"/><path d="M555.543,562a76.807,76.807,0,0,1-28.882,0v-4.109a88.32,88.32,0,0,0,28.882,0Z" transform="translate(-396.229 -434.507)" fill="#f9a825"/><path d="M563.981,526.967a76.8,76.8,0,0,1-28.882,0v-4.109a88.317,88.317,0,0,0,28.882,0Z" transform="translate(-401.697 -411.8)" fill="#f9a825"/><path d="M592.363,540.981a76.81,76.81,0,0,1-28.882,0v-4.109a88.32,88.32,0,0,0,28.882,0Z" transform="translate(-420.092 -420.883)" fill="#f9a825"/><path d="M599.266,554.216a76.808,76.808,0,0,1-28.882,0v-4.109a88.324,88.324,0,0,0,28.882,0Z" transform="translate(-424.566 -429.461)" fill="#f9a825"/><path d="M466.832,364.357l-28.495,4.786-.661-4.055,28.495-4.786Z" transform="translate(-283.662 -233.515)" fill="#f9a825"/><path d="M612.985,573.7a77.406,77.406,0,0,1-26.244,12.24l-1.691-3.734a89.014,89.014,0,0,0,26.244-12.24Z" transform="translate(-434.072 -442.331)" fill="#f9a825"/><path d="M606.239,538.289a77.4,77.4,0,0,1-26.244,12.24L578.3,546.8a89.011,89.011,0,0,0,26.244-12.24Z" transform="translate(-429.7 -419.381)" fill="#f9a825"/><path d="M637.793,538.994a77.406,77.406,0,0,1-26.244,12.24l-1.691-3.734A89.013,89.013,0,0,0,636.1,535.26Z" transform="translate(-450.151 -419.839)" fill="#f9a825"/><path d="M649.512,548.095a77.4,77.4,0,0,1-26.244,12.24l-1.691-3.734a89.011,89.011,0,0,0,26.244-12.24Z" transform="translate(-457.745 -425.737)" fill="#f9a825"/><rect width="1.368" height="1.368" transform="translate(155.871 114.34)" fill="#00bf71"/><rect width="1.368" height="1.368" transform="translate(159.974 138.137)" fill="#00bf71"/><rect width="1.368" height="1.368" transform="translate(138.091 114.34)" fill="#00bf71"/><rect width="1.368" height="1.368" transform="translate(169.821 131.299)" fill="#00bf71"/><rect width="1.368" height="1.368" transform="translate(170.642 123.366)" fill="#00bf71"/><rect width="1.915" height="1.094" transform="translate(147.863 118.545) rotate(34.156)" fill="#00bf71"/><rect width="1.915" height="1.094" transform="translate(164.002 121.554) rotate(34.156)" fill="#00bf71"/><rect width="1.915" height="1.094" transform="translate(144.307 126.751) rotate(34.156)" fill="#00bf71"/><rect width="1.915" height="1.094" transform="translate(157 126.164) rotate(124.156)" fill="#00bf71"/><rect width="1.915" height="1.094" transform="translate(164.385 128.078) rotate(124.156)" fill="#00bf71"/><rect width="1.915" height="1.094" transform="translate(184.08 121.513) rotate(124.156)" fill="#00bf71"/><rect width="312.478" height="0.788" transform="translate(0 170.05)" fill="#3f3d56"/></svg>