<svg id="Group_236" data-name="Group 236" xmlns="http://www.w3.org/2000/svg" width="72.901" height="60.141" viewBox="0 0 72.901 60.141">
  <g id="Group_231" data-name="Group 231">
    <g id="Group_228" data-name="Group 228" transform="translate(10.222 13.216)">
      <path id="Path_874" data-name="Path 874" d="M63.775,71.9h23.79c.239,0,.475,0,.713.008a.672.672,0,0,1,.644.458.717.717,0,0,1-.175.833c-.144.13-.3.247-.452.366Q78.329,81.285,68.365,89l-.308.239A6.576,6.576,0,0,0,65.4,94.622c-.022,4.429-.031,8.859,0,13.288a8.552,8.552,0,0,0,6.145,8.237c1.388.405,2.764.852,4.144,1.279a3.4,3.4,0,0,1,.488.172.609.609,0,0,1,.33.7.623.623,0,0,1-.53.5,3.079,3.079,0,0,1-.452.014H51.93a3.071,3.071,0,0,1-.452-.017.6.6,0,0,1-.516-.508.606.606,0,0,1,.341-.7,3.76,3.76,0,0,1,.488-.169c1.424-.439,2.856-.846,4.266-1.324a8.468,8.468,0,0,0,5.759-6.153,8.776,8.776,0,0,0,.239-2.315V98.815c0-1.382,0-2.767,0-4.149a6.63,6.63,0,0,0-2.612-5.4L54.78,85.654Q46.991,79.622,39.2,73.587c-.153-.119-.308-.236-.455-.364a.72.72,0,0,1-.222-.822.686.686,0,0,1,.68-.5c.216-.008.433-.006.649-.006Q51.813,71.9,63.775,71.9Z" transform="translate(-38.481 -71.894)" fill="#322314"/>
    </g>
    <g id="Group_229" data-name="Group 229" transform="translate(48.861 1.788)">
      <path id="Path_875" data-name="Path 875" d="M65.679,79.4c.028-.15.017-.269.069-.341a4.093,4.093,0,0,1,.4-.419q2.6-2.531,5.207-5.059a5.246,5.246,0,0,0,.405-.419.367.367,0,0,0-.025-.477.36.36,0,0,0-.472-.047,5.754,5.754,0,0,0-.43.391q-2.51,2.44-5.023,4.879c-.169.164-.341.327-.522.5a.429.429,0,0,1-.4-.5c.061-.688.122-1.377.194-2.065.108-1.052.222-2.1.333-3.158q.117-1.095.225-2.193a3.687,3.687,0,0,0,.022-.58.346.346,0,0,0-.347-.319.342.342,0,0,0-.35.239,1.221,1.221,0,0,0-.069.314q-.208,2.032-.411,4.06c-.1.988-.194,1.979-.3,2.967-.017.169-.061.339-.094.527a1.488,1.488,0,0,1-.7-.008.477.477,0,0,1-.261-.167,4.63,4.63,0,0,1-.3-.425q-1.786-2.627-3.569-5.254a4.756,4.756,0,0,0-.347-.469.367.367,0,0,0-.475-.042.349.349,0,0,0-.111.461c.092.169.205.33.314.491q1.619,2.385,3.239,4.774c.119.175.225.355.361.572a1.773,1.773,0,0,1-.289.078c-1.149.072-9.075.017-9.542-.067a1.325,1.325,0,0,1,.083-.68,12.15,12.15,0,0,1,9.944-9.048,12.143,12.143,0,0,1,4.393,23.874,11.918,11.918,0,0,1-10.377-2.578,1.761,1.761,0,0,1-.491-.491c.375-.391,4.979-3.977,5.678-4.429.105.136-.019.239-.067.336-.6,1.246-1.2,2.49-1.8,3.733a3.769,3.769,0,0,0-.205.475.355.355,0,0,0,.2.43.349.349,0,0,0,.452-.133,5.084,5.084,0,0,0,.272-.516c.8-1.651,1.61-3.3,2.4-4.96a2.37,2.37,0,0,1,.841-1.038c.214-.139.408-.308.641-.483a1.227,1.227,0,0,1,.222.558q.8,3.172,1.6,6.344c.053.208.1.422.169.624.089.261.278.369.488.305A.381.381,0,0,0,67.1,89.5a3.749,3.749,0,0,0-.094-.377q-.878-3.484-1.751-6.972c-.031-.125-.064-.25-.092-.377a.425.425,0,0,1,.255-.5,1.378,1.378,0,0,1,.577.347q2.868,2.061,5.731,4.132c.122.089.244.18.369.264a.893.893,0,0,0,.233.108.352.352,0,0,0,.394-.15.307.307,0,0,0-.028-.414,4.718,4.718,0,0,0-.5-.405q-2.968-2.144-5.936-4.291c-.186-.136-.419-.23-.527-.5.056-.053.1-.13.175-.158a1.081,1.081,0,0,1,.316-.056c1.4-.1,2.8-.191,4.2-.291q1.811-.129,3.619-.264a1.569,1.569,0,0,0,.377-.075.348.348,0,0,0,.225-.358.363.363,0,0,0-.272-.325,2.236,2.236,0,0,0-.452-.011c-1.4.1-2.8.214-4.2.319-.8.061-1.6.117-2.392.175-.389.028-.774.061-1.163.083C66.018,79.413,65.874,79.4,65.679,79.4Z" transform="translate(-52.403 -67.776)" fill="#322314"/>
    </g>
    <g id="Group_230" data-name="Group 230">
      <path id="Path_876" data-name="Path 876" d="M52.965,78.825c-.255.017-.4.036-.547.036-.735,0-1.471-.014-2.2.008a1.839,1.839,0,0,1-1.143-.347c-2.24-1.546-4.493-3.075-6.741-4.607q-3.48-2.373-6.961-4.749c-.194-.133-.386-.275-.572-.405a5.545,5.545,0,0,1,1.091-1.629c.083.044.178.092.264.147C38.844,69.022,52.358,78.292,52.965,78.825Z" transform="translate(-34.798 -67.132)" fill="#322314"/>
    </g>
  </g>
  <g id="Group_235" data-name="Group 235" transform="translate(26.334 16.283)">
    <g id="Group_234" data-name="Group 234">
      <g id="Group_233" data-name="Group 233">
        <g id="Group_232" data-name="Group 232">
          <path id="Path_877" data-name="Path 877" d="M52.694,73.465a1.12,1.12,0,0,0-.427-.069,5.916,5.916,0,0,0-.8.105,12.653,12.653,0,0,0-1.7.3q-1.012.216-2.265.455a.276.276,0,0,0-.208.161,1.088,1.088,0,0,1-.122.228q-.662,2.44-1.421,4.726a.244.244,0,0,1-.333.036.929.929,0,0,1-.186-.192l.561-1.848c.219-.735.377-1.363.475-1.876a.58.58,0,0,0,.133-.319,1.032,1.032,0,0,1,.086-.311c.056-.222.086-.314.086-.278a.2.2,0,0,0-.061-.153l.061-.047-.019-.019c-.269.025-.522.039-.758.039a4.014,4.014,0,0,1-1.121-.133l-.061-.105a.136.136,0,0,0-.086-.019.315.315,0,0,0-.128-.161.225.225,0,0,1-.1-.2.613.613,0,0,1,.305-.133,1.183,1.183,0,0,1,.622.286c.261.006.491.008.7.008a6.18,6.18,0,0,0,.794-.039.3.3,0,0,0,.111-.247,1.053,1.053,0,0,0-.011-.105v-.114c0-.183.142-.283.427-.294a.371.371,0,0,1,.225.239c.044.122.086.191.128.211q.062.191.391.125c.333-.064.649-.136.952-.219a12.2,12.2,0,0,0,1.293-.191c.186-.039.6-.105,1.243-.2.064-.006.208-.028.427-.061A3.733,3.733,0,0,1,52.381,73c.341,0,.552.114.636.344,0,.069-.042.117-.122.144a.393.393,0,0,1-.086.008.341.341,0,0,1-.114-.031" transform="translate(-44.287 -72.999)" fill="#fffaf1"/>
          <path id="Path_878" data-name="Path 878" d="M52.694,73.465a1.12,1.12,0,0,0-.427-.069,5.916,5.916,0,0,0-.8.105,12.653,12.653,0,0,0-1.7.3q-1.012.216-2.265.455a.276.276,0,0,0-.208.161,1.088,1.088,0,0,1-.122.228q-.662,2.44-1.421,4.726a.244.244,0,0,1-.333.036.929.929,0,0,1-.186-.192l.561-1.848c.219-.735.377-1.363.475-1.876a.58.58,0,0,0,.133-.319,1.032,1.032,0,0,1,.086-.311c.056-.222.086-.314.086-.278a.2.2,0,0,0-.061-.153l.061-.047-.019-.019c-.269.025-.522.039-.758.039a4.014,4.014,0,0,1-1.121-.133l-.061-.105a.136.136,0,0,0-.086-.019.315.315,0,0,0-.128-.161.225.225,0,0,1-.1-.2.613.613,0,0,1,.305-.133,1.183,1.183,0,0,1,.622.286c.261.006.491.008.7.008a6.18,6.18,0,0,0,.794-.039.3.3,0,0,0,.111-.247,1.053,1.053,0,0,0-.011-.105v-.114c0-.183.142-.283.427-.294a.371.371,0,0,1,.225.239c.044.122.086.191.128.211q.062.191.391.125c.333-.064.649-.136.952-.219a12.2,12.2,0,0,0,1.293-.191c.186-.039.6-.105,1.243-.2.064-.006.208-.028.427-.061A3.733,3.733,0,0,1,52.381,73c.341,0,.552.114.636.344,0,.069-.042.117-.122.144a.393.393,0,0,1-.086.008A.341.341,0,0,1,52.694,73.465Z" transform="translate(-44.287 -72.999)" fill="#fffaf1"/>
          <path id="Path_879" data-name="Path 879" d="M48.273,77.109c-.089.033-.236.092-.439.18a1.28,1.28,0,0,1-.513-.153,1.286,1.286,0,0,0-.1-.258.707.707,0,0,1-.086-.286.555.555,0,0,0-.133.153c-.3.291-.475.458-.525.5a1.1,1.1,0,0,1-.755.191.65.65,0,0,1-.33-.591,2.437,2.437,0,0,1,.172-1.03,3.757,3.757,0,0,1,1.7-1.61h.194c.186,0,.28.086.28.258a1.69,1.69,0,0,1-.072.344,1.347,1.347,0,0,1-.269.325c-.025.044-.122.089-.294.133a.8.8,0,0,1,.194-.38c.008-.019.028-.069.061-.153a.108.108,0,0,0,.011-.058.208.208,0,0,0-.011-.067c.042-.025.061-.047.061-.067-.05-.006-.133.047-.255.161a.965.965,0,0,0-.122.086,3.143,3.143,0,0,0-1.282,2.04c.033.183.105.286.219.305a1.192,1.192,0,0,0,.719-.5,1.984,1.984,0,0,0,.611-.858,12.231,12.231,0,0,0,.5-1.21.419.419,0,0,1,.269-.142.281.281,0,0,1,.111.211.481.481,0,0,1-.05.18c-.033.094-.053.158-.061.191a4.478,4.478,0,0,0-.488,1.39.7.7,0,0,0,.233.611,2.227,2.227,0,0,0,.305-.125,1.068,1.068,0,0,1,.269-.094.366.366,0,0,1,.011.094.209.209,0,0,1-.133.225" transform="translate(-42.319 -70.861)" fill="#fffaf1"/>
          <path id="Path_880" data-name="Path 880" d="M48.273,77.109c-.089.033-.236.092-.439.18a1.28,1.28,0,0,1-.513-.153,1.286,1.286,0,0,0-.1-.258.707.707,0,0,1-.086-.286.555.555,0,0,0-.133.153c-.3.291-.475.458-.525.5a1.1,1.1,0,0,1-.755.191.65.65,0,0,1-.33-.591,2.437,2.437,0,0,1,.172-1.03,3.757,3.757,0,0,1,1.7-1.61h.194c.186,0,.28.086.28.258a1.69,1.69,0,0,1-.072.344,1.347,1.347,0,0,1-.269.325c-.025.044-.122.089-.294.133a.8.8,0,0,1,.194-.38c.008-.019.028-.069.061-.153a.108.108,0,0,0,.011-.058.208.208,0,0,0-.011-.067c.042-.025.061-.047.061-.067-.05-.006-.133.047-.255.161a.965.965,0,0,0-.122.086,3.143,3.143,0,0,0-1.282,2.04c.033.183.105.286.219.305a1.192,1.192,0,0,0,.719-.5,1.984,1.984,0,0,0,.611-.858,12.231,12.231,0,0,0,.5-1.21.419.419,0,0,1,.269-.142.281.281,0,0,1,.111.211.481.481,0,0,1-.05.18c-.033.094-.053.158-.061.191a4.478,4.478,0,0,0-.488,1.39.7.7,0,0,0,.233.611,2.227,2.227,0,0,0,.305-.125,1.068,1.068,0,0,1,.269-.094.366.366,0,0,1,.011.094A.209.209,0,0,1,48.273,77.109Z" transform="translate(-42.319 -70.861)" fill="#fffaf1"/>
          <path id="Path_881" data-name="Path 881" d="M48.013,76.969a4.514,4.514,0,0,0,2.22-1.354,1,1,0,0,1,.111-.2.514.514,0,0,0,.1-.247c0-.216-.183-.366-.55-.447-.236-.031-.469-.061-.7-.086-.042.019-.241.075-.6.172a1.157,1.157,0,0,0-.513.258,1.2,1.2,0,0,1-.233.211c-.008.014-.061.075-.158.191A2.942,2.942,0,0,1,47.6,74.9a2.434,2.434,0,0,1,1.476-.7,3.021,3.021,0,0,1,1.563.344,1.118,1.118,0,0,1,.366.677.516.516,0,0,1-.111.314c-.067,0-.1.022-.111.067a.672.672,0,0,1-.036.128.147.147,0,0,1-.122.08,6.192,6.192,0,0,1-1.063.849,4.431,4.431,0,0,1-1.307.583,1.694,1.694,0,0,0-.316.094.219.219,0,0,0-.122.247c-.072.272-.2.683-.391,1.229a.489.489,0,0,0-.108.305c-.105.311-.3.8-.586,1.468a1.68,1.68,0,0,0-.244-.008.16.16,0,0,1-.172-.105A1.011,1.011,0,0,1,46.453,80a1.178,1.178,0,0,0,.147-.452.511.511,0,0,0-.011-.114,1.109,1.109,0,0,0,.194-.411,1.676,1.676,0,0,1,.172-.43c.064-.172.164-.43.291-.772a1.949,1.949,0,0,0,.111-.81.266.266,0,0,0,.172-.172c.017-.069.036-.144.061-.219a.847.847,0,0,1,.072-.372,1.888,1.888,0,0,0,.108-.344c0-.014.011-.125.036-.333a.316.316,0,0,1,.172-.278.478.478,0,0,1,.377.058.888.888,0,0,0,.147.039,3.48,3.48,0,0,0-.133.419.682.682,0,0,1-.172.38,1.548,1.548,0,0,1-.158.563.4.4,0,0,1-.028.216" transform="translate(-40.679 -70.872)" fill="#fffaf1"/>
          <path id="Path_882" data-name="Path 882" d="M48.013,76.969a4.514,4.514,0,0,0,2.22-1.354,1,1,0,0,1,.111-.2.514.514,0,0,0,.1-.247c0-.216-.183-.366-.55-.447-.236-.031-.469-.061-.7-.086-.042.019-.241.075-.6.172a1.157,1.157,0,0,0-.513.258,1.2,1.2,0,0,1-.233.211c-.008.014-.061.075-.158.191A2.942,2.942,0,0,1,47.6,74.9a2.434,2.434,0,0,1,1.476-.7,3.021,3.021,0,0,1,1.563.344,1.118,1.118,0,0,1,.366.677.516.516,0,0,1-.111.314c-.067,0-.1.022-.111.067a.672.672,0,0,1-.036.128.147.147,0,0,1-.122.08,6.192,6.192,0,0,1-1.063.849,4.431,4.431,0,0,1-1.307.583,1.694,1.694,0,0,0-.316.094.219.219,0,0,0-.122.247c-.072.272-.2.683-.391,1.229a.489.489,0,0,0-.108.305c-.105.311-.3.8-.586,1.468a1.68,1.68,0,0,0-.244-.008.16.16,0,0,1-.172-.105A1.011,1.011,0,0,1,46.453,80a1.178,1.178,0,0,0,.147-.452.511.511,0,0,0-.011-.114,1.109,1.109,0,0,0,.194-.411,1.676,1.676,0,0,1,.172-.43c.064-.172.164-.43.291-.772a1.949,1.949,0,0,0,.111-.81.266.266,0,0,0,.172-.172c.017-.069.036-.144.061-.219a.847.847,0,0,1,.072-.372,1.888,1.888,0,0,0,.108-.344c0-.014.011-.125.036-.333a.316.316,0,0,1,.172-.278.478.478,0,0,1,.377.058.888.888,0,0,0,.147.039,3.48,3.48,0,0,0-.133.419.682.682,0,0,1-.172.38,1.548,1.548,0,0,1-.158.563A.4.4,0,0,1,48.013,76.969Z" transform="translate(-40.679 -70.872)" fill="#fffaf1"/>
          <path id="Path_883" data-name="Path 883" d="M50.992,77.109c-.089.033-.236.092-.439.18a1.28,1.28,0,0,1-.513-.153,1.285,1.285,0,0,0-.1-.258.707.707,0,0,1-.086-.286.608.608,0,0,0-.133.153c-.3.291-.475.458-.525.5a1.1,1.1,0,0,1-.758.191.65.65,0,0,1-.33-.591,2.436,2.436,0,0,1,.172-1.03,3.757,3.757,0,0,1,1.7-1.61h.194c.186,0,.28.086.28.258a1.689,1.689,0,0,1-.072.344,1.347,1.347,0,0,1-.269.325q-.037.067-.291.133a.8.8,0,0,1,.194-.38c.008-.019.028-.069.061-.153a.109.109,0,0,0,.011-.058.208.208,0,0,0-.011-.067c.042-.025.061-.047.061-.067-.05-.006-.133.047-.255.161a.964.964,0,0,0-.122.086,3.143,3.143,0,0,0-1.282,2.04c.033.183.105.286.219.305a1.192,1.192,0,0,0,.719-.5,1.984,1.984,0,0,0,.611-.858,12.228,12.228,0,0,0,.5-1.21.419.419,0,0,1,.269-.142.278.278,0,0,1,.108.211.481.481,0,0,1-.05.18c-.033.094-.053.158-.061.191A4.478,4.478,0,0,0,50.3,76.4a.7.7,0,0,0,.23.611,2.227,2.227,0,0,0,.305-.125,1.068,1.068,0,0,1,.269-.094.365.365,0,0,1,.011.094.2.2,0,0,1-.128.225" transform="translate(-37.497 -70.861)" fill="#fffaf1"/>
          <path id="Path_884" data-name="Path 884" d="M50.992,77.109c-.089.033-.236.092-.439.18a1.28,1.28,0,0,1-.513-.153,1.285,1.285,0,0,0-.1-.258.707.707,0,0,1-.086-.286.608.608,0,0,0-.133.153c-.3.291-.475.458-.525.5a1.1,1.1,0,0,1-.758.191.65.65,0,0,1-.33-.591,2.436,2.436,0,0,1,.172-1.03,3.757,3.757,0,0,1,1.7-1.61h.194c.186,0,.28.086.28.258a1.689,1.689,0,0,1-.072.344,1.347,1.347,0,0,1-.269.325q-.037.067-.291.133a.8.8,0,0,1,.194-.38c.008-.019.028-.069.061-.153a.109.109,0,0,0,.011-.058.208.208,0,0,0-.011-.067c.042-.025.061-.047.061-.067-.05-.006-.133.047-.255.161a.964.964,0,0,0-.122.086,3.143,3.143,0,0,0-1.282,2.04c.033.183.105.286.219.305a1.192,1.192,0,0,0,.719-.5,1.984,1.984,0,0,0,.611-.858,12.228,12.228,0,0,0,.5-1.21.419.419,0,0,1,.269-.142.278.278,0,0,1,.108.211.481.481,0,0,1-.05.18c-.033.094-.053.158-.061.191A4.478,4.478,0,0,0,50.3,76.4a.7.7,0,0,0,.23.611,2.227,2.227,0,0,0,.305-.125,1.068,1.068,0,0,1,.269-.094.365.365,0,0,1,.011.094A.2.2,0,0,1,50.992,77.109Z" transform="translate(-37.497 -70.861)" fill="#fffaf1"/>
          <path id="Path_885" data-name="Path 885" d="M50.067,75.486c.042.006.056.008.05.008a.045.045,0,0,1-.025.008l.133.028c-.008.031.011.053.061.067a.129.129,0,0,1,.05.019.191.191,0,0,1,.061-.008h.086a.6.6,0,0,0,.325.153.9.9,0,0,1,.336.133c.358.139.566.308.622.505a.627.627,0,0,1-.244.43.11.11,0,0,0-.086.047.38.38,0,0,1-.061.067,2.548,2.548,0,0,1-1.3.352,1.428,1.428,0,0,1-.647-.18c-.064-.2-.1-.286-.1-.247,0-.064.053-.125.158-.18a3.132,3.132,0,0,0,.219.266.243.243,0,0,0,.244.078,6.79,6.79,0,0,0,.758-.172,1,1,0,0,0,.586-.391c-.025-.153-.294-.311-.8-.477-.164-.05-.366-.125-.611-.219a.464.464,0,0,1-.291-.438,1.907,1.907,0,0,1,.4-.305,5.113,5.113,0,0,0,.452-.278,3.517,3.517,0,0,1,.538-.219c.114-.05.394-.142.841-.278.147.025.225.039.233.039.089.025.139.069.147.133s-.053.1-.158.142a2.016,2.016,0,0,0-.25.08,1.732,1.732,0,0,1-.25.08,5.549,5.549,0,0,0-.55.191,2.885,2.885,0,0,0-.866.466c0,.014-.019.044-.061.094h0Z" transform="translate(-35.34 -70.771)" fill="#fffaf1"/>
          <path id="Path_886" data-name="Path 886" d="M50.067,75.486c.042.006.056.008.05.008a.045.045,0,0,1-.025.008l.133.028c-.008.031.011.053.061.067a.129.129,0,0,1,.05.019.191.191,0,0,1,.061-.008h.086a.6.6,0,0,0,.325.153.9.9,0,0,1,.336.133c.358.139.566.308.622.505a.627.627,0,0,1-.244.43.11.11,0,0,0-.086.047.38.38,0,0,1-.061.067,2.548,2.548,0,0,1-1.3.352,1.428,1.428,0,0,1-.647-.18c-.064-.2-.1-.286-.1-.247,0-.064.053-.125.158-.18a3.132,3.132,0,0,0,.219.266.243.243,0,0,0,.244.078,6.79,6.79,0,0,0,.758-.172,1,1,0,0,0,.586-.391c-.025-.153-.294-.311-.8-.477-.164-.05-.366-.125-.611-.219a.464.464,0,0,1-.291-.438,1.907,1.907,0,0,1,.4-.305,5.113,5.113,0,0,0,.452-.278,3.517,3.517,0,0,1,.538-.219c.114-.05.394-.142.841-.278.147.025.225.039.233.039.089.025.139.069.147.133s-.053.1-.158.142a2.016,2.016,0,0,0-.25.08,1.732,1.732,0,0,1-.25.08,5.549,5.549,0,0,0-.55.191,2.885,2.885,0,0,0-.866.466c0,.014-.019.044-.061.094h0Z" transform="translate(-35.34 -70.771)" fill="#fffaf1"/>
          <path id="Path_887" data-name="Path 887" d="M48.052,75.912a.28.28,0,0,1,.089.178h-.1a.2.2,0,0,0-.214-.164.236.236,0,0,0-.183.08.373.373,0,0,0-.069.25.363.363,0,0,0,.064.222.224.224,0,0,0,.189.086A.2.2,0,0,0,48,76.475a.327.327,0,0,0,.047-.125h.1a.334.334,0,0,1-.092.205.35.35,0,0,1-.472.017.509.509,0,0,1-.028-.619.325.325,0,0,1,.269-.119.32.32,0,0,1,.225.078" transform="translate(-38.642 -67.966)" fill="#fffaf1"/>
          <path id="Path_888" data-name="Path 888" d="M47.843,75.842h.566v.094h-.463v.239h.43v.089h-.43v.266h.472v.092h-.574Z" transform="translate(-37.973 -67.952)" fill="#fffaf1"/>
          <path id="Path_889" data-name="Path 889" d="M48.277,75.842l.225.663.222-.663h.117l-.283.78h-.114l-.283-.78Z" transform="translate(-37.41 -67.952)" fill="#fffaf1"/>
          <rect id="Rectangle_6" data-name="Rectangle 6" width="0.105" height="0.78" transform="translate(11.772 7.89)" fill="#fffaf1"/>
          <path id="Path_890" data-name="Path 890" d="M49.281,75.912a.28.28,0,0,1,.089.178h-.1a.2.2,0,0,0-.214-.164.236.236,0,0,0-.183.08.373.373,0,0,0-.069.25.363.363,0,0,0,.064.222.224.224,0,0,0,.189.086.2.2,0,0,0,.175-.089.327.327,0,0,0,.047-.125h.1a.335.335,0,0,1-.092.205.35.35,0,0,1-.472.017.509.509,0,0,1-.028-.619.325.325,0,0,1,.269-.119.32.32,0,0,1,.225.078" transform="translate(-36.46 -67.966)" fill="#fffaf1"/>
          <path id="Path_891" data-name="Path 891" d="M49.07,75.842h.105v.322h.4v-.322h.105v.78h-.105v-.364h-.4v.364H49.07Z" transform="translate(-35.794 -67.952)" fill="#fffaf1"/>
          <path id="Path_892" data-name="Path 892" d="M49.434,75.842H50v.094h-.463v.239h.43v.089h-.43v.266h.472v.092h-.574Z" transform="translate(-35.148 -67.952)" fill="#fffaf1"/>
          <path id="Path_893" data-name="Path 893" d="M49.957,75.842H50.3a.225.225,0,0,1,.2.083.194.194,0,0,1,.033.111.181.181,0,0,1-.042.122.2.2,0,0,1-.064.044.243.243,0,0,1,.089.053.182.182,0,0,1,.053.142.219.219,0,0,1-.047.136.266.266,0,0,1-.225.092h-.333v-.783Zm.3.33a.223.223,0,0,0,.105-.019.108.108,0,0,0,.058-.105.1.1,0,0,0-.064-.1.268.268,0,0,0-.105-.014h-.191v.241h.2Zm.036.361a.172.172,0,0,0,.142-.055.149.149,0,0,0,.025-.086.117.117,0,0,0-.078-.117.3.3,0,0,0-.108-.017H50.06v.275h.23Z" transform="translate(-34.22 -67.952)" fill="#fffaf1"/>
          <path id="Path_894" data-name="Path 894" d="M50.568,75.842h.119l.283.78h-.117l-.08-.233h-.305l-.086.233h-.108Zm.175.461-.119-.344L50.5,76.3Z" transform="translate(-33.657 -67.952)" fill="#fffaf1"/>
          <path id="Path_895" data-name="Path 895" d="M50.643,75.842H51a.363.363,0,0,1,.144.025.184.184,0,0,1,.108.183.222.222,0,0,1-.028.114.225.225,0,0,1-.08.072.145.145,0,0,1,.069.05.151.151,0,0,1,.025.1l0,.105a.194.194,0,0,0,.008.067.058.058,0,0,0,.033.047v.017h-.13a.255.255,0,0,1-.008-.025c0-.011,0-.031-.006-.061l-.006-.13a.109.109,0,0,0-.056-.1.243.243,0,0,0-.092-.014h-.233v.336h-.105v-.78Zm.341.358a.191.191,0,0,0,.114-.031.124.124,0,0,0,.042-.108.116.116,0,0,0-.058-.114A.186.186,0,0,0,51,75.931h-.253V76.2h.239Z" transform="translate(-33.002 -67.952)" fill="#fffaf1"/>
        </g>
      </g>
    </g>
  </g>
</svg>
