<svg xmlns="http://www.w3.org/2000/svg" width="56.751" height="49.873" viewBox="0 0 56.751 49.873">
  <g id="ICONS_17" data-name="ICONS 17" transform="translate(-2.291 -5.73)">
    <g id="Group_323" data-name="Group 323">
      <g id="Group_322" data-name="Group 322">
        <g id="Group_321" data-name="Group 321">
          <path id="Path_1200" data-name="Path 1200" d="M18.467,55.6A14.457,14.457,0,0,1,4.633,45.655a49.13,49.13,0,0,1,0-29.976A14.457,14.457,0,0,1,18.467,5.731a3.747,3.747,0,0,1,3.689,4.377,30.526,30.526,0,0,1-2.162,7.39,3.7,3.7,0,0,1-3.4,2.17,1.365,1.365,0,0,0-1.279.966,33.808,33.808,0,0,0,0,20.066,1.366,1.366,0,0,0,1.279.966,3.7,3.7,0,0,1,3.4,2.17,30.539,30.539,0,0,1,2.162,7.39A3.747,3.747,0,0,1,18.467,55.6Zm0-48.433A13.021,13.021,0,0,0,6,16.123,47.684,47.684,0,0,0,6,45.21a13.021,13.021,0,0,0,12.465,8.953,2.293,2.293,0,0,0,1.752-.811,2.328,2.328,0,0,0,.518-1.89A29.578,29.578,0,0,0,18.68,44.42,2.261,2.261,0,0,0,16.6,43.1a2.781,2.781,0,0,1-2.652-1.975,35.249,35.249,0,0,1,0-20.928A2.781,2.781,0,0,1,16.6,18.227a2.261,2.261,0,0,0,2.081-1.315A29.532,29.532,0,0,0,20.737,9.87a2.328,2.328,0,0,0-.518-1.89A2.292,2.292,0,0,0,18.467,7.17Z" fill="#178072"/>
          <path id="Path_1201" data-name="Path 1201" d="M18.467,55.6a.721.721,0,0,1-.689-.512L15.067,46.11a.72.72,0,0,1,1.378-.416l2.711,8.981a.721.721,0,0,1-.689.928Z" fill="#178072"/>
          <path id="Path_1202" data-name="Path 1202" d="M15.757,16.151a.721.721,0,0,1-.689-.928l2.711-8.981a.72.72,0,0,1,1.378.416l-2.711,8.981A.722.722,0,0,1,15.757,16.151Z" fill="#178072"/>
          <path id="Path_1203" data-name="Path 1203" d="M28.589,49.092c-.094,0-.188,0-.283-.013a3.143,3.143,0,0,1-2.793-3.258L26,28a2.309,2.309,0,0,0-1.121-2.074,3.821,3.821,0,0,1-1.889-3.294V13.944a1.7,1.7,0,0,1,1.984-1.68A1.747,1.747,0,0,1,26.394,14v7.219a.282.282,0,0,0,.1.216.291.291,0,0,0,.236.063.328.328,0,0,0,.23-.333V13.874a1.632,1.632,0,1,1,3.265,0v7.342a.282.282,0,0,0,.1.216.289.289,0,0,0,.236.063.329.329,0,0,0,.231-.333V14a1.746,1.746,0,0,1,1.422-1.733,1.7,1.7,0,0,1,1.985,1.68V22.63a3.822,3.822,0,0,1-1.889,3.294A2.31,2.31,0,0,0,31.188,28l.488,17.925a3.085,3.085,0,0,1-3.087,3.169Zm-3.9-35.411a.262.262,0,0,0-.263.263V22.63A2.378,2.378,0,0,0,25.6,24.68a3.749,3.749,0,0,1,1.836,3.358L26.952,45.86a1.723,1.723,0,0,0,1.484,1.785,1.645,1.645,0,0,0,1.8-1.683L29.75,28.038a3.75,3.75,0,0,1,1.837-3.358,2.375,2.375,0,0,0,1.173-2.05V13.944a.259.259,0,0,0-.093-.2.271.271,0,0,0-.22-.058.308.308,0,0,0-.215.312v7.165a1.768,1.768,0,0,1-1.439,1.754,1.723,1.723,0,0,1-2.006-1.7V13.874c0-.213-.386-.213-.386,0v7.288a1.766,1.766,0,0,1-1.438,1.753,1.723,1.723,0,0,1-2.007-1.7V14a.306.306,0,0,0-.214-.312Z" fill="#178072"/>
          <path id="Path_1204" data-name="Path 1204" d="M42.137,49.092c-.1,0-.192-.005-.288-.013A3.206,3.206,0,0,1,39,45.756l.523-19.216a1.8,1.8,0,0,0-.625-1.413,7.706,7.706,0,0,1-2.435-5.811c0-3.9,2.547-7.076,5.678-7.076s5.678,3.174,5.678,7.076a7.7,7.7,0,0,1-2.436,5.811,1.8,1.8,0,0,0-.625,1.412l.527,19.322a3.144,3.144,0,0,1-3.15,3.231Zm.006-35.412c-2.337,0-4.238,2.528-4.238,5.636a6.253,6.253,0,0,0,1.938,4.722,3.229,3.229,0,0,1,1.122,2.54l-.523,19.217a1.786,1.786,0,0,0,1.539,1.85,1.682,1.682,0,0,0,1.33-.454,1.707,1.707,0,0,0,.538-1.291l-.526-19.322a3.234,3.234,0,0,1,1.122-2.54,6.26,6.26,0,0,0,1.938-4.723C46.381,16.209,44.48,13.68,42.143,13.68Z" fill="#178072"/>
          <path id="Path_1205" data-name="Path 1205" d="M35.4,54.305a23.488,23.488,0,0,1-9.326-1.911.72.72,0,1,1,.569-1.323A22.2,22.2,0,1,0,35.4,8.469,21.964,21.964,0,0,0,25.5,10.8a.719.719,0,1,1-.643-1.287A23.4,23.4,0,0,1,35.4,7.031a23.637,23.637,0,1,1,0,47.274Z" fill="#178072"/>
          <path id="Path_1206" data-name="Path 1206" d="M48.512,44.036a.72.72,0,0,1-.518-1.219,17.5,17.5,0,0,0,1.713-22.23.72.72,0,1,1,1.176-.83,18.938,18.938,0,0,1-1.854,24.059A.714.714,0,0,1,48.512,44.036Z" fill="#178072"/>
        </g>
      </g>
    </g>
  </g>
</svg>
