<svg width="93" height="93" viewBox="0 0 93 93" fill="none" xmlns="http://www.w3.org/2000/svg">
<path d="M46.5004 92.9999C72.1819 92.9999 93.0009 72.1809 93.0009 46.4994C93.0009 20.818 72.1819 -0.000976562 46.5004 -0.000976562C20.8189 -0.000976562 3.50985e-06 20.818 7.83946e-06 46.4994C1.21691e-05 72.1809 20.819 92.9999 46.5004 92.9999Z" fill="white"/>
<path d="M56.6409 49.7669C54.1468 46.259 51.7463 42.8837 49.317 39.4666C50.9485 38.316 52.5239 37.1323 54.1756 36.0653C55.1634 35.4273 56.3197 35.6909 57.0729 36.6226C57.7036 37.403 58.2436 38.257 58.8268 39.0749C59.4301 39.9216 60.0393 40.764 60.6858 41.664C61.0847 41.3774 61.4389 41.1139 61.8018 40.8634C62.7911 40.1779 63.8351 39.9533 64.9295 40.5941C65.9231 41.1758 66.3565 42.0773 66.2687 43.2192C66.1521 44.7413 66.0297 46.2619 65.8857 47.7811C65.8468 48.1973 65.9591 48.3744 66.3882 48.4723C67.8023 48.7992 69.202 49.1909 70.6117 49.5322C71.83 49.8274 72.6436 50.533 72.8581 51.7843C73.0655 52.991 72.5543 53.9126 71.5578 54.5894C71.2036 54.8299 70.8623 55.0891 70.4706 55.3713C70.6002 55.5629 70.7053 55.7227 70.8162 55.8782C71.8458 57.3283 72.8797 58.7741 73.905 60.227C74.8885 61.6209 74.6783 62.927 73.3074 63.9134C71.9812 64.8682 70.6463 65.8099 69.3129 66.756C69.1991 66.8366 69.0767 66.9043 68.9125 67.0066C67.0578 64.403 65.2189 61.8211 63.3786 59.2392C63.3239 59.2478 63.2692 59.255 63.2145 59.2637C63.2145 59.4581 63.2145 59.6539 63.2145 59.8483C63.2145 63.1013 63.2245 66.3542 63.2087 69.6072C63.1986 71.5181 61.9501 73.0589 60.0911 73.4808C59.7109 73.5672 59.3063 73.5715 58.9132 73.573C50.505 73.5773 42.0983 73.5456 33.6901 73.5946C31.0636 73.6104 29.3514 71.5944 29.373 69.2645C29.4292 62.9746 29.3917 56.6832 29.3917 50.3933C29.3917 50.1989 29.3917 50.0059 29.3917 49.7626C38.4565 49.7669 47.4666 49.7669 56.6409 49.7669ZM30.9541 51.3451C30.9541 51.5712 30.9541 51.731 30.9541 51.8909C30.9541 57.7114 30.9527 63.5304 30.9556 69.3509C30.957 71.0587 31.9578 72.0552 33.6671 72.0581C36.6652 72.0624 39.6647 72.048 42.6628 72.0696C43.1653 72.0739 43.3367 71.9587 43.3353 71.423C43.318 64.92 43.3237 58.4184 43.3223 51.9153C43.3223 51.7267 43.3036 51.5381 43.2935 51.3437C39.1621 51.3451 35.0927 51.3451 30.9541 51.3451ZM49.3199 51.3451C49.3084 51.5049 49.2969 51.5942 49.2969 51.6835C49.2954 58.3118 49.2997 64.9387 49.2868 71.567C49.2853 71.9962 49.4538 72.0667 49.8268 72.0653C52.8796 72.0538 55.9309 72.0624 58.9837 72.0581C60.6455 72.0552 61.6924 71.0414 61.6967 69.384C61.7097 65.3434 61.7053 61.3013 61.6909 57.2606C61.6895 57.0288 61.6031 56.7595 61.4706 56.5694C60.3301 54.9365 59.1623 53.3208 58.0189 51.6893C57.8202 51.4056 57.6042 51.3077 57.2615 51.3106C54.802 51.325 52.3425 51.3178 49.8829 51.3192C49.7073 51.3178 49.533 51.335 49.3199 51.3451ZM58.6497 49.921C59.9946 48.9634 61.3036 48.0317 62.65 47.0741C61.8666 45.9725 61.1193 44.9213 60.3733 43.8701C58.9477 41.8656 57.5236 39.8597 56.0951 37.8552C55.7193 37.3282 55.3276 37.1381 54.9273 37.403C53.7652 38.1734 52.6362 38.9942 51.4626 39.8179C53.866 43.1962 56.2261 46.5139 58.6497 49.921ZM69.2927 64.8797C70.3381 64.1352 71.3332 63.4296 72.3239 62.7197C73.0799 62.1782 73.1418 61.8182 72.609 61.0709C70.5585 58.188 68.5079 55.3051 66.4559 52.4222C66.345 52.2667 66.2226 52.1184 66.0858 51.9427C64.7394 52.9061 63.4333 53.8392 62.11 54.7853C64.5234 58.1765 66.8865 61.4971 69.2927 64.8797ZM44.8775 51.348C44.8775 51.6216 44.8775 51.8347 44.8775 52.0493C44.8775 54.7997 44.8775 57.5486 44.8775 60.299C44.8775 64.0373 44.8833 67.7755 44.8689 71.5138C44.8674 71.9328 44.9783 72.0941 45.4117 72.0682C45.9661 72.035 46.5277 72.0264 47.0807 72.0696C47.5948 72.1099 47.7474 71.9458 47.746 71.4202C47.7287 64.933 47.7345 58.4443 47.7345 51.9571C47.7345 51.7656 47.7345 51.5726 47.7345 51.3494C46.7668 51.348 45.8596 51.348 44.8775 51.348ZM61.2114 53.5181C62.5607 52.5576 63.8697 51.6245 65.2103 50.6697C64.6444 49.8749 64.1087 49.1232 63.5485 48.337C62.1921 49.3018 60.8961 50.2234 59.5482 51.1838C60.1098 51.9701 60.6455 52.7232 61.2114 53.5181ZM61.606 42.9341C62.5319 44.2344 63.4146 45.4742 64.3866 46.8408C64.5177 45.4512 64.6804 44.2459 64.7322 43.0349C64.7783 41.952 63.8034 41.435 62.8833 42.011C62.4599 42.2746 62.0725 42.5942 61.606 42.9341ZM66.9513 50.2205C66.9239 50.2579 66.8965 50.2939 66.8677 50.3313C67.7548 51.5784 68.6418 52.8254 69.5519 54.1027C70.0401 53.7557 70.5023 53.4763 70.9055 53.1307C71.6385 52.5014 71.4873 51.443 70.5757 51.155C69.3892 50.7792 68.1623 50.5272 66.9513 50.2205Z" fill="#E82025"/>
<path d="M36.812 39.0245C35.4253 38.2973 34.1408 37.6234 32.8578 36.9495C32.1119 36.5578 31.3559 36.1819 30.6229 35.7643C30.3032 35.5829 30.0584 35.5858 29.733 35.76C27.8509 36.7695 25.9573 37.753 24.0666 38.7451C23.9269 38.8186 23.7815 38.8834 23.5468 38.9971C23.6821 38.1648 23.7988 37.4117 23.9284 36.6629C24.1933 35.125 24.4813 33.5914 24.716 32.0506C24.7506 31.8202 24.621 31.4847 24.4511 31.3147C22.952 29.8143 21.4285 28.3383 19.9021 26.868C19.7653 26.737 19.5551 26.6808 19.3794 26.5901C19.437 26.5195 19.4946 26.4475 19.5522 26.377C21.6042 26.0789 23.6548 25.7808 25.7068 25.4827C25.9199 25.4511 26.1316 25.3863 26.3432 25.3877C26.722 25.3906 26.912 25.2034 27.0704 24.8751C28.0021 22.9541 28.954 21.0418 29.9 19.128C29.9778 18.9725 30.0628 18.8199 30.1765 18.6024C30.7496 19.7616 31.2882 20.8531 31.8282 21.9447C32.2328 22.7655 32.6936 23.5647 33.0248 24.4128C33.3042 25.1271 33.752 25.3891 34.4893 25.477C36.5888 25.7304 38.6797 26.0616 40.8786 26.3784C40.7101 26.5627 40.5935 26.7024 40.4624 26.8306C38.9591 28.2994 37.4658 29.7797 35.9379 31.224C35.5938 31.5495 35.5679 31.8619 35.6399 32.2752C36.033 34.4799 36.4088 36.6859 36.812 39.0245ZM30.1866 22.1117C30.057 22.3407 29.9663 22.4875 29.89 22.6416C29.278 23.8786 28.6789 25.1227 28.0453 26.3496C27.9503 26.5325 27.7098 26.7111 27.5068 26.7543C26.8602 26.8925 26.1992 26.9674 25.544 27.0653C24.6656 27.1963 23.7872 27.3245 22.7836 27.4728C23.001 27.7003 23.1277 27.84 23.2616 27.9711C24.1991 28.8869 25.1293 29.8114 26.0812 30.7114C26.3548 30.9706 26.493 31.2039 26.3706 31.597C26.2554 31.9699 26.2309 32.3717 26.1661 32.7605C25.9804 33.865 25.796 34.9695 25.5944 36.1719C25.8695 36.0379 26.0452 35.9587 26.2165 35.8695C27.4232 35.2387 28.6242 34.5936 29.8424 33.9845C30.0239 33.8938 30.3277 33.8923 30.5092 33.9831C31.5863 34.5159 32.6432 35.0875 33.7074 35.6448C34.0184 35.8075 34.3309 35.9645 34.7499 36.1791C34.5843 35.1984 34.4317 34.3373 34.2935 33.4747C34.1667 32.6799 33.8053 31.813 34.0084 31.1103C34.1912 30.4767 34.9962 30.0231 35.5275 29.4917C35.6039 29.4154 35.6845 29.3434 35.7594 29.2656C36.3152 28.6853 36.8711 28.105 37.4442 27.5074C37.3563 27.4728 37.2656 27.4167 37.1691 27.4023C35.8746 27.2122 34.5829 26.9991 33.284 26.8579C32.6864 26.7931 32.3437 26.5656 32.0917 26.004C31.5114 24.7152 30.8548 23.4624 30.1866 22.1117Z" fill="#E82025"/>
<path d="M55.9945 23.9678C55.7411 24.4603 55.5251 24.8865 55.3047 25.3084C54.7719 26.3251 54.2478 27.3475 53.6963 28.354C53.5407 28.6377 53.5379 28.8551 53.6934 29.1431C54.3774 30.4046 55.0355 31.6804 55.7007 32.9519C55.79 33.1219 55.8721 33.2961 55.9902 33.5351C54.3659 33.2572 52.8121 33.0067 51.267 32.7143C50.8465 32.6351 50.5657 32.7201 50.2734 33.0311C49.3129 34.0507 48.3265 35.0457 47.3473 36.0494C47.2249 36.1747 47.0953 36.2913 46.9009 36.4771C46.6993 35.1047 46.443 33.8246 46.3407 32.5329C46.2615 31.5407 45.9246 30.9187 44.9468 30.5327C43.7171 30.0489 42.5593 29.3851 41.2979 28.763C41.5499 28.6276 41.7414 28.5167 41.9372 28.4203C43.19 27.7996 44.4399 27.1703 45.7043 26.5699C46.0196 26.4201 46.1579 26.2156 46.2025 25.883C46.4185 24.3019 46.6503 22.7222 46.8908 21.0388C47.0622 21.19 47.1918 21.2923 47.3041 21.4075C48.2963 22.4227 49.2942 23.4307 50.2691 24.4631C50.5571 24.7684 50.8263 24.8692 51.2569 24.7857C52.802 24.4905 54.3572 24.2457 55.9945 23.9678ZM47.9867 33.1795C48.5367 32.6135 49.022 32.2046 49.395 31.7107C49.8831 31.0641 50.4318 30.91 51.1993 31.1375C51.7983 31.3147 52.4391 31.3492 53.1735 31.4644C52.8006 30.7545 52.5327 30.1454 52.1771 29.5939C51.8041 29.0164 51.771 28.5182 52.1612 27.9278C52.5327 27.3676 52.8035 26.7412 53.1807 26.0255C52.2289 26.1825 51.4023 26.2934 50.5859 26.4633C50.2575 26.5324 50.0588 26.4561 49.8342 26.2271C49.2467 25.631 48.6303 25.0636 47.9939 24.4531C47.9607 24.5899 47.919 24.7209 47.8988 24.8534C47.798 25.5086 47.654 26.1609 47.6195 26.8204C47.5935 27.3028 47.3487 27.4987 46.9628 27.6743C46.2587 27.9955 45.5703 28.3526 44.7697 28.7471C45.6495 29.182 46.4127 29.5334 47.1471 29.9409C47.3401 30.0475 47.5244 30.3067 47.5676 30.5255C47.7303 31.3463 47.834 32.1772 47.9867 33.1795Z" fill="#E82025"/>
<path d="M45.5455 36.853C45.5455 37.7631 45.6189 38.6242 45.5268 39.4681C45.4188 40.453 45.6981 41.1125 46.5953 41.6021C47.3585 42.0197 48.0338 42.6001 48.8445 43.1775C48.0295 43.4353 47.3239 43.7521 46.5852 43.8702C45.3237 44.0703 44.6714 44.737 44.4612 45.9884C44.3373 46.7228 44.0349 47.4255 43.7786 48.2535C43.2617 47.5277 42.7274 46.9172 42.3545 46.2217C41.8058 45.1978 41.0628 44.7845 39.8964 44.9473C39.1245 45.0538 38.3268 44.9674 37.4138 44.9674C37.7277 44.5383 37.9841 44.1855 38.2433 43.837C38.6709 43.261 39.1274 42.7023 39.5162 42.1018C39.6473 41.9002 39.7063 41.5633 39.6386 41.3357C39.3045 40.2255 38.9157 39.1311 38.5082 37.9143C38.9532 38.0626 39.3017 38.1793 39.6487 38.2959C40.3773 38.5436 41.1117 38.7783 41.8332 39.0447C42.1831 39.1743 42.4509 39.1599 42.762 38.9093C43.5165 38.3017 44.3057 37.7386 45.0833 37.1612C45.2215 37.0575 45.3698 36.9682 45.5455 36.853ZM45.3324 42.7167C45.3093 42.6605 45.2877 42.6029 45.2647 42.5468C45.0343 42.3797 44.8197 42.1853 44.5721 42.0514C44.1113 41.7994 43.8953 41.4639 43.9961 40.9196C44.0479 40.6359 44.0047 40.3335 44.0047 40.0397C43.9673 39.9937 43.9298 39.9476 43.8924 39.9015C43.0903 40.9916 42.1053 40.9786 40.9879 40.4285C41.6647 41.5647 41.525 42.5036 40.5329 43.3877C41.8591 43.0767 42.677 43.6052 43.2386 44.7601C43.3553 43.4338 44.0537 42.7873 45.3324 42.7167Z" fill="#E82025"/>
<path d="M61.7356 25.3848C61.7356 24.8779 61.7356 24.4041 61.7356 23.9001C62.2281 23.9001 62.6831 23.9001 63.1785 23.9001C63.1785 24.3926 63.1785 24.8678 63.1785 25.3848C62.7177 25.3848 62.2626 25.3848 61.7356 25.3848Z" fill="#E82025"/>
<path d="M59.1218 26.4763C59.6589 26.4763 60.1024 26.4763 60.5877 26.4763C60.5877 26.9688 60.5877 27.4411 60.5877 28.0085C60.1917 28.0085 59.7885 28.0243 59.3896 27.997C59.2946 27.9898 59.1405 27.84 59.1347 27.7464C59.1059 27.3418 59.1218 26.9328 59.1218 26.4763Z" fill="#E82025"/>
<path d="M65.7819 26.4894C65.7819 27.0006 65.7819 27.4628 65.7819 28.0086C65.36 28.0086 64.9554 28.0244 64.5536 27.9971C64.46 27.9899 64.3088 27.8358 64.303 27.7407C64.2742 27.3361 64.2915 26.9286 64.2915 26.4908C64.8099 26.4894 65.265 26.4894 65.7819 26.4894Z" fill="#E82025"/>
<path d="M61.7371 29.0684C62.2569 29.0684 62.699 29.0684 63.1785 29.0684C63.1785 29.5666 63.1785 30.0389 63.1785 30.5559C62.7033 30.5559 62.2339 30.5559 61.7371 30.5559C61.7371 30.049 61.7371 29.5767 61.7371 29.0684Z" fill="#E82025"/>
<path d="M28.7695 41.6655C28.7695 41.1255 28.7695 40.6819 28.7695 40.1895C29.2635 40.1895 29.7502 40.1895 30.3017 40.1895C30.3017 40.5941 30.3218 40.9858 30.2873 41.3731C30.2772 41.4783 30.1073 41.6424 29.9993 41.6511C29.6119 41.6871 29.2174 41.6655 28.7695 41.6655Z" fill="#E82025"/>
<path d="M26.1907 42.7642C26.7148 42.7642 27.1872 42.7642 27.7185 42.7642C27.7185 43.1832 27.7387 43.572 27.7056 43.9565C27.6969 44.0616 27.5313 44.2286 27.4276 44.2373C27.0273 44.2704 26.6227 44.2502 26.1921 44.2502C26.1907 43.7189 26.1907 43.2653 26.1907 42.7642Z" fill="#E82025"/>
<path d="M31.3687 42.7527C31.8741 42.7527 32.3363 42.7527 32.8864 42.7527C32.8864 43.1688 32.9022 43.5735 32.8749 43.9752C32.8677 44.0717 32.7165 44.2287 32.6229 44.2344C32.2183 44.2632 31.8093 44.2474 31.3687 44.2474C31.3687 43.729 31.3687 43.2711 31.3687 42.7527Z" fill="#E82025"/>
<path d="M28.7925 45.3503C29.2778 45.3503 29.753 45.3503 30.2656 45.3503C30.2656 45.8241 30.2656 46.2806 30.2656 46.7889C29.7832 46.7889 29.3109 46.7889 28.7925 46.7889C28.7925 46.3252 28.7925 45.8543 28.7925 45.3503Z" fill="#E82025"/>
</svg>
