<svg width="94" height="93" viewBox="0 0 94 93" fill="none" xmlns="http://www.w3.org/2000/svg">
<g clip-path="url(#clip0_312_3)">
<path d="M46.5004 92.9999C72.1819 92.9999 93.0009 72.1809 93.0009 46.4994C93.0009 20.818 72.1819 -0.000976562 46.5004 -0.000976562C20.8189 -0.000976562 -4.32961e-06 20.818 0 46.4994C4.32964e-06 72.1809 20.819 92.9999 46.5004 92.9999Z" fill="white"/>
<path d="M70.8304 6.81079C75.4617 14.0411 78.1465 22.6361 78.1465 31.8576C78.1465 57.5402 57.3264 78.3585 31.6457 78.3585C22.7263 78.3585 14.3941 75.8452 7.31665 71.4918C15.5817 84.3937 30.0422 92.9458 46.5014 92.9458C72.184 92.9458 93.0023 72.1257 93.0023 46.445C93.0023 29.6818 84.1332 14.9938 70.8304 6.81079Z" fill="white"/>
<path d="M6.32083 51.4061C6.32083 27.5619 25.6494 8.23329 49.4937 8.23329C63.4303 8.23329 75.8232 14.839 83.7172 25.0878C76.2613 12.1449 62.2893 3.43237 46.2812 3.43237C22.437 3.43237 3.1084 22.761 3.1084 46.6052C3.1084 56.5128 6.44761 65.6374 12.0595 72.9236C8.40899 66.5882 6.32083 59.2405 6.32083 51.4061Z" fill="white"/>
<path d="M75.4095 39.2538C75.1504 38.4596 74.4773 37.8909 73.6514 37.7716L56.2413 35.2416L48.4554 19.4666C48.0862 18.7171 47.3367 18.251 46.5015 18.251C45.6662 18.251 44.9167 18.7171 44.5475 19.4666L36.7617 35.2416L19.3534 37.7716C18.5256 37.8928 17.8526 38.4596 17.5934 39.2538C17.3361 40.0481 17.5468 40.9057 18.1453 41.4874L30.7433 53.7666L27.7695 71.1059C27.6278 71.9299 27.9615 72.7466 28.6365 73.2369C29.3114 73.7272 30.1914 73.7906 30.9297 73.4028L46.5015 65.2161L62.0732 73.4028C62.3939 73.5725 62.7426 73.6545 63.0893 73.6545C63.5387 73.6545 63.9861 73.5147 64.3684 73.2369C65.0451 72.7466 65.377 71.9299 65.2353 71.1059L62.2615 53.7666L74.8595 41.4874C75.4561 40.9057 75.6687 40.0481 75.4095 39.2538Z" fill="#E82025"/>
</g>
<defs>
<clipPath id="clip0_312_3">
<rect width="94" height="93" fill="white"/>
</clipPath>
</defs>
</svg>
