<svg width="40" height="40" viewBox="0 0 40 40" fill="none" xmlns="http://www.w3.org/2000/svg">
<path d="M4.63996 15.5978C6.46396 15.2738 7.49596 14.1458 7.90396 12.3738C10.1072 12.3738 12.3104 12.3738 14.5256 12.3738C14.9016 14.1506 15.9784 15.2306 17.7792 15.6226C17.7792 16.3258 17.7848 17.0322 17.7696 17.7378C17.768 17.8026 17.6432 17.901 17.5608 17.921C15.956 18.3194 14.9624 19.3162 14.5728 20.9242C14.5544 21.0002 14.4424 21.109 14.3736 21.1098C12.2192 21.1194 10.0656 21.1178 7.89676 21.1178C7.84156 20.9026 7.80636 20.697 7.73676 20.5034C7.24076 19.1202 6.28716 18.2458 4.84236 17.9242C4.77436 17.909 4.70716 17.8906 4.63916 17.8738C4.63996 17.1146 4.63996 16.3562 4.63996 15.5978ZM13.944 16.7386C13.9408 15.2242 12.7072 13.997 11.1984 14.0082C9.69836 14.0194 8.47836 15.241 8.47436 16.7354C8.47116 18.241 9.70636 19.4826 11.2096 19.4842C12.7184 19.4858 13.9472 18.2514 13.944 16.7386Z" fill="#E82025"/>
<path d="M12.1874 35.36C11.9466 35.1936 11.6786 35.0544 11.4738 34.8504C11.3442 34.7216 11.2482 34.5 11.241 34.316C11.2154 33.5808 11.2306 32.844 11.2306 32.0896C17.057 32.0896 22.8698 32.0896 28.7314 32.0896C28.7314 32.2424 28.7314 32.3976 28.7314 32.552C28.7314 32.9712 28.7074 33.392 28.737 33.8088C28.7906 34.5744 28.4882 35.096 27.761 35.36C22.5698 35.36 17.3786 35.36 12.1874 35.36ZM19.9434 34.2672C20.4618 34.2672 20.9802 34.2696 21.4986 34.2664C21.9034 34.2632 22.1506 34.0608 22.161 33.7328C22.1714 33.3928 21.9202 33.168 21.5018 33.1664C20.485 33.1616 19.4682 33.1616 18.4522 33.1664C18.0322 33.168 17.781 33.3912 17.7898 33.7304C17.7986 34.0584 18.0458 34.2632 18.449 34.2664C18.9466 34.2696 19.445 34.2672 19.9434 34.2672ZM25.4522 34.2664C25.801 34.2664 26.1498 34.2736 26.4986 34.264C26.8522 34.2544 27.0898 34.0288 27.093 33.7216C27.097 33.4168 26.8618 33.176 26.509 33.1696C25.8018 33.1576 25.0938 33.1568 24.3866 33.1704C24.0298 33.1768 23.8034 33.4152 23.809 33.7264C23.8154 34.0384 24.0466 34.2552 24.4058 34.2648C24.7546 34.2736 25.1034 34.2664 25.4522 34.2664ZM14.4938 33.1648C14.165 33.1648 13.8362 33.16 13.5074 33.1664C13.109 33.1744 12.8562 33.3912 12.8546 33.7144C12.853 34.0392 13.1082 34.2632 13.5018 34.2664C14.1698 34.2712 14.837 34.272 15.505 34.2664C15.8898 34.2632 16.1274 34.0568 16.1386 33.7352C16.1498 33.4056 15.905 33.1776 15.5098 33.1672C15.1714 33.1576 14.8322 33.1648 14.4938 33.1648Z" fill="#E82025"/>
<path d="M4.64014 25.8985C4.87294 25.6409 5.09934 25.3769 5.34014 25.1273C5.68654 24.7689 6.03934 24.4169 6.39774 24.0705C6.68894 23.7889 6.97534 23.7865 7.26334 24.0689C7.78334 24.5785 8.29694 25.0937 8.80734 25.6121C9.06974 25.8785 9.08414 26.2081 8.86094 26.4353C8.63214 26.6681 8.31054 26.6553 8.04014 26.3889C7.84254 26.1937 7.65934 25.9841 7.46974 25.7809C7.44094 25.7913 7.41214 25.8017 7.38334 25.8121C7.38334 25.9129 7.38334 26.0145 7.38334 26.1153C7.38334 27.1217 7.38494 28.1289 7.38174 29.1353C7.38094 29.2633 7.37534 29.3977 7.33614 29.5177C7.25614 29.7641 7.06494 29.8865 6.81054 29.8769C6.55614 29.8673 6.37614 29.7329 6.31294 29.4801C6.28414 29.3657 6.28174 29.2433 6.28174 29.1249C6.27934 28.1281 6.28014 27.1313 6.28014 26.1345C6.28014 26.0305 6.28014 25.9257 6.28014 25.8217C6.25374 25.8105 6.22734 25.7993 6.20174 25.7881C6.03294 25.9657 5.86734 26.1465 5.69454 26.3201C5.27934 26.7353 4.95374 26.6969 4.64094 26.2001C4.64014 26.0977 4.64014 25.9977 4.64014 25.8985Z" fill="#E82025"/>
<path d="M4.64014 12.364C5.33614 12.364 6.03214 12.364 6.83613 12.364C6.64573 12.748 6.51213 13.096 6.31374 13.4024C5.92094 14.0072 5.31694 14.3248 4.64094 14.52C4.64014 13.8008 4.64014 13.0824 4.64014 12.364Z" fill="#E82025"/>
<path d="M4.64014 19.0112C5.64094 19.1336 6.71294 20.2032 6.72494 21.1072C6.02974 21.1072 5.33454 21.1072 4.64014 21.1072C4.64014 20.4088 4.64014 19.7096 4.64014 19.0112Z" fill="#E82025"/>
<path d="M28.7176 28.7832C28.7176 29.5344 28.7176 30.24 28.7176 30.9648C22.8896 30.9648 17.0752 30.9648 11.24 30.9648C11.24 28.0624 11.24 25.1648 11.24 22.2248C11.36 22.2248 11.476 22.2248 11.5912 22.2248C13.7472 22.2248 15.904 22.2248 18.06 22.2248C18.7312 22.2248 18.8848 22.0688 18.8848 21.3912C18.8848 18.2776 18.8848 15.1632 18.8848 12.0496C18.8848 11.432 18.7256 11.276 18.1016 11.276C15.9352 11.276 13.7688 11.276 11.6032 11.276C11.4864 11.276 11.3696 11.276 11.2368 11.276C11.2368 10.5296 11.2368 9.81764 11.2368 9.09204C17.0696 9.09204 22.884 9.09204 28.7136 9.09204C28.7136 12.0064 28.7136 14.904 28.7136 17.8344C28.5792 17.8344 28.4624 17.8344 28.3456 17.8344C26.6088 17.8344 24.872 17.8336 23.1344 17.8344C21.7928 17.8352 21.0656 18.5656 21.0648 19.9104C21.0648 22.2256 21.0624 24.5416 21.0656 26.8568C21.0672 27.8184 21.62 28.5464 22.4976 28.7424C22.6704 28.7808 22.8544 28.7824 23.0328 28.7824C24.8096 28.7848 26.5864 28.784 28.3632 28.784C28.4712 28.7832 28.5792 28.7832 28.7176 28.7832Z" fill="#E82025"/>
<path d="M22.1929 22.2354C26.5689 22.2354 30.9177 22.2354 35.3081 22.2354C35.3081 22.3394 35.3081 22.4354 35.3081 22.5314C35.3081 23.9578 35.3089 25.385 35.3073 26.8114C35.3065 27.4194 35.0369 27.6937 34.4369 27.6945C30.6249 27.6953 26.8129 27.6953 23.0009 27.6945C22.4713 27.6945 22.1745 27.433 22.1721 26.9282C22.1633 25.4114 22.1697 23.8954 22.1705 22.3786C22.1705 22.341 22.1817 22.3026 22.1929 22.2354ZM24.9041 26.0514C25.2233 26.0514 25.5417 26.0514 25.8609 26.0514C25.8809 26.0514 25.9009 26.0514 25.9209 26.0506C26.2977 26.037 26.5433 25.8233 26.5473 25.5089C26.5505 25.1961 26.3009 24.9578 25.9329 24.9538C25.2457 24.9458 24.5577 24.945 23.8705 24.9538C23.4929 24.9586 23.2617 25.185 23.2665 25.513C23.2713 25.8402 23.5001 26.0425 23.8889 26.0497C24.2265 26.0561 24.5649 26.0514 24.9041 26.0514ZM32.5545 26.0514C32.8929 26.0514 33.2321 26.0562 33.5705 26.0506C33.9649 26.0442 34.2185 25.8202 34.2121 25.4962C34.2065 25.1826 33.9577 24.9578 33.5841 24.9538C32.9065 24.9466 32.2289 24.9466 31.5521 24.9538C31.1689 24.9578 30.9361 25.1721 30.9321 25.4969C30.9281 25.8361 31.1617 26.0434 31.5681 26.0506C31.8969 26.0562 32.2257 26.0514 32.5545 26.0514ZM28.7177 26.0449C28.7177 26.0441 28.7177 26.0425 28.7177 26.0417C28.9265 26.0417 29.1369 26.0577 29.3433 26.0378C29.6281 26.0097 29.8177 25.7922 29.8265 25.521C29.8353 25.2522 29.6585 24.997 29.3777 24.9762C28.9529 24.945 28.5233 24.9449 28.0985 24.9745C27.8185 24.9937 27.6377 25.249 27.6433 25.5154C27.6497 25.7946 27.8521 26.0153 28.1513 26.0417C28.3385 26.0585 28.5281 26.0449 28.7177 26.0449Z" fill="#E82025"/>
<path d="M28.7176 7.97685C22.876 7.97685 17.0696 7.97685 11.2168 7.97685C11.2168 7.82245 11.2168 7.67765 11.2168 7.53285C11.2176 6.98405 11.208 6.43525 11.2224 5.88645C11.24 5.24405 11.7432 4.74085 12.3848 4.70165C12.4544 4.69765 12.5248 4.69845 12.5944 4.69845C17.5152 4.69845 22.4352 4.70005 27.356 4.69605C27.9288 4.69525 28.3632 4.90325 28.6192 5.42805C28.6664 5.52485 28.712 5.63525 28.7136 5.74005C28.7216 6.47605 28.7176 7.21285 28.7176 7.97685ZM20.004 5.79125C19.1656 5.79125 18.3272 5.79125 17.4888 5.79125C16.96 5.79125 16.6872 5.97845 16.688 6.34085C16.688 6.70405 16.9616 6.89365 17.4896 6.89365C19.1464 6.89445 20.8032 6.89445 22.4608 6.89205C22.5992 6.89205 22.7432 6.88885 22.8752 6.85285C23.1264 6.78405 23.2544 6.59205 23.2568 6.34085C23.2584 6.10165 23.136 5.91685 22.9032 5.83845C22.7928 5.80085 22.6688 5.79365 22.5504 5.79365C21.7008 5.78965 20.852 5.79125 20.004 5.79125Z" fill="#E82025"/>
<path d="M35.3074 21.1041C30.9178 21.1041 26.5634 21.1041 22.1905 21.1041C22.1905 20.5561 22.1689 20.0209 22.1993 19.4889C22.2153 19.1993 22.4993 18.9801 22.7969 18.9481C22.8953 18.9377 22.9961 18.9409 23.0961 18.9409C26.8466 18.9409 30.597 18.9409 34.3474 18.9409C35.0818 18.9409 35.3082 19.1681 35.3082 19.9073C35.3082 20.2945 35.3074 20.6825 35.3074 21.1041Z" fill="#E82025"/>
<path d="M33.7481 14.2727C33.9385 14.0735 34.1241 13.8695 34.3209 13.6768C34.5969 13.4064 34.9089 13.3888 35.1417 13.6192C35.3737 13.8487 35.3649 14.1703 35.0993 14.4415C34.5977 14.9551 34.0905 15.4639 33.5777 15.9671C33.2633 16.2759 32.9801 16.2767 32.6641 15.9679C32.1433 15.4591 31.6297 14.9431 31.1201 14.4231C30.8729 14.1703 30.8673 13.8455 31.0873 13.6231C31.3105 13.3975 31.6313 13.4 31.8873 13.648C32.0937 13.8479 32.2833 14.0655 32.4801 14.2751C32.5081 14.2655 32.5361 14.2551 32.5641 14.2455C32.5641 14.1439 32.5641 14.0423 32.5641 13.9415C32.5641 12.9344 32.5625 11.9272 32.5657 10.92C32.5665 10.792 32.5721 10.6576 32.6113 10.5376C32.6929 10.292 32.8849 10.1712 33.1401 10.1824C33.3953 10.1936 33.5753 10.3288 33.6353 10.5824C33.6649 10.7064 33.6657 10.8392 33.6657 10.968C33.6681 12.0544 33.6673 13.14 33.6673 14.2263C33.6937 14.2423 33.7209 14.2575 33.7481 14.2727Z" fill="#E82025"/>
<path d="M17.7566 14.4505C16.851 14.4169 15.7878 13.3537 15.6782 12.3745C16.3638 12.3745 17.0486 12.3745 17.7566 12.3745C17.7566 13.0721 17.7566 13.7609 17.7566 14.4505Z" fill="#E82025"/>
<path d="M17.7673 19.02C17.7673 19.7192 17.7673 20.3952 17.7673 21.0944C17.0697 21.0944 16.3769 21.0944 15.6841 21.0944C15.7857 20.1448 16.7633 19.1592 17.7673 19.02Z" fill="#E82025"/>
<path d="M12.8496 16.7561C12.8448 17.6593 12.1096 18.3897 11.2072 18.3865C10.3088 18.3833 9.56881 17.6441 9.56641 16.7473C9.56401 15.8385 10.3128 15.1017 11.232 15.1089C12.1392 15.1161 12.8544 15.8433 12.8496 16.7561Z" fill="#E82025"/>
</svg>
