<svg width="38" height="19" viewBox="0 0 38 19" fill="none" xmlns="http://www.w3.org/2000/svg">
<path fill-rule="evenodd" clip-rule="evenodd" d="M10.8096 3.57568H13.7273C14.6552 3.57568 15.4145 4.33285 15.4145 5.25832V10.096C15.4145 11.0214 14.6552 11.7786 13.7273 11.7786H10.8096C9.88136 11.7786 9.12207 11.0214 9.12207 10.096V5.25839C9.12207 4.33285 9.88136 3.57568 10.8096 3.57568Z" fill="white"/>
<path fill-rule="evenodd" clip-rule="evenodd" d="M14.7815 19H9.75482C9.02004 19 8.41895 18.4005 8.41895 17.6678V2.97964C8.41895 2.24704 9.02004 1.64754 9.75482 1.64754H14.7815C14.8413 1.64754 14.9 1.65158 14.9574 1.65918V0.578394C14.9574 0.26023 15.2185 0 15.5374 0C15.8566 0 16.1174 0.26023 16.1174 0.578394V2.40125C16.1174 2.48212 16.1005 2.55929 16.0701 2.62928C16.1008 2.74107 16.1174 2.85856 16.1174 2.97964V17.6678C16.1174 18.4004 15.5163 19 14.7815 19ZM10.8095 3.57559H13.7272C14.6551 3.57559 15.4144 4.33275 15.4144 5.25822V10.0959C15.4144 11.0212 14.6551 11.7785 13.7272 11.7785H10.8095C9.88125 11.7785 9.12196 11.0212 9.12196 10.0959V5.25829C9.12196 4.33286 9.88125 3.57559 10.8095 3.57559Z" fill="#D2E288"/>
<path fill-rule="evenodd" clip-rule="evenodd" d="M17.2988 3.88381L20.5067 3.87134C21.6764 4.0195 22.2167 4.8924 22.1677 6.16239C22.0789 7.4424 21.351 8.06802 20.1357 8.17773L18.9712 8.15462L19.004 11.666H17.2988V3.88381ZM19.0219 4.68201C19.8141 4.56881 20.4217 4.78824 20.4632 6.03167C20.4369 7.14172 19.8455 7.42271 19.0219 7.36374V4.68201Z" fill="#8DC63F"/>
<path fill-rule="evenodd" clip-rule="evenodd" d="M25.1471 3.78688L27.178 3.77759L27.1629 4.64685L25.572 4.6397C24.6542 4.80977 24.8597 5.78626 24.8151 6.49182L26.9552 6.45185L26.9628 7.51882L24.8891 7.49688L24.879 10.0805C24.9606 10.7504 25.314 11.0874 25.9109 11.1263L27.0502 11.1138L27.3974 11.1214L27.3867 11.9281L27.0309 11.9416L24.8659 11.9186C24.1197 11.8934 23.5173 11.5244 23.2402 10.3773L23.187 5.36471C23.2174 4.33712 23.898 3.83317 25.1471 3.78688Z" fill="#8DC63F"/>
<path fill-rule="evenodd" clip-rule="evenodd" d="M27.9237 5.98705C27.7955 4.30797 28.7337 3.92863 29.8748 3.79611C31.2103 3.71728 32.0487 4.2726 32.2125 5.68944L30.6362 5.68523C30.536 4.97055 29.9784 4.69585 29.4685 5.03598C28.7414 5.92314 31.0106 7.48442 31.6908 8.06347C32.8671 8.99109 32.6681 11.5622 30.8566 12.0389L29.7518 12.078C28.6298 12.1043 27.962 11.3976 27.7686 10.0874L29.357 10.0595C29.4437 10.619 29.6831 10.9668 30.1912 10.942C30.982 10.7922 31.1996 10.0978 30.6372 9.2119C29.4596 8.21468 28.0653 7.27936 27.9237 5.98705Z" fill="#8DC63F"/>
<path fill-rule="evenodd" clip-rule="evenodd" d="M0 3.53296H1.66958L1.6872 4.05C2.69592 3.61528 3.45661 3.3081 4.25357 4.02371C5.67857 3.35277 6.75605 3.42918 7.29012 4.67455L7.36472 11.6658H5.68099V4.99713C5.55663 4.42623 5.10304 4.32861 4.55619 4.36616V11.6658H2.83376V4.99713C2.70905 4.42623 2.25581 4.32861 1.70896 4.36616V11.6658H0V3.53296Z" fill="#8DC63F"/>
<path fill-rule="evenodd" clip-rule="evenodd" d="M33.1489 11.8701H34.8803V7.57598H36.3216V11.8702H38.0001V5.73557C37.9663 4.48879 37.0056 3.70748 35.6448 3.70233C34.0924 3.68872 33.2073 4.42281 33.1489 5.66538V11.8701ZM34.8803 5.2974C34.9373 4.83902 35.0869 4.65444 35.5923 4.60507C36.1046 4.61831 36.2867 4.91308 36.3216 5.36749V6.61196H34.8803V5.2974Z" fill="#8DC63F"/>
<path fill-rule="evenodd" clip-rule="evenodd" d="M10.4665 6.84863C10.7553 7.52192 11.1481 7.83145 11.6244 7.85041C10.8821 8.40345 10.0789 8.73954 9.24149 8.95417C8.71571 8.92056 8.21274 8.78711 7.72461 8.65394C8.95788 8.41126 9.87748 7.81587 10.4665 6.84863Z" fill="#82221C" stroke="#CD8C5D" stroke-width="1.7157" stroke-miterlimit="2.6131"/>
<path fill-rule="evenodd" clip-rule="evenodd" d="M13.7006 5.11353L17.1807 6.86629C15.4085 9.19178 12.4197 9.25296 9.23633 8.95211C11.3643 8.42916 12.838 7.13225 13.7006 5.11353Z" fill="#EC2127" stroke="#CD8C5D" stroke-width="1.7157" stroke-miterlimit="2.6131"/>
</svg>
