<svg xmlns="http://www.w3.org/2000/svg" width="56.693" height="49.787" viewBox="0 0 56.693 49.787">
  <g id="ICONS_4" data-name="ICONS 4" transform="translate(-2.321 -5.773)">
    <g id="Group_108" data-name="Group 108">
      <g id="Group_107" data-name="Group 107">
        <g id="Group_106" data-name="Group 106">
          <g id="Group_105" data-name="Group 105">
            <g id="megaphone_20_">
              <g id="Group_104" data-name="Group 104">
                <path id="Path_350" data-name="Path 350" d="M49.129,15.556l2.819-3.227a1.46,1.46,0,0,0-.04-1.773.91.91,0,0,0-1.45-.16l-2.819,3.227a1.462,1.462,0,0,0,.04,1.773A.91.91,0,0,0,49.129,15.556Zm.927,4.774a.93.93,0,0,0,1.225.7l3.849-1.4a1.2,1.2,0,0,0,.7-1.4.931.931,0,0,0-1.225-.7l-3.849,1.4A1.2,1.2,0,0,0,50.056,20.33Zm1.837,6.3a1.051,1.051,0,0,0,1.05,1.051h4.2a1.051,1.051,0,0,0,0-2.1h-4.2A1.05,1.05,0,0,0,51.893,26.634ZM9.938,30.123c-.376-1.177-1.775-.575-2.3-.4C4.623,30.706.416,32.39,3.27,40.988a2.686,2.686,0,0,0,.234.5c2.63,3.932,5.985,3.909,9.07,3.224.261-.086,1.747-.867,1.413-1.911ZM34.471,11.6c-1.048,1.2-2.1,2.407-3.186,3.481a64.511,64.511,0,0,1-5.1,4.686A28.588,28.588,0,0,1,22.3,22.477a30.975,30.975,0,0,1-4.444,2.317l-5.879,1.922c-.523.171-.844,1.431-.849,1.866l4.631,14.506c.209.653,1.42.829,1.9.961l.844-.13,9.659-2.136c1.189-.249,7.787-.336,7.916-.379,2.4.353,4.761.576,7.07,1.1.325.074,1.757.5,3.378.937L35.248,10.593C34.875,11.086,34.6,11.46,34.471,11.6Zm23.807,21.51-3.849-1.4a.929.929,0,0,0-1.224.7,1.2,1.2,0,0,0,.7,1.4l3.849,1.4a.929.929,0,0,0,1.224-.7A1.2,1.2,0,0,0,58.278,33.113Zm-29.4,9.52c-3.076.642-6.45,1.583-9.288,2.286L31.125,55.135c1.471,1.037,3.833-.13,4.352-.3.259-.086,2.2-.736,3.2-1.212.259-.086,1.131-.495.528-1.039ZM43.183,8.483c-.33-1.041-1.46-3.256-3.527-2.586a8.411,8.411,0,0,0-2.55,2.34L49.253,44.131a7.768,7.768,0,0,0,2.641.337c1.672-.557,1.74-2.586,1.293-4.442Z" fill="#fffaf2" fill-rule="evenodd"/>
              </g>
            </g>
          </g>
        </g>
      </g>
    </g>
  </g>
</svg>
