<?xml version="1.0" standalone="no"?>
<!DOCTYPE svg PUBLIC "-//W3C//DTD SVG 20010904//EN"
 "http://www.w3.org/TR/2001/REC-SVG-20010904/DTD/svg10.dtd">
<svg version="1.0" xmlns="http://www.w3.org/2000/svg"
 width="334.000000pt" height="319.000000pt" viewBox="0 0 334.000000 319.000000"
 preserveAspectRatio="xMidYMid meet">

<g transform="translate(0.000000,319.000000) scale(0.100000,-0.100000)"
fill="#000000" stroke="none">
<path d="M232 2923 c8 -10 60 -79 115 -153 98 -134 518 -696 826 -1108 l160
-214 -45 -46 c-25 -26 -175 -186 -334 -357 -159 -171 -387 -414 -506 -542
-120 -127 -218 -234 -218 -238 0 -3 51 -4 113 -3 l113 3 488 523 c269 288 492
519 496 515 4 -4 181 -241 394 -525 l386 -518 416 0 415 0 -24 33 c-13 17 -80
106 -149 197 -571 758 -978 1301 -980 1308 -2 6 53 69 122 142 69 73 132 141
140 150 14 17 224 241 265 284 11 12 74 80 140 151 66 72 150 162 186 200 37
39 96 102 132 140 l66 70 -112 3 -112 3 -26 -31 c-27 -31 -222 -239 -384 -410
-126 -133 -347 -369 -367 -392 -44 -51 -149 -158 -157 -160 -6 -2 -592 766
-724 950 l-31 42 -409 0 c-390 0 -409 -1 -395 -17z m1058 -590 c179 -239 330
-440 335 -447 29 -33 1067 -1420 1072 -1432 4 -12 -26 -14 -184 -14 l-190 0
-39 53 c-40 52 -334 442 -644 852 -91 121 -305 405 -475 630 -170 226 -370
491 -445 590 -75 99 -140 186 -144 193 -6 9 35 12 191 12 l198 -1 325 -436z"/>
</g>
</svg>
