<?xml version="1.0" standalone="no"?>
<!DOCTYPE svg PUBLIC "-//W3C//DTD SVG 20010904//EN"
 "http://www.w3.org/TR/2001/REC-SVG-20010904/DTD/svg10.dtd">
<svg version="1.0" xmlns="http://www.w3.org/2000/svg"
 width="67.000000pt" height="64.000000pt" viewBox="0 0 67.000000 64.000000"
 preserveAspectRatio="xMidYMid meet">

<g transform="translate(0.000000,64.000000) scale(0.100000,-0.100000)"
fill="#000000" stroke="none">
<path d="M73 579 c-9 -9 15 -47 92 -149 l104 -138 -110 -119 c-84 -90 -105
-119 -92 -122 12 -2 50 31 119 105 56 60 104 107 107 104 2 -3 36 -49 76 -103
40 -54 78 -100 85 -103 7 -3 45 -4 84 -2 l71 3 -116 154 -115 153 43 47 c24
25 73 77 109 114 56 59 62 68 40 65 -16 -2 -56 -36 -114 -98 -50 -52 -92 -96
-95 -97 -3 -1 -40 43 -81 98 l-75 99 -60 0 c-34 0 -66 -5 -72 -11z m285 -239
c89 -118 167 -223 173 -232 8 -16 5 -18 -29 -18 l-39 0 -168 223 c-92 122
-170 228 -172 235 -4 10 4 13 33 10 38 -3 43 -8 202 -218z"/>
</g>
</svg>
