<svg width="24" height="24" viewBox="0 0 24 24" fill="none" xmlns="http://www.w3.org/2000/svg">
<path d="M23.4001 10.875V21H21.1201V17.625H2.8801V21H0.600098V3H2.8801V14.25H12.0001V6.375H18.8401C20.0495 6.375 21.2094 6.84908 22.0645 7.69305C22.9197 8.53691 23.4001 9.68149 23.4001 10.875ZM21.1201 14.25V10.875C21.1201 10.2783 20.8799 9.70601 20.4523 9.28403C20.0247 8.86204 19.4448 8.625 18.8401 8.625H14.2801V14.25H21.1201ZM7.4401 10.875C7.74243 10.875 8.03244 10.7564 8.24619 10.5455C8.45994 10.3345 8.5801 10.0483 8.5801 9.75C8.5801 9.45165 8.45994 9.16545 8.24619 8.95451C8.03244 8.74358 7.74243 8.625 7.4401 8.625C7.13777 8.625 6.84775 8.74358 6.634 8.95451C6.42025 9.16545 6.3001 9.45165 6.3001 9.75C6.3001 10.0483 6.42025 10.3345 6.634 10.5455C6.84775 10.7564 7.13777 10.875 7.4401 10.875ZM7.4401 13.125C6.53311 13.125 5.66318 12.7694 5.02182 12.1365C4.38045 11.5035 4.0201 10.645 4.0201 9.75C4.0201 8.85495 4.38045 7.99646 5.02182 7.36354C5.66318 6.73061 6.53311 6.375 7.4401 6.375C8.34708 6.375 9.21702 6.73061 9.85838 7.36354C10.4997 7.99646 10.8601 8.85495 10.8601 9.75C10.8601 10.645 10.4997 11.5035 9.85838 12.1365C9.21702 12.7694 8.34708 13.125 7.4401 13.125Z" fill="#2F296D"/>
</svg>
