<svg width="30" height="30" viewBox="0 0 30 30" fill="none" xmlns="http://www.w3.org/2000/svg">
<circle cx="15" cy="15" r="15" fill="white"/>
<path fill-rule="evenodd" clip-rule="evenodd" d="M15 14.2459C14.5412 14.2459 14.1106 14.4173 13.7788 14.7394C13.4541 15.0548 13.2776 15.4729 13.2847 15.9048V15.9117C13.2847 16.3573 13.4612 16.7754 13.7859 17.0908C14.1106 17.4061 14.5412 17.5775 15 17.5775C15.9459 17.5775 16.7082 16.8303 16.7153 15.9117C16.7153 15.4661 16.5388 15.0479 16.2141 14.7326C15.8894 14.4173 15.4588 14.2459 15 14.2459M18.96 14.2939C18.6071 14.2939 18.3247 14.0197 18.3247 13.6769C18.3247 13.3342 18.6071 13.0531 18.96 13.0531C19.3129 13.0531 19.6023 13.3342 19.6023 13.6769C19.6023 14.0197 19.3129 14.2939 18.96 14.2939M16.9553 17.8174C16.4541 18.3041 15.7623 18.6058 15 18.6058C14.2588 18.6058 13.567 18.3247 13.0376 17.8174C12.5153 17.3033 12.2259 16.6315 12.2259 15.9117C12.2188 15.1988 12.5082 14.527 13.0306 14.0128C13.56 13.4987 14.2588 13.2176 15 13.2176C15.7412 13.2176 16.44 13.4987 16.9623 14.006C17.4847 14.5201 17.7741 15.1988 17.7741 15.9117C17.767 16.6589 17.4565 17.3307 16.9553 17.8174M18.9812 11.1268C18.9176 11.1268 18.8682 11.0925 18.84 11.0445L18.7694 10.8937C18.5788 10.503 18.36 10.0506 18.2259 9.79006C17.9012 9.1731 17.3435 8.83034 16.6588 8.82349H13.3341C12.6494 8.83034 12.0988 9.1731 11.7741 9.79006C11.6329 10.0643 11.3929 10.5578 11.1953 10.9623L11.1529 11.0445C11.1318 11.0994 11.0753 11.1268 11.0188 11.1268C9.31763 11.1268 7.94116 12.4704 7.94116 14.1156V18.1876C7.94116 19.8328 9.31763 21.1764 11.0188 21.1764H18.9812C20.6753 21.1764 22.0588 19.8328 22.0588 18.1876V14.1156C22.0588 12.4704 20.6753 11.1268 18.9812 11.1268" fill="#30296D"/>
</svg>
