<svg width="24" height="24" viewBox="0 0 24 24" fill="none" xmlns="http://www.w3.org/2000/svg">
<path d="M5.66186 20.2725C6.54533 20.2725 7.26234 20.9761 7.26234 21.8431C7.26234 22.7102 6.54533 23.4138 5.66186 23.4138C4.7784 23.4138 4.06139 22.7102 4.06139 21.8431C4.06139 20.9761 4.7784 20.2725 5.66186 20.2725ZM19.5326 20.2725C20.4161 20.2725 21.1331 20.9761 21.1331 21.8431C21.1331 22.7102 20.4161 23.4138 19.5326 23.4138C18.6492 23.4138 17.9322 22.7102 17.9322 21.8431C17.9322 20.9761 18.6492 20.2725 19.5326 20.2725ZM2.11095 1.16992L6.19429 5.17828V17.1311H21.1331V19.2254H5.12837C4.5394 19.2254 4.06139 18.7562 4.06139 18.1782V6.0453L0.600098 2.65159L2.10988 1.16992H2.11095ZM16.8652 2.47149C17.4542 2.47149 17.9322 2.9406 17.9322 3.5186V5.61284H21.1256C21.72 5.61284 22.2001 6.09032 22.2001 6.65472V15.0421C22.2001 15.618 21.72 16.084 21.1256 16.084H8.33679C7.74248 16.084 7.26234 15.6065 7.26234 15.0421V6.65472C7.26234 6.07881 7.74248 5.61284 8.33679 5.61284H11.5292L11.5303 3.5186C11.5303 2.9406 12.0083 2.47149 12.5973 2.47149H16.8652ZM10.4633 7.70707H9.3963V13.9898H10.4633V7.70707ZM16.8652 7.70707H12.5973V13.9898H16.8652V7.70707ZM20.0661 7.70707H18.9991V13.9898H20.0661V7.70707ZM15.7982 4.56572H13.6642V5.61284H15.7982V4.56572Z" fill="#2F296D"/>
</svg>
