<svg width="25" height="25" viewBox="0 0 25 25" fill="none" xmlns="http://www.w3.org/2000/svg">
<path d="M12.5 4.25C13.5609 4.25 14.5783 4.67669 15.3284 5.43622C16.0786 6.19574 16.5 7.22587 16.5 8.3C16.5 9.37413 16.0786 10.4043 15.3284 11.1638C14.5783 11.9233 13.5609 12.35 12.5 12.35C11.4391 12.35 10.4217 11.9233 9.67157 11.1638C8.92143 10.4043 8.5 9.37413 8.5 8.3C8.5 7.22587 8.92143 6.19574 9.67157 5.43622C10.4217 4.67669 11.4391 4.25 12.5 4.25V4.25ZM12.5 14.375C16.92 14.375 20.5 16.1874 20.5 18.425V20.45H4.5V18.425C4.5 16.1874 8.08 14.375 12.5 14.375Z" stroke="#30296D" stroke-width="2"/>
</svg>
