<svg width="28" height="29" viewBox="0 0 28 29" fill="none" xmlns="http://www.w3.org/2000/svg">
<path d="M24 13.2007C24 18.7235 19.5228 23.2007 14 23.2007M24 13.2007C24 7.67784 19.5228 3.20068 14 3.20068M24 13.2007H4M14 23.2007C8.47715 23.2007 4 18.7235 4 13.2007M14 23.2007C16.5013 20.4623 17.9228 16.9086 18 13.2007C17.9228 9.49272 16.5013 5.93904 14 3.20068M14 23.2007C11.4987 20.4623 10.0772 16.9086 10 13.2007C10.0772 9.49272 11.4987 5.93904 14 3.20068M4 13.2007C4 7.67784 8.47715 3.20068 14 3.20068" stroke="#2F296D" stroke-linecap="round" stroke-linejoin="round"/>
</svg>
