<svg width="26" height="16" viewBox="0 0 26 16" fill="none" xmlns="http://www.w3.org/2000/svg">
<path d="M0.220215 6.78373C0.387414 6.24533 0.666606 5.79157 1.24339 5.63279C1.54256 5.55077 1.86171 5.5434 2.21241 5.49714C2.21241 5.44035 2.21241 5.35255 2.21241 5.26526C2.21241 4.62591 2.20452 3.98656 2.21399 3.34773C2.23765 1.77143 3.75822 0.852356 5.16942 1.55743C5.18415 1.56479 5.19992 1.57005 5.23041 1.58267C5.25197 1.54481 5.28142 1.50801 5.29666 1.46595C5.64894 0.46275 6.51806 -0.0651376 7.55018 0.099433C8.48712 0.248756 9.17485 1.08055 9.18379 2.10057C9.19325 3.15477 9.18589 4.20896 9.18589 5.26316C9.18589 5.34466 9.18589 5.42668 9.18589 5.5229C11.7133 5.5229 14.2229 5.5229 16.7572 5.5229C16.7572 5.42615 16.7572 5.33677 16.7572 5.24791C16.7572 4.20213 16.7488 3.15582 16.7593 2.11003C16.7735 0.70093 18.0175 -0.239172 19.3414 0.158321C19.9503 0.341294 20.3662 0.749303 20.6033 1.33871C20.6312 1.40758 20.6559 1.47751 20.6827 1.54692C20.6853 1.55428 20.6932 1.55901 20.7142 1.58214C21.0691 1.39654 21.4498 1.27456 21.8652 1.31347C22.9578 1.41547 23.7133 2.22991 23.7291 3.33774C23.7391 4.05912 23.7312 4.78049 23.7312 5.53867C23.8884 5.53867 24.034 5.53657 24.1797 5.5392C25.0809 5.5555 25.7108 6.18171 25.7223 7.0829C25.7302 7.70543 25.7281 8.32796 25.7229 8.95049C25.715 9.88165 25.0861 10.5079 24.155 10.5194C24.0235 10.521 23.8926 10.5194 23.7317 10.5194C23.7317 10.7834 23.7317 11.0294 23.7317 11.2755C23.7317 11.7655 23.7417 12.2556 23.7291 12.7445C23.6891 14.2919 22.1717 15.1984 20.7884 14.5065C20.7663 14.4954 20.7426 14.487 20.7505 14.4907C20.5581 14.793 20.4114 15.13 20.1727 15.3782C19.5675 16.0086 18.8204 16.1501 18.0033 15.8462C17.2577 15.5685 16.7688 14.8303 16.7603 13.9728C16.7503 12.9186 16.7577 11.8644 16.7577 10.8102C16.7577 10.7208 16.7577 10.6319 16.7577 10.532C14.2292 10.532 11.7254 10.532 9.18642 10.532C9.18642 10.6204 9.18642 10.7082 9.18642 10.7955C9.18642 11.8497 9.19588 12.9039 9.18379 13.9581C9.16749 15.3645 7.91454 16.302 6.59272 15.8977C5.98597 15.7121 5.57007 15.3025 5.33715 14.7105C5.30718 14.6347 5.27879 14.5585 5.24251 14.4644C4.74985 14.7425 4.23773 14.8309 3.70196 14.681C2.7892 14.4255 2.22608 13.6799 2.21452 12.7109C2.20663 12.0715 2.21294 11.4327 2.21294 10.7934C2.21294 10.7119 2.21294 10.6309 2.21294 10.5205C2.07255 10.5205 1.9511 10.521 1.82964 10.5205C1.01625 10.5157 0.50519 10.1372 0.264381 9.36165C0.254917 9.33116 0.235463 9.30382 0.220741 9.2749C0.220215 8.44416 0.220215 7.61394 0.220215 6.78373ZM8.19005 8.02826C8.19005 6.33524 8.19005 4.64168 8.19005 2.94866C8.19005 2.63319 8.20162 2.31719 8.18427 2.00277C8.14694 1.32451 7.47604 0.887058 6.84615 1.11998C6.43288 1.27246 6.19838 1.64734 6.19838 2.16629C6.19786 6.0755 6.19786 9.98471 6.19838 13.8944C6.19838 13.9607 6.19786 14.0275 6.20417 14.0932C6.26989 14.7657 6.96077 15.1879 7.57541 14.9208C8.01339 14.7304 8.19216 14.3734 8.19163 13.905C8.18795 11.9459 8.19005 9.98681 8.19005 8.02826ZM19.7463 8.02984C19.7463 6.37835 19.7463 4.72634 19.7463 3.07485C19.7463 2.72625 19.7563 2.37713 19.7421 2.02906C19.7147 1.3366 19.0417 0.883903 18.4029 1.11893C17.9807 1.27456 17.7541 1.64576 17.7541 2.1889C17.7535 6.08181 17.7535 9.97419 17.7541 13.8671C17.7541 13.9418 17.753 14.0169 17.7599 14.0911C17.8224 14.7436 18.4691 15.159 19.0843 14.9429C19.5002 14.7967 19.7452 14.4181 19.7457 13.9065C19.7468 11.9475 19.7463 9.98891 19.7463 8.02984ZM5.2015 8.02879C5.2015 7.17386 5.2015 6.31894 5.2015 5.46401C5.2015 4.74211 5.21149 4.01968 5.19782 3.29778C5.18467 2.58902 4.50588 2.12528 3.85759 2.36451C3.44275 2.51752 3.20982 2.88977 3.20982 3.4103C3.20877 6.27372 3.2093 9.13714 3.2093 12.0006C3.2093 12.2661 3.20246 12.5321 3.21351 12.7971C3.23191 13.2267 3.50952 13.5832 3.90596 13.7067C4.56845 13.9128 5.19676 13.4365 5.19939 12.7098C5.20518 11.1493 5.20097 9.58879 5.2015 8.02879ZM22.7348 8.03667C22.7348 7.3479 22.7348 6.65912 22.7348 5.96982C22.7348 5.08177 22.7432 4.19372 22.7311 3.30567C22.7217 2.60217 22.0734 2.14105 21.4225 2.35505C21.0066 2.49175 20.7437 2.86716 20.7437 3.35194C20.7416 6.47247 20.7426 9.59352 20.7426 12.7141C20.7426 12.764 20.7426 12.814 20.75 12.8634C20.811 13.2777 21.0329 13.5695 21.4319 13.7025C22.0897 13.9218 22.7296 13.4407 22.7327 12.7177C22.739 11.1577 22.7348 9.5972 22.7348 8.03667ZM16.7493 6.55186C14.2166 6.55186 11.7081 6.55186 9.20534 6.55186C9.20534 7.55085 9.20534 8.53249 9.20534 9.5094C11.7281 9.5094 14.2308 9.5094 16.7388 9.5094C16.7388 9.17763 16.7388 8.86005 16.7388 8.52671C16.6315 8.52671 16.5416 8.52671 16.4512 8.52671C15.4553 8.52671 14.46 8.52671 13.4642 8.52671C13.3895 8.52671 13.3143 8.52986 13.2407 8.52092C12.9673 8.48675 12.7733 8.27591 12.7765 8.02353C12.7802 7.76958 12.9752 7.56662 13.2518 7.53613C13.3254 7.52772 13.4011 7.5314 13.4758 7.5314C14.4795 7.5314 15.4837 7.5314 16.4875 7.5314C16.5742 7.5314 16.661 7.5314 16.7493 7.5314C16.7493 7.18333 16.7493 6.87785 16.7493 6.55186ZM2.20032 6.53609C2.0347 6.53609 1.87906 6.52767 1.72448 6.53766C1.42268 6.55764 1.22657 6.74324 1.22131 7.04662C1.21027 7.7007 1.21079 8.35477 1.22131 9.00885C1.22604 9.31275 1.42163 9.49941 1.72291 9.51939C1.87749 9.5299 2.03312 9.52096 2.20032 9.52096C2.20032 8.51987 2.20032 7.53928 2.20032 6.53609ZM23.7401 9.52307C23.9063 9.52307 24.0467 9.52832 24.1865 9.52202C24.5172 9.50729 24.7186 9.32117 24.7233 8.99413C24.7328 8.34846 24.7318 7.70228 24.7233 7.05661C24.7197 6.77742 24.5593 6.58498 24.3022 6.55133C24.1192 6.52715 23.9299 6.5466 23.7401 6.5466C23.7401 7.54454 23.7401 8.51882 23.7401 9.52307Z" fill="#30296D"/>
<path d="M11.2691 8.52298C11.0067 8.51615 10.778 8.27797 10.7848 8.01876C10.7917 7.75639 11.0293 7.52873 11.2896 7.53504C11.5519 7.54135 11.7801 7.779 11.7733 8.03927C11.7665 8.30163 11.5293 8.52982 11.2691 8.52298Z" fill="#30296D"/>
</svg>
