<svg width="24" height="24" viewBox="0 0 24 24" fill="none" xmlns="http://www.w3.org/2000/svg">
<path d="M8.94577 23.3107C8.54961 23.1862 8.15947 23.055 7.84331 22.7572C7.42906 22.367 7.19344 21.8903 7.13865 21.3195C7.12769 21.2028 7.13043 21.0851 7.13043 20.9673C7.12988 17.9522 7.12988 14.9365 7.12988 11.9213C7.12988 11.835 7.12988 11.7486 7.12988 11.6752C7.66194 11.6752 8.17317 11.6752 8.71947 11.6752C8.71947 11.7834 8.71947 11.8748 8.71947 11.9668C8.71947 14.9673 8.71892 17.9679 8.72057 20.969C8.72057 21.0856 8.71892 21.2079 8.7507 21.3172C8.81646 21.5404 9.0307 21.6823 9.28385 21.6828C12.4817 21.684 15.68 21.6845 18.8778 21.6823C19.2329 21.6823 19.4444 21.4445 19.4444 21.0571C19.4455 19.0103 19.4449 16.963 19.4449 14.9163C19.4449 12.1726 19.4449 9.42826 19.4449 6.68453C19.4449 6.1535 19.2576 5.96453 18.7315 5.96453C17.1326 5.96453 15.5337 5.96453 13.9343 5.96453C13.8565 5.96453 13.7786 5.96453 13.7085 5.96453C13.6307 5.41668 13.5551 4.88453 13.4778 4.33668C13.5491 4.33668 13.6269 4.33668 13.7047 4.33668C15.3967 4.33668 17.0893 4.33611 18.7814 4.33668C20.1239 4.33724 21.0351 5.2692 21.0351 6.64247C21.0356 11.4262 21.0269 16.2094 21.0417 20.9931C21.045 22.1012 20.3556 23.0853 19.2433 23.2815C19.223 23.2849 19.2055 23.3006 19.1863 23.3107C15.7732 23.3107 12.3595 23.3107 8.94577 23.3107Z" fill="white"/>
<path d="M12.9585 5.87171C12.9722 8.68162 10.7464 10.9717 7.98202 10.9913C5.24284 11.011 2.99133 8.72704 2.96722 5.90536C2.94366 3.10162 5.20558 0.775639 7.9601 0.770032C10.7064 0.763864 12.9448 3.04891 12.9585 5.87171ZM7.97544 9.9147C10.1513 9.89564 11.9267 8.0676 11.9059 5.86723C11.885 3.6377 10.1069 1.8377 7.94476 1.85844C5.76065 1.87919 4.00832 3.69377 4.03243 5.90928C4.05654 8.13265 5.82969 9.93321 7.97544 9.9147Z" fill="white"/>
<path d="M14.2122 11.9066C13.2812 11.9066 12.3503 11.9139 11.4193 11.8993C11.2681 11.897 11.0862 11.8348 10.9744 11.735C10.6714 11.4641 10.8067 10.9634 11.1985 10.8479C11.273 10.826 11.3536 10.8187 11.4314 10.8187C13.279 10.817 15.1267 10.8165 16.9744 10.8198C17.0796 10.8198 17.1925 10.8339 17.2878 10.8748C17.5169 10.9724 17.638 11.2236 17.5941 11.4681C17.5503 11.7137 17.3229 11.9038 17.0478 11.9054C16.353 11.9099 15.6582 11.9071 14.964 11.9071C14.7136 11.9066 14.4632 11.9066 14.2122 11.9066Z" fill="white"/>
<path d="M14.2148 14.109C15.1616 14.109 16.1079 14.1074 17.0548 14.1102C17.3244 14.1107 17.5435 14.2834 17.5983 14.5218C17.6548 14.7674 17.549 15.0135 17.3167 15.1262C17.2235 15.1717 17.1107 15.193 17.0066 15.1935C15.149 15.1975 13.292 15.1958 11.4345 15.1975C11.1731 15.1975 10.9688 15.0993 10.8625 14.8509C10.7786 14.6541 10.7983 14.4399 10.9622 14.3053C11.086 14.2038 11.2635 14.1203 11.4186 14.1174C12.3501 14.1006 13.2822 14.109 14.2148 14.109Z" fill="white"/>
<path d="M14.2384 17.5363C15.1847 17.5363 16.1315 17.5341 17.0778 17.538C17.343 17.5391 17.5567 17.7247 17.6011 17.9698C17.6471 18.221 17.5326 18.4565 17.2959 18.5619C17.2137 18.5984 17.1156 18.6107 17.0247 18.6107C15.1534 18.6135 13.2817 18.6141 11.4104 18.6118C11.057 18.6113 10.8258 18.3948 10.823 18.0802C10.8197 17.7578 11.057 17.5374 11.4203 17.5363C12.3595 17.5341 13.2992 17.5358 14.2384 17.5358V17.5363Z" fill="white"/>
<path d="M7.92341 5.95418C8.02478 5.95418 8.10149 5.95418 8.1782 5.95418C8.89436 5.95418 9.61053 5.9525 10.3267 5.95474C10.6735 5.95586 10.9103 6.17399 10.9135 6.48633C10.9168 6.80203 10.6889 7.02969 10.3404 7.03137C9.37382 7.03698 8.40669 7.03698 7.44012 7.03137C7.06916 7.02913 6.86587 6.80427 6.86478 6.41904C6.86313 5.57623 6.86313 4.73343 6.86478 3.89119C6.86533 3.5396 7.08067 3.28895 7.38039 3.28053C7.68505 3.27212 7.91793 3.52558 7.92121 3.89007C7.92724 4.49063 7.92286 5.09175 7.92341 5.69287C7.92341 5.77137 7.92341 5.84988 7.92341 5.95418Z" fill="white"/>
</svg>
