<svg width="26" height="20" viewBox="0 0 26 20" fill="none" xmlns="http://www.w3.org/2000/svg">
<path d="M0.515808 7.53514C0.902524 7.53514 1.28924 7.53514 1.69076 7.53514C1.59359 5.90141 1.26994 4.29213 1.35101 2.62429C1.95586 2.62429 2.54848 2.62429 3.15912 2.62429C3.25371 1.79102 3.34508 0.9867 3.43774 0.172729C4.2427 0.172729 5.02836 0.172729 5.83396 0.172729C5.83396 0.426251 5.83396 0.677841 5.83396 0.974474C5.56628 0.974474 5.28896 0.974474 5.01098 0.974474C4.78706 0.974474 4.56249 0.966109 4.33986 0.980265C4.27744 0.984126 4.17127 1.0459 4.16548 1.09158C4.09985 1.58962 4.05031 2.08958 3.99368 2.61335C4.48271 2.61335 4.94406 2.61335 5.43502 2.61335C5.51996 4.27668 5.18986 5.89176 5.09721 7.55251C5.48907 7.55251 5.86549 7.55251 6.25864 7.55251C6.25864 7.83563 6.25864 8.08851 6.25864 8.36906C5.45046 8.36906 4.64293 8.36906 3.8193 8.36906C3.8193 11.9422 3.8193 15.4882 3.8193 19.0646C4.62491 19.0646 5.43309 19.0646 6.258 19.0646C6.258 19.347 6.258 19.5993 6.258 19.8811C4.33986 19.8811 2.42816 19.8811 0.515808 19.8811C0.515808 19.6154 0.515808 19.3503 0.515808 19.0845C1.33171 19.0845 2.14761 19.0845 2.96801 19.0845C2.96801 15.4863 2.96801 11.9409 2.96801 8.38064C2.13924 8.38064 1.3272 8.38064 0.515808 8.38064C0.515808 8.09881 0.515808 7.81697 0.515808 7.53514ZM4.45761 5.51791C4.17578 5.51791 3.92547 5.51791 3.66809 5.51791C3.59281 6.19804 3.51945 6.85951 3.44481 7.53836C3.72407 7.53836 3.97566 7.53836 4.25364 7.53836C4.32184 6.86273 4.38941 6.19482 4.45761 5.51791ZM2.15919 3.45821C2.15919 3.57467 2.15469 3.66476 2.16048 3.75356C2.16949 3.90155 2.183 4.0489 2.19844 4.19625C2.25314 4.72453 2.28467 4.75027 2.80458 4.68077C2.85284 4.67434 2.93262 4.63638 2.93648 4.60549C2.98603 4.22714 3.02335 3.84686 3.06518 3.45821C2.74667 3.45821 2.46869 3.45821 2.15919 3.45821ZM3.76332 4.6634C4.03551 4.6634 4.28452 4.6634 4.54963 4.6634C4.5818 4.25288 4.61268 3.86166 4.64421 3.46207C4.36688 3.46207 4.13846 3.46207 3.89716 3.46207C3.85276 3.85908 3.80965 4.24387 3.76332 4.6634ZM2.52918 7.5242C2.55749 7.52806 2.5858 7.53128 2.61476 7.53514C2.6894 6.86659 2.76404 6.19868 2.83997 5.51855C2.6598 5.51855 2.50215 5.51855 2.32778 5.51855C2.39663 6.20126 2.4629 6.86273 2.52918 7.5242Z" fill="#30296D"/>
<path d="M9.14389 7.1832C9.14389 6.75273 9.14389 6.39754 9.14389 6.04171C9.14389 5.36158 9.14067 4.68081 9.14454 4.00067C9.15033 3.12751 9.65158 2.61596 10.5196 2.62561C10.7628 2.62819 10.869 2.55805 10.9719 2.33413C11.2338 1.76274 11.699 1.43651 12.3348 1.40691C12.8315 1.38374 13.3296 1.39468 13.8276 1.39404C15.7522 1.39275 17.6767 1.40369 19.6013 1.38889C20.4455 1.38246 21.06 1.69132 21.3837 2.50078C21.4056 2.55547 21.5014 2.60309 21.569 2.61339C21.7157 2.63526 21.8676 2.62111 22.0149 2.63977C22.6725 2.72213 23.1101 3.19957 23.1165 3.86684C23.1262 4.85389 23.1197 5.8416 23.1197 6.82866C23.1197 6.91874 23.1197 7.00947 23.1197 7.14138C23.2613 7.14138 23.3906 7.12979 23.518 7.14395C23.7226 7.16647 23.9665 7.14395 24.1209 7.24883C24.6466 7.60466 25.1917 7.95727 25.6318 8.40641C26.0667 8.85039 26.0713 9.44108 25.8776 10.0408C25.5134 11.1662 25.1376 12.2909 24.8461 13.4363C24.5057 14.7734 24.3822 16.1478 24.3674 17.5287C24.3661 17.6471 24.4156 17.7854 24.4871 17.8813C24.7869 18.2841 24.8577 18.7158 24.6486 19.1675C24.4304 19.6379 24.0431 19.8863 23.52 19.8818C23.0168 19.8779 22.6455 19.6302 22.4357 19.1811C22.3559 19.0105 22.2549 18.934 22.087 18.8806C20.3265 18.3182 18.5325 17.9276 16.682 17.8543C14.4839 17.7674 12.3637 18.2049 10.277 18.8503C10.064 18.9159 9.91797 19.0054 9.81051 19.228C9.49586 19.8811 8.67288 20.0825 8.06739 19.6881C7.46512 19.2962 7.33643 18.4752 7.77076 17.8967C7.85055 17.7899 7.90138 17.6316 7.90009 17.4978C7.88015 14.9394 7.34029 12.4827 6.42465 10.1032C6.19687 9.51122 6.22518 8.94948 6.60611 8.42957C6.70777 8.29123 6.84547 8.17862 6.97288 8.06152C7.04559 7.9946 7.13181 7.94248 7.21031 7.8807C7.7669 7.44251 8.30933 6.967 9.14389 7.1832ZM20.6476 9.1837C20.6527 9.09619 20.6611 9.02412 20.6611 8.95141C20.6617 7.01976 20.6637 5.08747 20.6604 3.15582C20.6592 2.53295 20.3291 2.21123 19.7011 2.21123C17.3299 2.20994 14.9594 2.21058 12.5883 2.21123C11.9262 2.21123 11.6154 2.52395 11.6148 3.1867C11.6141 5.10227 11.6148 7.01719 11.6148 8.93275C11.6148 9.01318 11.6148 9.09426 11.6148 9.18434C14.639 9.1837 17.6349 9.1837 20.6476 9.1837ZM9.56664 14.11C9.56664 15.2933 9.55763 16.4946 9.57372 17.6953C9.57758 17.9624 9.87421 18.1103 10.138 18.0363C10.7036 17.8768 11.2666 17.7069 11.8374 17.5673C14.242 16.9785 16.6691 16.8202 19.1091 17.3002C20.1553 17.5061 21.1829 17.8041 22.2202 18.0569C22.2955 18.075 22.4274 18.0988 22.4467 18.0672C22.5503 17.8986 22.7266 17.7835 22.7214 17.5351C22.7028 16.6066 22.7137 15.6768 22.7137 14.7477C22.7137 14.5257 22.7137 14.303 22.7137 14.11C18.3234 14.11 13.9569 14.11 9.56664 14.11ZM9.56342 12.087C9.56342 12.3057 9.56342 12.4956 9.56342 12.6854C9.56407 13.2066 9.66766 13.3108 10.1869 13.3108C14.157 13.3108 18.1278 13.3108 22.0979 13.3108C22.1809 13.3108 22.2832 13.3372 22.3424 13.2986C22.4718 13.2143 22.6584 13.1094 22.6783 12.9897C22.7272 12.6963 22.6944 12.3894 22.6944 12.087C18.3131 12.087 13.9556 12.087 9.56342 12.087ZM10.1515 11.2408C14.1641 11.2408 18.1162 11.2408 22.1333 11.2408C21.7485 10.8618 21.4004 10.5317 21.0678 10.1862C20.9474 10.0614 20.8245 10.0202 20.6547 10.0202C17.7031 10.0247 14.7516 10.0286 11.8007 10.0163C11.4938 10.015 11.2724 10.089 11.0685 10.32C10.7918 10.6328 10.4803 10.9146 10.1515 11.2408ZM23.5476 9.62768C23.5476 12.0657 23.5476 14.4941 23.5476 16.9251C23.6763 14.4111 24.211 11.9847 25.155 9.62768C24.5874 9.62768 24.0759 9.62768 23.5476 9.62768ZM8.7205 9.63476C8.18321 9.63476 7.66781 9.63476 7.1183 9.63476C8.02042 11.9184 8.57894 14.2541 8.7205 16.6844C8.7205 14.341 8.7205 11.9975 8.7205 9.63476ZM21.4924 3.44988C21.4924 4.74515 21.4924 6.00761 21.4924 7.26685C21.7653 7.21344 22.0226 7.1639 22.2974 7.10985C22.2974 6.02305 22.3051 4.92982 22.2916 3.83659C22.2884 3.58565 22.1166 3.4621 21.8586 3.44988C21.7427 3.44537 21.6269 3.44988 21.4924 3.44988ZM10.7776 3.47497C10.1264 3.38489 9.97137 3.51487 9.97137 4.13065C9.97137 4.99931 9.97137 5.86862 9.97137 6.73729C9.97137 6.86791 9.97137 6.99788 9.97137 7.11178C10.2564 7.16583 10.5106 7.21408 10.7776 7.26427C10.7776 5.99989 10.7776 4.74386 10.7776 3.47497ZM21.6237 8.28093C21.587 8.28737 21.5497 8.2938 21.513 8.30024C21.5008 8.65864 21.4545 9.02091 21.4937 9.37352C21.5098 9.52087 21.7003 9.65471 21.8232 9.78469C22.0986 10.0755 22.3804 10.3593 22.6603 10.6463C22.7137 10.23 22.7163 9.85096 22.7111 9.47197C22.7105 9.41985 22.6886 9.35421 22.6532 9.31754C22.3128 8.96943 21.9673 8.62582 21.6237 8.28093ZM9.56471 10.5948C9.58723 10.6057 9.60975 10.616 9.63227 10.627C9.86199 10.3889 10.0666 10.118 10.3266 9.91981C10.7358 9.60645 10.8619 9.21394 10.7886 8.72942C10.766 8.58143 10.7371 8.43472 10.6991 8.22045C10.3034 8.62068 9.9643 8.96106 9.63034 9.30531C9.59431 9.34263 9.56857 9.40633 9.56793 9.45845C9.56214 9.83681 9.56471 10.2158 9.56471 10.5948ZM7.44581 8.73071C7.45289 8.74872 7.45997 8.76739 7.46641 8.7854C7.94514 8.7854 8.42387 8.78669 8.90324 8.78283C8.94764 8.78218 9.00233 8.76031 9.03515 8.73006C9.27902 8.49971 9.51838 8.26549 9.8118 7.98044C9.33114 7.98044 8.9367 7.97851 8.54226 7.98301C8.48821 7.98366 8.4258 8.00746 8.3814 8.03964C8.06675 8.26742 7.7566 8.49971 7.44581 8.73071ZM22.5027 7.98044C23.2137 8.78604 23.2137 8.78604 24.2046 8.78604C24.3281 8.78604 24.4523 8.78604 24.5759 8.78604C24.6576 8.78604 24.7393 8.78604 24.8204 8.78604C24.5321 8.51193 24.2438 8.29187 23.9498 8.07953C23.8854 8.0332 23.8031 7.98623 23.7278 7.9843C23.3346 7.97529 22.9415 7.98044 22.5027 7.98044ZM9.13746 18.6573C9.13746 18.4308 8.95214 18.2455 8.73015 18.2493C8.52231 18.2532 8.33829 18.4359 8.33185 18.6451C8.32477 18.8658 8.51009 19.0594 8.73079 19.0633C8.95343 19.0672 9.13746 18.8838 9.13746 18.6573ZM23.9427 18.6599C23.9446 18.4462 23.7445 18.2461 23.5309 18.248C23.3263 18.25 23.1358 18.4366 23.1268 18.6425C23.1172 18.8568 23.3089 19.0588 23.5264 19.0639C23.7419 19.0697 23.9408 18.8767 23.9427 18.6599Z" fill="#30296D"/>
</svg>
