<svg width="48" height="48" viewBox="0 0 48 48" fill="none" xmlns="http://www.w3.org/2000/svg">
<g clip-path="url(#clip0_537_18)">
<path d="M24 48C37.2548 48 48 37.2548 48 24C48 10.7452 37.2548 0 24 0C10.7452 0 0 10.7452 0 24C0 37.2548 10.7452 48 24 48Z" fill="white" fill-opacity="0.2"/>
<path d="M33 19.75H15C14.59 19.75 14.25 19.41 14.25 19C14.25 18.59 14.59 18.25 15 18.25H33C33.41 18.25 33.75 18.59 33.75 19C33.75 19.41 33.41 19.75 33 19.75Z" fill="white"/>
<path d="M33 24.75H15C14.59 24.75 14.25 24.41 14.25 24C14.25 23.59 14.59 23.25 15 23.25H33C33.41 23.25 33.75 23.59 33.75 24C33.75 24.41 33.41 24.75 33 24.75Z" fill="white"/>
<path d="M33 29.75H15C14.59 29.75 14.25 29.41 14.25 29C14.25 28.59 14.59 28.25 15 28.25H33C33.41 28.25 33.75 28.59 33.75 29C33.75 29.41 33.41 29.75 33 29.75Z" fill="white"/>
</g>
<defs>
<clipPath id="clip0_537_18">
<rect width="48" height="48" fill="white"/>
</clipPath>
</defs>
</svg>
