<svg width="22" height="20" viewBox="0 0 22 20" fill="none" xmlns="http://www.w3.org/2000/svg">
<path d="M0.181763 10.6224C0.324811 10.2913 0.574302 10.1398 0.960646 10.2C0.965715 10.1043 0.972473 10.0305 0.972473 9.95673C0.973599 9.3592 0.989932 8.7611 0.969094 8.16468C0.941498 7.3858 1.27378 6.86204 1.99803 6.57876C2.4942 6.38446 2.98755 6.18171 3.48202 5.98235C3.54566 5.95644 3.60817 5.92715 3.68026 5.89618C3.5496 5.74693 3.42458 5.61459 3.3125 5.47266C2.91489 4.96692 2.66597 4.40712 2.69863 3.74594C2.72398 3.23457 2.68624 2.7125 2.77635 2.21352C2.99768 0.986903 3.91567 0.244064 5.21325 0.16916C5.68689 0.142127 6.15996 0.166344 6.60375 0.341494C7.05993 0.52115 7.48175 0.462016 7.90133 0.248006C7.98242 0.20633 8.06409 0.165218 8.14744 0.127484C8.45662 -0.0110589 8.69147 0.1196 8.6926 0.462579C8.69372 0.737976 8.63797 1.01394 8.60474 1.31073C8.7568 1.2302 8.91168 1.14347 9.07106 1.06462C9.1775 1.01225 9.28619 0.954239 9.40052 0.929459C9.66465 0.872014 9.89331 1.09278 9.82235 1.35072C9.60383 2.14988 9.29746 2.89722 8.53829 3.3534C8.49098 3.38212 8.44311 3.46322 8.44705 3.51616C8.51576 4.44823 8.14349 5.1967 7.49978 5.83592C7.48626 5.84943 7.48063 5.87027 7.46092 5.90801C7.80277 6.04542 8.14011 6.1789 8.47521 6.31631C8.75399 6.43064 9.03445 6.54271 9.30816 6.66943C9.85163 6.92117 10.1332 7.35088 10.1394 7.95124C10.1456 8.61185 10.1445 9.27247 10.1462 9.93308C10.1462 10.0085 10.1462 10.084 10.1462 10.1741C10.5308 10.1741 10.8918 10.1741 11.2838 10.1741C11.2838 10.0868 11.2838 10.0057 11.2838 9.92407C11.2838 8.96835 11.2872 8.01206 11.2821 7.05634C11.2793 6.55398 11.3683 6.09555 11.7631 5.73454C11.8374 5.6664 11.869 5.52279 11.8723 5.4124C11.8847 4.9979 11.8768 4.5834 11.8774 4.16833C11.8785 3.6502 12.0762 3.45083 12.5865 3.45027C12.8044 3.45027 13.0224 3.44858 13.2397 3.45083C13.6345 3.45478 13.8564 3.66372 13.8649 4.05964C13.8739 4.50906 13.8592 4.9596 13.8733 5.40902C13.8767 5.52504 13.915 5.67485 13.9944 5.74806C14.3672 6.09498 14.4641 6.53032 14.463 7.01072C14.4607 7.98052 14.4624 8.95033 14.4624 9.92069C14.4624 10.0029 14.4624 10.0851 14.4624 10.1775C15.078 10.1775 15.6659 10.1775 16.2866 10.1775C16.2866 9.94266 16.2911 9.70724 16.2809 9.4724C16.2792 9.43917 16.2105 9.39862 16.1649 9.37835C15.6592 9.148 15.4001 8.75997 15.4012 8.20129C15.4018 7.96926 15.3979 7.73723 15.4024 7.50576C15.4091 7.19038 15.6006 6.99213 15.9166 6.98707C16.3733 6.97974 16.83 6.97974 17.2868 6.9865C17.6123 6.99157 17.8015 7.1915 17.8077 7.52096C17.8111 7.70344 17.8089 7.88647 17.8083 8.06894C17.8083 8.79883 17.5988 9.12491 16.9286 9.43072C16.9286 9.6712 16.9286 9.91562 16.9286 10.1741C17.7452 10.1741 18.5556 10.1741 19.392 10.1741C19.392 9.94097 19.3982 9.71795 19.3863 9.49605C19.3841 9.45381 19.3159 9.40087 19.2664 9.37835C18.7584 9.148 18.5055 8.75546 18.5038 8.1996C18.5033 7.96081 18.4965 7.72146 18.5083 7.48267C18.5235 7.17179 18.7105 6.99044 19.022 6.98594C19.4787 6.97918 19.9354 6.97974 20.3922 6.98594C20.6907 6.99044 20.8912 7.16728 20.9075 7.4607C20.9238 7.76144 20.9283 8.06669 20.9013 8.3663C20.8585 8.83825 20.6045 9.17785 20.1658 9.36314C20.0565 9.40932 20.0182 9.46564 20.0233 9.58053C20.0317 9.77483 20.0255 9.96969 20.0255 10.1888C20.3871 10.1888 20.7228 10.1882 21.0584 10.1888C21.5681 10.1899 21.7692 10.3926 21.7692 10.9057C21.7697 12.0304 21.7742 13.1551 21.7624 14.2792C21.7613 14.4019 21.6982 14.5653 21.607 14.6374C21.4065 14.7962 21.1412 14.6227 21.139 14.3422C21.1333 13.7588 21.1373 13.1753 21.1373 12.5924C21.1373 12.0107 21.1373 11.4289 21.1373 10.8342C14.3616 10.8342 7.60453 10.8342 0.83055 10.8342C0.83055 13.6653 0.83055 16.4998 0.83055 19.3495C0.890248 19.3535 0.951072 19.3608 1.0119 19.3613C2.12925 19.3619 3.24661 19.3585 4.36397 19.3653C4.53123 19.3664 4.59487 19.3197 4.61627 19.149C4.65626 18.8297 4.72497 18.5138 4.78692 18.168C4.70019 18.1635 4.62697 18.1567 4.55432 18.1567C4.07674 18.1556 3.5986 18.1578 3.12102 18.1556C2.81296 18.1539 2.7206 18.0773 2.6609 17.7827C2.60796 17.5209 2.45872 17.3637 2.18782 17.3153C1.91186 17.2657 1.82288 17.1503 1.82288 16.8648C1.82119 15.6838 1.82119 14.5033 1.82288 13.3223C1.82344 13.0283 1.90961 12.9225 2.20585 12.865C2.46716 12.8143 2.60796 12.6555 2.66034 12.4038C2.72172 12.107 2.81183 12.0281 3.1182 12.0281C5.44415 12.027 7.7701 12.027 10.0961 12.0287C10.18 12.0287 10.2667 12.0315 10.3461 12.0546C10.4908 12.0968 10.5618 12.2055 10.5579 12.3565C10.5539 12.508 10.4745 12.6082 10.3292 12.6459C10.2695 12.6617 10.2036 12.6595 10.1411 12.6595C7.92047 12.66 5.69984 12.6617 3.4792 12.6555C3.31476 12.655 3.23253 12.6994 3.1672 12.8543C3.05625 13.1156 2.85182 13.3009 2.58712 13.4074C2.488 13.4473 2.45139 13.4975 2.45196 13.6062C2.45646 14.5974 2.45252 15.588 2.45928 16.5792C2.45984 16.6417 2.51672 16.7363 2.57248 16.7617C2.86928 16.8969 3.07428 17.1114 3.21394 17.4026C3.23985 17.4567 3.31982 17.5175 3.37614 17.5186C3.87456 17.5276 4.37298 17.5237 4.90012 17.5237C5.00938 16.9137 5.11807 16.31 5.22902 15.6916C5.1558 15.6657 5.09216 15.6438 5.02852 15.6201C4.57572 15.4517 4.29188 14.9758 4.37016 14.5163C4.45408 14.0224 4.84943 13.6614 5.34391 13.6569C6.28555 13.6484 7.22719 13.6495 8.16884 13.6546C8.71344 13.658 9.11499 14.0235 9.18595 14.5608C9.24902 15.0378 8.93702 15.4906 8.44029 15.6443C8.40706 15.6545 8.3744 15.6674 8.32428 15.6849C8.42678 16.265 8.52421 16.8445 8.6391 17.42C8.64811 17.4662 8.77595 17.5186 8.8486 17.5186C10.0364 17.5248 11.2235 17.5231 12.4113 17.5231C12.6574 17.5231 12.9035 17.5186 13.1491 17.5254C13.26 17.5282 13.3146 17.4938 13.3338 17.3801C13.4284 16.8203 13.5287 16.261 13.6289 15.6883C13.5596 15.6646 13.4949 15.6432 13.4312 15.6201C12.975 15.4528 12.6968 14.9854 12.7746 14.518C12.8573 14.0195 13.2465 13.6608 13.7427 13.6563C14.6843 13.6473 15.626 13.649 16.5676 13.654C17.1009 13.6569 17.5087 14.0184 17.5864 14.5365C17.6585 15.0209 17.347 15.4849 16.8436 15.6438C16.8103 15.6539 16.7788 15.668 16.7259 15.6877C16.8334 16.2948 16.941 16.9002 17.0514 17.5231C17.5768 17.5231 18.0882 17.5265 18.5996 17.518C18.648 17.5175 18.7161 17.4527 18.7404 17.4015C18.8778 17.1086 19.085 16.8957 19.3813 16.7606C19.4365 16.7352 19.4928 16.6406 19.4933 16.5781C19.5001 15.5869 19.4962 14.5962 19.5007 13.605C19.5012 13.4952 19.4624 13.4468 19.3649 13.4068C19.094 13.2959 18.8862 13.1061 18.7758 12.8346C18.7178 12.6921 18.6396 12.6555 18.4937 12.6561C16.2731 12.6606 14.0524 12.6595 11.8318 12.6595C11.7828 12.6595 11.7332 12.6623 11.6848 12.6561C11.5063 12.6335 11.4021 12.5316 11.3993 12.3508C11.3964 12.1689 11.5006 12.0642 11.6769 12.0377C11.7597 12.0253 11.8453 12.027 11.9292 12.027C14.2129 12.0264 16.4966 12.0264 18.7803 12.027C19.147 12.027 19.2157 12.0833 19.2979 12.4336C19.3531 12.6673 19.4933 12.8132 19.7349 12.8628C20.0526 12.9275 20.1292 13.0255 20.1292 13.3533C20.1297 14.5129 20.1297 15.6725 20.1292 16.8326C20.1292 17.1587 20.0515 17.2556 19.7321 17.3215C19.481 17.3733 19.3435 17.5293 19.2928 17.7726C19.2286 18.0801 19.1397 18.1544 18.8198 18.1556C18.2797 18.1573 17.7396 18.1561 17.1646 18.1561C17.2338 18.547 17.2958 18.9159 17.369 19.2831C17.3758 19.3157 17.4507 19.3574 17.4935 19.358C18.6947 19.3591 19.896 19.3557 21.0979 19.3529C21.1035 19.3529 21.1091 19.3461 21.1384 19.327C21.1384 19.2673 21.1384 19.1924 21.1384 19.1175C21.1384 18.0773 21.1384 17.0371 21.1384 15.9969C21.1384 15.9338 21.1328 15.8696 21.1423 15.8077C21.1694 15.6303 21.2803 15.5249 21.4555 15.5261C21.6306 15.5266 21.7388 15.6336 21.7675 15.8105C21.7731 15.8448 21.7709 15.8809 21.7709 15.9158C21.7709 17.0686 21.7731 18.2209 21.7697 19.3737C21.7686 19.7612 21.5411 19.9842 21.1536 19.9944C21.1046 19.9955 21.055 19.9949 21.0061 19.9949C14.3166 19.9949 7.62649 19.9932 0.936993 20C0.58106 20.0006 0.323685 19.8997 0.182889 19.563C0.181763 16.5832 0.181763 13.6028 0.181763 10.6224ZM8.28542 10.1713C8.6971 10.1713 9.09696 10.1713 9.49908 10.1713C9.50527 10.1279 9.51259 10.1003 9.51259 10.0728C9.51203 9.3913 9.50246 8.70928 9.51316 8.02839C9.51935 7.62459 9.34195 7.35989 8.97701 7.21065C8.39298 6.97186 7.80784 6.73476 7.22269 6.49879C7.20072 6.48977 7.172 6.49766 7.14722 6.49766C7.01262 7.72033 6.50632 8.33645 5.60635 8.36856C5.2431 8.38151 4.9142 8.26718 4.62866 8.04078C4.13081 7.64599 3.96692 7.10533 3.9872 6.44021C3.27815 6.74546 2.60683 7.02424 1.94509 7.32498C1.70799 7.43254 1.61507 7.66176 1.61338 7.91857C1.60887 8.55779 1.60831 9.19756 1.60605 9.83678C1.60549 9.94716 1.60605 10.057 1.60605 10.1724C2.03407 10.1724 2.43562 10.1724 2.8552 10.1724C2.8552 10.0851 2.8552 10.0159 2.8552 9.9466C2.8552 9.67233 2.85294 9.39862 2.85632 9.12435C2.8597 8.87486 2.97572 8.73125 3.16833 8.72787C3.36094 8.72449 3.48315 8.86979 3.48709 9.11478C3.49047 9.33949 3.48822 9.5642 3.48822 9.78947C3.48822 9.919 3.48822 10.0485 3.48822 10.1781C4.89561 10.1781 6.26302 10.1781 7.6248 10.1781C7.63663 10.1538 7.64733 10.1415 7.64789 10.1291C7.65071 9.79172 7.65071 9.45494 7.65521 9.11759C7.65859 8.87317 7.78137 8.7273 7.9751 8.72787C8.16771 8.72843 8.28485 8.87317 8.28654 9.12041C8.28711 9.46395 8.28542 9.80805 8.28542 10.1713ZM7.82586 3.59613C7.52343 3.59613 7.25873 3.63162 7.00699 3.58938C6.28837 3.46886 5.5765 3.30947 4.85901 3.17882C4.39945 3.09546 3.93595 3.07125 3.49328 3.26667C3.42852 3.29539 3.34291 3.37199 3.3401 3.43C3.31926 3.85126 3.31419 4.27083 3.53158 4.65999C3.84302 5.21585 4.26597 5.66133 4.85056 5.9142C5.11244 6.0274 5.42219 6.11131 5.7004 6.08879C6.57559 6.01726 7.58932 5.0728 7.76729 4.21226C7.80727 4.02303 7.80558 3.82479 7.82586 3.59613ZM8.03818 0.945791C8.02072 0.927769 8.00326 0.91031 7.98524 0.892288C7.4091 1.18345 6.84648 1.08546 6.26528 0.902426C5.67619 0.716575 5.07076 0.746987 4.48843 0.967192C3.81148 1.22344 3.3232 1.95051 3.36769 2.62802C3.9382 2.43372 4.51603 2.46582 5.09216 2.57508C5.50498 2.65336 5.91329 2.75474 6.32497 2.8409C6.81945 2.94453 7.31449 3.0521 7.82417 2.94509C8.34399 2.83584 8.89647 2.30137 8.93927 1.89363C8.65599 1.97191 8.36483 2.07666 8.06465 2.12453C7.94525 2.14368 7.77461 2.06709 7.68281 1.97754C7.56454 1.86209 7.63775 1.71059 7.7166 1.57374C7.83487 1.36931 7.9323 1.1553 8.03818 0.945791ZM13.184 18.1702C11.7028 18.1702 10.2481 18.1702 8.7675 18.1702C8.83339 18.5504 8.89197 18.9147 8.96574 19.2763C8.97363 19.3146 9.06824 19.3568 9.12456 19.3591C9.34871 19.3687 9.57342 19.363 9.79757 19.363C10.7933 19.363 11.7895 19.3647 12.7853 19.3591C12.8545 19.3585 12.9745 19.3163 12.9835 19.2746C13.0607 18.9142 13.1181 18.5492 13.184 18.1702ZM5.87161 15.6899C5.76461 16.2954 5.6576 16.8974 5.54834 17.5135C6.37679 17.5135 7.17369 17.5135 8.00214 17.5135C7.89231 16.8952 7.78587 16.2931 7.67887 15.6899C7.06781 15.6899 6.47985 15.6899 5.87161 15.6899ZM14.2704 15.6922C14.1634 16.2999 14.0575 16.9008 13.9505 17.5096C14.7879 17.5096 15.5837 17.5096 16.4026 17.5096C16.2933 16.8929 16.1874 16.2948 16.0804 15.6922C15.4722 15.6922 14.878 15.6922 14.2704 15.6922ZM8.32934 19.3512C8.26345 18.9733 8.20432 18.614 8.13279 18.2569C8.12491 18.217 8.04775 18.1623 8.00214 18.1623C7.18045 18.1567 6.35876 18.1573 5.53708 18.1618C5.49653 18.1618 5.42669 18.2102 5.41994 18.2451C5.34954 18.6072 5.28871 18.9716 5.22282 19.3512C6.26528 19.3512 7.2807 19.3512 8.32934 19.3512ZM16.7281 19.3518C16.6622 18.9727 16.6036 18.6084 16.5299 18.2468C16.522 18.2079 16.4274 18.1618 16.3722 18.1612C15.5719 18.1556 14.771 18.1561 13.9708 18.1606C13.9201 18.1612 13.8317 18.2012 13.8249 18.2355C13.7506 18.6022 13.6892 18.9716 13.6221 19.3512C14.6702 19.3518 15.6851 19.3518 16.7281 19.3518ZM6.80199 14.2865C6.34581 14.2865 5.89019 14.2842 5.43402 14.2871C5.1665 14.2887 4.9953 14.4374 4.99192 14.6616C4.98854 14.893 5.1665 15.0496 5.44359 15.0502C6.32723 15.0519 7.21142 15.0513 8.09506 15.0502C8.3789 15.0496 8.55406 14.9043 8.55856 14.6728C8.56307 14.4352 8.38454 14.2876 8.08549 14.2865C7.65803 14.2854 7.23001 14.2865 6.80199 14.2865ZM15.1748 14.2865C14.7327 14.2865 14.2906 14.2848 13.8491 14.2871C13.5658 14.2882 13.3912 14.4369 13.3924 14.6683C13.3929 14.8992 13.5709 15.0496 13.8514 15.0502C14.7356 15.0513 15.6192 15.0513 16.5034 15.0502C16.7833 15.0496 16.9601 14.8975 16.9601 14.6666C16.9596 14.4357 16.785 14.2882 16.5017 14.2871C16.0585 14.2848 15.6164 14.2865 15.1748 14.2865ZM13.821 7.10533C13.83 6.826 13.8407 6.56468 13.6649 6.33265C13.4954 6.1085 13.3355 5.87647 13.1513 5.62078C12.9767 5.62078 12.747 5.62078 12.5814 5.62078C12.4259 5.85338 12.3189 6.0702 12.1601 6.23747C11.9196 6.49146 11.9089 6.7815 11.9247 7.10533C12.5577 7.10533 13.1733 7.10533 13.821 7.10533ZM13.8198 7.7637C13.1772 7.7637 12.5566 7.7637 11.932 7.7637C11.932 8.0757 11.932 8.37306 11.932 8.66873C12.5684 8.66873 13.1896 8.66873 13.8198 8.66873C13.8198 8.36349 13.8198 8.07176 13.8198 7.7637ZM13.8176 9.3271C13.1795 9.3271 12.5583 9.3271 11.9315 9.3271C11.9315 9.61545 11.9315 9.89197 11.9315 10.1747C12.5667 10.1747 13.1862 10.1747 13.8176 10.1747C13.8176 9.88915 13.8176 9.61826 13.8176 9.3271ZM4.62528 6.51568C4.60332 6.97637 4.71089 7.34469 5.08541 7.58855C5.39628 7.79129 5.72518 7.79749 6.03606 7.59136C6.40663 7.34638 6.51646 6.97805 6.4928 6.52413C5.86541 6.80854 5.25267 6.80516 4.62528 6.51568ZM16.041 7.6291C16.041 7.87746 16.0236 8.11569 16.0455 8.35053C16.0709 8.61861 16.3119 8.81403 16.5828 8.82361C16.8571 8.83375 17.1145 8.66423 17.1516 8.39334C17.186 8.14216 17.1589 7.88309 17.1589 7.62966C16.7799 7.6291 16.4172 7.6291 16.041 7.6291ZM20.2683 7.63078C19.8938 7.63078 19.5271 7.63078 19.1447 7.63078C19.1447 7.86563 19.1318 8.08865 19.1481 8.30999C19.1695 8.60622 19.3999 8.8146 19.6876 8.82417C19.9794 8.83375 20.2283 8.64733 20.2632 8.3511C20.2902 8.11794 20.2683 7.87971 20.2683 7.63078ZM12.5234 4.09455C12.5234 4.3891 12.5234 4.67351 12.5234 4.96073C12.7639 4.96073 12.9903 4.96073 13.2183 4.96073C13.2183 4.66168 13.2183 4.3784 13.2183 4.09455C12.9784 4.09455 12.756 4.09455 12.5234 4.09455Z" fill="#30296D"/>
</svg>
