<svg width="25" height="22" viewBox="0 0 25 22" fill="none" xmlns="http://www.w3.org/2000/svg">
<path d="M0.00120003 11.8363C0.165 11.4481 0.468 11.2543 0.876 11.1955C1.0092 11.1763 1.1388 11.1313 1.2708 11.1001C1.779 10.9813 2.175 11.2153 2.3028 11.7265C2.6406 13.0795 2.9712 14.4343 3.3048 15.7885C3.3408 15.9349 3.378 16.0813 3.4218 16.2577C3.5148 16.2577 3.6084 16.2577 3.702 16.2577C4.716 16.2577 5.73 16.2571 6.7434 16.2583C7.3626 16.2589 7.617 16.5139 7.6182 17.1295C7.6182 17.3209 7.6182 17.5129 7.6182 17.7043C7.6182 18.2533 7.4964 18.4279 6.9648 18.6157C7.1256 19.2025 7.2864 19.7911 7.4478 20.3797C7.4982 20.5639 7.5552 20.7469 7.6014 20.9323C7.6848 21.2671 7.5366 21.4645 7.1946 21.4681C6.7716 21.4729 6.348 21.4627 5.9256 21.4717C5.6682 21.4771 5.5278 21.3613 5.4624 21.1177C5.2584 20.3557 5.0484 19.5949 4.8402 18.8341C4.8192 18.7585 4.7964 18.6835 4.7772 18.6169C4.5204 18.5311 4.4166 18.6223 4.3542 18.8707C4.1664 19.6201 3.9522 20.3635 3.7446 21.1081C3.663 21.4015 3.5736 21.4675 3.2688 21.4687C2.8614 21.4705 2.4546 21.4711 2.0472 21.4687C1.6566 21.4657 1.5192 21.2815 1.623 20.8975C1.8312 20.1289 2.0424 19.3615 2.256 18.5791C2.1414 18.5287 2.028 18.4915 1.9284 18.4321C1.6104 18.2413 1.4298 17.9557 1.3422 17.5957C0.9162 15.8455 0.483 14.0977 0.0510001 12.3487C0.0402001 12.3043 0.0174 12.2623 0 12.2191C0.0012 12.0919 0.00120003 11.9641 0.00120003 11.8363ZM6.8898 16.9771C6.7842 16.9771 6.6978 16.9771 6.612 16.9771C5.5104 16.9771 4.4088 16.9777 3.3072 16.9771C2.9166 16.9771 2.841 16.9183 2.7468 16.5367C2.4072 15.1591 2.0682 13.7821 1.731 12.4039C1.572 11.7535 1.575 11.7583 0.9126 11.9251C0.7518 11.9659 0.7116 12.0187 0.7536 12.1873C1.1886 13.9267 1.6128 15.6691 2.043 17.4097C2.1354 17.7847 2.2578 17.8741 2.649 17.8747C3.99 17.8753 5.331 17.8753 6.6726 17.8747C6.7422 17.8747 6.8112 17.8681 6.8898 17.8639C6.8898 17.5699 6.8898 17.2933 6.8898 16.9771ZM3.1044 20.7433C3.2988 20.0317 3.492 19.3225 3.6906 18.5935C3.4944 18.5935 3.3276 18.6013 3.1614 18.5911C3.0306 18.5827 2.9838 18.6379 2.9532 18.7585C2.8668 19.1059 2.7666 19.4497 2.6718 19.7953C2.5866 20.1061 2.5008 20.4169 2.4114 20.7433C2.6592 20.7433 2.8722 20.7433 3.1044 20.7433ZM6.7998 20.7289C6.6012 20.0107 6.4068 19.3075 6.2118 18.6013C5.9802 18.6013 5.7666 18.6013 5.5248 18.6013C5.6712 19.1431 5.8128 19.6711 5.9574 20.1985C6.117 20.7817 6.1182 20.7817 6.729 20.7481C6.744 20.7475 6.759 20.7403 6.7998 20.7289Z" fill="#30296D"/>
<path d="M15.3366 1.18682C16.0788 1.85162 16.656 2.64302 17.0742 3.53882C17.3598 4.15082 17.5788 4.79342 17.8236 5.42402C17.8644 5.52842 17.8776 5.62622 18.036 5.62442C18.858 5.61602 19.6806 5.62022 20.5026 5.61902C20.532 5.61902 20.562 5.60822 20.6442 5.59262C20.4438 5.24282 20.2752 4.90142 20.0634 4.58882C19.8132 4.21982 19.5258 3.87662 19.254 3.52202C19.1406 3.37382 19.0956 3.19862 19.2312 3.06602C19.3182 2.98142 19.4772 2.94962 19.608 2.93942C19.674 2.93402 19.7604 3.01862 19.8168 3.08102C20.4942 3.83522 21.0168 4.68482 21.4254 5.61422C21.6648 6.15902 21.3648 7.07762 20.847 7.54202C19.881 8.40782 18.51 8.29502 17.694 7.28342C17.6694 7.25282 17.6418 7.22462 17.6142 7.19402C16.6986 8.43062 14.9652 8.42762 14.052 7.20782C13.8672 7.38002 13.6776 7.54802 13.4994 7.72742C13.4562 7.77122 13.4304 7.85222 13.4304 7.91642C13.4274 9.38522 13.4292 10.854 13.431 12.3234C13.431 12.3384 13.4382 12.3534 13.4532 12.4092C13.5336 12.4092 13.6248 12.4092 13.716 12.4092C15.6642 12.4092 17.6118 12.4104 19.56 12.408C20.0388 12.4074 20.4162 12.5874 20.649 13.014C21.0276 13.7088 20.6034 14.5536 19.821 14.6718C19.6956 14.691 19.5666 14.6982 19.44 14.6982C18.2502 14.7 17.061 14.7024 15.8712 14.6958C15.7098 14.6946 15.6126 14.7444 15.5196 14.877C14.9208 15.7332 14.3136 16.5834 13.6992 17.4492C13.782 17.568 13.8624 17.6844 13.9446 17.8002C14.6508 18.7962 15.3564 19.7922 16.065 20.7864C16.1718 20.9358 16.2588 21.0852 16.167 21.2706C16.074 21.4584 15.9018 21.4728 15.7176 21.471C15.1506 21.4668 14.5836 21.4626 14.0172 21.4728C13.7862 21.477 13.6272 21.3954 13.4958 21.2052C13.101 20.6346 12.6942 20.0724 12.27 19.4754C12.213 19.5498 12.1668 19.608 12.1236 19.6686C11.7582 20.1822 11.3892 20.6934 11.031 21.2124C10.905 21.3948 10.752 21.4758 10.53 21.4722C9.94739 21.4638 9.36419 21.4668 8.78159 21.4704C8.61239 21.4716 8.46059 21.4464 8.37239 21.2832C8.27939 21.1116 8.33999 20.9634 8.44379 20.8176C9.21659 19.7322 9.98699 18.645 10.758 17.5578C10.7808 17.5254 10.8006 17.4918 10.83 17.4456C10.314 16.7178 9.76979 16.0074 9.29219 15.2544C9.01799 14.8224 8.71259 14.6616 8.19659 14.6844C7.13699 14.7306 6.07379 14.6976 5.01179 14.6988C4.52099 14.6994 4.11959 14.5326 3.87899 14.082C3.49439 13.3614 3.97319 12.465 4.78859 12.4206C5.43359 12.3858 6.08159 12.4062 6.72779 12.4122C6.95279 12.4146 7.09679 12.5724 7.09319 12.7734C7.08899 12.9804 6.93839 13.1214 6.68939 13.1244C6.13079 13.1304 5.57159 13.1256 5.01299 13.128C4.92599 13.1286 4.83479 13.1304 4.75319 13.1562C4.56479 13.2162 4.46399 13.3608 4.46579 13.5534C4.46819 13.7448 4.56599 13.8912 4.75919 13.944C4.85759 13.971 4.96379 13.9782 5.06639 13.9782C9.86459 13.98 14.6628 13.9794 19.461 13.9794C19.485 13.9794 19.509 13.98 19.533 13.9794C19.8696 13.9716 20.0646 13.8186 20.0706 13.5588C20.0766 13.2906 19.8738 13.1274 19.5252 13.1274C15.837 13.1268 12.1482 13.1268 8.45999 13.1268C8.38799 13.1268 8.31599 13.1292 8.24459 13.1262C7.98359 13.116 7.81979 12.9756 7.82099 12.765C7.82219 12.5526 7.98479 12.4104 8.24699 12.4092C9.10139 12.4062 9.95519 12.408 10.8096 12.408C10.8966 12.408 10.9836 12.408 11.1048 12.408C11.1048 12.315 11.1048 12.2382 11.1048 12.1614C11.1048 10.7724 11.103 9.38342 11.1078 7.99382C11.1084 7.84562 11.073 7.74362 10.9506 7.64882C10.782 7.51862 10.6356 7.36022 10.4688 7.20302C10.0356 7.78022 9.45359 8.11742 8.70899 8.11802C7.96199 8.11862 7.37699 7.78502 6.92519 7.17722C6.57899 7.64762 6.13919 7.95662 5.57579 8.07722C4.28399 8.35442 3.00899 7.32962 3.01559 6.01382C3.01619 5.91302 3.04319 5.80742 3.07979 5.71322C3.61439 4.34762 4.45439 3.19682 5.57039 2.25302C7.20659 0.870018 9.12539 0.196818 11.244 0.040218C13.0092 -0.090582 14.733 0.0876179 16.3956 0.723018C17.1978 1.02962 17.9358 1.45382 18.6204 1.97042C18.8172 2.11862 18.8592 2.32022 18.7416 2.49062C18.6198 2.66762 18.4092 2.69822 18.1944 2.54282C17.5656 2.08622 16.9014 1.69382 16.176 1.41182C15.9108 1.30862 15.639 1.22402 15.3702 1.13102C15.3576 1.15082 15.3474 1.16882 15.3366 1.18682ZM10.8648 5.60162C11.8098 5.60162 12.738 5.60162 13.6788 5.60162C13.6098 3.90422 13.3158 2.29802 12.2886 0.894018C11.4144 1.84742 10.8594 3.87962 10.8648 5.60162ZM17.1108 5.60762C17.0988 5.54522 17.0976 5.49662 17.0802 5.45402C16.8318 4.85162 16.6176 4.23182 16.3242 3.65162C15.8322 2.67902 15.168 1.83362 14.217 1.26362C13.8894 1.06742 13.5198 0.940818 13.1694 0.782418C13.1568 0.802818 13.1442 0.823218 13.1316 0.843618C14.0496 2.29802 14.3352 3.92402 14.403 5.60762C15.3204 5.60762 16.209 5.60762 17.1108 5.60762ZM11.4156 0.820818C10.7352 0.978618 10.1874 1.28762 9.69959 1.70942C8.78999 2.49602 8.22119 3.51362 7.76219 4.60142C7.62719 4.92122 7.51919 5.25302 7.39079 5.60162C8.32619 5.60162 9.21899 5.60162 10.1286 5.60162C10.1922 3.91622 10.485 2.30702 11.4156 0.820818ZM3.88379 5.62082C4.02779 5.62082 4.11359 5.62082 4.19999 5.62082C4.90139 5.62082 5.60399 5.60342 6.30479 5.62922C6.58499 5.63942 6.68339 5.53982 6.75839 5.28902C7.13819 4.02662 7.70579 2.85722 8.56019 1.84142C8.75699 1.60802 8.97599 1.39322 9.18539 1.17002C6.77399 1.85702 5.02199 3.32222 3.88379 5.62082ZM9.78059 14.7018C9.82319 14.7738 9.84359 14.8146 9.86999 14.8506C11.2362 16.7766 12.603 18.7026 13.9704 20.628C14.0016 20.6718 14.0448 20.7384 14.0838 20.7396C14.427 20.7486 14.7708 20.745 15.1512 20.745C13.7256 18.7362 12.3312 16.7712 10.9344 14.8086C10.9014 14.7624 10.839 14.7084 10.7892 14.7066C10.4652 14.6976 10.1406 14.7018 9.78059 14.7018ZM12.693 12.402C12.693 10.9566 12.693 9.53402 12.693 8.11262C12.3954 8.11262 12.1152 8.11262 11.8428 8.11262C11.8428 9.55262 11.8428 10.9746 11.8428 12.402C12.132 12.402 12.4014 12.402 12.693 12.402ZM9.37559 20.7504C9.75119 20.7504 10.0752 20.7534 10.3986 20.7468C10.4442 20.7456 10.503 20.7066 10.5312 20.6676C10.9626 20.0658 11.3892 19.461 11.8242 18.8472C11.6448 18.5946 11.4702 18.3492 11.2758 18.075C10.6446 18.9636 10.0278 19.8324 9.37559 20.7504ZM3.78479 6.35402C3.96719 7.02422 4.57019 7.44542 5.23739 7.39502C5.86379 7.34762 6.41039 6.89282 6.47639 6.35402C5.58479 6.35402 4.69499 6.35402 3.78479 6.35402ZM18.0378 6.35462C18.1926 6.99122 18.7896 7.42802 19.434 7.39982C20.0772 7.37162 20.6436 6.91922 20.7276 6.35462C19.836 6.35462 18.9462 6.35462 18.0378 6.35462ZM7.35959 6.35522C7.47959 6.96422 8.08379 7.41902 8.72939 7.40162C9.37439 7.38422 9.94919 6.93122 10.0434 6.35522C9.15359 6.35522 8.26559 6.35522 7.35959 6.35522ZM14.472 6.35222C14.6514 7.03502 15.2652 7.45202 15.9612 7.39082C16.5648 7.33742 17.1186 6.85922 17.1582 6.35222C16.2696 6.35222 15.3804 6.35222 14.472 6.35222ZM10.9188 6.35402C11.0886 7.04762 11.7192 7.45682 12.4608 7.38302C13.0128 7.32782 13.5714 6.82022 13.587 6.35402C12.7038 6.35402 11.8218 6.35402 10.9188 6.35402ZM13.2612 16.8228C13.7574 16.1238 14.2476 15.4326 14.7576 14.7144C14.6514 14.7078 14.5896 14.7 14.5284 14.7012C14.2422 14.7054 13.9128 14.6268 13.6824 14.7426C13.461 14.8542 13.3386 15.1662 13.1784 15.3942C13.0236 15.615 12.7536 15.846 12.7608 16.0644C12.7686 16.299 13.041 16.5246 13.1988 16.7532C13.2126 16.7724 13.2306 16.7886 13.2612 16.8228ZM11.7498 14.709C11.9358 14.9712 12.0924 15.1908 12.2664 15.4356C12.447 15.1806 12.6024 14.9604 12.78 14.709C12.4188 14.709 12.1122 14.709 11.7498 14.709Z" fill="#30296D"/>
<path d="M21.1098 16.2582C21.423 14.9862 21.7296 13.7412 22.0362 12.4962C22.101 12.2328 22.161 11.9688 22.2306 11.7072C22.3614 11.2164 22.7574 10.983 23.2548 11.0994C23.4798 11.1522 23.706 11.202 23.928 11.2662C24.3642 11.3922 24.6078 11.7894 24.501 12.228C24.0582 14.0478 23.6094 15.8658 23.1594 17.6838C23.0586 18.0912 22.8066 18.3726 22.4082 18.5172C22.365 18.5328 22.3248 18.5568 22.2726 18.582C22.4754 19.3206 22.6758 20.0496 22.8762 20.7786C22.8972 20.8554 22.9242 20.931 22.938 21.0096C22.9836 21.2646 22.842 21.459 22.581 21.4656C22.11 21.477 21.639 21.471 21.168 21.4686C20.9496 21.4674 20.8428 21.3342 20.7888 21.1368C20.5842 20.3832 20.367 19.6326 20.175 18.876C20.1138 18.6348 20.0196 18.5244 19.7478 18.6234C19.5402 19.3812 19.3278 20.1558 19.116 20.9304C19.0992 20.9916 19.0806 21.0528 19.0668 21.1152C19.0116 21.3606 18.8664 21.4782 18.6078 21.4728C18.201 21.4644 17.7936 21.4722 17.3862 21.4704C16.9734 21.4686 16.8348 21.2886 16.9422 20.8914C17.1468 20.1378 17.3544 19.3848 17.5512 18.6678C17.3676 18.531 17.1714 18.4314 17.04 18.2766C16.839 18.039 16.8528 16.8444 17.028 16.5822C17.196 16.3308 17.4462 16.2576 17.7342 16.2582C18.7638 16.2606 19.794 16.2588 20.8236 16.2588C20.9118 16.2582 20.9988 16.2582 21.1098 16.2582ZM17.6412 17.874C19.065 17.874 20.4612 17.874 21.858 17.874C22.2864 17.874 22.3986 17.787 22.503 17.3628C22.8936 15.7764 23.283 14.1894 23.6712 12.603C23.8248 11.9766 23.8206 11.985 23.2008 11.82C23.0004 11.7666 22.9404 11.817 22.8942 12.0084C22.5324 13.5114 22.1598 15.012 21.7908 16.5132C21.69 16.9224 21.6222 16.9758 21.1998 16.9764C20.0982 16.977 18.9966 16.9764 17.895 16.9764C17.8116 16.9764 17.7276 16.9764 17.6418 16.9764C17.6412 17.2938 17.6412 17.5704 17.6412 17.874ZM18.3156 18.6024C18.12 19.3152 17.9262 20.022 17.7258 20.7516C17.8968 20.7516 18.0336 20.739 18.1662 20.7546C18.3582 20.7774 18.4458 20.7132 18.492 20.5158C18.603 20.0436 18.7434 19.578 18.87 19.1088C18.9144 18.9438 18.954 18.7776 18.9984 18.6024C18.7572 18.6024 18.5436 18.6024 18.3156 18.6024ZM21.4254 20.7414C21.6648 20.7414 21.8784 20.7414 22.119 20.7414C21.9708 20.1978 21.8274 19.6698 21.6822 19.1424C21.5208 18.5586 21.5202 18.5586 20.9082 18.5964C20.8932 18.5976 20.8782 18.6054 20.8464 18.615C21.0378 19.3194 21.2298 20.025 21.4254 20.7414Z" fill="#30296D"/>
<path d="M11.7498 14.709C12.1122 14.709 12.4188 14.709 12.78 14.709C12.6024 14.9604 12.447 15.18 12.2664 15.4356C12.0924 15.1908 11.9364 14.9712 11.7498 14.709Z" fill="white"/>
</svg>
