<svg width="24" height="18" viewBox="0 0 24 18" fill="none" xmlns="http://www.w3.org/2000/svg">
<path d="M0.480031 12.4356C0.503431 12.3996 0.529231 12.3654 0.549631 12.3282C0.775831 11.913 1.24923 11.8224 1.61163 12.1278C1.77723 12.2676 1.93263 12.4212 2.10783 12.5484C3.02223 13.2114 4.00083 13.2624 5.01603 12.8166C5.60943 12.5562 6.14103 12.1974 6.60063 11.736C7.39863 10.9356 8.19843 10.1376 8.99703 9.33783C9.05403 9.28083 9.10743 9.22023 9.17703 9.14583C8.75463 8.72463 8.34303 8.31303 7.93023 7.90263C7.46283 7.43763 7.16883 6.88623 7.11603 6.22383C7.03023 5.15523 7.41363 4.28043 8.31903 3.70983C9.69123 2.84463 11.088 2.01843 12.4914 1.20423C13.4508 0.64743 14.6526 0.988829 15.2064 1.92903C15.7632 2.87343 15.4836 4.07403 14.544 4.66563C13.779 5.14803 12.9948 5.60043 12.2196 6.06663C12.1428 6.11283 12.0672 6.16023 11.9466 6.23463C12.6516 6.93483 13.3434 7.62243 14.0358 8.31003C13.9236 7.32603 14.1474 6.47763 14.85 5.78943C15.3894 5.26083 16.05 5.01183 16.803 5.03043C18.279 5.06643 19.47 6.34623 19.4184 7.78983C19.3632 9.33063 18.0006 10.6884 16.1466 10.3698C16.1952 10.431 16.2252 10.476 16.2624 10.5132C16.791 11.043 17.3172 11.5752 17.85 12.1008C19.137 13.3692 20.9496 13.3992 22.2858 12.1788C22.6152 11.8782 23.0118 11.8674 23.2854 12.1518C23.5638 12.441 23.5308 12.8532 23.2044 13.1652C21.6876 14.616 19.3218 14.8218 17.5752 13.6548C17.5074 13.6098 17.4402 13.5642 17.3802 13.524C15.5706 14.7072 13.7748 14.7078 11.9784 13.5318C10.182 14.7072 8.38623 14.7072 6.57243 13.5222C6.00063 13.9404 5.35743 14.2308 4.64343 14.3406C3.13443 14.5728 1.81503 14.1732 0.705631 13.1172C0.612031 13.0284 0.553831 12.9018 0.479431 12.7926C0.480031 12.6756 0.480031 12.5556 0.480031 12.4356ZM7.64763 12.585C8.08203 12.8736 8.65443 13.05 9.18603 13.059C10.0566 13.074 10.8114 12.786 11.451 12.1908C11.8056 11.8608 12.1422 11.8638 12.5022 12.1872C12.5412 12.222 12.579 12.2586 12.618 12.2934C13.647 13.2066 15.3036 13.32 16.4184 12.5124C16.3362 12.4548 16.2534 12.4122 16.1904 12.3492C14.2938 10.4562 12.399 8.56143 10.5048 6.66603C10.0554 6.21663 10.11 5.76243 10.6524 5.43723C11.685 4.81803 12.7188 4.20123 13.7502 3.58023C14.1366 3.34743 14.2518 2.94663 14.0406 2.60523C13.836 2.27463 13.434 2.19903 13.0572 2.42463C11.7678 3.19683 10.4784 3.96903 9.19083 4.74483C8.31243 5.27403 8.19063 6.24903 8.91003 6.97383C9.43743 7.50483 9.96843 8.03283 10.4976 8.56203C10.9128 8.97723 10.9152 9.32763 10.5048 9.73803C9.86463 10.3788 9.22443 11.0196 8.58303 11.6592C8.27703 11.9652 7.96743 12.2688 7.64763 12.585ZM16.7094 9.06963C17.4624 9.07383 18.0732 8.46903 18.0708 7.72143C18.0684 6.98463 17.4612 6.37803 16.725 6.37683C15.9858 6.37563 15.3846 6.97443 15.3816 7.71723C15.378 8.46303 15.9696 9.06543 16.7094 9.06963Z" fill="#30296D"/>
<path d="M0.480031 15.1307C0.494431 15.1157 0.513031 15.1025 0.522031 15.0845C0.782431 14.5763 1.25523 14.4911 1.67643 14.8841C2.16663 15.3413 2.73543 15.6335 3.40083 15.7265C4.38483 15.8639 5.25303 15.6029 5.99643 14.9441C6.45123 14.5409 6.72423 14.5367 7.17903 14.9459C8.38983 16.0361 10.2078 16.0271 11.4084 14.9255C11.8224 14.5457 12.129 14.5445 12.54 14.9195C13.7712 16.0427 15.5916 16.0373 16.8186 14.9057C17.1984 14.5553 17.529 14.5517 17.9016 14.8931C19.1748 16.0607 20.9994 16.0589 22.2714 14.8889C22.7088 14.4863 23.298 14.6123 23.4474 15.1415C23.5194 15.3965 23.4498 15.6215 23.2662 15.7997C22.2624 16.7723 21.0558 17.2061 19.6674 17.0807C18.7632 16.9991 18.5292 16.8863 17.3652 16.2239C15.771 17.3747 13.6416 17.4185 11.9772 16.2239C10.3398 17.4017 8.20923 17.3915 6.57843 16.2161C6.00063 16.6379 5.35743 16.9283 4.64343 17.0381C3.13443 17.2703 1.81563 16.8707 0.706231 15.8147C0.612631 15.7253 0.554431 15.5993 0.479431 15.4901C0.480031 15.3701 0.480031 15.2501 0.480031 15.1307Z" fill="#30296D"/>
</svg>
