<svg width="24" height="24" viewBox="0 0 24 24" fill="none" xmlns="http://www.w3.org/2000/svg">
<path d="M20.7273 5.56131H24V7.70765H22.9091V19.5125H24V21.6589H0V19.5125H1.09091V7.70765H0V5.56131H3.27273V3.41497C3.27273 3.13036 3.38771 2.85746 3.59225 2.65613C3.7968 2.45491 4.07433 2.3418 4.36364 2.3418H19.6364C19.9257 2.3418 20.2032 2.45491 20.4077 2.65613C20.6123 2.85746 20.7273 3.13036 20.7273 3.41497V5.56131ZM20.7273 7.70765H3.27273V19.5125H6.54545V12.0003H8.72727V19.5125H10.9091V12.0003H13.0909V19.5125H15.2727V12.0003H17.4545V19.5125H20.7273V7.70765ZM5.45455 4.48814V5.56131H18.5455V4.48814H5.45455Z" fill="#2F296D"/>
</svg>
