<?xml version="1.0" encoding="utf-8"?>
<!-- Generator: Adobe Illustrator 23.0.0, SVG Export Plug-In . SVG Version: 6.00 Build 0)  -->
<svg version="1.1" id="Layer_1" xmlns="http://www.w3.org/2000/svg" xmlns:xlink="http://www.w3.org/1999/xlink" x="0px" y="0px"
	 viewBox="0 0 256.42 93.11" style="enable-background:new 0 0 256.42 93.11;" xml:space="preserve">
<style type="text/css">
	.st0{fill:#322314;}
	.st1{fill:#8ED8F8;}
</style>
<g>
	<g>
		<g>
			<path class="st0" d="M47.73,20.46c0.73,2.48,2.29,6.6,4.04,11.37c4.77,13.39,11.65,31.55,13.21,35.31
				c3.03,7.52,4.49,8.25,8.62,9.26c1.47,0.46,2.2,0.92,2.2,1.56c0,0.64-0.64,1.19-2.93,1.19c-3.03,0-7.52-0.46-11.56-0.46
				c-2.93,0-4.22,0.18-6.51,0.18c-2.29,0-2.84-0.64-2.84-1.1c0-0.46,0.55-1.19,2.2-1.47c4.4-0.92,4.04-2.75,3.67-4.68
				c-0.73-3.76-3.03-9.81-5.14-15.68c-0.09-0.37-0.46-0.92-3.12-0.92c-5.04,0-13.11,0.09-15.04,0.37c-0.37,0-0.83,0.46-1.01,0.73
				c-2.38,5.96-4.77,13.76-4.77,16.05c0,1.1,0.37,2.66,4.49,3.94c1.56,0.46,2.48,1.01,2.48,1.65c0,0.92-1.38,1.19-2.57,1.19
				c-1.56,0-3.85-0.28-7.24-0.28c-3.39,0-8.16,0.46-9.54,0.46c-1.65,0-2.11-0.37-2.11-0.92s0.64-1.38,2.02-1.83
				c4.59-1.56,5.78-1.83,8.44-7.8c2.11-4.68,12.56-32.37,16.6-42.28c0.37-0.73,0.55-1.47,0.55-1.93c0-0.28,0-0.46,0.18-0.73
				c0.83-1.1,2.11-3.49,2.75-4.49c0.64-0.73,1.01-1.1,1.47-1.1C46.63,18.08,47,18.44,47.73,20.46 M50.67,50.18
				c-1.56-4.68-6.33-18.43-7.15-19.72c-0.27-0.55-0.46-0.64-0.73,0c-1.65,4.4-6.42,17.24-7.15,20.09c-0.09,0.37,0.09,0.64,0.46,0.64
				c3.67-0.09,11.28,0,14.31-0.28C50.48,50.91,50.76,50.45,50.67,50.18"/>
			<path class="st0" d="M81.12,44.86c3.03-1.01,5.87-2.38,6.79-2.93c1.1-0.73,1.56-1.1,1.83-1.1c0.37,0,0.83,0.83,0.83,1.1
				c0,1.65-0.18,3.3-0.18,5.04c0,0.37,0.46,0.46,0.64,0.37c3.58-3.39,7.61-5.69,10.46-5.69c3.76,0,4.59,2.29,4.59,3.12
				c0,0.18-0.28,0.83-0.55,1.28c-1.01,1.47-3.21,3.94-3.76,4.22c-0.18,0.09-1.01-0.09-1.28-0.28c-1.01-0.92-3.21-2.02-5.05-2.02
				c-1.56,0-3.12,0.28-4.04,1.28c-0.64,0.73-0.92,1.56-0.92,2.02c0,1.83,0.46,18.44,0.55,19.81c0.18,2.66,0.73,4.4,2.38,4.68
				c1.19,0.28,2.84,0.73,4.22,1.1c1.47,0.46,1.65,1.1,1.65,1.47c0,0.46-0.83,0.82-2.2,0.82c-2.29,0-5.5-0.46-10.82-0.46
				c-2.75,0-3.85,0.37-6.05,0.37c-1.01,0-1.93-0.37-1.93-1.1c0-0.55,1.1-0.92,1.83-1.19c3.58-1.19,3.85-2.11,3.94-7.61V51.64
				c0-0.92,0-2.11-1.01-2.75c-2.2-1.74-3.12-2.11-3.12-2.48C79.92,46.14,80.11,45.22,81.12,44.86"/>
			<path class="st0" d="M133.48,42.56c0.09,0,1.01,0.46,1.01,0.73c0-0.28,0.28,2.29,0.28,3.49c0,0.82-1.74,1.01-2.38,1.01h-10
				c-0.46,0-0.82,0.46-0.82,0.64c-0.09,1.83-0.18,15.32-0.18,19.72c0,2.29,0.55,3.49,1.56,4.49c1.74,1.56,3.67,1.74,5.59,1.74
				c1.19,0,3.12-0.55,4.49-1.38c0.83-0.46,1.01-0.55,1.38-0.55c0.09,0,0.55,0.18,0.55,1.01c0,0.73-0.64,1.65-1.28,2.29
				c-2.48,2.38-5.69,4.04-9.81,4.04c-3.76,0-6.97-2.29-8.07-4.31c-1.01-1.56-1.19-3.49-1.19-6.05c0-3.39,0.37-17.15,0.37-20.36
				c0-0.64-1.65-1.28-3.49-1.83c-0.73-0.28-1.28-0.73-1.28-1.01c0-0.37,0.27-0.73,0.55-1.01c3.21-2.57,6.05-4.77,7.34-6.33
				c1.1-1.28,1.74-2.02,2.11-2.02c0.46,0,1.28,0.83,1.28,1.01v4.31c0,0.28,0.37,0.73,0.73,0.73
				C124.22,42.93,133.12,42.56,133.48,42.56"/>
			<path class="st1" d="M153.84,15.05c1.01-0.18,7.06-1.01,8.99-1.56c1.1-0.37,2.02-0.55,2.66-0.55c0.73,0,0.27,2.2,0.09,2.84
				c-6.33,16.69-18.53,51.27-20.18,56.5c-0.55,1.65-0.46,3.85,0.55,3.85c1.83,0,9.45-8.25,11.19-9.45c0.64-0.46,1.01-0.37,1.1,0.09
				c0,0.55-0.28,1.56-0.55,2.11c-3.48,6.79-10.82,11.28-15.96,11.28c-1.74,0-3.85-2.02-3.85-3.49c0-0.83,1.19-4.13,3.03-9.45
				c3.67-10.46,10.55-29.62,15.96-45.21c1.28-3.58,0.46-4.04-2.48-4.68c-1.28-0.28-2.2-0.64-2.2-0.92
				C152.19,15.97,152.84,15.23,153.84,15.05"/>
			<path d="M164.48,44.4c3.39-0.73,7.71-2.75,9.08-3.12c0.37,0,0.83,0.92,0.83,1.01c0,1.01-0.55,12.93-0.55,18.16
				c0,5.14,0.09,8.99,0.18,12.2c0.09,2.93,2.11,3.12,4.4,3.85c1.47,0.46,2.02,0.92,2.02,1.56c0,0.55-1.1,0.92-2.11,0.92
				c-0.64,0-5.23-0.28-7.15-0.28c-3.03,0-6.24,0.37-7.8,0.37c-1.47,0-2.38-0.37-2.38-1.01c0-0.55,0.64-1.01,2.2-1.47
				c2.11-0.55,3.49-1.65,3.67-2.57c0.28-1.28,0.37-6.79,0.37-9.45c0-0.18,0.09-13.21-0.09-14.31c-0.09-0.64-1.1-1.38-3.76-3.3
				c-0.55-0.37-0.73-0.64-0.73-1.01C162.65,45.31,163.47,44.58,164.48,44.4 M175.03,27.52c0,2.48-2.57,4.49-4.4,4.49
				c-0.64,0-2.11-0.37-2.93-1.1c-0.73-0.82-1.38-1.83-1.38-3.39c0-0.83,0.37-2.29,1.1-3.3c0.92-0.83,2.29-1.19,3.58-1.19
				C173.47,23.03,175.03,25.87,175.03,27.52"/>
			<path d="M208.51,42.84c0.64,0,1.29,1.93,1.29,3.85c0,0.28-0.92,0.92-1.38,0.92c-0.64,0-9.72-0.28-10.73-0.28
				c-0.18,0-0.64,0.55-0.64,0.73c-0.18,1.83,0.09,21.92,0.28,23.48c0.37,3.21,1.01,4.03,6.15,4.86c1.56,0.28,2.11,1.01,2.11,1.38
				c0,0.92-1.28,1.1-2.39,1.1c-1.1,0-5.32-0.18-7.61-0.18c-3.3,0-8.25,0.46-9.17,0.46c-1.29,0-2.29-0.37-2.29-1.01
				c0-0.46,0.92-1.1,1.93-1.47c3.94-1.1,4.04-2.02,4.13-6.14c0.09-3.76,0.18-14.77,0.18-19.72c0-3.12-0.55-3.39-0.92-3.39
				c-0.92,0-2.84,0-3.85,0.18c-0.46,0-1.1-0.92-0.83-1.56c0.09-0.37,2.38-1.38,4.49-3.03c0.64-0.55,1.19-1.1,1.19-1.56
				c0.18-5.5,0.64-9.72,2.29-13.67c1.93-4.59,4.22-7.89,8.25-10.82c3.67-2.75,6.97-3.76,10.46-3.76c1.93,0,4.4,0.55,5.87,1.74
				c0.92,0.73,1.56,2.02,1.56,3.12c0,1.28-1.19,3.39-2.48,3.85c-0.46,0.18-1.1,0.28-1.65,0.28c-0.64,0-1.19-0.55-2.48-1.83
				c-1.74-1.56-4.04-2.84-6.42-2.84c-2.2,0-4.04,1.1-5.69,3.76c-2.2,3.85-3.03,8.8-3.03,20.82c0,0.37,0.28,0.83,0.55,0.83
				C203.28,42.93,208.14,42.84,208.51,42.84"/>
			<path d="M238.77,45.22c2.02,1.93,3.21,4.49,3.21,7.7c0,0.55-0.73,1.56-1.74,1.56c-1.01,0-16.69,0-20.91-0.09
				c-0.28,0-0.64,0.46-0.73,0.73c-0.28,0.73-0.46,2.29-0.46,3.21c0,3.58,1.47,7.8,3.49,10.46c2.02,2.75,5.87,5.04,10.27,5.04
				c4.04,0,6.79-1.01,8.35-3.3c0.37-0.55,0.83-1.1,1.19-1.1c0.55,0,0.73,0.64,0.73,1.1c0,0.73-0.37,1.74-0.64,2.2
				c-3.21,4.68-8.07,6.88-13.3,6.88c-9.91,0-16.51-7.52-16.51-18.25c0-7.34,3.85-14.67,11.01-17.98c2.39-1.1,5.41-1.65,6.97-1.65
				C232.9,41.74,236.48,42.93,238.77,45.22 M219.51,50.91c-0.18,0.46,0.18,1.01,0.37,1.01c2.38,0.09,7.25,0.09,11.83,0
				c2.2,0,3.12-0.46,3.12-2.29c0-2.57-2.75-5.5-6.05-5.5C224.65,44.12,221.16,46.69,219.51,50.91"/>
		</g>
	</g>
</g>
</svg>
