<svg xmlns="http://www.w3.org/2000/svg" width="26.81" height="26.195" viewBox="0 0 22.81 21.195"><g transform="translate(-6.011 -962.362)"><path d="M6.416,962.362a.4.4,0,1,0,0,.81h2.1l2.132,10.084a.423.423,0,0,0,.424.443H21.194a.4.4,0,1,0,0-.81H11.4l-.342-1.62H22a.418.418,0,0,0,.392-.316l1.417-6.073a.424.424,0,0,0-.392-.493H9.6l-.361-1.708a.418.418,0,0,0-.4-.316ZM9.775,965.2h13.14l-1.234,5.263H10.888Zm3.524,9.717a1.822,1.822,0,1,0,1.822,1.822A1.828,1.828,0,0,0,13.3,974.914Zm5.668,0a1.822,1.822,0,1,0,1.822,1.822A1.828,1.828,0,0,0,18.967,974.914Zm-5.668.81a1.012,1.012,0,1,1-1.012,1.012A1.006,1.006,0,0,1,13.3,975.723Zm5.668,0a1.012,1.012,0,1,1-1.012,1.012A1.006,1.006,0,0,1,18.967,975.723Z" transform="translate(0 0)" stroke="#fff" fill="#c1bdb7"></path></g></svg>