<?xml version="1.0" encoding="utf-8"?>
<!-- Generator: Adobe Illustrator 17.0.0, SVG Export Plug-In . SVG Version: 6.00 Build 0)  -->
<!DOCTYPE svg PUBLIC "-//W3C//DTD SVG 1.1//EN" "http://www.w3.org/Graphics/SVG/1.1/DTD/svg11.dtd">
<svg version="1.1" id="Layer_1" xmlns="http://www.w3.org/2000/svg" xmlns:xlink="http://www.w3.org/1999/xlink" x="0px" y="0px"
	 width="151.124px" height="151.124px" viewBox="0 0 151.124 151.124" enable-background="new 0 0 151.124 151.124"
	 xml:space="preserve">
<g>
	<g>
		<path fill="#322313" d="M136.777,79.876l11.765-2.082l-4.902-27.713l-11.177,1.979c-1.821-4.519-4.174-8.768-7.012-12.717
			l7.703-9.16l-21.578-18.086l-7.376,8.758c-4.332-2.288-8.842-4.043-13.483-5.229V3.572h-28.18v11.606
			c-4.753,1.018-9.3,2.558-13.595,4.613l-7.862-9.356L19.492,28.531l7.544,8.973c-2.941,3.763-5.416,7.843-7.395,12.194
			L7.485,47.551L2.583,75.273l11.559,2.036c0.177,4.753,0.896,9.477,2.166,14.09L5.636,97.57l14.081,24.361l10.112-5.826
			c3.184,3.52,6.788,6.685,10.766,9.421l-4.192,11.531l26.48,9.627l3.95-10.84c4.781,0.691,9.057,0.887,14.407,0.336l4.155,11.373
			l26.471-9.617l-3.894-10.7c4.08-2.54,7.871-5.584,11.307-9.076l10.392,6.004l14.099-24.379l-9.823-5.658
			C135.451,89.503,136.394,84.731,136.777,79.876z M75.562,102.519c-15.164,0-27.451-12.269-27.451-27.405
			c0-15.145,12.288-27.414,27.451-27.414s27.451,12.269,27.451,27.414C103.014,90.25,90.726,102.519,75.562,102.519z"/>
	</g>
</g>
</svg>
