<?xml version="1.0" encoding="utf-8"?>
<!-- Generator: Adobe Illustrator 23.0.0, SVG Export Plug-In . SVG Version: 6.00 Build 0)  -->
<svg version="1.1" id="Layer_1" xmlns="http://www.w3.org/2000/svg" xmlns:xlink="http://www.w3.org/1999/xlink" x="0px" y="0px"
	 viewBox="0 0 200 200" style="enable-background:new 0 0 200 200;" xml:space="preserve">
<style type="text/css">
	.st0{fill:#322314;}
</style>
<path class="st0" d="M185.91,91.51c0-47.35-38.52-85.86-85.86-85.86c-47.33,0-85.85,38.52-85.85,85.86
	c0,34.89,20.74,65.84,52.86,79.22l-0.22,8.38c-0.09,2.89,0.99,5.61,3,7.69c2.02,2.07,4.71,3.2,7.61,3.2c2.91,0,5.63-1.15,7.64-3.23
	c2.02-2.09,3.07-4.84,2.96-7.76l-0.1-2.68c3.97,0.56,7.99,1.03,12.09,1.03c1.9,0,3.71-0.14,5.54-0.25l-0.01,0.37
	c-0.12,3.31,1.1,6.45,3.39,8.85c2.31,2.38,5.39,3.68,8.72,3.68s6.41-1.31,8.72-3.7c2.29-2.38,3.51-5.52,3.39-8.83l-0.19-5.43
	C163.31,159.67,185.91,127.51,185.91,91.51z M114.62,90.17c0.16-4.41-1.26-8.74-3.97-12.18c-1.89-2.42-2.83-5.47-2.67-8.54
	l0.09-1.67h9.61h9.61l0.09,1.67c0.16,3.07-0.78,6.12-2.67,8.53c-2.71,3.45-4.13,7.79-3.97,12.2l3.06,87.5
	c0.04,1.67-0.57,3.26-1.73,4.47c-1.16,1.2-2.73,1.87-4.39,1.87c-1.68,0-3.23-0.67-4.39-1.89c-1.16-1.19-1.77-2.77-1.73-4.44
	L114.62,90.17z M76.89,25.4c0.03-1.03,0.67-1.97,1.62-2.38c0.32-0.13,0.67-0.2,1.02-0.2c1.03,0,1.97,0.59,2.41,1.52
	c3.7,7.92,5.66,16.71,5.66,25.42v39.78c0,3.65-1.07,7.22-3.1,10.3l-1.54,2.31c-2.36,3.58-3.52,7.89-3.25,12.09l2.36,64.99
	c0.04,1.26-0.41,2.45-1.29,3.36c-0.83,0.87-2.04,1.36-3.32,1.36s-2.48-0.49-3.31-1.35c-0.87-0.9-1.35-2.07-1.32-3.34L76.89,25.4z
	 M86.96,148.66c4.27,0.97,8.64,1.6,13.1,1.6c2.22,0,4.35-0.26,6.49-0.5l-0.75,21.31c-6.03,0.43-12.16,0.19-18.06-0.73L86.96,148.66z
	 M128.58,142.83c18.66-10.38,30.23-29.96,30.23-51.32c0-18.46-8.87-36.08-23.74-47.16l-1.19-0.88v7.6l0.26,0.22
	c11.86,10.06,18.66,24.72,18.66,40.23c0,18.11-9.33,34.74-24.47,44.4l-1.61-45.95c-0.09-2.99,0.87-5.93,2.7-8.28
	c2.78-3.55,4.19-8.02,3.94-12.56L131,25.44c-0.07-1.58-1.38-2.86-2.9-2.86c-0.1,0-0.2,0-0.25,0.01c-1.65,0.07-2.91,1.49-2.84,3.16
	l1.96,36.04h-6.11V25.59c0-1.65-1.33-3-2.99-3s-3,1.35-3,3v36.21h-6.47l1.95-36.04c0.04-0.81-0.22-1.58-0.77-2.19
	c-0.54-0.59-1.26-0.94-2.02-0.97c-0.09-0.01-0.19-0.01-0.29-0.01c-1.52,0-2.83,1.28-2.9,2.84l-2.38,43.69
	c-0.25,4.54,1.16,9.01,3.94,12.54c1.83,2.36,2.78,5.31,2.7,8.29l-1.88,53.72c-6.7,0.86-13.57,0.44-20.03-1.24l-1.04-28.5
	c-0.19-2.99,0.61-5.99,2.28-8.5l1.52-2.31c2.68-4.06,4.09-8.76,4.09-13.6V49.76c0-9.59-2.15-19.26-6.22-27.97
	c-1.41-3.02-4.48-4.96-7.83-4.96c-1.15,0-2.28,0.22-3.34,0.67c-3.13,1.31-5.22,4.35-5.29,7.77l-2.85,108.06
	c-13.03-9.97-20.76-25.27-20.76-41.82c0-16.44,7.86-32.19,21.03-42.14l0.29-0.23v-7.28l-1.15,0.77
	C51.08,53.59,41.31,71.86,41.31,91.51c0,19.87,9.92,38.19,26.55,49.12l-0.62,23.51c-28.62-12.92-47.05-40.98-47.05-72.63
	c0-44.04,35.83-79.87,79.86-79.87c44.04,0,79.87,35.83,79.87,79.87c0,32.8-20.24,62.1-50.54,74.11L128.58,142.83z"/>
</svg>
