<?xml version="1.0" encoding="utf-8"?>
<!-- Generator: Adobe Illustrator 23.0.0, SVG Export Plug-In . SVG Version: 6.00 Build 0)  -->
<svg version="1.1" id="Layer_1" xmlns="http://www.w3.org/2000/svg" xmlns:xlink="http://www.w3.org/1999/xlink" x="0px" y="0px"
	 viewBox="0 0 200 200" style="enable-background:new 0 0 200 200;" xml:space="preserve">
<style type="text/css">
	.st0{fill:#322314;}
</style>
<g id="XMLID_191_">
	<g id="XMLID_244_">
		<path id="XMLID_245_" class="st0" d="M118.65,114.8H72.49c-1.91,0-3.58-1.46-3.95-3.46l-1.03-5.51c-0.22-1.19,0.08-2.39,0.84-3.29
			c0.68-0.82,1.67-1.3,2.71-1.3h29.73c1.01,0,1.83,0.82,1.83,1.83c0,1.01-0.82,1.83-1.83,1.83H71.14c-0.03,0.05-0.06,0.14-0.04,0.26
			l1.03,5.51c0.06,0.31,0.25,0.48,0.36,0.48h44.41c0.01-0.93-0.11-1.74-0.65-2.67c-0.51-0.87-0.22-1.99,0.65-2.5
			c0.87-0.51,1.99-0.22,2.5,0.65c1.31,2.24,1.2,4.19,1.1,5.91l-0.03,0.53C120.43,114.03,119.62,114.8,118.65,114.8z"/>
	</g>
	<g id="XMLID_242_">
		<path id="XMLID_243_" class="st0" d="M135.94,135.84h-14.87c-5.65,0-9.51-1.73-11.46-5.15c-3.07-5.36-0.2-12.63,1.4-15.89H77.07
			l-1.73,6.33c-0.27,0.97-1.27,1.55-2.25,1.28c-0.97-0.27-1.55-1.27-1.28-2.25l1.74-6.37c0.32-1.54,1.68-2.65,3.27-2.65h35.96
			c0.93,0,1.79,0.5,2.26,1.31c0.46,0.8,0.46,1.8-0.01,2.6c-1.78,3.03-4.53,9.81-2.23,13.82c1.26,2.2,4.05,3.31,8.29,3.31h14.87
			c5.65,0,11.17-7.09,13.13-11.88c2.02-4.95-2.91-22.05-7.07-30.16c-0.46-0.9-0.11-2,0.79-2.46c0.9-0.46,2-0.11,2.46,0.79
			c4.08,7.94,9.9,26.59,7.2,33.21C150.23,127.15,143.77,135.84,135.94,135.84z"/>
	</g>
	<g id="XMLID_238_">
		<path id="XMLID_239_" class="st0" d="M85.53,104.9H53.41c-2.66,0-4.83-2.17-4.83-4.83V67.95c0-2.66,2.17-4.83,4.83-4.83h32.11
			c2.66,0,4.83,2.17,4.83,4.83v32.11C90.36,102.73,88.19,104.9,85.53,104.9z M53.41,66.78c-0.65,0-1.17,0.53-1.17,1.17v32.11
			c0,0.65,0.53,1.17,1.17,1.17h32.11c0.65,0,1.17-0.53,1.17-1.17V67.95c0-0.65-0.53-1.17-1.17-1.17H53.41z"/>
	</g>
	<g id="XMLID_236_">
		<path id="XMLID_237_" class="st0" d="M137.04,128.44c-0.07,0-0.15,0-0.22-0.01c-1-0.12-1.72-1.03-1.6-2.03
			c0.47-3.95,1.19-9.92,1.59-14.75c0.05-0.54,0.1-1.08,0.15-1.62c0.57-6.18,0.71-10.03-3.42-11.26c-2.21-0.66-5.89-1.42-9.78-2.23
			c-2.92-0.61-5.95-1.23-8.81-1.91c-1.3-0.31-2.17-1.58-1.97-2.9c0.64-4.23,3.95-12.54,6.09-17.09c0.36-0.76,1.1-1.27,1.94-1.33
			c0.83-0.06,1.65,0.34,2.11,1.05c1.19,1.81,1.99,3.48,2.76,5.09c0.66,1.38,1.28,2.68,2.12,4.01c0.15,0.24,0.38,0.4,0.66,0.45
			c4.68,0.94,11.45,2.26,16.4,3.22l1.28,0.25c0.93-0.21,1.83-1.25,2.1-2.46c0.18-0.8,0.13-1.9-1.03-2.69
			c-1.31-0.31-3.12-0.66-5.2-1.06c-2.53-0.49-5.4-1.05-8.02-1.65c-1.39-0.32-2.53-1.2-3.13-2.41c-0.72-1.47-1.41-2.88-2.1-4.29
			c-1.27-2.6-2.58-5.28-4.12-8.34c-1.7-3.36-3.32-5.73-5.73-6.36c-3.82-1.01-6.42-0.31-10.1,6.3c-3.13,5.63-7.3,16.31-8.78,27.88
			c-0.8,7.63,1.7,9.25,3.97,9.81c3.94,0.97,9.21,1.7,13.86,2.34c3.07,0.42,5.98,0.82,8.02,1.23c2.08,0.42,3.54,2.34,3.38,4.47
			c-0.2,2.71-0.36,5.31-0.53,7.82c-0.19,3.02-0.38,5.87-0.59,8.51c-0.08,1.01-0.96,1.76-1.97,1.68c-1.01-0.08-1.76-0.96-1.68-1.97
			c0.21-2.61,0.39-5.45,0.58-8.46c0.16-2.52,0.33-5.12,0.53-7.85c0.02-0.3-0.18-0.56-0.46-0.62c-1.92-0.39-4.77-0.78-7.79-1.19
			c-4.74-0.65-10.11-1.39-14.24-2.41c-5.29-1.31-7.56-5.95-6.73-13.79c1.54-12.13,5.93-23.32,9.21-29.23
			c3.44-6.19,7.17-9.93,14.23-8.06c3.95,1.04,6.21,4.58,8.06,8.25c1.55,3.08,2.87,5.77,4.14,8.38c0.69,1.41,1.37,2.81,2.09,4.27
			c0.11,0.22,0.36,0.39,0.67,0.46c2.55,0.59,5.38,1.14,7.88,1.63c2.28,0.44,4.25,0.82,5.66,1.16c0.17,0.04,0.34,0.11,0.49,0.2
			c2.43,1.43,3.57,4.02,2.96,6.77c-0.63,2.85-2.96,5.1-5.54,5.34c-0.18,0.02-0.35,0.01-0.52-0.03l-1.59-0.31
			c-4.95-0.96-11.72-2.28-16.42-3.23c-1.25-0.25-2.35-1.01-3.03-2.09c-0.95-1.52-1.65-2.98-2.32-4.39c-0.41-0.85-0.8-1.68-1.24-2.51
			c-1.74,3.98-3.82,9.41-4.56,12.78c2.52,0.58,5.16,1.12,7.72,1.65c3.97,0.82,7.72,1.6,10.08,2.3c7.22,2.14,6.55,9.33,6.02,15.1
			c-0.05,0.53-0.1,1.06-0.14,1.59c-0.38,4.51-1,9.83-1.6,14.88C138.74,127.76,137.95,128.44,137.04,128.44z"/>
	</g>
	<g id="XMLID_234_">
		<path id="XMLID_235_" class="st0" d="M171.89,162c-9.49,0-17.57-7.4-18.39-16.84l3.65-0.32c0.66,7.57,7.13,13.5,14.74,13.5
			c8.16,0,14.8-6.64,14.8-14.8c0-5.16-2.62-9.87-7.02-12.59l1.93-3.11c5.48,3.39,8.75,9.26,8.75,15.7
			C190.35,153.72,182.07,162,171.89,162z"/>
	</g>
	<g id="XMLID_230_">
		<path id="XMLID_231_" class="st0" d="M171.89,152.51c-4.94,0-8.97-4.02-8.97-8.97c0-4.94,4.02-8.97,8.97-8.97
			c4.95,0,8.97,4.02,8.97,8.97C180.86,148.49,176.84,152.51,171.89,152.51z M171.89,138.23c-2.93,0-5.31,2.38-5.31,5.31
			s2.38,5.31,5.31,5.31c2.93,0,5.31-2.38,5.31-5.31S174.82,138.23,171.89,138.23z"/>
	</g>
	<g id="XMLID_228_">
		<path id="XMLID_229_" class="st0" d="M80.83,162c-10.18,0-18.46-8.28-18.46-18.46h3.66c0,8.16,6.64,14.8,14.8,14.8
			c8.16,0,14.8-6.64,14.8-14.8h3.66C99.29,153.72,91.01,162,80.83,162z"/>
	</g>
	<g id="XMLID_226_">
		<path id="XMLID_227_" class="st0" d="M80.83,152.51c-4.95,0-8.97-4.02-8.97-8.97h3.66c0,2.93,2.38,5.31,5.31,5.31
			c2.93,0,5.31-2.38,5.31-5.31h3.66C89.8,148.49,85.78,152.51,80.83,152.51z"/>
	</g>
	<g id="XMLID_224_">
		<path id="XMLID_225_" class="st0" d="M111.02,47.1c-0.96,0-1.76-0.74-1.82-1.71c-0.06-1.01,0.7-1.88,1.71-1.94l25.77-1.64
			c1.01-0.05,1.88,0.7,1.94,1.71c0.06,1.01-0.7,1.88-1.71,1.94l-25.77,1.64C111.09,47.1,111.06,47.1,111.02,47.1z"/>
	</g>
	<g id="XMLID_222_">
		<path id="XMLID_223_" class="st0" d="M114.85,90.77c-0.11,0-0.22-0.01-0.33-0.03c-1.63-0.3-3.49-0.69-5.46-1.11
			c-2.77-0.59-5.9-1.25-8.93-1.76c-1-0.17-1.67-1.11-1.5-2.11c0.17-1,1.11-1.67,2.11-1.5c3.11,0.52,6.28,1.19,9.08,1.79
			c1.95,0.41,3.78,0.8,5.36,1.09c0.99,0.18,1.65,1.14,1.47,2.13C116.49,90.16,115.72,90.77,114.85,90.77z"/>
	</g>
	<g id="XMLID_220_">
		<path id="XMLID_221_" class="st0" d="M73.19,74.64h-7.43c-1.01,0-1.83-0.82-1.83-1.83v-7.87c0-1.01,0.82-1.83,1.83-1.83
			c1.01,0,1.83,0.82,1.83,1.83v6.04h3.77v-6.04c0-1.01,0.82-1.83,1.83-1.83c1.01,0,1.83,0.82,1.83,1.83v7.87
			C75.01,73.83,74.2,74.64,73.19,74.64z"/>
	</g>
	<g id="XMLID_218_">
		<path id="XMLID_219_" class="st0" d="M149.55,149.43c-0.21,0-0.43-0.03-0.64-0.09c-0.69-0.19-1.27-0.68-1.65-1.38
			c-1.15-2.15-2.05-7.38-0.32-11.76c0.37-0.94,1.43-1.4,2.37-1.03c0.94,0.37,1.4,1.43,1.03,2.37c-1.07,2.73-0.71,5.95-0.23,7.69
			l33.39-19.64c-2.81-2.67-9.08-6.55-20.02-3.31c-0.97,0.29-1.99-0.27-2.27-1.24c-0.29-0.97,0.27-1.99,1.24-2.27
			c10-2.96,19.26-0.94,24.75,5.39c0.51,0.59,0.74,1.36,0.61,2.11c-0.12,0.72-0.55,1.34-1.18,1.71l-35.87,21.1
			C150.39,149.31,149.97,149.43,149.55,149.43z"/>
	</g>
	<g id="XMLID_214_">
		<path id="XMLID_215_" class="st0" d="M143.28,144.95L143.28,144.95l-73.34-0.03H57.69c-0.87,0-1.69-0.39-2.25-1.06
			c-0.55-0.67-0.77-1.54-0.61-2.38c1.72-8.94,8.47-19.84,19.23-22.65c10.31-2.69,19.39-1.49,24.9,3.28
			c4.76,4.12,6.88,10.56,6.31,19.16l37.15,0.01c1.06-1.25,2.26-2.67,3.56-4.21c5.5-6.51,12.93-15.31,18.58-21.52L152.6,90.95
			c-0.01-0.02-0.02-0.03-0.02-0.05c-0.34-0.75-0.24-1.63,0.27-2.28c0.51-0.65,1.32-0.97,2.14-0.83c0.02,0,0.03,0.01,0.05,0.01
			l6.57,1.32l1.31-12.32c-6.31-0.29-15.98,1.59-19.75,3.98c-0.85,0.54-1.98,0.29-2.52-0.57c-0.54-0.85-0.29-1.98,0.57-2.52
			c4.86-3.08,16.96-5.29,23.96-4.37c0.98,0.13,1.69,1.02,1.58,2.01l-1.58,14.89c-0.06,0.81-0.46,1.56-1.1,2.07
			c-0.65,0.52-1.5,0.73-2.31,0.59c-0.02,0-0.03-0.01-0.05-0.01l-4.55-0.92l11.25,23.13c0.33,0.68,0.21,1.49-0.3,2.04
			c-5.68,6.18-13.56,15.51-19.32,22.32c-1.53,1.81-2.93,3.47-4.12,4.86C144.32,144.71,143.81,144.95,143.28,144.95z M58.62,141.26
			l42.99,0.01c0.55-7.52-1.15-13.03-5.04-16.39c-4.59-3.97-12.46-4.88-21.59-2.5C65.58,124.83,60.18,134.68,58.62,141.26z"/>
	</g>
	<g id="XMLID_212_">
		<path id="XMLID_213_" class="st0" d="M51.42,126.7"/>
	</g>
	<g id="XMLID_208_">
		<path id="XMLID_209_" class="st0" d="M120.82,57.76c-6.58,0-11.94-5.35-11.94-11.94c0-6.58,5.35-11.94,11.94-11.94
			c6.58,0,11.94,5.35,11.94,11.94C132.76,52.4,127.4,57.76,120.82,57.76z M120.82,37.54c-4.56,0-8.28,3.71-8.28,8.28
			c0,4.56,3.71,8.28,8.28,8.28c4.56,0,8.28-3.71,8.28-8.28C129.1,41.26,125.38,37.54,120.82,37.54z"/>
	</g>
	<g id="XMLID_206_">
		<path id="XMLID_207_" class="st0" d="M79.48,130.45H37.14c-1.01,0-1.83-0.82-1.83-1.83c0-1.01,0.82-1.83,1.83-1.83h42.34
			c1.01,0,1.83,0.82,1.83,1.83C81.31,129.63,80.49,130.45,79.48,130.45z"/>
	</g>
	<g id="XMLID_204_">
		<path id="XMLID_205_" class="st0" d="M71.7,137.59H25.74c-1.01,0-1.83-0.82-1.83-1.83c0-1.01,0.82-1.83,1.83-1.83H71.7
			c1.01,0,1.83,0.82,1.83,1.83C73.53,136.77,72.71,137.59,71.7,137.59z"/>
	</g>
	<g id="XMLID_202_">
		<path id="XMLID_203_" class="st0" d="M67.48,88.88H40.89c-1.01,0-1.83-0.82-1.83-1.83c0-1.01,0.82-1.83,1.83-1.83h26.59
			c1.01,0,1.83,0.82,1.83,1.83C69.31,88.06,68.49,88.88,67.48,88.88z"/>
	</g>
	<g id="XMLID_200_">
		<path id="XMLID_201_" class="st0" d="M60.62,96.01H21.17c-1.01,0-1.83-0.82-1.83-1.83c0-1.01,0.82-1.83,1.83-1.83h39.45
			c1.01,0,1.83,0.82,1.83,1.83C62.45,95.19,61.63,96.01,60.62,96.01z"/>
	</g>
	<g id="XMLID_198_">
		<path id="XMLID_199_" class="st0" d="M33.83,120.16"/>
	</g>
	<g id="XMLID_196_">
		<path id="XMLID_197_" class="st0" d="M54.93,123.32H7.9c-1.01,0-1.83-0.82-1.83-1.83c0-1.01,0.82-1.83,1.83-1.83h47.03
			c1.01,0,1.83,0.82,1.83,1.83C56.76,122.5,55.94,123.32,54.93,123.32z"/>
	</g>
	<g id="XMLID_194_">
		<path id="XMLID_195_" class="st0" d="M62.98,116.19H32.57c-1.01,0-1.83-0.82-1.83-1.83c0-1.01,0.82-1.83,1.83-1.83h30.41
			c1.01,0,1.83,0.82,1.83,1.83C64.81,115.37,63.99,116.19,62.98,116.19z"/>
	</g>
	<g id="XMLID_192_">
		<path id="XMLID_193_" class="st0" d="M124.89,135.85c-0.66,0-1.3-0.36-1.63-0.98c-1.12-2.11-0.26-7.65,2-9.83
			c0.35-0.34,0.81-0.53,1.32-0.52c1.79,0.05,3.54,0.09,5.11,0.13c2.27,0.05,4.19,0.1,5.42,0.14c3.44,0.12,5.85,0.94,7.16,2.43
			c0.85,0.97,1.23,2.21,1.1,3.57c-0.1,1.01-0.99,1.75-2,1.64c-1.01-0.1-1.74-0.99-1.64-2c0.04-0.45-0.08-0.65-0.21-0.81
			c-0.22-0.25-1.2-1.08-4.54-1.19c-1.22-0.04-3.13-0.09-5.38-0.14c-1.31-0.03-2.73-0.06-4.2-0.1c-0.84,1.44-1.19,4.25-0.89,4.98
			c0.47,0.89,0.13,1.99-0.77,2.46C125.46,135.78,125.17,135.85,124.89,135.85z"/>
	</g>
</g>
</svg>
