<?xml version="1.0" encoding="utf-8"?>
<!-- Generator: Adobe Illustrator 23.0.0, SVG Export Plug-In . SVG Version: 6.00 Build 0)  -->
<svg version="1.1" id="Layer_1" xmlns="http://www.w3.org/2000/svg" xmlns:xlink="http://www.w3.org/1999/xlink" x="0px" y="0px"
	 viewBox="0 0 200 200" style="enable-background:new 0 0 200 200;" xml:space="preserve">
<style type="text/css">
	.st0{fill:#322314;}
	.st1{fill:#FDF9F0;}
</style>
<g>
	<g>
		<g>
			<g>
				<path class="st0" d="M121.13,43.49L121.13,43.49c2.47,1.03,5.34-0.15,6.37-2.62l9.62-23.07c1.03-2.47-0.15-5.34-2.62-6.37v0
					c-2.47-1.03-5.34,0.15-6.37,2.62l-9.62,23.07C117.48,39.59,118.66,42.46,121.13,43.49z"/>
				<path class="st0" d="M102.41,42.36L102.41,42.36c2.48-1.02,3.67-3.88,2.65-6.36l-9.51-23.12c-1.02-2.48-3.88-3.67-6.36-2.65l0,0
					c-2.48,1.02-3.67,3.88-2.65,6.36l9.51,23.12C97.07,42.19,99.93,43.38,102.41,42.36z"/>
				<path class="st0" d="M86.68,53.37L86.68,53.37c1.03-2.47-0.15-5.34-2.62-6.37l-23.07-9.62c-2.47-1.03-5.34,0.15-6.37,2.62l0,0
					c-1.03,2.47,0.15,5.34,2.62,6.37l23.07,9.62C82.78,57.02,85.65,55.84,86.68,53.37z"/>
				<path class="st0" d="M134.84,55.88L134.84,55.88c-1.02-2.48,0.17-5.34,2.65-6.36l23.12-9.51c2.48-1.02,5.34,0.17,6.36,2.65l0,0
					c1.02,2.48-0.17,5.34-2.65,6.36l-23.12,9.51C138.72,59.56,135.86,58.36,134.84,55.88z"/>
				<path class="st0" d="M138.09,74.8L138.09,74.8c1.03-2.47,3.9-3.65,6.37-2.62l23.07,9.62c2.47,1.03,3.65,3.9,2.62,6.37l0,0
					c-1.03,2.47-3.9,3.65-6.37,2.62l-23.07-9.62C138.24,80.15,137.06,77.28,138.09,74.8z"/>
			</g>
		</g>
	</g>
	<g id="arrow_cursor_1_">
		<polygon class="st1" points="47.46,136.52 47.46,129.33 54.65,129.33 54.65,122.15 61.83,122.15 61.83,114.96 69.02,114.96 
			69.02,107.78 76.2,107.78 76.2,100.59 83.39,100.59 83.39,93.41 90.57,93.41 90.57,86.22 97.76,86.22 97.76,79.04 104.94,79.04 
			104.94,71.85 112.13,71.85 112.13,79.04 112.13,86.22 112.13,93.41 112.13,100.59 112.13,107.78 112.13,114.96 112.13,122.15 
			112.13,129.33 112.13,136.52 112.13,143.7 112.13,150.89 112.13,158.07 112.13,165.26 112.13,172.44 104.94,172.44 104.94,165.26 
			97.76,165.26 97.76,158.07 90.57,158.07 90.57,150.89 83.39,150.89 83.39,158.07 76.2,158.07 76.2,165.26 76.2,172.44 
			69.02,172.44 69.02,179.63 69.02,186.81 61.83,186.81 54.65,186.81 54.65,179.63 54.65,172.44 61.83,172.44 61.83,165.26 
			61.83,158.07 69.02,158.07 69.02,150.89 69.02,143.7 61.83,143.7 54.65,143.7 47.46,143.7 40.28,143.7 40.28,136.52 		"/>
		<g id="Arrow_part_2_">
			<rect x="97.76" y="71.85" class="st0" width="7.19" height="7.19"/>
			<rect x="90.57" y="79.04" class="st0" width="7.19" height="7.19"/>
			<rect x="83.39" y="86.22" class="st0" width="7.19" height="7.19"/>
			<rect x="76.2" y="93.41" class="st0" width="7.19" height="7.19"/>
			<rect x="69.02" y="100.59" class="st0" width="7.19" height="7.19"/>
			<rect x="61.83" y="107.78" class="st0" width="7.19" height="7.19"/>
			<rect x="54.65" y="114.96" class="st0" width="7.19" height="7.19"/>
			<rect x="47.46" y="122.15" class="st0" width="7.19" height="7.19"/>
			<rect x="40.28" y="129.33" class="st0" width="7.19" height="7.19"/>
			<rect x="83.39" y="150.89" class="st0" width="7.19" height="7.19"/>
			<polygon class="st0" points="40.28,136.52 40.28,143.7 47.46,143.7 54.65,143.7 61.83,143.7 69.02,143.7 69.02,150.89 
				69.02,158.07 61.83,158.07 61.83,150.89 54.65,150.89 47.46,150.89 40.28,150.89 33.09,150.89 33.09,143.7 33.09,136.52 			"/>
			<rect x="90.57" y="158.07" class="st0" width="7.19" height="7.19"/>
			<rect x="97.76" y="165.26" class="st0" width="7.19" height="7.19"/>
			<polygon class="st0" points="83.39,158.07 83.39,165.26 83.39,172.44 76.2,172.44 76.2,165.26 76.2,158.07 			"/>
			<polygon class="st0" points="61.83,158.07 61.83,165.26 61.83,172.44 54.65,172.44 54.65,165.26 54.65,158.07 			"/>
			<polygon class="st0" points="112.13,158.07 112.13,150.89 112.13,143.7 112.13,136.52 112.13,129.33 112.13,122.15 
				112.13,114.96 112.13,107.78 112.13,100.59 112.13,93.41 112.13,86.22 112.13,79.04 112.13,71.85 104.94,71.85 104.94,64.67 
				112.13,64.67 112.13,57.48 119.31,57.48 119.31,64.67 119.31,71.85 119.31,79.04 119.31,86.22 119.31,93.41 119.31,100.59 
				119.31,107.78 119.31,114.96 119.31,122.15 119.31,129.33 119.31,136.52 119.31,143.7 119.31,150.89 119.31,158.07 
				119.31,165.26 119.31,172.44 119.31,179.63 112.13,179.63 104.94,179.63 104.94,172.44 112.13,172.44 112.13,165.26 			"/>
			<polygon class="st0" points="76.2,172.44 76.2,179.63 76.2,186.81 69.02,186.81 69.02,179.63 69.02,172.44 			"/>
			<polygon class="st0" points="54.65,172.44 54.65,179.63 54.65,186.81 47.46,186.81 47.46,179.63 47.46,172.44 			"/>
			<polygon class="st0" points="61.83,186.81 69.02,186.81 69.02,194 61.83,194 54.65,194 54.65,186.81 			"/>
		</g>
	</g>
</g>
</svg>
