<?xml version="1.0" encoding="utf-8"?>
<!-- Generator: Adobe Illustrator 17.0.0, SVG Export Plug-In . SVG Version: 6.00 Build 0)  -->
<!DOCTYPE svg PUBLIC "-//W3C//DTD SVG 1.1//EN" "http://www.w3.org/Graphics/SVG/1.1/DTD/svg11.dtd">
<svg version="1.1" id="Layer_1" xmlns="http://www.w3.org/2000/svg" xmlns:xlink="http://www.w3.org/1999/xlink" x="0px" y="0px"
	 width="50.093px" height="50.093px" viewBox="0 0 50.093 50.093" enable-background="new 0 0 50.093 50.093" xml:space="preserve">
<g>
	<path fill="#FFFAF1" d="M33.635,16.356L29.307,3.623c-0.298-0.878-1.241-1.355-2.101-1.063c-0.385,0.131-1.066,0.532-1.294,1.75
		c-0.039,0.232-0.074,0.544-0.116,0.955c-0.314,2.981-1.144,10.9-9.28,13.666l-0.849,0.289l-9.275,3.153
		c-3.007,1.022-4.606,4.342-3.566,7.401l0.793,2.334c1.04,3.059,4.33,4.716,7.338,3.694l0.439-0.149l1.793,5.273
		c0.337,0.991,1.175,2.287,1.936,3.002l2.199,2.717l0.042,0.038c0.906,0.827,2.522,1.167,3.681,0.773l5.121-1.741
		c0.751-0.255,1.225-0.759,1.298-1.383c0.075-0.619-0.268-1.219-0.939-1.645l-3.909-2.461c-0.604-0.379-1.333-1.303-1.561-1.975
		l-1.788-5.259l0.968-0.328l0.001,0.003l0.849-0.289c3.787-1.288,7.555-0.835,11.198,1.344c1.846,1.103,3.638,2.662,5.041,4.385
		l0.025,0.032c0.558,0.686,1.522,0.994,2.291,0.733c0.426-0.145,0.75-0.445,0.918-0.848c0.11-0.268,0.197-0.715-0.003-1.306
		l-4.329-12.733c0.576-0.379,1.023-0.972,1.269-1.705c0.303-0.912,0.282-1.965-0.057-2.964c-0.34-0.999-0.965-1.846-1.76-2.382
		C35.039,16.503,34.323,16.306,33.635,16.356z M34.278,18.246c0.594,0.213,1.176,0.817,1.459,1.649s0.189,1.665-0.152,2.197
		L34.278,18.246z M21.658,41.748l3.709,2.338l-4.899,1.666c-0.529,0.18-1.412,0.005-1.835-0.349l-2.193-2.707l-0.042-0.038
		c-0.559-0.51-1.263-1.589-1.508-2.309l-1.792-5.27l4.465-1.51l1.789,5.263C19.709,39.876,20.721,41.159,21.658,41.748z
		 M27.711,4.519l11.047,32.494c-0.003-0.002-0.004-0.004-0.004-0.004l-0.026-0.034c-1.532-1.881-3.491-3.585-5.518-4.796
		c-1.818-1.087-3.702-1.8-5.604-2.118c-2.067-0.345-4.164-0.229-6.237,0.347L17.94,20.325c3.522-1.414,6.129-3.875,7.755-7.319
		c1.406-2.98,1.722-5.947,1.89-7.569c0.037-0.341,0.069-0.637,0.1-0.8C27.693,4.595,27.7,4.555,27.711,4.519z M16.246,20.924
		l3.413,10.039l-9.28,3.138c-2.068,0.703-4.338-0.452-5.058-2.571l-0.793-2.334c-0.72-2.119,0.376-4.416,2.444-5.119L16.246,20.924z
		"/>
	<path fill="#FFFAF1" d="M37.729,13.456l3.017-5.279c0.248-0.43,0.098-0.981-0.334-1.228c-0.415-0.239-0.995-0.079-1.227,0.337
		l-3.016,5.282c-0.119,0.208-0.149,0.451-0.086,0.68c0.062,0.232,0.211,0.426,0.419,0.546c0.222,0.129,0.492,0.152,0.738,0.069
		C37.446,13.791,37.622,13.648,37.729,13.456z"/>
	<path fill="#FFFAF1" d="M46.324,14.605c-0.021,0.007-0.041,0.014-0.061,0.024l-5.605,2.384c-0.222,0.093-0.393,0.266-0.482,0.489
		c-0.091,0.224-0.088,0.47,0.007,0.689c0.182,0.433,0.671,0.653,1.115,0.502c0.023-0.008,0.049-0.017,0.064-0.025l5.605-2.384
		c0.455-0.195,0.669-0.726,0.477-1.181C47.26,14.673,46.768,14.454,46.324,14.605z"/>
	<path fill="#FFFAF1" d="M41.228,22.849c-0.456-0.165-0.988,0.1-1.142,0.555c-0.081,0.226-0.067,0.472,0.038,0.687
		c0.106,0.218,0.29,0.379,0.518,0.457l5.75,1.99c0.192,0.064,0.39,0.063,0.581-0.002c0.263-0.09,0.468-0.292,0.562-0.557
		c0.16-0.469-0.089-0.983-0.559-1.143L41.228,22.849z"/>
</g>
</svg>
