<?xml version="1.0" encoding="utf-8"?>
<!-- Generator: Adobe Illustrator 17.0.0, SVG Export Plug-In . SVG Version: 6.00 Build 0)  -->
<!DOCTYPE svg PUBLIC "-//W3C//DTD SVG 1.1//EN" "http://www.w3.org/Graphics/SVG/1.1/DTD/svg11.dtd">
<svg version="1.1" id="Layer_1" xmlns="http://www.w3.org/2000/svg" xmlns:xlink="http://www.w3.org/1999/xlink" x="0px" y="0px"
	 width="50.093px" height="50.093px" viewBox="0 0 50.093 50.093" enable-background="new 0 0 50.093 50.093" xml:space="preserve">
<g>
	<g>
		<path fill="#FFFAF1" d="M29.73,45.175c-0.058,0-0.115-0.001-0.173-0.004c-2.864-0.125-6.091-2.188-9.59-6.132
			c-3.073-3.463-5.425-7.314-6.293-8.808l-0.003-0.004c-0.86-1.499-3.019-5.461-4.482-9.854C7.524,15.371,7.35,11.545,8.674,9.002
			c0.809-1.555,2.809-2.769,3.663-3.288c1.182-0.718,2.216-0.947,3.16-0.701c0.855,0.223,1.568,0.828,2.119,1.8
			c0.326,0.575,3.193,5.689,3.409,8.122c0.251,2.818-1.454,3.38-2.473,3.715c-0.683,0.225-0.878,0.322-0.953,0.581
			c-0.338,1.17,1.113,4.601,2.72,7.385c1.79,3.1,3.781,5.449,4.841,5.711c0.261,0.064,0.443-0.056,0.979-0.535
			c0.8-0.714,2.139-1.911,4.454-0.284c1.998,1.404,4.994,6.443,5.329,7.013c0.566,0.964,0.734,1.884,0.499,2.736
			c-0.26,0.941-0.975,1.721-2.187,2.386C33.388,44.108,31.441,45.175,29.73,45.175z M15.278,29.302
			c0.841,1.448,3.115,5.171,6.076,8.507c3.109,3.504,5.974,5.409,8.284,5.51c1.234,0.054,3.03-0.931,3.706-1.302
			c0.739-0.405,1.173-0.826,1.29-1.252c0.096-0.35-0.008-0.788-0.31-1.303c-1.234-2.099-3.529-5.545-4.796-6.435
			c-1.111-0.781-1.416-0.508-2.152,0.15c-0.596,0.532-1.411,1.262-2.661,0.952c-2.317-0.573-4.969-4.796-6.002-6.585
			c-1.091-1.89-3.558-6.533-2.896-8.826c0.357-1.236,1.396-1.578,2.155-1.828c0.938-0.309,1.326-0.437,1.206-1.789
			c-0.137-1.543-1.974-5.254-3.175-7.371c-0.294-0.519-0.622-0.829-0.973-0.92C14.602,6.696,14.02,6.862,13.3,7.3
			c-0.659,0.4-2.411,1.464-2.98,2.559c-1.068,2.051-0.85,5.485,0.63,9.929C12.358,24.019,14.445,27.848,15.278,29.302z"/>
	</g>
	<g>
		<path fill="#FFFAF1" d="M35.985,24.778"/>
	</g>
	<g>
		<g>
			<path fill="#FFFAF1" d="M31.418,28.324c-0.079,0-0.16-0.01-0.241-0.032c-0.495-0.133-0.788-0.641-0.656-1.136
				c0.563-2.103,0.274-4.299-0.814-6.184c-1.088-1.885-2.846-3.234-4.948-3.797c-0.495-0.132-0.788-0.641-0.656-1.136
				c0.133-0.495,0.641-0.789,1.136-0.656c2.581,0.692,4.739,2.347,6.075,4.661c1.336,2.314,1.691,5.01,0.999,7.592
				C32.202,28.05,31.827,28.324,31.418,28.324z"/>
		</g>
		<g>
			<path fill="#FFFAF1" d="M36.139,27.989c-0.079,0-0.16-0.01-0.241-0.032c-0.495-0.132-0.788-0.641-0.656-1.136
				c1.581-5.9-1.933-11.986-7.833-13.567c-0.495-0.132-0.788-0.641-0.656-1.136c0.133-0.495,0.642-0.788,1.136-0.656
				c6.888,1.846,10.99,8.951,9.145,15.839C36.923,27.715,36.549,27.989,36.139,27.989z"/>
		</g>
		<g>
			<path fill="#FFFAF1" d="M40.86,27.654c-0.079,0-0.16-0.01-0.241-0.032c-0.495-0.132-0.788-0.641-0.656-1.136
				c1.999-7.46-2.444-15.155-9.904-17.154c-0.495-0.132-0.788-0.641-0.656-1.136c0.133-0.495,0.641-0.789,1.136-0.656
				c8.448,2.263,13.479,10.978,11.215,19.425C41.644,27.38,41.27,27.654,40.86,27.654z"/>
		</g>
	</g>
</g>
</svg>
