<?xml version="1.0" encoding="utf-8"?>
<!-- Generator: Adobe Illustrator 23.0.0, SVG Export Plug-In . SVG Version: 6.00 Build 0)  -->
<svg version="1.1" id="Layer_1" xmlns="http://www.w3.org/2000/svg" xmlns:xlink="http://www.w3.org/1999/xlink" x="0px" y="0px"
	 viewBox="0 0 60 60" style="enable-background:new 0 0 60 60;" xml:space="preserve">
<style type="text/css">
	.st0{fill:#FDF9F0;}
	.st1{clip-path:url(#SVGID_2_);fill-rule:evenodd;clip-rule:evenodd;fill:#322314;}
</style>
<g>
	<circle class="st0" cx="29.85" cy="29.98" r="29.15"/>
	<g>
		<defs>
			<circle id="SVGID_1_" cx="29.85" cy="29.98" r="29.15"/>
		</defs>
		<use xlink:href="#SVGID_1_"  style="overflow:visible;fill:#FDF9F0;"/>
		<clipPath id="SVGID_2_">
			<use xlink:href="#SVGID_1_"  style="overflow:visible;"/>
		</clipPath>
		<path class="st1" d="M55.97,68c-1.08-6.64-3.52-22.77-3.52-22.77c-1.5-3.27-10.7-6.09-10.7-6.09c-3.44-1.54-4.5-2.67-4.81-3.13
			c-0.35-0.65-0.59-1.48-0.59-2.55c1.12-1.53,2.03-3.25,2.63-4.98l-0.02,0.11c1.08-0.98,1.84-3.56,1.84-3.56
			c0.89-2.43,0.3-3.34-0.11-3.67c0.62-2.47,1.24-7.02-1.54-10.07c0,0-1.59-2.15-2.59-2.76c-1.21-0.73-3.78-1.77-3.78-1.77
			s-0.49,1.07-0.59,0.89c0,0-0.75-0.19-2.43-1.96c0,0-1.48,0.32-1.97,0.91l-0.83-0.32l-0.32,0.65l-1.33-0.65
			c0,0-1.53,0.89-2.34,1.09c0,0-4.46,1.49-6.12,6.52c0,0-0.89,2.09,0.17,8.13c-2.1-0.64-0.43,3.62-0.43,3.62
			c0.02,2.24,0.96,2.13,1.2,2.07c0.52,1.89,1.42,3.76,2.55,5.42c0.06,0.64,0.04,2.14-1.05,3.52c-2.12,2.39-10.02,4.61-10.02,4.61
			c-2.9,1.09-4.13,2.72-4.13,2.72C2.82,47.33,1.61,63.58,0.99,68H55.97z"/>
	</g>
</g>
</svg>
