<svg xmlns="http://www.w3.org/2000/svg" width="56.694" height="47.361" viewBox="0 0 56.694 47.361">
  <g id="ICONS_19" data-name="ICONS 19" transform="translate(-2.32 -6.986)">
    <g id="Group_330" data-name="Group 330">
      <g id="Group_329" data-name="Group 329">
        <g id="Group_328" data-name="Group 328">
          <g id="Group_327" data-name="Group 327">
            <path id="Path_1228" data-name="Path 1228" d="M33.734,35.484A7.267,7.267,0,1,1,41,28.216,7.276,7.276,0,0,1,33.734,35.484Zm0-13.023a5.756,5.756,0,1,0,5.757,5.756A5.764,5.764,0,0,0,33.734,22.461Z" fill="#178072"/>
            <path id="Path_1229" data-name="Path 1229" d="M33.734,32.073a3.855,3.855,0,1,1,3.856-3.856A3.859,3.859,0,0,1,33.734,32.073Zm0-6.2a2.344,2.344,0,1,0,2.345,2.344A2.346,2.346,0,0,0,33.734,25.872Z" fill="#178072"/>
            <path id="Path_1230" data-name="Path 1230" d="M55.138,45.935H6.2A3.88,3.88,0,0,1,2.32,42.06v-31.2A3.881,3.881,0,0,1,6.2,6.986H55.138a3.881,3.881,0,0,1,3.876,3.876v31.2A3.881,3.881,0,0,1,55.138,45.935ZM6.2,8.5a2.368,2.368,0,0,0-2.365,2.365v31.2A2.367,2.367,0,0,0,6.2,44.424H55.138A2.367,2.367,0,0,0,57.5,42.06v-31.2A2.368,2.368,0,0,0,55.138,8.5H6.2Z" fill="#178072"/>
            <path id="Path_1231" data-name="Path 1231" d="M54.358,54.347H6.976c-2.567,0-4.655-1.6-4.655-3.56V48.8a1.394,1.394,0,0,1,1.535-1.174H19.78A1.393,1.393,0,0,1,21.315,48.8v.6a.73.73,0,0,0,.8.615H39.213a.73.73,0,0,0,.8-.615v-.6a1.394,1.394,0,0,1,1.536-1.174H57.477A1.393,1.393,0,0,1,59.012,48.8v1.988C59.013,52.749,56.925,54.347,54.358,54.347ZM3.856,48.78l-.024,2.006c0,1.326,1.41,2.4,3.144,2.4H54.358c1.734,0,3.144-1.079,3.144-2.4l-.024-2.006H41.554l-.025.615a2.1,2.1,0,0,1-2.315,1.771H22.12A2.1,2.1,0,0,1,19.805,49.4v-.6Z" fill="#178072"/>
            <path id="Path_1232" data-name="Path 1232" d="M55.365,42.036H5.968a.756.756,0,0,1-.756-.756v-28.6a.756.756,0,0,1,.756-.756h49.4a.756.756,0,0,1,.756.756v28.6A.756.756,0,0,1,55.365,42.036ZM6.724,40.525H54.61V13.438H6.724Z" fill="#178072"/>
            <path id="Path_1233" data-name="Path 1233" d="M45.34,26.893h-1.9a1.854,1.854,0,0,1-1.852-1.853V21.7a.756.756,0,0,1,1.512,0V25.04a.342.342,0,0,0,.341.342h1.9a.342.342,0,0,0,.341-.342V21.7a.756.756,0,0,1,1.511,0V25.04A1.855,1.855,0,0,1,45.34,26.893Z" fill="#178072"/>
            <path id="Path_1234" data-name="Path 1234" d="M44.39,24.65a.756.756,0,0,1-.756-.756V21.7a.756.756,0,0,1,1.512,0v2.19A.756.756,0,0,1,44.39,24.65Z" fill="#178072"/>
            <path id="Path_1235" data-name="Path 1235" d="M44.39,34.6a.756.756,0,0,1-.756-.755v-7.7a.756.756,0,0,1,1.512,0v7.7A.756.756,0,0,1,44.39,34.6Z" fill="#178072"/>
            <path id="Path_1236" data-name="Path 1236" d="M22.7,34.6a.756.756,0,0,1-.756-.755V22.877a1.929,1.929,0,0,1,1.927-1.927,2.169,2.169,0,0,1,2.167,2.167v3.532A2.05,2.05,0,0,1,23.988,28.7h-.536V33.84A.754.754,0,0,1,22.7,34.6Zm.756-7.41h.536a.536.536,0,0,0,.536-.536V23.117a.656.656,0,0,0-.656-.656.417.417,0,0,0-.416.416v4.308Z" fill="#178072"/>
            <path id="Path_1237" data-name="Path 1237" d="M52.693,38.4H20.052a2.546,2.546,0,0,1-2.543-2.543V20.58a2.546,2.546,0,0,1,2.543-2.543H47.415a2.546,2.546,0,0,1,2.543,2.543V32.337l3.357,4.876a.756.756,0,0,1-.622,1.184ZM20.052,19.548A1.033,1.033,0,0,0,19.02,20.58V35.854a1.033,1.033,0,0,0,1.032,1.032h31.2L48.581,33a.755.755,0,0,1-.133-.429V20.58a1.033,1.033,0,0,0-1.032-1.032Z" fill="#178072"/>
          </g>
        </g>
      </g>
    </g>
  </g>
</svg>
