<svg xmlns="http://www.w3.org/2000/svg" width="56.693" height="34.972" viewBox="0 0 56.693 34.972">
  <g id="ICONS_18" data-name="ICONS 18" transform="translate(-2.32 -13.181)">
    <g id="Group_326" data-name="Group 326">
      <g id="Group_325" data-name="Group 325">
        <g id="Group_324" data-name="Group 324">
          <path id="Path_1207" data-name="Path 1207" d="M51.03,48.153a7.983,7.983,0,1,1,7.983-7.983A7.992,7.992,0,0,1,51.03,48.153Zm0-14.569a6.586,6.586,0,1,0,6.586,6.586A6.593,6.593,0,0,0,51.03,33.584Z" fill="#178072"/>
          <path id="Path_1208" data-name="Path 1208" d="M17.331,48.153a7.983,7.983,0,1,1,7.983-7.983A7.992,7.992,0,0,1,17.331,48.153Zm0-14.569a6.586,6.586,0,1,0,6.586,6.586A6.593,6.593,0,0,0,17.331,33.584Z" fill="#178072"/>
          <path id="Path_1209" data-name="Path 1209" d="M43.937,22.548a4.684,4.684,0,0,1,0-9.367.7.7,0,0,1,.7.7v7.969A.7.7,0,0,1,43.937,22.548Zm-.7-7.9a3.286,3.286,0,0,0,0,6.422Z" fill="#178072"/>
          <path id="Path_1210" data-name="Path 1210" d="M43.937,22.055a.7.7,0,0,1-.7-.7V14.373a.7.7,0,0,1,.7-.7,4.19,4.19,0,1,1,0,8.381Zm.7-6.9v5.409a2.793,2.793,0,0,0,0-5.409Z" fill="#178072"/>
          <path id="Path_1211" data-name="Path 1211" d="M51.03,48.153a7.983,7.983,0,1,1,7.983-7.983A7.992,7.992,0,0,1,51.03,48.153Zm0-14.569a6.586,6.586,0,1,0,6.586,6.586A6.593,6.593,0,0,0,51.03,33.584Z" fill="#178072"/>
          <path id="Path_1212" data-name="Path 1212" d="M51.03,44.1a3.93,3.93,0,1,1,3.93-3.93A3.934,3.934,0,0,1,51.03,44.1Zm0-6.462a2.533,2.533,0,1,0,2.533,2.533A2.535,2.535,0,0,0,51.03,37.637Z" fill="#178072"/>
          <path id="Path_1213" data-name="Path 1213" d="M51.03,44.1a3.93,3.93,0,1,1,3.93-3.93A3.934,3.934,0,0,1,51.03,44.1Zm0-6.462a2.533,2.533,0,1,0,2.533,2.533A2.535,2.535,0,0,0,51.03,37.637Z" fill="#178072"/>
          <path id="Path_1214" data-name="Path 1214" d="M17.4,44.1a3.93,3.93,0,1,1,3.93-3.93A3.934,3.934,0,0,1,17.4,44.1Zm0-6.462a2.533,2.533,0,1,0,2.533,2.533A2.535,2.535,0,0,0,17.4,37.637Z" fill="#178072"/>
          <path id="Path_1215" data-name="Path 1215" d="M17.331,48.153a7.983,7.983,0,1,1,7.983-7.983A7.992,7.992,0,0,1,17.331,48.153Zm0-14.569a6.586,6.586,0,1,0,6.586,6.586A6.593,6.593,0,0,0,17.331,33.584Z" fill="#178072"/>
          <path id="Path_1216" data-name="Path 1216" d="M43.752,41.115H24.609a.7.7,0,0,1-.7-.722l.006-.224a6.585,6.585,0,0,0-12.252-3.356.7.7,0,0,1-1.271-.16l-.646-2.2a.69.69,0,0,1-.028-.2V26.641a.7.7,0,0,1,.7-.7H28.137a.7.7,0,0,1,.7.7v7.147a2.289,2.289,0,0,0,2.286,2.286H39.4a2.287,2.287,0,0,0,2.274-2.518L40.367,20.69a.7.7,0,0,1,1.2-.555,3.26,3.26,0,0,0,2.37,1.014h.236a5.1,5.1,0,0,1,4.572,2.813l4.427,8.767a.7.7,0,0,1-.769,1,6.586,6.586,0,0,0-7.96,6.441l0,.168a.758.758,0,0,1-.195.537A.712.712,0,0,1,43.752,41.115ZM25.3,39.717H43.059a8.022,8.022,0,0,1,8.276-7.525l-3.837-7.6a3.707,3.707,0,0,0-3.324-2.045h-.236a4.654,4.654,0,0,1-2.022-.457l1.151,11.326A3.684,3.684,0,0,1,39.4,37.473h-8.28a3.689,3.689,0,0,1-3.684-3.684V27.34H11.117v6.814l.219.748A7.98,7.98,0,0,1,25.3,39.717Z" fill="#178072"/>
          <path id="Path_1217" data-name="Path 1217" d="M30.9,27.34h-10.3a1.986,1.986,0,0,1,0-3.972H30.9a1.986,1.986,0,1,1,0,3.972Zm-10.3-2.574a.589.589,0,0,0,0,1.177H30.9a.589.589,0,0,0,0-1.177Z" fill="#178072"/>
          <path id="Path_1218" data-name="Path 1218" d="M36.319,19.819a.7.7,0,0,1-.332-1.313l3.705-2a.7.7,0,0,1,.663,1.231l-3.7,2A.72.72,0,0,1,36.319,19.819Z" fill="#178072"/>
          <path id="Path_1219" data-name="Path 1219" d="M46.662,32.3a.7.7,0,0,1-.652-.447l-1.92-4.955a.7.7,0,1,1,1.3-.5l1.92,4.955a.7.7,0,0,1-.4.9A.675.675,0,0,1,46.662,32.3Z" fill="#178072"/>
          <path id="Path_1220" data-name="Path 1220" d="M28.136,30.536H19.628a.7.7,0,0,1,0-1.4h8.508a.7.7,0,0,1,0,1.4Z" fill="#178072"/>
          <path id="Path_1221" data-name="Path 1221" d="M16.056,27.34H5.872a.7.7,0,1,1,0-1.4H16.056a.7.7,0,0,1,0,1.4Z" fill="#178072"/>
          <path id="Path_1222" data-name="Path 1222" d="M17.042,27.34H3.019a.7.7,0,0,1-.7-.7V24.372a.7.7,0,0,1,.7-.7H17.042a.7.7,0,0,1,.7.7v2.269A.7.7,0,0,1,17.042,27.34Zm-13.324-1.4H16.344v-.872H3.718Z" fill="#178072"/>
          <path id="Path_1223" data-name="Path 1223" d="M17.682,25.071H3.659a.7.7,0,0,1-.7-.7V22.1a.7.7,0,0,1,.7-.7H17.682a.7.7,0,0,1,.7.7v2.269A.7.7,0,0,1,17.682,25.071Zm-13.324-1.4H16.984V22.8H4.358Z" fill="#178072"/>
          <path id="Path_1224" data-name="Path 1224" d="M17.042,22.8H3.019a.7.7,0,0,1-.7-.7V19.833a.7.7,0,0,1,.7-.7H17.042a.7.7,0,0,1,.7.7V22.1A.7.7,0,0,1,17.042,22.8ZM3.718,21.4H16.344v-.872H3.718Z" fill="#178072"/>
          <path id="Path_1225" data-name="Path 1225" d="M17.682,20.532H3.659a.7.7,0,0,1-.7-.7V17.564a.7.7,0,0,1,.7-.7H17.682a.7.7,0,0,1,.7.7v2.269A.7.7,0,0,1,17.682,20.532Zm-13.324-1.4H16.984v-.872H4.358Z" fill="#178072"/>
          <path id="Path_1226" data-name="Path 1226" d="M17.042,18.263H3.019a.7.7,0,0,1-.7-.7V15.3a.7.7,0,0,1,.7-.7H17.042a.7.7,0,0,1,.7.7v2.269A.7.7,0,0,1,17.042,18.263Zm-13.324-1.4H16.344v-.871H3.718Z" fill="#178072"/>
          <path id="Path_1227" data-name="Path 1227" d="M57.593,48.153H3.659a.7.7,0,0,1,0-1.4H57.593a.7.7,0,0,1,0,1.4Z" fill="#178072"/>
        </g>
      </g>
    </g>
  </g>
</svg>
