<svg id="Group_184" data-name="Group 184" xmlns="http://www.w3.org/2000/svg" width="55.033" height="51.358" viewBox="0 0 55.033 51.358">
  <g id="Group_183" data-name="Group 183">
    <g id="Group_171" data-name="Group 171">
      <g id="Group_169" data-name="Group 169" transform="translate(0.805 23.837)">
        <path id="Path_616" data-name="Path 616" d="M54.429,66.022a5.075,5.075,0,0,0,1.091-3.053A3.643,3.643,0,0,0,53.468,59.6a5.056,5.056,0,0,0,2.048-3.952,3.8,3.8,0,0,0-4.235-3.852c-4.049.372-8.112.63-12.181.8q-2.31.762-4.621,1.488t-4.61,1.4Q25,56.91,20.139,58.107q-2.506-1.524-5-3.086-1.182-.737-2.362-1.476c-.8-.5-1.59-1-2.384-1.5-.9-.069-1.8-.13-2.7-.211A3.817,3.817,0,0,0,3.454,55.7,5.044,5.044,0,0,0,5.5,59.658a3.66,3.66,0,0,0-2.054,3.383,5.006,5.006,0,0,0,.9,2.8A3.454,3.454,0,0,0,2.535,69v3.031a5.408,5.408,0,0,0,4.138,5.082,117.9,117.9,0,0,0,45.149,0,5.406,5.406,0,0,0,4.138-5.082V69A3.482,3.482,0,0,0,54.429,66.022Zm-9.95-11.559a.508.508,0,0,1,.466-.541c1.765-.125,3.547-.275,5.3-.441a.5.5,0,0,1,.55.455.5.5,0,0,1-.305.505.53.53,0,0,1-.147.044c-1.76.169-3.55.316-5.323.444h-.036a.76.76,0,0,1-.078-.014A.494.494,0,0,1,44.479,54.463Z" transform="translate(-2.535 -51.776)" fill="#322314"/>
      </g>
      <g id="Group_170" data-name="Group 170">
        <path id="Path_617" data-name="Path 617" d="M29.76,43.187c-25.733.266-27.52,13.827-27.515,16.15v.958A4.843,4.843,0,0,0,6.53,65.021a262.41,262.41,0,0,0,46.462,0,4.839,4.839,0,0,0,4.285-4.726v-.958C57.283,57.036,54.58,43.453,29.76,43.187ZM11.406,53.509c-.619.477-1.374.513-1.682.089s-.056-1.149.563-1.626,1.374-.522,1.682-.1S12.025,53.034,11.406,53.509Zm6.247-4.227c-.272-.316-.122-.93.336-1.371s1.055-.547,1.327-.23.122.935-.336,1.377S17.926,49.6,17.654,49.282ZM21.3,54.111c-.425.694-1.113,1.01-1.54.713s-.43-1.1-.006-1.787,1.113-1.01,1.54-.719S21.722,53.414,21.3,54.111Zm6.189-6.059c-.652.458-1.41.469-1.69.017s.022-1.191.674-1.649,1.41-.469,1.69-.019S28.145,47.591,27.49,48.052Zm6.217,2.176c-.255.608-.76.963-1.13.788s-.463-.808-.208-1.418.763-.96,1.13-.785S33.962,49.618,33.706,50.228Zm7.435-1.5c-.261.461-1.019.494-1.69.069s-1-1.146-.738-1.6,1.019-.488,1.687-.064S41.405,48.269,41.142,48.727Zm6.017,1.968c-.3.289-.883.139-1.3-.336s-.516-1.1-.216-1.385.883-.133,1.3.341S47.458,50.406,47.159,50.694Zm4.529,5.312c-.391.347-1.11.147-1.607-.458s-.577-1.379-.186-1.723,1.11-.13,1.607.472S52.079,55.659,51.688,56.006Z" transform="translate(-2.245 -43.187)" fill="#322314"/>
      </g>
    </g>
    <g id="Group_182" data-name="Group 182" transform="translate(15.886 35.233)">
      <g id="Group_181" data-name="Group 181">
        <g id="Group_180" data-name="Group 180">
          <g id="Group_178" data-name="Group 178" transform="translate(0 6.608)">
            <g id="Group_173" data-name="Group 173" transform="translate(5.212 0.075)">
              <g id="Group_172" data-name="Group 172">
                <path id="Path_618" data-name="Path 618" d="M9.875,58.461c0,.008-.008.014-.014.017s0,.006-.006.008l.028.017a.015.015,0,0,1,.014-.008c0-.014-.019-.017-.022-.033" transform="translate(-9.831 -57.986)" fill="#fffaf1"/>
                <path id="Path_619" data-name="Path 619" d="M9.888,58.466l-.011.006.014.008,0-.014" transform="translate(-9.794 -57.978)" fill="#fffaf1"/>
                <path id="Path_620" data-name="Path 620" d="M9.89,58.468h0" transform="translate(-9.771 -57.974)" fill="#fffaf1"/>
                <path id="Path_621" data-name="Path 621" d="M9.884,58.469H9.9l0,0-.025.006.017.011,0-.014" transform="translate(-9.806 -57.978)" fill="#fffaf1"/>
                <path id="Path_622" data-name="Path 622" d="M10.1,58.327H9.985a.25.25,0,0,0,.111,0" transform="translate(-9.602 -58.224)" fill="#fffaf1"/>
                <path id="Path_623" data-name="Path 623" d="M10.474,58.53c-.025.044-.092.083-.111.161-.019-.056.047-.114.083-.161h-.025L10.38,58.4a.036.036,0,0,1-.025-.042c-.025.036-.056.011-.092.044,0,.031.031-.025.022.022-.044-.019-.042-.025-.056.022a.022.022,0,0,1-.011-.011l-.028.094h-.031a.106.106,0,0,1-.022.047c-.031-.014-.064-.022-.08-.05H9.939l0,.006c-.006,0-.008,0-.008-.006H9.891a.021.021,0,0,1-.025,0H9.847c0,.008.011.014.006.025a.122.122,0,0,1,.061-.019c.017-.022.019.042.033.011.008.006,0,.017,0,.028a.24.24,0,0,0,.036.039A.027.027,0,0,1,10,58.608c0,.008,0,.011,0,.017a.185.185,0,0,0,.056.033.046.046,0,0,0-.008.036l.08.053,0,.006h.006s0,.006-.008.006l0,.008a.321.321,0,0,1,.058.044c-.039.028.067.031-.011.033.025.008.078.047.08.022.042,0,.014.064-.011.033.008.028.017.017.036.011l.047-.033.092.067a.085.085,0,0,0,.042.008c.019.014,0,.011-.019.008l.205.147,0-.006-.008,0,0-.006-.064-.183c0,.006,0,.008,0,.011s-.017-.031-.022-.011c-.025.028.028-.061-.044-.033.006-.008.014-.019,0-.022.006-.028.044.047.033-.022a.038.038,0,0,1,.011.008l-.047-.094.325-.225Z" transform="translate(-9.847 -58.164)" fill="#fffaf1"/>
                <path id="Path_624" data-name="Path 624" d="M10.023,58.429c.011.044,0,.069-.047.067-.008-.05.064-.011.022-.056.006-.017.022.011.025-.011" transform="translate(-9.62 -58.043)" fill="#fffaf1"/>
                <path id="Path_625" data-name="Path 625" d="M9.991,58.4c.039.011.006.019.011.056-.033-.017-.036-.033-.011-.056" transform="translate(-9.622 -58.091)" fill="#fffaf1"/>
                <path id="Path_626" data-name="Path 626" d="M9.981,58.463c.006,0,.014.017.006.014s.006,0,.011.006-.022,0-.017.014c-.008,0-.022,0-.019-.014.011.014.025,0,.019-.019" transform="translate(-9.645 -57.983)" fill="#fffaf1"/>
                <path id="Path_627" data-name="Path 627" d="M10,58.49c.008,0,.008.006.017.006S10,58.5,10,58.5a.047.047,0,0,1-.056.019c.006-.019.05,0,.05-.025" transform="translate(-9.671 -57.935)" fill="#fffaf1"/>
                <path id="Path_628" data-name="Path 628" d="M10.037,58.495c-.011,0-.014,0-.019.006s.006,0,.006,0,0,.008,0,.014-.017-.008-.011-.014c-.014.011-.042.033-.061.025a.225.225,0,0,1,.1-.033c.008.017-.017,0-.017.014s0-.006,0-.011" transform="translate(-9.662 -57.931)" fill="#fffaf1"/>
                <path id="Path_629" data-name="Path 629" d="M9.981,58.551c.014-.044.05-.017.08-.008a.257.257,0,0,1-.08.008" transform="translate(-9.609 -57.871)" fill="#fffaf1"/>
                <path id="Path_630" data-name="Path 630" d="M10.016,58.487c-.031-.017,0-.067.011-.078.019.022-.017.053-.011.078" transform="translate(-9.57 -58.079)" fill="#fffaf1"/>
                <path id="Path_631" data-name="Path 631" d="M10.007,58.488c-.017-.019.006-.031-.011-.067.014-.017.047-.014.047-.044.067.042-.033.069-.036.111" transform="translate(-9.582 -58.136)" fill="#fffaf1"/>
                <path id="Path_632" data-name="Path 632" d="M9.974,58.591,9.9,58.8c0,.006.008.008.011.014l.186-.139c-.011-.022-.017-.078-.053-.061-.017,0,0-.019.011-.022A.161.161,0,0,1,10,58.527l-.017.044L10,58.58a.033.033,0,0,1-.031.011" transform="translate(-9.749 -57.869)" fill="#fffaf1"/>
                <path id="Path_633" data-name="Path 633" d="M10.1,58.569l-.006-.022v.028l.006-.006" transform="translate(-9.401 -57.834)" fill="#fffaf1"/>
                <path id="Path_634" data-name="Path 634" d="M10.084,58.385l-.014-.044s-.006,0-.011-.006A.106.106,0,0,1,10,58.4c.017.025.028.017.056.011a.053.053,0,0,1-.011-.033c.008.014.025.008.039.006" transform="translate(-9.574 -58.21)" fill="#fffaf1"/>
                <path id="Path_635" data-name="Path 635" d="M10.036,58.29,10,58.42v0c.017-.028.039-.011.072-.028l0-.008c-.011,0-.011-.008-.006-.014Z" transform="translate(-9.581 -58.29)" fill="#fffaf1"/>
                <path id="Path_636" data-name="Path 636" d="M10.036,58.367v-.006l0,0,0,0" transform="translate(-9.517 -58.164)" fill="#fffaf1"/>
                <path id="Path_637" data-name="Path 637" d="M9.992,58.424H9.934a.035.035,0,0,1,0,.025c.017-.033.047.006.056-.025" transform="translate(-9.693 -58.052)" fill="#fffaf1"/>
              </g>
            </g>
            <g id="Group_174" data-name="Group 174" transform="translate(15.406 0.003)">
              <path id="Path_638" data-name="Path 638" d="M14.436,58.533a.22.22,0,0,1-.033.125.26.26,0,0,1-.105.086.2.2,0,0,1,.056.028h0a.243.243,0,0,1,.133.225.282.282,0,0,1-.114.233.469.469,0,0,1-.294.083.707.707,0,0,1-.072,0c-.028,0-.058,0-.089-.006s-.061,0-.083-.006a.45.45,0,0,0-.058,0,.548.548,0,0,0-.072.006l-.069.008h-.025c-.058,0-.086-.025-.086-.075a.061.061,0,0,1,.069-.067h.019l.025,0h.008c.006,0,.008,0,.011,0h.008c.033,0,.05-.031.05-.089v-.594c0-.058-.017-.089-.047-.092a.029.029,0,0,1-.011,0,.054.054,0,0,0-.019,0h0a.288.288,0,0,1-.042.006c-.047,0-.069-.022-.069-.067s.031-.072.092-.072h.022l.072.011a.608.608,0,0,0,.08.006q.054,0,.158-.008h0c.022,0,.047,0,.072-.006l.08,0a.42.42,0,0,1,.253.067.242.242,0,0,1,.086.194m-.563.064a.243.243,0,0,0,.008.083c.008.008.028.011.058.011h.083c.158,0,.236-.05.236-.15s-.064-.136-.191-.136a.5.5,0,0,0-.175.017h0c-.014.008-.022.036-.022.08Zm0,.463c0,.055.006.089.019.1a.113.113,0,0,0,.056.014c.028,0,.064,0,.108,0,.167,0,.25-.061.25-.186s-.08-.169-.239-.169h-.122c-.039,0-.064.008-.067.022a.173.173,0,0,0-.006.05Z" transform="translate(-13.52 -58.25)" fill="#fffaf1"/>
              <path id="Path_639" data-name="Path 639" d="M14.263,58.629l-.006.119v.225a.331.331,0,0,0,.019.142.134.134,0,0,0,.075.064l.056.017a.207.207,0,0,0,.056.008.245.245,0,0,0,.125-.028.116.116,0,0,0,.064-.072.311.311,0,0,0,.011-.058.545.545,0,0,0,.006-.072c0-.064,0-.128,0-.189V58.51a.126.126,0,0,0,0-.039q-.012-.058-.05-.058a.035.035,0,0,0-.017,0H14.59a.077.077,0,0,1-.025,0h-.019a.07.07,0,0,1-.05-.022.068.068,0,0,1-.022-.047q0-.075.092-.075h.014a.017.017,0,0,1,.011,0l.086.011a.548.548,0,0,0,.072.006.384.384,0,0,0,.061-.006l.064-.011a.259.259,0,0,1,.039-.006c.058,0,.086.022.086.069s-.028.069-.083.069H14.89a0,0,0,0,1,0,0c-.019,0-.028.008-.033.028a1.631,1.631,0,0,0-.008.222V59c0,.025,0,.044,0,.058a.344.344,0,0,1-.056.136.36.36,0,0,1-.319.136.349.349,0,0,1-.358-.18h0a.246.246,0,0,1-.022-.072.524.524,0,0,1-.006-.1c0-.036,0-.089.006-.158s.006-.122.006-.155V58.59a.85.85,0,0,0,0-.117c-.006-.042-.017-.064-.033-.064h-.011a.035.035,0,0,1-.017,0h-.017c-.058,0-.089-.022-.089-.069s.028-.069.08-.069a.376.376,0,0,1,.056.006c.025,0,.047.008.067.008a.47.47,0,0,0,.061,0,.933.933,0,0,0,.142-.014l.019,0h.022c.058,0,.086.025.086.069s-.025.069-.078.069h-.019a.047.047,0,0,1-.019,0c-.006,0-.014,0-.022,0h-.014c-.017,0-.028.011-.036.033a.207.207,0,0,0-.006.031c0,.014,0,.033,0,.053Z" transform="translate(-12.797 -58.252)" fill="#fffaf1"/>
              <path id="Path_640" data-name="Path 640" d="M15.153,58.77c-.008,0-.014.008-.022.008l-.022.008a.407.407,0,0,1,.036.022.1.1,0,0,1,.028.031.227.227,0,0,1,.028.069.5.5,0,0,1,.011.1v.069a.1.1,0,0,0,0,.017c0,.058.014.086.044.086s.044-.036.044-.108v-.044l0-.036v-.022a.159.159,0,0,1,0-.039.082.082,0,0,1,.006-.028.066.066,0,0,1,.069-.036c.053,0,.078.028.078.083v.064c0,.011,0,.019,0,.025v.05a.12.12,0,0,1,0,.014v.014a.188.188,0,0,1-.208.2.174.174,0,0,1-.2-.2V59a.15.15,0,0,0-.031-.114.215.215,0,0,0-.139-.031h-.139c-.014,0-.022.011-.022.036v.233q.012.058.05.058a.077.077,0,0,0,.025,0,.277.277,0,0,1,.044-.006.064.064,0,0,1,.072.069q0,.075-.092.075a.01.01,0,0,1-.006,0c-.008,0-.014,0-.017,0l-.078-.011c-.017,0-.031,0-.042-.006l-.036,0a.127.127,0,0,0-.028,0c-.011,0-.025,0-.036.006a.187.187,0,0,1-.039.006.2.2,0,0,1-.033.006.086.086,0,0,0-.028,0,.173.173,0,0,1-.033,0c-.058,0-.089-.025-.089-.075s.022-.067.069-.067h.042l.017,0H14.5c.033,0,.05-.031.05-.089v-.591c0-.058-.017-.089-.047-.092a.034.034,0,0,1-.014,0,.054.054,0,0,0-.022,0l-.019,0h-.019a.06.06,0,0,1-.05-.022.068.068,0,0,1-.022-.047c0-.047.031-.072.092-.072h.011a.025.025,0,0,1,.014,0l.039,0a.171.171,0,0,0,.036,0l.033,0h.083a.285.285,0,0,0,.047,0h.008l.111-.006.056,0h.05c.233,0,.35.089.35.269a.235.235,0,0,1-.128.233m-.28-.053a.571.571,0,0,0,.1-.008.219.219,0,0,0,.072-.025.128.128,0,0,0,.061-.125c0-.1-.069-.147-.205-.147a.463.463,0,0,0-.155.017c-.019.008-.028.028-.028.055v.228s.008,0,.017,0h.136Z" transform="translate(-12.045 -58.257)" fill="#fffaf1"/>
              <path id="Path_641" data-name="Path 641" d="M15.264,58.264a.388.388,0,0,1,.236.078v0c0-.047.025-.069.075-.069s.078.028.078.083v.022a.021.021,0,0,1,0,.014l-.008.069a.5.5,0,0,0-.006.064.306.306,0,0,0,0,.044c0,.019,0,.044.006.075v.014c0,.058-.028.089-.08.089s-.078-.031-.078-.094v-.044a.175.175,0,0,0-.061-.144.233.233,0,0,0-.164-.053.242.242,0,0,0-.205.105.488.488,0,0,0-.075.289.512.512,0,0,0,.078.305.246.246,0,0,0,.211.111.2.2,0,0,0,.155-.061.259.259,0,0,0,.056-.175.083.083,0,0,0-.011-.053.049.049,0,0,0-.042-.017H15.4c-.006,0-.011,0-.019,0h-.017c-.064,0-.094-.022-.094-.069s.028-.072.083-.072h.019a.035.035,0,0,1,.017,0h.008c.031,0,.061.008.083.008a.515.515,0,0,0,.061,0,.971.971,0,0,0,.15-.014l.019,0h.025c.056,0,.086.022.086.069a.07.07,0,0,1-.022.05.078.078,0,0,1-.053.019h-.019a.021.021,0,0,1-.014,0h-.017c-.028,0-.039.042-.039.125v.161c0,.014,0,.025,0,.036v.036c0,.053-.025.08-.078.08a.068.068,0,0,1-.078-.075v-.006l-.006.006a.37.37,0,0,1-.253.083.4.4,0,0,1-.325-.15.477.477,0,0,1-.092-.169.738.738,0,0,1-.028-.214.635.635,0,0,1,.122-.405.422.422,0,0,1,.341-.153" transform="translate(-11.246 -58.264)" fill="#fffaf1"/>
              <path id="Path_642" data-name="Path 642" d="M15.4,58.5c0-.058-.017-.089-.05-.089a.077.077,0,0,0-.025,0,.277.277,0,0,1-.044.006.067.067,0,0,1-.069-.069c0-.047.031-.072.089-.072h.008a.035.035,0,0,1,.017,0l.119.008c.028,0,.047,0,.058.006a.105.105,0,0,0,.042,0l.355-.011.075-.006h0c.008,0,.017,0,.022,0h.022c.069,0,.1.031.1.089a.122.122,0,0,1,0,.025.49.49,0,0,1-.006.053.239.239,0,0,0,0,.044v.08a.085.085,0,0,0,0,.028c0,.014,0,.028.006.039s0,.022,0,.031c0,.05-.025.075-.078.075s-.078-.033-.078-.1v-.078c0-.075-.011-.117-.036-.125h0a.624.624,0,0,0-.189-.017.876.876,0,0,0-.119.006.064.064,0,0,0-.044.067v.1a.1.1,0,0,1,0,.017v.031a.031.031,0,0,0,.036.05h.061c.044,0,.067-.014.067-.039a.1.1,0,0,1,0-.019.062.062,0,0,0,0-.025v0a.417.417,0,0,1-.006-.056.068.068,0,0,1,.078-.078c.053,0,.078.028.078.083a.189.189,0,0,1,0,.033c0,.017-.006.036-.008.064a.955.955,0,0,0-.008.117.274.274,0,0,0,0,.042.552.552,0,0,0,.006.061l.008.05a.467.467,0,0,1,.006.056c0,.05-.025.075-.078.075s-.078-.028-.078-.083v-.022a.077.077,0,0,1,0-.025v-.036c0-.006,0-.008,0-.011v0c0-.028-.019-.044-.058-.044h-.067c-.017,0-.028,0-.031.011a.15.15,0,0,0-.006.047v.119a.135.135,0,0,0,0,.033v.067c0,.036.006.056.014.061a.2.2,0,0,0,.061.006h.2a.177.177,0,0,0,.1-.022.094.094,0,0,0,.028-.08v-.067c0-.011,0-.025,0-.039v-.031c0-.058.025-.089.078-.089s.08.031.08.089v.022a.124.124,0,0,1,0,.031v.061c0,.011,0,.022,0,.031v.047a.171.171,0,0,0,0,.036v.017c0,.008,0,.017,0,.025v.019a.081.081,0,0,1-.092.092h-.017a.041.041,0,0,1-.019,0h-.022a.39.39,0,0,0-.05-.006h-.161c-.036,0-.067,0-.1,0H15.6c-.092,0-.183,0-.272.008H15.3c-.058,0-.089-.025-.089-.075s.022-.067.069-.067h.042l.017,0h.014c.033,0,.05-.031.05-.089v-.6Z" transform="translate(-10.516 -58.248)" fill="#fffaf1"/>
              <path id="Path_643" data-name="Path 643" d="M16.41,58.77c-.008,0-.014.008-.022.008l-.022.008a.407.407,0,0,1,.036.022.1.1,0,0,1,.028.031.227.227,0,0,1,.028.069.5.5,0,0,1,.011.1V59.1c0,.058.014.086.042.086s.044-.036.044-.108v-.142a.082.082,0,0,1,.006-.028.066.066,0,0,1,.069-.036c.053,0,.078.028.078.083v.011a.069.069,0,0,1,0,.022v.031c0,.011,0,.019,0,.025v.05a.12.12,0,0,1,0,.014v.014a.188.188,0,0,1-.208.2.174.174,0,0,1-.2-.2v-.044l0-.05V59a.15.15,0,0,0-.031-.114.215.215,0,0,0-.139-.031H16c-.014,0-.022.011-.022.036v.233q.012.058.05.058a.077.077,0,0,0,.025,0,.277.277,0,0,1,.044-.006.064.064,0,0,1,.072.069q0,.075-.092.075a0,0,0,0,1,0,0c-.008,0-.014,0-.017,0l-.078-.011c-.017,0-.031,0-.042-.006l-.036,0a.127.127,0,0,0-.028,0c-.011,0-.025,0-.036.006a.187.187,0,0,1-.039.006.2.2,0,0,1-.033.006.086.086,0,0,0-.028,0,.173.173,0,0,1-.033,0c-.061,0-.089-.025-.089-.075s.022-.067.069-.067h.042l.017,0h.017c.033,0,.05-.031.05-.089v-.591c0-.058-.017-.089-.047-.092a.034.034,0,0,1-.014,0,.054.054,0,0,0-.022,0l-.019,0h-.019a.06.06,0,0,1-.05-.022.068.068,0,0,1-.022-.047c0-.047.031-.072.092-.072h.011a.025.025,0,0,1,.014,0l.039,0a.171.171,0,0,0,.036,0l.033,0h.083a.285.285,0,0,0,.047,0h.008l.111-.006.056,0h.05c.233,0,.35.089.35.269a.238.238,0,0,1-.133.233m-.28-.053a.571.571,0,0,0,.1-.008.219.219,0,0,0,.072-.025.128.128,0,0,0,.061-.125c0-.1-.069-.147-.205-.147a.463.463,0,0,0-.155.017.055.055,0,0,0-.031.055v.228a.06.06,0,0,0,.017,0h.139Z" transform="translate(-9.804 -58.257)" fill="#fffaf1"/>
              <path id="Path_644" data-name="Path 644" d="M16.454,58.264a.355.355,0,0,1,.214.064.061.061,0,0,1,.067-.05q.075,0,.075.083v.019c0,.011,0,.028-.006.053a.728.728,0,0,0,0,.08v.028a.054.054,0,0,0,0,.019l.006.056a.021.021,0,0,1,0,.011v.011c0,.061-.028.092-.08.092a.071.071,0,0,1-.08-.08v-.008l0-.042c0-.008,0-.014,0-.019v-.011a.145.145,0,0,0-.053-.122.217.217,0,0,0-.147-.044.2.2,0,0,0-.136.042.136.136,0,0,0-.05.111.128.128,0,0,0,.069.119.219.219,0,0,0,.061.022l.1.019a1.5,1.5,0,0,1,.15.036.28.28,0,0,1,.1.047.3.3,0,0,1,.08.1.259.259,0,0,1,.028.125.314.314,0,0,1-.108.244.411.411,0,0,1-.275.092.434.434,0,0,1-.25-.072c0,.05-.025.075-.078.075s-.08-.028-.08-.083a.017.017,0,0,1,0-.011l.006-.078c0-.039.006-.061.006-.072a.159.159,0,0,0,0-.033c0-.014,0-.031-.006-.053s0-.039-.006-.053,0-.028,0-.039c0-.058.028-.089.08-.089s.083.028.083.089v.031s0,.008,0,.011V59a.213.213,0,0,0,.064.161.246.246,0,0,0,.175.058.258.258,0,0,0,.161-.047.157.157,0,0,0,.058-.13.126.126,0,0,0-.042-.1.228.228,0,0,0-.117-.053l-.083-.017c-.044-.008-.08-.017-.114-.025s-.061-.019-.086-.028a.235.235,0,0,1-.111-.1.268.268,0,0,1-.042-.147.285.285,0,0,1,.1-.228.405.405,0,0,1,.264-.083" transform="translate(-9.005 -58.264)" fill="#fffaf1"/>
            </g>
            <g id="Group_175" data-name="Group 175" transform="translate(6.922)">
              <path id="Path_645" data-name="Path 645" d="M10.854,58.264a.355.355,0,0,1,.214.064.061.061,0,0,1,.067-.05q.075,0,.075.083v.019c0,.011,0,.028-.006.053a.728.728,0,0,0,0,.08v.028a.054.054,0,0,0,0,.019l.006.056a.021.021,0,0,1,0,.011v.011c0,.061-.028.092-.08.092a.071.071,0,0,1-.08-.08v-.008l0-.042c0-.008,0-.014,0-.019v-.011A.145.145,0,0,0,11,58.447a.217.217,0,0,0-.147-.044.2.2,0,0,0-.136.042.136.136,0,0,0-.05.111.128.128,0,0,0,.069.119.219.219,0,0,0,.061.022l.1.019a1.5,1.5,0,0,1,.15.036.28.28,0,0,1,.1.047.3.3,0,0,1,.08.1.259.259,0,0,1,.028.125.314.314,0,0,1-.108.244.408.408,0,0,1-.272.092.434.434,0,0,1-.25-.072c0,.05-.025.075-.078.075s-.08-.028-.08-.083v-.011l.006-.078c0-.039.006-.061.006-.072a.159.159,0,0,0,0-.033c0-.014,0-.031-.006-.053s0-.039-.006-.053,0-.028,0-.039c0-.058.028-.089.08-.089s.083.028.083.089V59a.213.213,0,0,0,.064.161.246.246,0,0,0,.175.058.258.258,0,0,0,.161-.047.157.157,0,0,0,.058-.13.126.126,0,0,0-.042-.1.229.229,0,0,0-.114-.053l-.083-.017c-.044-.008-.08-.017-.114-.025s-.061-.019-.086-.028a.223.223,0,0,1-.111-.1.268.268,0,0,1-.042-.147.285.285,0,0,1,.1-.228.38.38,0,0,1,.258-.083" transform="translate(-10.463 -58.261)" fill="#fffaf1"/>
              <path id="Path_646" data-name="Path 646" d="M11,58.5c0-.058-.017-.089-.05-.089h-.006a.028.028,0,0,0-.011,0H10.93a.38.38,0,0,1-.044.006c-.047,0-.072-.022-.072-.069s.031-.072.092-.072h.014c.006,0,.008,0,.011,0h0l.072.008a.746.746,0,0,0,.086.006c.022,0,.053,0,.089-.006h0l.105-.008c.031,0,.058,0,.08,0a.7.7,0,0,1,.167.017.288.288,0,0,1,.089.042.266.266,0,0,1,.072.064.308.308,0,0,1,.047.083.3.3,0,0,1-.083.325.465.465,0,0,1-.294.08H11.21a.062.062,0,0,1-.025,0,.01.01,0,0,0-.006,0v.05a1.545,1.545,0,0,0,.008.222q0,.025.042.025h.014a.12.12,0,0,1,.014,0h.036a.01.01,0,0,0,.006,0c.05,0,.072.022.072.067s-.031.075-.094.075l0,0H11.26l-.075-.011A.649.649,0,0,0,11.1,59.3a.576.576,0,0,0-.08.006l-.086.011a.01.01,0,0,0-.008,0H10.91c-.061,0-.092-.025-.092-.072a.069.069,0,0,1,.022-.05.067.067,0,0,1,.05-.019.243.243,0,0,1,.044.006h.025c.033,0,.05-.031.05-.089v-.6Zm.18-.067a.245.245,0,0,0-.006.069v.219c0,.014.011.022.036.025h.08c.031,0,.061,0,.092-.006a.578.578,0,0,0,.078-.011.139.139,0,0,0,.111-.153c0-.111-.072-.167-.214-.167-.111,0-.169.008-.178.022" transform="translate(-9.842 -58.243)" fill="#fffaf1"/>
              <path id="Path_647" data-name="Path 647" d="M11.653,59.354a.4.4,0,0,1-.33-.15.626.626,0,0,1-.119-.4.61.61,0,0,1,.119-.4.416.416,0,0,1,.336-.147.4.4,0,0,1,.325.142.569.569,0,0,1,.122.38.646.646,0,0,1-.122.411.374.374,0,0,1-.33.158m0-.941a.231.231,0,0,0-.2.1.514.514,0,0,0-.072.291.527.527,0,0,0,.072.3.227.227,0,0,0,.2.1.231.231,0,0,0,.2-.105.508.508,0,0,0,.078-.3.5.5,0,0,0-.069-.289.232.232,0,0,0-.2-.1" transform="translate(-9.149 -58.263)" fill="#fffaf1"/>
              <path id="Path_648" data-name="Path 648" d="M12.382,58.77c-.008,0-.014.008-.019.008l-.022.008a.407.407,0,0,1,.036.022.1.1,0,0,1,.028.031.227.227,0,0,1,.028.069.5.5,0,0,1,.011.1V59.1c0,.058.014.086.044.086s.044-.036.044-.108v-.142a.082.082,0,0,1,.006-.028.066.066,0,0,1,.069-.036c.053,0,.078.028.078.083v.167a.188.188,0,0,1-.208.2.174.174,0,0,1-.2-.2v-.044l0-.05V59a.15.15,0,0,0-.031-.114.215.215,0,0,0-.139-.031h-.136c-.014,0-.022.011-.022.036v.233q.012.058.05.058a.077.077,0,0,0,.025,0,.277.277,0,0,1,.044-.006.064.064,0,0,1,.072.069q0,.075-.092.075l0,0c-.008,0-.014,0-.017,0l-.078-.011c-.017,0-.031,0-.044-.006l-.036,0a.115.115,0,0,0-.028,0c-.011,0-.025,0-.036.006a.187.187,0,0,1-.039.006.2.2,0,0,1-.033.006.086.086,0,0,0-.028,0,.216.216,0,0,1-.036,0c-.058,0-.089-.025-.089-.075s.022-.067.069-.067H11.7a.121.121,0,0,1,.014,0h.017c.033,0,.05-.031.05-.089v-.591c0-.058-.017-.089-.047-.092a.034.034,0,0,1-.014,0,.054.054,0,0,0-.022,0l-.019,0h-.019a.06.06,0,0,1-.05-.022.068.068,0,0,1-.022-.047c0-.047.031-.072.092-.072h.011a.025.025,0,0,1,.014,0l.039,0a.171.171,0,0,0,.036,0l.033,0h.083a.285.285,0,0,0,.047,0h.008l.111-.006.056,0h.05c.233,0,.35.089.35.269a.242.242,0,0,1-.133.233m-.28-.053a.571.571,0,0,0,.1-.008.219.219,0,0,0,.072-.025.128.128,0,0,0,.061-.125c0-.1-.069-.147-.205-.147a.463.463,0,0,0-.155.017.055.055,0,0,0-.031.055v.228a.06.06,0,0,0,.017,0H12.1Z" transform="translate(-8.471 -58.254)" fill="#fffaf1"/>
              <path id="Path_649" data-name="Path 649" d="M12.546,59.084c0,.058.017.089.05.089h.014a.047.047,0,0,0,.019,0,.077.077,0,0,0,.025,0c.011,0,.014,0,.014,0a.094.094,0,0,1,.05.019.068.068,0,0,1,.022.047c0,.047-.031.072-.092.072h-.011s-.006,0-.011,0l-.075-.011-.042-.006c-.014,0-.028,0-.044,0a.3.3,0,0,0-.05,0,.275.275,0,0,0-.047.006l-.075.011s-.008,0-.008,0h-.014c-.061,0-.092-.025-.092-.072s.025-.067.072-.067l.014,0c.011,0,.019,0,.025,0s.014,0,.019,0h.011c.033,0,.05-.031.05-.089v-.1l0-.13v-.125l0-.241a.074.074,0,0,0-.083-.083h-.044c-.056,0-.08.028-.08.083v.05l.006.053v.042c0,.075-.028.114-.083.114s-.08-.028-.08-.086v-.019a.054.054,0,0,1,0-.022V58.59c0-.047.006-.075.006-.089v-.036a.2.2,0,0,0,0-.039L12,58.381v-.008a.019.019,0,0,0,0-.014.073.073,0,0,1,.08-.083h.033c.017,0,.039,0,.061,0h.053a.634.634,0,0,1,.067,0h.083l.083,0h.155l.094-.006a.336.336,0,0,1,.053,0h.044c.067,0,.1.028.1.083a.5.5,0,0,1,0,.056c0,.028-.006.056-.008.086v.044a.239.239,0,0,0,0,.042c0,.019,0,.039.006.05v.028a.073.073,0,0,1-.083.08c-.053,0-.08-.031-.08-.094,0-.017,0-.044.006-.08,0-.017,0-.033,0-.047V58.49c0-.055-.031-.08-.092-.08h-.042a.07.07,0,0,0-.058.019.113.113,0,0,0-.022.061l-.006.1Z" transform="translate(-7.725 -58.24)" fill="#fffaf1"/>
              <path id="Path_650" data-name="Path 650" d="M12.785,58.264a.355.355,0,0,1,.214.064.061.061,0,0,1,.067-.05q.075,0,.075.083v.019c0,.011,0,.028-.006.053a.727.727,0,0,0,0,.08v.047l.006.056a.021.021,0,0,1,0,.011v.011c0,.061-.028.092-.08.092a.071.071,0,0,1-.08-.08v-.008l0-.042c0-.008,0-.014,0-.019v-.011a.145.145,0,0,0-.053-.122.217.217,0,0,0-.147-.044.2.2,0,0,0-.136.042.136.136,0,0,0-.05.111.126.126,0,0,0,.072.119.219.219,0,0,0,.061.022l.1.019a1.5,1.5,0,0,1,.15.036.28.28,0,0,1,.1.047.3.3,0,0,1,.08.1.259.259,0,0,1,.028.125.314.314,0,0,1-.108.244.411.411,0,0,1-.275.092.434.434,0,0,1-.25-.072c0,.05-.025.075-.078.075s-.08-.028-.08-.083a.017.017,0,0,1,0-.011l.006-.078c0-.039.006-.061.006-.072a.159.159,0,0,0,0-.033c0-.014,0-.031-.006-.053s0-.039-.006-.053v-.039c0-.058.025-.089.08-.089s.083.028.083.089v.031a.017.017,0,0,0,0,.011V59a.213.213,0,0,0,.064.161.246.246,0,0,0,.175.058.258.258,0,0,0,.161-.047.157.157,0,0,0,.058-.13.126.126,0,0,0-.042-.1.228.228,0,0,0-.117-.053l-.083-.017c-.042-.008-.08-.017-.114-.025s-.061-.019-.086-.028a.235.235,0,0,1-.111-.1.268.268,0,0,1-.042-.147.285.285,0,0,1,.1-.228.392.392,0,0,1,.261-.083" transform="translate(-7.031 -58.261)" fill="#fffaf1"/>
            </g>
            <g id="Group_176" data-name="Group 176" transform="translate(0 0.019)">
              <path id="Path_651" data-name="Path 651" d="M8.888,58.533a.22.22,0,0,1-.033.125.26.26,0,0,1-.105.086.288.288,0,0,1,.058.028h0A.243.243,0,0,1,8.938,59a.277.277,0,0,1-.117.233.469.469,0,0,1-.294.083.707.707,0,0,1-.072,0c-.028,0-.058,0-.089-.006s-.061,0-.083-.006a.45.45,0,0,0-.058,0,.548.548,0,0,0-.072.006l-.072.008H8.055c-.058,0-.086-.025-.086-.075a.061.061,0,0,1,.069-.067h.019l.025,0h.008c.006,0,.008,0,.011,0h.008c.033,0,.05-.031.05-.089v-.594c0-.058-.017-.089-.047-.092,0,0-.006,0-.011,0a.054.054,0,0,0-.019,0h0a.288.288,0,0,1-.042.006c-.047,0-.069-.022-.069-.067s.031-.072.092-.072h.019l.072.011a.646.646,0,0,0,.08.006q.054,0,.158-.008h0c.022,0,.047,0,.072-.006l.078,0a.42.42,0,0,1,.253.067.231.231,0,0,1,.092.194m-.566.061a.243.243,0,0,0,.008.083c.008.008.028.011.058.011h.083c.158,0,.236-.05.236-.15s-.064-.136-.191-.136a.5.5,0,0,0-.175.017h0c-.014.008-.022.036-.022.08Zm0,.466c0,.055.006.089.019.1a.113.113,0,0,0,.056.014c.028,0,.064,0,.108,0,.167,0,.25-.061.25-.186s-.08-.169-.239-.169H8.394c-.039,0-.064.008-.067.022a.173.173,0,0,0-.006.05Z" transform="translate(-7.969 -58.266)" fill="#fffaf1"/>
              <path id="Path_652" data-name="Path 652" d="M8.561,58.5c0-.058-.017-.089-.05-.089a.077.077,0,0,0-.025,0,.277.277,0,0,1-.044.006.067.067,0,0,1-.05-.019.07.07,0,0,1-.022-.05c0-.047.031-.072.089-.072h.008a.035.035,0,0,1,.017,0l.119.008c.028,0,.047,0,.058.006a.105.105,0,0,0,.042,0l.355-.011.075-.006h0c.008,0,.017,0,.022,0h.022c.069,0,.1.031.1.089a.122.122,0,0,1,0,.025.489.489,0,0,1-.006.053.239.239,0,0,0,0,.044v.08c0,.011,0,.019,0,.028s0,.028.006.039,0,.022,0,.031c0,.05-.025.075-.078.075s-.078-.033-.078-.1v-.078c0-.075-.011-.117-.036-.125h0a.624.624,0,0,0-.189-.017.879.879,0,0,0-.119.006.064.064,0,0,0-.044.067v.15a.031.031,0,0,0,.036.05h.061c.044,0,.067-.014.067-.039a.1.1,0,0,1,0-.019c0-.011,0-.019,0-.025v0a.414.414,0,0,1-.006-.058.068.068,0,0,1,.078-.078c.053,0,.078.028.078.083a.189.189,0,0,1,0,.033c0,.017-.006.036-.008.064a.955.955,0,0,0-.008.117.275.275,0,0,0,0,.042.552.552,0,0,0,.006.061l.008.05a.467.467,0,0,1,.006.056c0,.05-.025.075-.078.075s-.078-.028-.078-.083v-.022a.077.077,0,0,1,0-.025v-.036c0-.006,0-.008,0-.011v0c0-.028-.019-.044-.058-.044H8.769c-.017,0-.028,0-.031.011a.15.15,0,0,0-.006.047v.119a.135.135,0,0,0,0,.033v.067c0,.036.006.055.014.061a.2.2,0,0,0,.061.006h.2a.177.177,0,0,0,.1-.022.1.1,0,0,0,.028-.08v-.019a.077.077,0,0,0,0-.025V59.01c0-.011,0-.025,0-.039v-.031c0-.058.025-.089.078-.089s.08.031.08.089v.022a.125.125,0,0,1,0,.031v.191c0,.011,0,.019,0,.025v.019a.081.081,0,0,1-.092.092H9.183a.041.041,0,0,1-.019,0H9.141a.39.39,0,0,0-.05-.006H8.928c-.036,0-.067,0-.1,0H8.747c-.092,0-.183,0-.272.008-.006,0-.008,0-.008,0H8.456c-.058,0-.089-.025-.089-.075s.022-.067.072-.067h.044l.017,0h.014c.033,0,.05-.031.05-.089v-.6Z" transform="translate(-7.262 -58.266)" fill="#fffaf1"/>
              <path id="Path_653" data-name="Path 653" d="M8.959,58.5c0-.058-.017-.089-.05-.089a.077.077,0,0,0-.025,0,.277.277,0,0,1-.044.006.067.067,0,0,1-.05-.019.07.07,0,0,1-.022-.05c0-.047.031-.072.089-.072h.008a.021.021,0,0,1,.014,0L9,58.286c.028,0,.047,0,.058.006a.1.1,0,0,0,.042,0l.358-.011.075-.006h0c.008,0,.017,0,.022,0h.022c.069,0,.1.031.1.089v.025a.489.489,0,0,1-.006.053.239.239,0,0,0,0,.044v.08a.085.085,0,0,0,0,.028c0,.014,0,.028.006.039s0,.022,0,.031c0,.05-.025.075-.078.075s-.078-.033-.078-.1v-.078c0-.075-.014-.117-.036-.125h0a.624.624,0,0,0-.189-.017.879.879,0,0,0-.119.006.064.064,0,0,0-.044.067v.1a.1.1,0,0,1,0,.017v.031a.031.031,0,0,0,.036.05h.061c.044,0,.067-.014.067-.039a.068.068,0,0,1,0-.019.061.061,0,0,0,0-.025v0a.414.414,0,0,1-.006-.058.068.068,0,0,1,.078-.078c.053,0,.078.028.078.083a.189.189,0,0,1,0,.033c0,.017-.006.036-.008.064a.955.955,0,0,0-.008.117.274.274,0,0,0,0,.042.552.552,0,0,0,.006.061l.008.05a.467.467,0,0,1,.006.056c0,.05-.025.075-.078.075s-.078-.028-.078-.083v-.022a.077.077,0,0,1,0-.025v-.017a.041.041,0,0,1,0-.019V58.88c0-.028-.019-.044-.058-.044H9.168c-.017,0-.028,0-.031.011a.15.15,0,0,0-.006.047v.119a.135.135,0,0,0,0,.033c0,.017,0,.031,0,.042v.025c0,.036.006.055.014.061a.2.2,0,0,0,.061.006h.2a.177.177,0,0,0,.1-.022.1.1,0,0,0,.028-.08v-.019a.077.077,0,0,0,0-.025V59.01c0-.011,0-.025,0-.039v-.031c0-.058.025-.089.078-.089s.08.031.08.089v.022a.125.125,0,0,1,0,.031v.236a.081.081,0,0,1-.092.092H9.581a.041.041,0,0,1-.019,0H9.54a.39.39,0,0,0-.05-.006H9.326c-.036,0-.067,0-.1,0H9.145c-.092,0-.183,0-.272.008,0,0-.008,0-.008,0H8.857c-.058,0-.089-.025-.089-.075a.061.061,0,0,1,.069-.067h.042l.017,0H8.91c.033,0,.05-.031.05-.089Z" transform="translate(-6.55 -58.266)" fill="#fffaf1"/>
              <path id="Path_654" data-name="Path 654" d="M9.968,58.764c-.008,0-.014.008-.022.008l-.022.008a.411.411,0,0,1,.036.022.1.1,0,0,1,.028.031.227.227,0,0,1,.028.069.5.5,0,0,1,.011.1v.069a.1.1,0,0,0,0,.017c0,.058.014.086.044.086s.044-.036.044-.108v-.1a.159.159,0,0,1,0-.039.082.082,0,0,1,.006-.028.066.066,0,0,1,.069-.036c.053,0,.078.028.078.083v.064c0,.011,0,.019,0,.025v.05a.12.12,0,0,1,0,.014v.014a.193.193,0,0,1-.056.15.209.209,0,0,1-.153.053.174.174,0,0,1-.2-.2v-.13a.15.15,0,0,0-.031-.114.215.215,0,0,0-.139-.031H9.555c-.014,0-.022.011-.022.036v.233q.012.058.05.058a.077.077,0,0,0,.025,0,.277.277,0,0,1,.044-.006.064.064,0,0,1,.072.069q0,.075-.092.075s0,0-.006,0a.035.035,0,0,1-.017,0l-.078,0c-.017,0-.031,0-.042-.006l-.036,0a.127.127,0,0,0-.028,0c-.011,0-.025,0-.036.006a.188.188,0,0,1-.039.006.2.2,0,0,1-.033.006.086.086,0,0,0-.028,0,.174.174,0,0,1-.033,0c-.061,0-.089-.025-.089-.075s.022-.067.069-.067H9.28l.017,0h.017c.033,0,.05-.031.05-.089v-.591c0-.058-.017-.089-.047-.092a.034.034,0,0,1-.014,0,.054.054,0,0,0-.022,0l-.019,0H9.241a.06.06,0,0,1-.05-.022.068.068,0,0,1-.022-.047c0-.047.031-.072.092-.072h.011a.025.025,0,0,1,.014,0l.039,0a.172.172,0,0,0,.036,0l.033,0h.083a.285.285,0,0,0,.047,0h.008l.111-.006.056,0h.05c.233,0,.35.089.35.269a.225.225,0,0,1-.13.225m-.28-.053a.569.569,0,0,0,.1-.008.219.219,0,0,0,.072-.025.128.128,0,0,0,.061-.125c0-.1-.069-.147-.205-.147a.463.463,0,0,0-.155.017c-.019.008-.028.028-.028.056v.214c0,.008,0,.014,0,.014a.034.034,0,0,0,.014,0h.136Z" transform="translate(-5.839 -58.27)" fill="#fffaf1"/>
            </g>
            <g id="Group_177" data-name="Group 177" transform="translate(13.81 0.075)">
              <path id="Path_655" data-name="Path 655" d="M13.294,58.461c0,.008.008.014.014.017s0,.006.006.008l-.028.017a.015.015,0,0,0-.014-.008c0-.014.019-.017.022-.033" transform="translate(-12.364 -57.986)" fill="#fffaf1"/>
              <path id="Path_656" data-name="Path 656" d="M13.264,58.466l.011.006-.014.008,0-.014" transform="translate(-12.384 -57.978)" fill="#fffaf1"/>
              <path id="Path_657" data-name="Path 657" d="M13.253,58.468h0" transform="translate(-12.398 -57.974)" fill="#fffaf1"/>
              <path id="Path_658" data-name="Path 658" d="M13.277,58.469h-.014l0,0,.025.006-.014.011v-.014" transform="translate(-12.38 -57.978)" fill="#fffaf1"/>
              <path id="Path_659" data-name="Path 659" d="M13.118,58.327h.111a.25.25,0,0,1-.111,0" transform="translate(-12.638 -58.224)" fill="#fffaf1"/>
              <path id="Path_660" data-name="Path 660" d="M13.292,58.53c.028.044.092.083.114.161.019-.056-.047-.114-.083-.161h.025l.042-.128a.036.036,0,0,0,.025-.042c.025.036.056.011.092.044,0,.031-.031-.025-.022.022.044-.019.042-.025.058.022a.022.022,0,0,0,.011-.011l.028.094h.031a.106.106,0,0,0,.022.047c.031-.014.064-.022.08-.05h.119l0,.006c.006,0,.008,0,.008-.006h.036a.021.021,0,0,0,.025,0h.019c0,.008-.008.014-.006.025a.122.122,0,0,0-.061-.019c-.017-.022-.019.042-.033.011-.008.006,0,.017,0,.028a.24.24,0,0,1-.036.039.027.027,0,0,0-.019-.006c0,.008,0,.011.006.017a.185.185,0,0,1-.056.033.046.046,0,0,1,.008.036l-.08.053,0,.006h-.006s0,.006.008.006l0,.008a.321.321,0,0,0-.058.044c.039.028-.067.031.011.033-.025.008-.078.047-.08.022-.042,0-.014.064.011.033-.008.028-.017.017-.036.011l-.047-.033-.092.067a.085.085,0,0,1-.042.008c-.019.014,0,.011.019.008l-.205.147,0-.006.008,0s0-.006-.006-.006l.067-.18c0,.006,0,.008,0,.011s.017-.031.022-.011c.025.028-.028-.061.044-.033-.006-.008-.014-.019,0-.022-.006-.028-.044.047-.033-.022l-.011.008.036-.1-.325-.225Z" transform="translate(-12.945 -58.164)" fill="#fffaf1"/>
              <path id="Path_661" data-name="Path 661" d="M13.154,58.429c-.011.044,0,.069.047.067.008-.05-.064-.011-.022-.056-.006-.017-.022.011-.025-.011" transform="translate(-12.582 -58.043)" fill="#fffaf1"/>
              <path id="Path_662" data-name="Path 662" d="M13.175,58.4c-.039.011-.006.019-.011.056.036-.017.036-.033.011-.056" transform="translate(-12.57 -58.091)" fill="#fffaf1"/>
              <path id="Path_663" data-name="Path 663" d="M13.186,58.463c-.006,0-.017.017-.006.014s-.006,0-.011.006.022,0,.017.014c.008,0,.022,0,.019-.014-.011.014-.025,0-.019-.019" transform="translate(-12.547 -57.983)" fill="#fffaf1"/>
              <path id="Path_664" data-name="Path 664" d="M13.19,58.49c-.008,0-.008.006-.017.006s.011.006.011,0a.047.047,0,0,0,.056.019c-.006-.019-.05,0-.05-.025" transform="translate(-12.54 -57.935)" fill="#fffaf1"/>
              <path id="Path_665" data-name="Path 665" d="M13.173,58.495c.011,0,.014,0,.019.006s-.006,0-.006,0,0,.008,0,.014.017-.008.011-.014c.014.011.042.033.061.025a.225.225,0,0,0-.1-.033c-.008.017.017,0,.014.014s0-.006,0-.011" transform="translate(-12.573 -57.931)" fill="#fffaf1"/>
              <path id="Path_666" data-name="Path 666" d="M13.213,58.551c-.014-.044-.05-.017-.08-.008a.265.265,0,0,0,.08.008" transform="translate(-12.611 -57.871)" fill="#fffaf1"/>
              <path id="Path_667" data-name="Path 667" d="M13.146,58.487c.031-.017,0-.067-.011-.078-.019.022.017.053.011.078" transform="translate(-12.618 -58.079)" fill="#fffaf1"/>
              <path id="Path_668" data-name="Path 668" d="M13.181,58.488c.017-.019-.006-.031.011-.067-.014-.017-.047-.014-.047-.044-.067.042.033.069.036.111" transform="translate(-12.631 -58.136)" fill="#fffaf1"/>
              <path id="Path_669" data-name="Path 669" d="M13.295,58.591l.072.205c0,.006-.008.008-.011.014l-.186-.139c.011-.022.019-.078.053-.061.017,0,0-.019-.011-.022a.161.161,0,0,0,.061-.061l.017.047-.025.008a.04.04,0,0,0,.031.008" transform="translate(-12.546 -57.869)" fill="#fffaf1"/>
              <path id="Path_670" data-name="Path 670" d="M13.043,58.569l.008-.022v.028l-.008-.006" transform="translate(-12.771 -57.834)" fill="#fffaf1"/>
              <path id="Path_671" data-name="Path 671" d="M13.112,58.385l.014-.044s.006,0,.011-.006a.106.106,0,0,0,.058.067c-.017.025-.028.017-.056.011a.053.053,0,0,0,.011-.033c-.008.014-.022.008-.039.006" transform="translate(-12.649 -58.21)" fill="#fffaf1"/>
              <path id="Path_672" data-name="Path 672" d="M13.154,58.29l.039.13v0c-.017-.028-.039-.011-.072-.028l0-.008c.011,0,.011-.008.006-.014Z" transform="translate(-12.633 -58.29)" fill="#fffaf1"/>
              <path id="Path_673" data-name="Path 673" d="M13.109,58.367v-.006l0,0,0,0" transform="translate(-12.654 -58.164)" fill="#fffaf1"/>
              <path id="Path_674" data-name="Path 674" d="M13.188,58.424h.058a.035.035,0,0,0,0,.025c-.017-.033-.047.006-.056-.025" transform="translate(-12.514 -58.052)" fill="#fffaf1"/>
            </g>
          </g>
          <g id="Group_179" data-name="Group 179" transform="translate(0)">
            <path id="Path_675" data-name="Path 675" d="M9.1,56.2v-.278l.255,0a1.526,1.526,0,0,1,.047.208c-.133-.006-.18.069-.3.072" transform="translate(-5.961 -55.813)" fill="#fffaf1" fill-rule="evenodd"/>
            <path id="Path_676" data-name="Path 676" d="M9.632,55.988c0,.05.083.011.117.022a2.081,2.081,0,0,1,.094.372.858.858,0,0,0-.325.094c-.155-.031-.186-.186-.211-.347a2.175,2.175,0,0,1,.278-.094c-.08-.056-.189.058-.3.05.022-.092-.069-.069-.047-.164.125,0,.247,0,.372,0l-.011.042Z" transform="translate(-5.727 -55.816)" fill="#fffaf1" fill-rule="evenodd"/>
            <path id="Path_677" data-name="Path 677" d="M9.442,55.945c.011-.053.114-.011.164-.025-.006.111.044.275-.114.233-.036-.083.019-.205-.05-.208" transform="translate(-5.354 -55.82)" fill="#fffaf1" fill-rule="evenodd"/>
            <path id="Path_678" data-name="Path 678" d="M9.721,56.181c.017-.111-.028-.161-.025-.255l1.069-.008c.014.047.058.067.047.139a5.851,5.851,0,0,1-1.091.194l.011-.036Z" transform="translate(-4.903 -55.82)" fill="#fffaf1" fill-rule="evenodd"/>
            <path id="Path_679" data-name="Path 679" d="M10.1,55.92a1.557,1.557,0,0,1,.419.019c-.064.105-.25.094-.394.119.014-.072-.042-.069-.025-.139" transform="translate(-4.191 -55.823)" fill="#fffaf1" fill-rule="evenodd"/>
            <path id="Path_680" data-name="Path 680" d="M10.265,55.942c.011-.053.114-.011.164-.025-.039.031-.125.061-.164.025" transform="translate(-3.893 -55.825)" fill="#fffaf1" fill-rule="evenodd"/>
            <path id="Path_681" data-name="Path 681" d="M11.511,55.961c.15,0,.316-.1.466-.025.056.192.147.35.189.555a3.058,3.058,0,0,0-.511.119c-.128-.13-.153-.483-.191-.627l.036.011Z" transform="translate(-1.764 -55.839)" fill="#fffaf1" fill-rule="evenodd"/>
            <path id="Path_682" data-name="Path 682" d="M11.476,55.959l.033.028c.017.064-.108-.017-.092.047-.058-.028-.031-.167.069-.117Z" transform="translate(-1.901 -55.839)" fill="#fffaf1" fill-rule="evenodd"/>
            <path id="Path_683" data-name="Path 683" d="M12.332,55.906c.033.164.158.23.189.394a6.34,6.34,0,0,1-.649.167,3.519,3.519,0,0,0-.214-.511c0-.025.006-.042.022-.047.219,0,.436,0,.652,0" transform="translate(-1.422 -55.84)" fill="#fffaf1" fill-rule="evenodd"/>
            <path id="Path_684" data-name="Path 684" d="M12.085,55.932a1.947,1.947,0,0,1,.488-.028,1.526,1.526,0,0,1,.047.208,3.035,3.035,0,0,0-.372.1.469.469,0,0,1-.164-.278" transform="translate(-0.662 -55.846)" fill="#fffaf1" fill-rule="evenodd"/>
            <path id="Path_685" data-name="Path 685" d="M12.654,56.017a.931.931,0,0,1-.3.072A.2.2,0,0,1,12.3,55.9a1.169,1.169,0,0,1,.372.044l-.033.028Z" transform="translate(-0.279 -55.845)" fill="#fffaf1" fill-rule="evenodd"/>
            <path id="Path_686" data-name="Path 686" d="M14.836,55.892a2.747,2.747,0,0,1,.377.647,1.674,1.674,0,0,1-.394.1,4.663,4.663,0,0,1,.017-.744" transform="translate(4.178 -55.864)" fill="#fffaf1" fill-rule="evenodd"/>
            <path id="Path_687" data-name="Path 687" d="M14.862,55.894l.394,0c.006.08.061.111.047.208-.13-.006-.18.069-.3.072-.039-.1-.1-.175-.139-.278" transform="translate(4.269 -55.866)" fill="#fffaf1" fill-rule="evenodd"/>
            <path id="Path_688" data-name="Path 688" d="M15.42,55.96a1.236,1.236,0,0,1-.325.1c.022-.092-.069-.069-.047-.161a1.981,1.981,0,0,1,.488.019c-.006.042-.039.053-.092.047l-.011-.033Z" transform="translate(4.593 -55.868)" fill="#fffaf1" fill-rule="evenodd"/>
            <path id="Path_689" data-name="Path 689" d="M15.4,55.959l-.011-.033a.181.181,0,0,1,.139.022c0,.142.078.2.072.35a.992.992,0,0,0-.325.094.311.311,0,0,1-.189-.372c.114,0,.164-.069.278-.072Z" transform="translate(4.65 -55.809)" fill="#fffaf1" fill-rule="evenodd"/>
            <path id="Path_690" data-name="Path 690" d="M15.96,55.886c.078.006.2-.033.186.069-.042.028-.136.006-.161.047-.05,0-.011-.083-.025-.117" transform="translate(6.215 -55.88)" fill="#fffaf1" fill-rule="evenodd"/>
            <path id="Path_691" data-name="Path 691" d="M16.043,55.91c.008-.053.114-.011.164-.025-.039.031-.128.061-.164.025" transform="translate(6.365 -55.882)" fill="#fffaf1" fill-rule="evenodd"/>
            <path id="Path_692" data-name="Path 692" d="M11.65,56.509c-.017.1-.161.072-.255.094,0-.208,0-.419-.006-.627.033,0,.067,0,.069-.025.153.083.158.436.191.558" transform="translate(-1.897 -55.76)" fill="#fffaf1" fill-rule="evenodd"/>
            <path id="Path_693" data-name="Path 693" d="M9.125,56.052c.108.006.155-.047.255-.047.05.139.114.311-.044.372-.153-.022-.214-.222-.211-.325" transform="translate(-5.917 -55.664)" fill="#fffaf1" fill-rule="evenodd"/>
            <path id="Path_694" data-name="Path 694" d="M14.938,56.022c.108.006.155-.047.255-.047.047.139.114.311-.044.372-.153-.022-.18-.175-.211-.325" transform="translate(4.403 -55.717)" fill="#fffaf1" fill-rule="evenodd"/>
            <path id="Path_695" data-name="Path 695" d="M9.478,56.015c.111-.036.058.1.072.164-.094.014-.069-.092-.072-.164" transform="translate(-5.292 -55.657)" fill="#fffaf1" fill-rule="evenodd"/>
            <path id="Path_696" data-name="Path 696" d="M12.539,56.456c-.1.031-.169.1-.325.072-.025-.13-.072-.239-.094-.372a.237.237,0,0,1,.23-.119c.042.164.15.255.189.419" transform="translate(-0.6 -55.607)" fill="#fffaf1" fill-rule="evenodd"/>
            <path id="Path_697" data-name="Path 697" d="M9.149,56.105c.05.019.072.067.069.139-.014.033-.089.006-.092.047-.053-.008-.011-.114-.025-.161l.033.011Z" transform="translate(-5.963 -55.486)" fill="#fffaf1" fill-rule="evenodd"/>
            <path id="Path_698" data-name="Path 698" d="M11.813,56.45c-.033-.036-.019-.119-.069-.139.008-.031.039-.036.044-.069.314-.022.522-.147.835-.169a.554.554,0,0,1,.119.3,2.035,2.035,0,0,1-.86.1l-.028-.033Z" transform="translate(-1.267 -55.543)" fill="#fffaf1" fill-rule="evenodd"/>
            <path id="Path_699" data-name="Path 699" d="M14.174,56.079a.545.545,0,0,1,.047.139.407.407,0,0,1-.164.025c0-.056-.042-.067-.025-.139.072.014.069-.042.142-.025" transform="translate(2.789 -55.538)" fill="#fffaf1" fill-rule="evenodd"/>
            <path id="Path_700" data-name="Path 700" d="M11.5,56.434a.1.1,0,0,1-.047-.092,4.746,4.746,0,0,1,.788-.191,1.3,1.3,0,0,1,.094.347c-.075.025-.2,0-.208.142a3,3,0,0,0-.347.1c.064.064.266.008.394-.05a3.269,3.269,0,0,1,.119.394c-.153.058-.311.108-.463.167-.172-.092-.219-.308-.352-.439l.033-.011-.011-.036c.08-.15.225,0,.233-.025-.1-.056-.117-.191-.211-.255l.011-.036Z" transform="translate(-1.789 -55.405)" fill="#fffaf1" fill-rule="evenodd"/>
            <path id="Path_701" data-name="Path 701" d="M11.556,56.607v.025a.351.351,0,0,1-.142-.394c.108-.039.125.011.164.092H11.6l-.011.036.036.011c.028.058.092.078.094.161-.069,0-.078.061-.139.069Z" transform="translate(-1.892 -55.275)" fill="#fffaf1" fill-rule="evenodd"/>
            <path id="Path_702" data-name="Path 702" d="M14.221,56.414a.358.358,0,0,1-.164-.23c.014-.039.111,0,.117-.047a.493.493,0,0,1,.094.233l-.033.011Z" transform="translate(2.839 -55.431)" fill="#fffaf1" fill-rule="evenodd"/>
            <path id="Path_703" data-name="Path 703" d="M9.473,56.18a.472.472,0,0,1,.119.3c-.18.031-.305.114-.488.142,0-.125,0-.247,0-.372a1.247,1.247,0,0,1,.372-.072" transform="translate(-5.959 -55.353)" fill="#fffaf1" fill-rule="evenodd"/>
            <path id="Path_704" data-name="Path 704" d="M15.463,56.151a.472.472,0,0,1,.119.3,3.1,3.1,0,0,1-.766.191c0-.117,0-.233,0-.35a3.229,3.229,0,0,1,.649-.144" transform="translate(4.183 -55.405)" fill="#fffaf1" fill-rule="evenodd"/>
            <path id="Path_705" data-name="Path 705" d="M9.732,56.683A5.944,5.944,0,0,1,9.1,56.9c0-.147,0-.294,0-.441a2.452,2.452,0,0,0,.463-.142c.105.072.117.241.167.369" transform="translate(-5.958 -55.115)" fill="#fffaf1" fill-rule="evenodd"/>
            <path id="Path_706" data-name="Path 706" d="M15.62,56.656a5.038,5.038,0,0,1-.627.214.826.826,0,0,1-.119-.394,5.263,5.263,0,0,0,.58-.191c.114.067.117.241.167.372" transform="translate(4.288 -55.168)" fill="#fffaf1" fill-rule="evenodd"/>
            <path id="Path_707" data-name="Path 707" d="M11.144,56.741c-.122.033-.225.086-.347.119a1.653,1.653,0,0,0-.025-.466c.253-.191.35.105.372.347" transform="translate(-2.993 -55.082)" fill="#fffaf1" fill-rule="evenodd"/>
            <path id="Path_708" data-name="Path 708" d="M11.462,56.4a1.262,1.262,0,0,1,.305.486,3.637,3.637,0,0,0-.372.094c0-.186,0-.372,0-.558l.044.011Z" transform="translate(-1.89 -54.971)" fill="#fffaf1" fill-rule="evenodd"/>
            <path id="Path_709" data-name="Path 709" d="M15.273,57.269a2.308,2.308,0,0,0,.23-.327c-.169.125-.189.4-.508.375-.033-.186-.08-.355-.119-.536.053-.039.172-.017.139-.139.266-.022.408-.169.672-.191-.019.033.1.094.072.186a.773.773,0,0,1-.069.047c.006.047.05-.019.044-.025.158.161-.036.871-.18.863a.99.99,0,0,1-.258-.208l.011-.033Z" transform="translate(4.293 -54.874)" fill="#fffaf1" fill-rule="evenodd"/>
            <path id="Path_710" data-name="Path 710" d="M15.157,56.789l.033.011c.056.092.155.142.211.23a.952.952,0,0,1-.3.375c-.014-.236-.15-.347-.167-.58a.793.793,0,0,1,.233-.072Z" transform="translate(4.398 -54.336)" fill="#fffaf1" fill-rule="evenodd"/>
            <path id="Path_711" data-name="Path 711" d="M9.556,56.836a.855.855,0,0,1-.117-.23c.006-.086.139-.047.161-.117.053.061.011.225.025.325L9.581,56.8Z" transform="translate(-5.359 -54.805)" fill="#fffaf1" fill-rule="evenodd"/>
            <path id="Path_712" data-name="Path 712" d="M12.15,56.719c.153.086.13.352.236.486-.1.056-.3.011-.441.028-.017-.155-.169-.172-.189-.325.117-.064.25-.108.372-.167l.036.011Z" transform="translate(-1.246 -54.396)" fill="#fffaf1" fill-rule="evenodd"/>
            <path id="Path_713" data-name="Path 713" d="M12.4,57.039l.011.036c-.167.044-.289.13-.463.167-.1-.208-.28-.341-.352-.577.191-.039.355-.158.533-.144.056.064.011.225.025.325l.233,0c.008.075.105.139.05.208Z" transform="translate(-1.532 -54.752)" fill="#fffaf1" fill-rule="evenodd"/>
            <path id="Path_714" data-name="Path 714" d="M15.009,56.8c.089.017.269.5.261.6-.014.136-.161.172-.161.3a.832.832,0,0,1-.286-.81c.058-.019.092-.064.164-.072l.033.011Z" transform="translate(4.185 -54.258)" fill="#fffaf1" fill-rule="evenodd"/>
            <path id="Path_715" data-name="Path 715" d="M14.972,57l.011.036c-.075,0-.078.064-.164.047,0-.13,0-.264,0-.394l.044.011.028-.036c.036.1.167.236.119.347Z" transform="translate(4.189 -54.496)" fill="#fffaf1" fill-rule="evenodd"/>
            <path id="Path_716" data-name="Path 716" d="M12.123,56.676c.139.053.2.189.305.278a1.785,1.785,0,0,1-.253.35c-.128-.128-.15-.364-.236-.533A.329.329,0,0,1,12.1,56.7l.036.011Z" transform="translate(-0.919 -54.473)" fill="#fffaf1" fill-rule="evenodd"/>
            <path id="Path_717" data-name="Path 717" d="M12.136,56.714l.011.036c-.089-.011-.114.042-.208.025.017-.072-.025-.083-.025-.139l.35,0a.215.215,0,0,1-.092.094Z" transform="translate(-0.965 -54.547)" fill="#fffaf1" fill-rule="evenodd"/>
            <path id="Path_718" data-name="Path 718" d="M12.581,56.632c-.086.122-.139.278-.278.35-.017,0-.283-.194-.28-.23.014-.175.3-.1.558-.119" transform="translate(-0.772 -54.551)" fill="#fffaf1" fill-rule="evenodd"/>
            <path id="Path_719" data-name="Path 719" d="M11.181,56.714c-.036.042-.08.142-.139.094-.008-.086.083-.072.139-.094" transform="translate(-2.514 -54.405)" fill="#fffaf1" fill-rule="evenodd"/>
            <path id="Path_720" data-name="Path 720" d="M11.531,56.82c-.064.114-.2.155-.325.211a1.1,1.1,0,0,1,.491.369c-.241.1-.508.175-.766.261a6.622,6.622,0,0,1-.191-.674c.228-.083.48-.144.7-.239.078-.017.05.064.094.072" transform="translate(-3.049 -54.35)" fill="#fffaf1" fill-rule="evenodd"/>
            <path id="Path_721" data-name="Path 721" d="M8.444,57.278a2.132,2.132,0,0,1-.142-.394c.039-.033.119-.019.139-.069.105.058.019.305.05.441l-.036-.011Z" transform="translate(-7.378 -54.226)" fill="#fffaf1" fill-rule="evenodd"/>
            <path id="Path_722" data-name="Path 722" d="M8.957,57.53c-.28.056-.505.164-.766.239-.033-.253-.164-.411-.191-.672.25-.078.483-.169.741-.239a2.614,2.614,0,0,1,.216.672" transform="translate(-7.914 -54.149)" fill="#fffaf1" fill-rule="evenodd"/>
            <path id="Path_723" data-name="Path 723" d="M10.9,56.843a2.154,2.154,0,0,0,.33.533c-.022.042-.086.039-.092.094-.094-.028-.122-.1-.233-.139-.161-.053-.377.008-.444-.114a.764.764,0,0,1,.439-.375" transform="translate(-3.552 -54.176)" fill="#fffaf1" fill-rule="evenodd"/>
            <path id="Path_724" data-name="Path 724" d="M10.571,57.038c-.011.053-.117.011-.164.025.031-.042.047-.092.117-.094.019.019.014.064.047.069" transform="translate(-3.641 -53.952)" fill="#fffaf1" fill-rule="evenodd"/>
            <path id="Path_725" data-name="Path 725" d="M13.536,57.437a1.5,1.5,0,0,1,.23-.444c.028,0,.042.006.047.022a3.635,3.635,0,0,1,.006.605c.014.047.089-.033.139-.025.014.08.083.1.072.208h-.094c-.089.006-.008-.019-.022-.069-.086-.017-.1.042-.186.025l.011-.036-.036-.011c-.042-.022-.042-.08-.069-.117l.011-.036-.036.011c0-.044-.014-.078-.047-.092l.011-.036Z" transform="translate(1.914 -53.91)" fill="#fffaf1" fill-rule="evenodd"/>
            <path id="Path_726" data-name="Path 726" d="M13.76,57.452l.011.033c-.1,0-.2,0-.3,0a.533.533,0,0,1,.183-.327l-.011.033.036.011a.111.111,0,0,1,.025.069l-.011.036.036-.011c-.006.019.008.022.022.022-.019.075.036.072.047.117Z" transform="translate(1.795 -53.611)" fill="#fffaf1" fill-rule="evenodd"/>
            <path id="Path_727" data-name="Path 727" d="M13.669,57l.835-.006a.362.362,0,0,1,.047.208c-.283.053-.5.169-.766.239,0-.186-.114-.258-.117-.441" transform="translate(2.151 -53.913)" fill="#fffaf1" fill-rule="evenodd"/>
            <path id="Path_728" data-name="Path 728" d="M10.729,57.068c.08.086-.064.119,0,0" transform="translate(-3.099 -53.777)" fill="#fffaf1" fill-rule="evenodd"/>
            <path id="Path_729" data-name="Path 729" d="M14.89,57.1c.053.019.058.08.094.117-.019.08-.092.111-.161.142,0-.078,0-.155,0-.233l.044.011Z" transform="translate(4.196 -53.723)" fill="#fffaf1" fill-rule="evenodd"/>
            <path id="Path_730" data-name="Path 730" d="M10.894,57.547h-.069c.017-.172-.069-.241-.072-.394.108-.083.205.205.211.325,0,.039-.014.044-.047.047l-.036-.011Z" transform="translate(-3.028 -53.653)" fill="#fffaf1" fill-rule="evenodd"/>
            <path id="Path_731" data-name="Path 731" d="M10.87,57.321l-.011-.036c.139-.008.13.136.142.255a.29.29,0,0,1-.186.069c.033-.105-.1-.261.022-.3Z" transform="translate(-2.969 -53.392)" fill="#fffaf1" fill-rule="evenodd"/>
            <path id="Path_732" data-name="Path 732" d="M12.944,57.147c.053,0,.011.1.025.139h-.094c-.019-.089.056-.083.069-.139" transform="translate(0.735 -53.636)" fill="#fffaf1" fill-rule="evenodd"/>
            <path id="Path_733" data-name="Path 733" d="M12.217,58.329c-.208-.233-.441-.441-.633-.694a3.5,3.5,0,0,1,.3-.236,1.423,1.423,0,0,1,.3-.211c0,.178,0,.355,0,.536.017.053.13.008.186.022.047.147.172.216.211.372a.615.615,0,0,0-.208.142l-.036-.011.011.036c-.042,0-.05.028-.092.025l-.036-.011Z" transform="translate(-1.551 -53.564)" fill="#fffaf1" fill-rule="evenodd"/>
            <path id="Path_734" data-name="Path 734" d="M11.971,57.708l-.011-.036c.092-.042.133-.13.255-.142a3.775,3.775,0,0,0,.305.441,2.51,2.51,0,0,1-.536.028c-.042-.1-.144-.133-.164-.255l.036.011-.014-.036c.042,0,.05-.028.092-.022Z" transform="translate(-1.13 -52.956)" fill="#fffaf1" fill-rule="evenodd"/>
            <path id="Path_735" data-name="Path 735" d="M14.836,58.245a6.942,6.942,0,0,0,.017-.908c.1-.036.147-.133.255-.164.08.183.23.3.305.486a3.787,3.787,0,0,0-.461.305,2.063,2.063,0,0,0,.211.347c-.028.094-.133.117-.208.164l-.036-.011.011.036c-.047,0-.031.064-.094.047l-.033-.011.011.036" transform="translate(4.164 -53.588)" fill="#fffaf1" fill-rule="evenodd"/>
            <path id="Path_736" data-name="Path 736" d="M14.886,57.76l.011-.033c.083-.033.13-.1.23-.117.053.058.075.144.142.186-.092.055-.286.011-.419.028l.011-.022-.011-.022v-.022Z" transform="translate(4.247 -52.814)" fill="#fffaf1" fill-rule="evenodd"/>
            <path id="Path_737" data-name="Path 737" d="M9.416,58.585a3.2,3.2,0,0,1-.352-.347,1.264,1.264,0,0,1-.305-.394c.461-.061.841-.2.924-.633a1.861,1.861,0,0,1,.327.463A1.861,1.861,0,0,0,9.546,58a2.966,2.966,0,0,0,.211.325c-.028.094-.133.117-.208.164l-.036-.011.011.036c-.047,0-.031.064-.092.047L9.4,58.551Z" transform="translate(-6.568 -53.523)" fill="#fffaf1" fill-rule="evenodd"/>
            <path id="Path_738" data-name="Path 738" d="M9.056,57.8v-.047c.092-.025.117-.117.23-.117a.379.379,0,0,0,.069.092.672.672,0,0,1-.3.117Z" transform="translate(-6.045 -52.763)" fill="#fffaf1" fill-rule="evenodd"/>
            <path id="Path_739" data-name="Path 739" d="M13.159,57.23a.765.765,0,0,1-.044.3.643.643,0,0,1-.35-.205.337.337,0,0,1,.394-.1" transform="translate(0.546 -53.533)" fill="#fffaf1" fill-rule="evenodd"/>
            <path id="Path_740" data-name="Path 740" d="M8.184,57.664c-.028,0-.042.006-.047.022a.876.876,0,0,1-.142-.394c.05-.014.067-.058.139-.047.031.1.169.322.072.394l-.036-.011Z" transform="translate(-7.923 -53.465)" fill="#fffaf1" fill-rule="evenodd"/>
            <path id="Path_741" data-name="Path 741" d="M8.12,57.431l-.011-.036c.15-.019.172.233.094.3-.056-.053-.225-.216-.119-.278Z" transform="translate(-7.826 -53.198)" fill="#fffaf1" fill-rule="evenodd"/>
            <path id="Path_742" data-name="Path 742" d="M11.4,57.376c.216-.2.394.017.583.228.128.142.247.272.236.394a.255.255,0,0,1-.278.211c-.122-.011-.311-.278-.422-.416a.449.449,0,0,1-.119-.416" transform="translate(-1.881 -53.371)" fill="#fffaf1" fill-rule="evenodd"/>
            <path id="Path_743" data-name="Path 743" d="M10.3,57.316c0,.108,0,.216,0,.325a.907.907,0,0,1-.327-.208c.036-.111.183-.111.325-.117" transform="translate(-4.409 -53.336)" fill="#fffaf1" fill-rule="evenodd"/>
            <path id="Path_744" data-name="Path 744" d="M11.8,57.866c.008.056.08.042.069.117a4.742,4.742,0,0,1-.461.422l-.488,0c.2-.219.463-.377.647-.611-.2.117-.414.425-.669.563a1.966,1.966,0,0,1-.1-.7c.325-.133.669-.247,1.021-.355a3.047,3.047,0,0,0,.028.488l-.036-.011-.011.036c-.061-.022-.078-.092-.139-.114.025.061.092.078.117.139l-.011.036Z" transform="translate(-2.935 -53.35)" fill="#fffaf1" fill-rule="evenodd"/>
            <path id="Path_745" data-name="Path 745" d="M13.6,57.327a1.146,1.146,0,0,0-.092.28.275.275,0,0,1-.119-.23c.036-.053.147-.1.211-.05" transform="translate(1.662 -53.356)" fill="#fffaf1" fill-rule="evenodd"/>
            <path id="Path_746" data-name="Path 746" d="M16.361,57.3c.053.008.011.114.025.164-.133-.011-.006-.075-.025-.164" transform="translate(6.866 -53.37)" fill="#fffaf1" fill-rule="evenodd"/>
            <path id="Path_747" data-name="Path 747" d="M14.029,57.447a2.63,2.63,0,0,1-.533.305c-.169.1-.35.2-.508.305-.019-.189.139-.4.18-.605a1.278,1.278,0,0,0,.744-.122c.083-.006.1.058.117.117" transform="translate(0.939 -53.312)" fill="#fffaf1" fill-rule="evenodd"/>
            <path id="Path_748" data-name="Path 748" d="M15.065,58.146c-.261.255-.455,0-.63-.205-.111-.13-.244-.261-.236-.369a.26.26,0,0,1,.347-.189c.078.025.222.205.327.322a.51.51,0,0,1,.192.441" transform="translate(3.091 -53.243)" fill="#fffaf1" fill-rule="evenodd"/>
            <path id="Path_749" data-name="Path 749" d="M12.837,58.222c-.078.056-.255.011-.372.028-.2-.275-.386-.561-.588-.833a.705.705,0,0,1,.394,0c.183.275.366.552.566.808" transform="translate(-1.031 -53.21)" fill="#fffaf1" fill-rule="evenodd"/>
            <path id="Path_750" data-name="Path 750" d="M9,57.453c.042.222.466.291.422.624-.017.13-.108.219-.3.189a1.626,1.626,0,0,1-.563-.669c.006-.194.139-.205.441-.144" transform="translate(-6.923 -53.151)" fill="#fffaf1" fill-rule="evenodd"/>
            <path id="Path_751" data-name="Path 751" d="M16.458,57.845a1.1,1.1,0,0,1-.211-.394c.05-.083.178-.078.28-.05,0,.147,0,.294,0,.441l-.036-.011Z" transform="translate(6.727 -53.218)" fill="#fffaf1" fill-rule="evenodd"/>
            <path id="Path_752" data-name="Path 752" d="M11.4,57.485a2.062,2.062,0,0,1,.469.555c-.1.086-.416.069-.466-.044,0-.172,0-.341,0-.511" transform="translate(-1.876 -53.036)" fill="#fffaf1" fill-rule="evenodd"/>
            <path id="Path_753" data-name="Path 753" d="M8.722,57.592c.161.125.275.3.422.439-.128.067-.319,0-.463,0a.788.788,0,0,0-.189-.183c.019-.144.2-.128.23-.258" transform="translate(-7.04 -52.846)" fill="#fffaf1" fill-rule="evenodd"/>
            <path id="Path_754" data-name="Path 754" d="M12.277,57.9a1.965,1.965,0,0,1-.674.006c.072-.158.269-.194.369-.327.13.078.194.222.305.322" transform="translate(-1.517 -52.876)" fill="#fffaf1" fill-rule="evenodd"/>
            <path id="Path_755" data-name="Path 755" d="M11.1,57.842c.064-.105.189-.153.255-.258.056.1.083.228.142.325l-.372,0,.011-.042Z" transform="translate(-2.412 -52.86)" fill="#fffaf1" fill-rule="evenodd"/>
            <path id="Path_756" data-name="Path 756" d="M8.6,57.823c-.08.019-.092-.033-.164-.022-.008-.1.167-.175.186-.047l-.033.028Z" transform="translate(-7.144 -52.68)" fill="#fffaf1" fill-rule="evenodd"/>
            <path id="Path_757" data-name="Path 757" d="M8.869,57.8c.011-.067.1-.056.117-.117.069.031.094.105.164.139-.044.055-.153.047-.255.047l.011-.042Z" transform="translate(-6.371 -52.687)" fill="#fffaf1" fill-rule="evenodd"/>
            <path id="Path_758" data-name="Path 758" d="M14.659,57.648c.019.019.014.064.047.069-.017.053-.13.011-.186.025.05-.028.067-.089.139-.094" transform="translate(3.661 -52.747)" fill="#fffaf1" fill-rule="evenodd"/>
            <path id="Path_759" data-name="Path 759" d="M13.381,56.278a.732.732,0,0,1,.375.511c-.219.067-.264-.042-.372-.139-.006.1.114.072.094.186-.117.047-.28.047-.394.1-.053-.15-.105-.3-.167-.441-.105.114.075.305.072.463-.228.117-.486.042-.511-.136l.011-.042-.036-.028c0-.042-.028-.05-.025-.092.047-.014.067-.058.139-.047,0,.058,0,.114.047.117-.008-.083-.036-.111,0-.186-.089,0-.105.078-.208.069l.011-.033-.036.014a2.46,2.46,0,0,0-.189-.394c.031.155.125.247.167.394v.022h.022c0,.061-.092.033-.092.094l-.042-.011-.028.036c-.086.025-.075-.05-.117-.069-.006.039.022.042.022.069l-.033.011.011.036c-.128-.011-.305.028-.4-.019l.011-.036-.033.011c-.083-.08-.125-.325-.211-.322.014.075-.161.164-.3.164-.006-.042-.053-.164-.072-.117.019.05.061.078.047.161a1.8,1.8,0,0,0-.255.119l-.036-.011.011.036c-.022.069-.153-.019-.139-.022-.047.006-.1.075-.139.094-.13.061-.316.075-.394.189-.039.008-.042-.022-.069-.022a.928.928,0,0,1-.441.236c0-.155,0-.311,0-.466.139-.042.23-.086.325-.119-.092-.089-.186.072-.3.094-.056-.069-.011-.239-.028-.35a2.81,2.81,0,0,0,.605-.119,3.2,3.2,0,0,1,.58-.1c.031,0,.075-.014.092.047.039-.1.255-.15.372-.1l-.011.036.036-.011c.014.067.075.2.117.161a.3.3,0,0,1-.094-.161l.011-.033-.033-.011A1.874,1.874,0,0,1,11.838,56a1.5,1.5,0,0,1,.255-.025c.025,0,.017-.044.047-.047a2.891,2.891,0,0,1,.466,0c.3.028.78.191.655.391l-.036-.011-.033.011a.137.137,0,0,1-.094.025.063.063,0,0,0,.047.069l-.011.033.033.011c.058-.008.069.144.117.069a.231.231,0,0,1-.094-.092l.011-.036-.036-.011c-.086-.031.069,0,.047-.047l.036.011.011-.036c.05.008.061-.017.092-.025l.011.033Zm-.766.144c-.014-.064.028-.186-.025-.208-.047.053-.008.164.025.208" transform="translate(-4.936 -55.829)" fill="#fffaf1" fill-rule="evenodd"/>
            <path id="Path_760" data-name="Path 760" d="M10.816,56.3l.036.028c-.025.111-.161-.028-.233-.022l.011-.033-.036-.011V56.24l.042.011.028-.036c.056.008.05-.042.117-.025a.063.063,0,0,0,.047.069Z" transform="translate(-3.309 -55.341)" fill="#fffaf1" fill-rule="evenodd"/>
            <path id="Path_761" data-name="Path 761" d="M10.744,56.362l.011.033a2.977,2.977,0,0,1-.58.028l.011-.036-.036-.011a5.3,5.3,0,0,1,.533-.261c.017.094.144.169.094.255Z" transform="translate(-4.097 -55.469)" fill="#fffaf1" fill-rule="evenodd"/>
            <path id="Path_762" data-name="Path 762" d="M11.934,55.93c-.011-.022.192,0,.3-.025.061.144.094.269-.044.35-.191,0-.178-.28-.258-.325" transform="translate(-0.93 -55.841)" fill="#fffaf1" fill-rule="evenodd"/>
            <path id="Path_763" data-name="Path 763" d="M13.752,56.6c.05.014-.033.089-.022.142a.106.106,0,0,1-.047-.094c.019-.019.064-.014.069-.047" transform="translate(2.175 -54.609)" fill="#fffaf1" fill-rule="evenodd"/>
            <path id="Path_764" data-name="Path 764" d="M9.652,56.679a1.306,1.306,0,0,1-.258-.511,1,1,0,0,1,.3-.047c0,.178,0,.355,0,.536l-.033-.011Z" transform="translate(-5.439 -55.46)" fill="#fffaf1" fill-rule="evenodd"/>
            <path id="Path_765" data-name="Path 765" d="M9.732,56.477l.033-.011c.044.05.017.169.025.255a.712.712,0,0,0-.233.119c-.1-.089-.236-.255-.211-.394l.033.011.011-.036a.841.841,0,0,0,.208-.117c.086.008.108.078.142.139Z" transform="translate(-5.53 -55.131)" fill="#fffaf1" fill-rule="evenodd"/>
            <path id="Path_766" data-name="Path 766" d="M9.447,56.672l-.011.033c-.092-.1-.086-.3-.142-.441a.22.22,0,0,1,.233-.117c.047.155.15.255.189.416a.672.672,0,0,0-.23.119Z" transform="translate(-5.617 -55.417)" fill="#fffaf1" fill-rule="evenodd"/>
            <path id="Path_767" data-name="Path 767" d="M11.34,56.749c-.139-.117-.347-.164-.444-.322.178-.031.513-.222.627-.028.05-.014-.078-.089,0-.139.072.014.044.017.117,0a1.581,1.581,0,0,1,.028.7c-.111-.05-.2-.128-.3-.183l.011-.033Z" transform="translate(-2.773 -55.209)" fill="#fffaf1" fill-rule="evenodd"/>
            <path id="Path_768" data-name="Path 768" d="M11.284,56.6l.033-.011a1.951,1.951,0,0,0,.3.183c-.047.261-.125.494-.414.513a3.6,3.6,0,0,1-.192-.7c-.058-.031-.125-.136-.072-.208.161.017.219.136.35.183Z" transform="translate(-2.724 -55)" fill="#fffaf1" fill-rule="evenodd"/>
            <path id="Path_769" data-name="Path 769" d="M10.743,56.3a4.4,4.4,0,0,1,.053,1,.327.327,0,0,0-.208.119c-.158-.119-.18-.38-.305-.533-.028.067.1.183.094.3-.061,0-.08.044-.117.069-.072.011-.064-.058-.092-.094-.058.031.061.075.047.139.067-.036.105-.094.208-.094a2.678,2.678,0,0,0,.119.255,1.6,1.6,0,0,1,.255-.142c0,.069,0,.139,0,.208.033.053.161.008.233.022v.022h.022c-.019.189.175.352.236.533.011-.153-.253-.35-.214-.533l.036.011-.011-.033c.272.028.7-.044.93-.008.058.011.031.008.025.047.053-.05.205-.119.278-.072l-.011.033.033-.011c0,.042.028.047.025.092l-.011.033.033-.011c-.011.078-.15.205-.183.117-.028.172-.3.28-.439.422-.1,0-.092-.108-.164-.139,0,.1.117.083.119.186-.056,0-.033.075-.117.094-.1.022-.147-.072-.186-.069,0,0,.031.061.047.047a.941.941,0,0,1-.463.025c-.064-.019-.092-.1-.139-.117l.011-.033-.036-.011c-.067.064-.094-.017-.022,0,.022,0,.011.036.011.036l.036.011a.379.379,0,0,0,.069.092c0,.053-.1.011-.139.025,0,.094,0,.186,0,.28-.153-.014-.289-.225-.211-.325-.136.089-.136-.136-.233-.161l-.033-.011-.033.011c-.006-.025-.022-.014-.025,0-.056.086-.069-.108-.117-.022a.064.064,0,0,1,.047.069l-.036-.011.011.036c-.042.022-.067.058-.117.069l-.036-.011.011.036a.345.345,0,0,1-.161.072c-.286-.233-.167-.877-.2-1.371l.033.011.006-.033a1.419,1.419,0,0,1,.305.463l-.036-.011-.011.036c-.017-.017-.022.022-.022.025a.056.056,0,0,1,.058-.011l.011-.036c.031-.008.036-.042.069-.047a2.628,2.628,0,0,1-.352-.461,1.217,1.217,0,0,1,.069-.28c.314-.122.574-.3.9-.4l-.011.036Zm-.81.611c.058,0,.072.044.092-.025-.031-.031-.086-.031-.092.025M10.452,58c.117-.053.192-.15.3-.211-.142.025-.208.13-.3.211" transform="translate(-4.921 -55.223)" fill="#fffaf1" fill-rule="evenodd"/>
            <path id="Path_770" data-name="Path 770" d="M10.684,56.906l-.036-.011c.125-.083.272-.147.322-.305l.025.011.022-.011a2.769,2.769,0,0,1,.167.416l-.033.028.014.042a1.033,1.033,0,0,1-.255.094c-.036-.061-.122-.039-.186-.114l.011-.036-.036.011c0-.042-.028-.05-.025-.092Z" transform="translate(-3.213 -54.625)" fill="#fffaf1" fill-rule="evenodd"/>
            <path id="Path_771" data-name="Path 771" d="M10.816,56.666l-.036.011c.053-.139.269-.119.394-.189a4.047,4.047,0,0,1,.192.627c-.122.05-.255.089-.372.142L11,57.215l-.033-.028c.006-.019-.008-.022-.022-.022A2.515,2.515,0,0,0,10.8,56.7Z" transform="translate(-2.978 -54.806)" fill="#fffaf1" fill-rule="evenodd"/>
            <path id="Path_772" data-name="Path 772" d="M10.052,56.967l.042-.011c.125.061.253.466.375.533.011.006.05-.033.047-.047.022.1.094.566-.114.488l.011-.036-.036.011a8.245,8.245,0,0,1-.541-.833c.031-.008.036-.042.069-.047l.036-.011-.011-.036c.064.017.047-.047.092-.047Z" transform="translate(-4.654 -54.02)" fill="#fffaf1" fill-rule="evenodd"/>
            <path id="Path_773" data-name="Path 773" d="M10.478,57.835l.033.011a.322.322,0,0,1-.255.072c-.175-.253-.33-.525-.494-.788.006-.08.1-.067.139-.117h.022v-.022a.958.958,0,0,1,.236.416c.161.078.222.258.327.394Z" transform="translate(-4.786 -53.913)" fill="#fffaf1" fill-rule="evenodd"/>
            <path id="Path_774" data-name="Path 774" d="M8.32,56.646c-.033-.067-.164-.036-.164-.139a1.883,1.883,0,0,1,.58-.119c0,.169,0,.341,0,.511-.15-.055-.253-.164-.4-.23l.011-.033Z" transform="translate(-7.637 -54.984)" fill="#fffaf1" fill-rule="evenodd"/>
            <path id="Path_775" data-name="Path 775" d="M8.262,56.526l.036-.011c.128.089.266.167.4.253,0,.186,0,.372.006.558-.1,0-.136.067-.233.072a4.117,4.117,0,0,1-.191-.7c-.061-.017-.061-.094-.094-.139.019-.033.019-.089.092-.069Z" transform="translate(-7.591 -54.805)" fill="#fffaf1" fill-rule="evenodd"/>
            <path id="Path_776" data-name="Path 776" d="M14.891,56.644a4.6,4.6,0,0,1,.261.58c-.122.069-.28.161-.372.025l-.011-.033-.033.011c-.092-.033-.169-.18-.233-.139.233.139.244.172.244.172l.036-.011c0,.047.064.031.047.092-.175.105-.427.133-.6.236a2.684,2.684,0,0,1-.236-.58c0-.05.039-.044.047-.022-.022-.064-.144-.125-.117-.208l.036.011.011-.036c.15.053.3.228.419.23-.147-.094-.289-.191-.444-.275l.011-.033-.036-.011c-.072-.006-.072-.083-.094-.139.155-.025.35-.133.511-.075.058-.105.25-.078.372-.119.044.119.15.175.189.3l-.036-.011-.011.033a.644.644,0,0,1-.278.142c.119.061.211-.078.3-.119H14.9v-.019Zm-.366.63c.167.128-.105-.078,0,0" transform="translate(2.427 -55.106)" fill="#fffaf1" fill-rule="evenodd"/>
            <path id="Path_777" data-name="Path 777" d="M12.4,57.369c.058.022-.086.1-.117.047-.011-.064.128.017.117-.047" transform="translate(-0.302 -53.242)" fill="#fffaf1" fill-rule="evenodd"/>
            <path id="Path_778" data-name="Path 778" d="M15.578,57.562c.056.108.011.316.028.466-.044-.033-.058-.1-.119-.117.139.086.125.327.122.558-.111.036-.161-.075-.211-.139-.142-.18-.275-.422-.425-.624l.036-.011-.033-.011a.353.353,0,0,1,.208-.142c.028.08.094.122.142.186-.006-.094-.18-.222-.211-.369a.936.936,0,0,1,.164-.094l.036.011L15.3,57.24c.153.022.164.192.258.278l-.011.036Z" transform="translate(4.466 -53.471)" fill="#fffaf1" fill-rule="evenodd"/>
            <path id="Path_779" data-name="Path 779" d="M15.093,57.443l.036-.011c.175.236.327.5.516.716-.086.056-.272.011-.4.025-.108-.211-.264-.372-.375-.577.028-.111.147-.13.23-.189Z" transform="translate(4.29 -53.175)" fill="#fffaf1" fill-rule="evenodd"/>
            <path id="Path_780" data-name="Path 780" d="M15.354,57.964l.011.036c-.1-.006-.1.089-.186.094a1.112,1.112,0,0,1-.258-.347A4.64,4.64,0,0,0,15.473,57c.067-.019.061.033.117.022l-.069-.069a.254.254,0,0,1,.114-.142l.011.036.036.011c0,.311,0,.619.006.93l-.036-.011.011.036c-.1.05-.18.114-.278.164Z" transform="translate(4.373 -54.231)" fill="#fffaf1" fill-rule="evenodd"/>
            <path id="Path_781" data-name="Path 781" d="M15.309,57.2h.022c0,.1,0,.2,0,.3l-.036-.011-.011.036a.633.633,0,0,1-.164-.23,1.163,1.163,0,0,1,.186-.117Z" transform="translate(4.732 -53.576)" fill="#fffaf1" fill-rule="evenodd"/>
            <path id="Path_782" data-name="Path 782" d="M9.11,57.392c0-.147,0-.294,0-.441l.033.011.011-.036c.072.1.2.389,0,.488l-.011-.033Z" transform="translate(-5.949 -54.029)" fill="#fffaf1" fill-rule="evenodd"/>
            <path id="Path_783" data-name="Path 783" d="M10.851,57.286a2.463,2.463,0,0,0-.236-.347.374.374,0,0,1,.208-.164c.128.067.092.3.1.486l-.042-.011Z" transform="translate(-3.271 -54.297)" fill="#fffaf1" fill-rule="evenodd"/>
            <path id="Path_784" data-name="Path 784" d="M9.552,58.285c-.105.006-.114.1-.233.094-.047-.139-.158-.214-.211-.347a5.327,5.327,0,0,0,.552-.749c.067-.019.061.033.117.022,0-.044-.078-.017-.069-.069a2.92,2.92,0,0,1,.414-.538c.194.13.053.6.1.883-.072.022-.108.078-.186.094l.011-.036-.036-.011c-.011-.019-.022-.042-.047-.047-.006.039.022.039.025.069l-.011.033.033-.011c.011.033.033.058.047.092l-.011.036.036-.011c.011.044.05.058.047.117-.033.011-.058.036-.092.047L10,57.943l.011.036c-.144.1-.283.2-.439.283l-.033-.011Z" transform="translate(-5.947 -54.435)" fill="#fffaf1" fill-rule="evenodd"/>
            <path id="Path_785" data-name="Path 785" d="M9.5,57.161l-.036.011c-.014-.105.053-.133.139-.139a.892.892,0,0,1-.022.28c-.053-.019-.058-.08-.094-.117Z" transform="translate(-5.325 -53.839)" fill="#fffaf1" fill-rule="evenodd"/>
            <path id="Path_786" data-name="Path 786" d="M9.494,57.225l-.011-.033c.072.011.053-.072.139-.047.056.089-.011.228-.022.327l-.033-.011-.011.036c-.042-.072-.208-.194-.094-.278Z" transform="translate(-5.39 -53.648)" fill="#fffaf1" fill-rule="evenodd"/>
            <path id="Path_787" data-name="Path 787" d="M9.718,57.467l.036-.011c.028.105-.075.261-.114.372a2.718,2.718,0,0,1-.33-.486c.08-.042.133-.114.23-.142.105.033.128.153.189.23Z" transform="translate(-5.588 -53.54)" fill="#fffaf1" fill-rule="evenodd"/>
            <path id="Path_788" data-name="Path 788" d="M9.5,57.3l-.011-.036c.205.083.241.333.4.463A1.433,1.433,0,0,1,9.5,58.2a3.212,3.212,0,0,1-.258-.347l.011-.036-.039.011c-.136-.125.022-.178.114-.255a.983.983,0,0,1,.189.183c-.006-.089-.167-.219-.211-.347.008-.083.114-.072.161-.117Z" transform="translate(-5.858 -53.422)" fill="#fffaf1" fill-rule="evenodd"/>
            <path id="Path_789" data-name="Path 789" d="M9.351,57.567l.033-.011c.083.111.144.244.236.347-.036.1-.164.114-.23.186a2.365,2.365,0,0,1-.33-.463c.017-.114.153-.111.208-.189.067,0,.058.067.094.092Z" transform="translate(-6.032 -53.123)" fill="#fffaf1" fill-rule="evenodd"/>
            <path id="Path_790" data-name="Path 790" d="M8.53,57.366a.779.779,0,0,0,.164.092c-.058.036-.094.092-.186.094.011-.072-.042-.08-.025-.164l.036.011Z" transform="translate(-7.062 -53.248)" fill="#fffaf1" fill-rule="evenodd"/>
            <path id="Path_791" data-name="Path 791" d="M15.864,57.426a1.14,1.14,0,0,0,.627.089c.2-.022.414-.2.488-.028a1.161,1.161,0,0,1-.416.258c-.139.075-.278.167-.416.236a2.222,2.222,0,0,1-.352-.533l.042.008Z" transform="translate(5.925 -53.163)" fill="#fffaf1" fill-rule="evenodd"/>
            <path id="Path_792" data-name="Path 792" d="M9,57.973c-.067.031.075.047.047.117a.334.334,0,0,1-.186.142c-.089-.05-.189-.089-.28-.136.031-.086.122-.111.161-.186-.072-.031-.122.155-.23.164a3.411,3.411,0,0,1-.4-.347,5.772,5.772,0,0,1,.9-.308c.08.158.222.261.305.416-.053.108-.239.327-.322.139m-.094-.139c-.033.011-.058-.092-.069-.022.025,0,.047.1.069.022" transform="translate(-7.713 -53.155)" fill="#fffaf1" fill-rule="evenodd"/>
            <path id="Path_793" data-name="Path 793" d="M13.656,58.13c.006-.025.047-.017.047-.047,0-.061-.1.094-.139,0-.022.019.008.08-.047.117-.194,0-.386,0-.58.006-.006-.069.053-.072.044-.139a8.24,8.24,0,0,0,1.157-.661c.078.008.083.089.142.117a.868.868,0,0,1-.114.28,2.219,2.219,0,0,1-.114.4l-.372,0,.011-.042Zm.278-.189a.1.1,0,0,0,.092-.047c-.047-.008-.061.017-.092.025l-.036-.011.011.033c-.014.022-.125.058-.069.069.019-.019.064-.014.069-.047l.036.011Z" transform="translate(0.851 -53.177)" fill="#fffaf1" fill-rule="evenodd"/>
            <path id="Path_794" data-name="Path 794" d="M16.962,57.8a.464.464,0,0,1,.117.208c-.186-.019-.383.031-.511.006-.011,0,.036-.022.044-.022a1.4,1.4,0,0,1-.674-.019,1.632,1.632,0,0,1,.372-.236,2.279,2.279,0,0,0,.439-.258.554.554,0,0,1,.189.278l-.036-.011.011.036c-.033.011-.15.117-.092.069.042,0,.047-.028.092-.022l.033.011Z" transform="translate(6.179 -53.04)" fill="#fffaf1" fill-rule="evenodd"/>
            <path id="Path_795" data-name="Path 795" d="M8.81,56.557c.289-.136.291.319.236.533-.153.022-.128-.136-.236-.161.011.083.105.08.094.186a1.571,1.571,0,0,1-.419.072.729.729,0,0,0-.167-.416c-.044.144.092.291.1.463A1.57,1.57,0,0,1,8,57.306l.011-.036-.036.011c0-.092,0-.186,0-.28L8,57.012l0-.031h.047c-.014-.042-.014-.1-.047-.117l.011-.036-.036.011c0-.225,0-.45-.006-.674l.036-.011-.011-.036c.2-.011.389-.155.558-.119.047-.006.044-.064.092-.069l.419,0c0,.178,0,.355,0,.533-.08.031-.178.042-.255.072L8.8,56.5l-.011.036c-.078-.1-.089-.266-.164-.369.022.15.1.241.119.394-.028,0-.042.006-.044.022.05.008.061-.017.092-.022l.011.033Zm-.28.069c.089.092.258.272.094.069-.008-.031-.033-.044-.025-.092.019-.006.047,0,.047-.025-.042.014-.1.014-.117.047" transform="translate(-7.969 -55.802)" fill="#fffaf1" fill-rule="evenodd"/>
            <path id="Path_796" data-name="Path 796" d="M8.021,56.582v-.047a1.459,1.459,0,0,1,.372-.094,1.552,1.552,0,0,1,.119.416c-.153.044-.28.108-.441.142.153.119.167.377.258.558a2.583,2.583,0,0,0-.167-.533,1.834,1.834,0,0,1,.394-.142,3.189,3.189,0,0,1,.191.627A4.389,4.389,0,0,1,8,57.747l.011-.036-.036.014-.008-1h.022V56.7c.019.006.025.022.047.022,0-.042-.028-.05-.025-.092Z" transform="translate(-7.965 -54.891)" fill="#fffaf1" fill-rule="evenodd"/>
            <path id="Path_797" data-name="Path 797" d="M12.22,56.154c.247-.061.561-.094.813-.147a.762.762,0,0,1,.186-.047c.275.022.422.275.538.508-.153.017-.269.175-.394.142a1.476,1.476,0,0,1-.6.308,1.157,1.157,0,0,1-.541-.763m.536.322c.142-.117.391-.136.486-.236a.124.124,0,0,1-.094-.022c-.044.155-.4.13-.391.258" transform="translate(-0.422 -55.746)" fill="#fffaf1" fill-rule="evenodd"/>
            <path id="Path_798" data-name="Path 798" d="M16.768,57.381c-.15-.275-.286-.569-.447-.833l.011-.036-.033.011c-.036-.056-.05-.139-.094-.186l.011-.036-.036.011a.951.951,0,0,0-.094-.208l.011-.036-.036-.011a3.72,3.72,0,0,1,.744-.169c.022.064.069.325-.022.35.1.036.025.228.028.372,0,.247.053.516.028.766l-.036-.011Z" transform="translate(6.395 -55.871)" fill="#fffaf1" fill-rule="evenodd"/>
            <path id="Path_799" data-name="Path 799" d="M17.037,56.223l.036-.011c0,.069.086.078.025.139,0,.042.078.014.092.044.05.239.375.63.427.9.047.258-.031.522.006.86a2.962,2.962,0,0,0-.347.258c-.086-.008-.105-.078-.142-.139-.056.058.1.1.094.186-.061.039-.1.1-.161.139-.086-.047-.125-.136-.189-.208-.017.042.094.153.142.208l-.011.036.011.036c-.083,0-.075.078-.139.094l-.033.011.011.033c-.044.05-.205.105-.161.164.053-.142.114.139.164.069-.031-.039-.08-.061-.072-.139-.008-.053.067-.025.069-.069l.036-.011-.014-.033c.08,0,.075-.078.139-.094l.033-.011-.011-.036c.092-.055.144-.15.255-.189a.553.553,0,0,0,.164.208.917.917,0,0,0-.142-.208c.039-.147.208-.164.278-.28.019.477.117,1.088-.105,1.4-.144-.042-.336-.036-.372-.183-.033.028-.022.1-.117.069l.011-.036-.033.011c-.094.028-.308-.078-.255.025.031-.039.161.022.255,0l-.011.033L17,59.487a.954.954,0,0,1,.255.067,1,1,0,0,1-1.279-.014c.033-.125.286-.142.419-.1l.033.011-.011-.036c.053.028.205.044.233,0a.927.927,0,0,1-.244-.011L16.4,59.4h-.117c-.011-.089.047-.105.092-.142l.033-.011-.011-.033h.047a.109.109,0,0,0,.022-.069c-.047-.008-.072.006-.069.047l-.033.011.011.033c-.08.022-.114.183-.208.117l.011-.036-.036.011a4.116,4.116,0,0,1-.516-.858c.039.008.044-.019.047-.047l.036.011.011-.036c.031-.008.036-.042.069-.047l.033.011-.011-.036h.025l-.011.036.036-.011c.119.191.258.364.375.555a1.049,1.049,0,0,1,.23-.164c.086-.019.05.089.117.092,0-.255-.006-.511-.006-.769l.036.011.011-.036a1.018,1.018,0,0,1,.164.278c-.053-.219-.294-.45-.216-.883.239-.092.355-.216.624-.308-.064-.108-.122-.228-.189-.347-.058-.1-.161-.214-.142-.325-.039-.006-.039.022-.069.025l-.036-.011.011.033a.951.951,0,0,1-.208.094c0-.108,0-.216,0-.325a1.17,1.17,0,0,0,.394-.189c.072-.011.067.058.094.094ZM17.023,59.3c0-.053-.08-.136-.094-.092.061,0,.036.089.094.092" transform="translate(5.621 -55.535)" fill="#fffaf1" fill-rule="evenodd"/>
            <path id="Path_800" data-name="Path 800" d="M16.08,57.537l.033-.011c-.011.105-.147.083-.255.094-.044-.153-.255-.255-.214-.416l.036.011-.014-.036c.019,0,.022-.008.025-.022.044-.011.058-.05.117-.047a3.745,3.745,0,0,1,.283.394Z" transform="translate(5.648 -53.704)" fill="#fffaf1" fill-rule="evenodd"/>
            <path id="Path_801" data-name="Path 801" d="M15.811,57.41l.011.036c-.142.019-.18-.253-.283-.347.006-.078.105-.067.139-.117H15.7V56.96a2.066,2.066,0,0,1,.261.394c-.033.028-.094.031-.117.069Z" transform="translate(5.47 -53.968)" fill="#fffaf1" fill-rule="evenodd"/>
            <path id="Path_802" data-name="Path 802" d="M16.179,57.963,16.19,58c-.053.025-.075.08-.164.072a6.559,6.559,0,0,1-.563-.974.765.765,0,0,1-.211-.416c.233-.039.405-.258.624-.236.047.047-.006.111-.022.164.094.194.266.305.33.533l-.033-.011-.011.036c-.017-.017-.022.022-.022.022a.058.058,0,0,1,.056-.011l.011-.036a.1.1,0,0,1,.069-.022c-.128-.228-.458-.414-.283-.741.058.036.153.155.117.208.255.286.43.658.658.971-.019.067-.092.08-.139.117.042.061.1-.056.139-.069a.794.794,0,0,1,.189.278.065.065,0,0,0-.069.047.063.063,0,0,0,.069-.047,2.437,2.437,0,0,1,.189.278.423.423,0,0,1-.208.164c-.089-.056-.247-.219-.164-.3-.089.028-.161-.1-.211-.183l.011-.036-.036.011c.025-.1.014-.056-.047-.022l-.033-.011.011.033c-.019-.006-.022.008-.022.022-.056.058-.053-.025-.094-.044,0,.042.028.05.025.094l-.033-.011.011.033a.69.69,0,0,1-.117.072Zm-.624-1.1c-.033-.114-.111-.036,0,0" transform="translate(4.961 -55.007)" fill="#fffaf1" fill-rule="evenodd"/>
            <path id="Path_803" data-name="Path 803" d="M16.184,56.279l.011-.036a1.436,1.436,0,0,1,.305.533c-.189.083-.339.205-.533.283,0-.241,0-.48-.006-.722a.438.438,0,0,0,.208-.094Z" transform="translate(6.221 -55.241)" fill="#fffaf1" fill-rule="evenodd"/>
            <path id="Path_804" data-name="Path 804" d="M16.323,56.244l.033-.011c.067.1-.305.294-.325.094h-.022L16,56.291l-.036.011c0-.108,0-.216,0-.325.069,0,.2-.064.255,0l-.011.033L16.237,56c.014.086.089.114.094.208Z" transform="translate(6.216 -55.764)" fill="#fffaf1" fill-rule="evenodd"/>
            <path id="Path_805" data-name="Path 805" d="M16,56.137l.011-.036c.053.017.025.144-.047.117v-.092Z" transform="translate(6.22 -55.493)" fill="#fffaf1" fill-rule="evenodd"/>
            <path id="Path_806" data-name="Path 806" d="M13.947,55.965c-.047.133.089.083.072.186.058-.167.291-.158.463-.214.05.092.061.219.119.3l-.011.042.036.028c-.006.094.056.117.047.208-.028,0-.042.006-.047.025l-.022-.011-.022.011c-.042.014-.1.011-.117.047.042.031.092.047.094.117.205.144-.069-.047,0-.139.006.025.022.014.022,0l.036.011.011-.036c.05.008.061-.017.092-.025l.011.036.011-.036a.392.392,0,0,1,.161-.025c.1.189.289.286.375.486a3.191,3.191,0,0,1-.347.072c-.1-.017-.1-.136-.186-.161.011.083.105.08.094.186a1.66,1.66,0,0,1-.394.072,2.959,2.959,0,0,0-.167-.416c-.1.105.086.294.072.463a1.842,1.842,0,0,1-.372.072c-.053,0-.008.1-.022.139.108-.036.283-.114.394-.072a2.52,2.52,0,0,1-.161.488c-.075.033-.2.019-.23.094.019.069.033-.053.092-.025.05.061.1.169.025.233V58.1h-.022V58.08a.259.259,0,0,1-.186-.092l.011-.036-.033.011a9.362,9.362,0,0,0-.4-.858c.089-.258.105-.588.344-.7.064-.017.044.047.069.069-.039-.1.105-.139.183-.186-.044-.078-.194.147-.233,0l.011-.036-.033.011c-.058-.125.058-.261.092-.372h.047l-.008.042ZM14,56.99c-.025-.025-.017-.2-.047-.139-.008.055.028.186.047.139m-.067.605a.112.112,0,0,1,.072.022.117.117,0,0,0-.047-.117.137.137,0,0,1-.025.094" transform="translate(1.756 -55.857)" fill="#fffaf1" fill-rule="evenodd"/>
            <path id="Path_807" data-name="Path 807" d="M13.958,56.274l-.036-.028a.745.745,0,0,0-.094-.278c.058-.133.344-.047.511-.072a4.158,4.158,0,0,1,.167.486c-.178-.006-.236.105-.419.094l-.036-.011-.011.036c-.053-.039-.033-.155-.094-.186Z" transform="translate(2.433 -55.864)" fill="#fffaf1" fill-rule="evenodd"/>
            <path id="Path_808" data-name="Path 808" d="M13.855,56.839l.036-.011a2.458,2.458,0,0,1-.114.35,3.8,3.8,0,0,1-.236-.369,1.11,1.11,0,0,0,.161-.142c.086.014.117.086.164.139Z" transform="translate(1.923 -54.488)" fill="#fffaf1" fill-rule="evenodd"/>
            <path id="Path_809" data-name="Path 809" d="M14.179,57.208l.033-.011c.017.1-.133.117-.161.142a1.894,1.894,0,0,1-.508.4.325.325,0,0,1-.186.186V57.9h-.022c-.042-.022-.039-.086-.094-.092.056-.067.044-.3.139-.255a1.369,1.369,0,0,1,.136-.513c.006-.006.036.031.047.022a2.368,2.368,0,0,1,.228-.722c.142.269.255.566.4.833Z" transform="translate(1.391 -55.065)" fill="#fffaf1" fill-rule="evenodd"/>
            <path id="Path_810" data-name="Path 810" d="M13.358,57.009,13.394,57v.022l-.036-.011.011.033c-.053.017-.061.078-.114.094l-.011-.036-.036.011c.006-.094.069-.13.069-.233.072-.011.067.058.094.092Z" transform="translate(1.332 -54.115)" fill="#fffaf1" fill-rule="evenodd"/>
            <path id="Path_811" data-name="Path 811" d="M13.459,57.31l-.014-.036c.092-.056.147-.147.255-.189a1.762,1.762,0,0,0,.117.186c.028-.031-.069-.13-.094-.186a.926.926,0,0,1,.439-.352,1.479,1.479,0,0,0,.214.372c.008.119-.155.3-.067.35-.053.108-.133.192-.183.3-.031-.008-.036-.042-.069-.047.089.161-.122.352-.183.513-.13-.069-.322-.078-.4-.205l.011-.036-.036-.011a.826.826,0,0,0-.189-.255l.011-.033-.036-.011c-.033-.039-.1-.191.022-.186l.039-.011-.011-.036c.039-.044.069-.1.139-.117Z" transform="translate(1.3 -54.371)" fill="#fffaf1" fill-rule="evenodd"/>
            <path id="Path_812" data-name="Path 812" d="M13.657,57.466l.036.011a.111.111,0,0,1,.025.069c-.119.006-.275-.053-.35-.022.153.067.416.017.513.136a.963.963,0,0,1-.325.167,3,3,0,0,1-.488.05c.069-.114.028-.341.205-.35,0-.028-.042-.019-.069-.022.042-.167.119-.3.161-.466.028.036.067.056.069.117h.025l-.011.036.036.011c.069.069.108.172.189.23Z" transform="translate(1.085 -53.828)" fill="#fffaf1" fill-rule="evenodd"/>
            <path id="Path_813" data-name="Path 813" d="M15.2,56.734a.841.841,0,0,0,.208-.117c.1,0,.092.108.164.139-.069-.228-.239-.352-.283-.6a2.414,2.414,0,0,0,.3-.072.5.5,0,0,1,.236.347c.13.086.172.264.28.369a7.605,7.605,0,0,0-.741.355c-.094-.094-.23-.261-.211-.394l.036.011Z" transform="translate(4.795 -55.527)" fill="#fffaf1" fill-rule="evenodd"/>
            <path id="Path_814" data-name="Path 814" d="M15.261,56.641l-.011.036a2.42,2.42,0,0,1-.144-.441.216.216,0,0,1,.233-.117c.044.155.155.247.189.416a.672.672,0,0,0-.23.119Z" transform="translate(4.702 -55.467)" fill="#fffaf1" fill-rule="evenodd"/>
            <path id="Path_815" data-name="Path 815" d="M13.042,57.288c.1-.078-.067-.158-.119-.233-.067-.094-.094-.216-.164-.278.014-.086.025-.178.044-.255a8.345,8.345,0,0,1,.763-.355,1.615,1.615,0,0,1-.014,1.024c-.128-.111-.164-.319-.258-.463-.042.069.08.169.094.255-.019.072-.089.1-.161.117-.011-.061-.069-.069-.072-.139l.011-.036-.036.011c-.006-.019-.064-.1-.069-.047.025.006.017.047.047.047l-.011.036.036-.011c.006.089.075.111.094.186.067-.036.105-.094.208-.094.183.305-.191.511-.414.63.119.105.316.133.419.253l-.033.028L13.42,58h-.047l-.028-.033-.042.011c-.006-.025-.022-.011-.022,0-.042.044-.072-.006-.094-.047L13.2,57.9l-.033.011v-.022c-.047-.05-.1,0-.022.022l-.011.033.036-.011c-.006.019.008.022.022.022a.111.111,0,0,1,.025.069l-.033-.011.011.033a.54.54,0,0,1-.117.069l-.033-.011.011.036c-.031.047-.122.033-.139.094a6.583,6.583,0,0,1-.563-.9.635.635,0,0,0,.2-.722c.086-.017.15-.078.208,0-.13.294.239.414.28.677l-.036-.011-.011.036.036.011Zm-.094-.533c.117.061.083-.083,0,0" transform="translate(-0.189 -55.376)" fill="#fffaf1" fill-rule="evenodd"/>
            <path id="Path_816" data-name="Path 816" d="M12.792,56.877l.017-.039a.108.108,0,0,1,.069.069l-.011.022.011.022c-.019.019-.064.014-.069.047a.1.1,0,0,1-.047-.092Z" transform="translate(0.538 -54.185)" fill="#fffaf1" fill-rule="evenodd"/>
            <path id="Path_817" data-name="Path 817" d="M12.841,56.9v-.025a.554.554,0,0,1,.189.325c-.158.008-.289-.225-.211-.3Z" transform="translate(0.6 -54.112)" fill="#fffaf1" fill-rule="evenodd"/>
            <path id="Path_818" data-name="Path 818" d="M12.842,56.854l.042-.011a4.426,4.426,0,0,1,.352.533c.072.017.044-.064.117-.047V57.4l-.042.006-.006.042a.134.134,0,0,0,.094.117c.025.164-.108.291-.208.258l.011-.036-.033.011a2.143,2.143,0,0,0-.211-.3l.011-.036-.036.011c-.089-.114-.155-.247-.236-.369l.011-.033-.033.011c.017-.072-.064-.044-.047-.117a.122.122,0,0,0,.069-.069l.033.011.011-.033c.031-.008.036-.042.069-.047Z" transform="translate(0.299 -54.212)" fill="#fffaf1" fill-rule="evenodd"/>
            <path id="Path_819" data-name="Path 819" d="M13.266,57.726l.036-.011c-.014.108-.164.086-.278.094-.167-.3-.3-.488-.472-.788.006-.078.105-.067.139-.117h.022V56.88c.047.006.047.064.069.092l-.011.036L12.806,57a1.255,1.255,0,0,0,.236.369l-.011.036.036-.011c.056.114.15.191.211.3Z" transform="translate(0.169 -54.11)" fill="#fffaf1" fill-rule="evenodd"/>
            <path id="Path_820" data-name="Path 820" d="M9.294,57.321c-.086-.017-.1.042-.186.025a4.1,4.1,0,0,1,.019-.674c.264-.025.405-.172.672-.191.044.072.111.183,0,.233.019.064.042-.064.117-.025a.9.9,0,0,0,.164.255,2.827,2.827,0,0,1-.414.608c-.122-.033-.172-.136-.258-.208l.011-.036L9.386,57.3a2.308,2.308,0,0,0,.23-.327c-.13.08-.164.253-.3.327l-.036-.011Z" transform="translate(-5.953 -54.82)" fill="#fffaf1" fill-rule="evenodd"/>
            <path id="Path_821" data-name="Path 821" d="M9.356,56.844l.036.011c.078.069.172.122.211.23a1.3,1.3,0,0,1-.3.35,1.857,1.857,0,0,0-.189-.533c.019-.064.092-.078.161-.094l.036.011L9.3,56.782c.039-.006.039.022.069.022Z" transform="translate(-5.934 -54.285)" fill="#fffaf1" fill-rule="evenodd"/>
            <path id="Path_822" data-name="Path 822" d="M11.473,57.528c-.144,0-.036-.258-.072-.372a3.578,3.578,0,0,0,.58-.214c.067,0,.1.039.094.117.069-.036-.031-.092,0-.164.047-.022.092-.047.139-.069h.022V56.8c.144.058.15.255.28.322-.031.244.05.425.006.58-.067.23-.491.35-.624.538-.117-.036-.169-.142-.233-.23a.743.743,0,0,1-.255.117c.008-.092-.022-.222.022-.28l.022.011.022-.011a1.3,1.3,0,0,0,.369-.211l.033.011-.011-.036c.092-.108.283-.122.3-.305l-.011-.011-.011-.011c.133-.086-.408.083-.186.047.053-.008.056-.014.139-.025l-.011.036.036.011c-.058.105-.18.144-.255.233l-.036-.011.011.033c-.117.069-.194.175-.369.189l-.028-.033-.042.011c.022-.078-.061-.261.069-.233l.033.011-.011-.036c.147-.044.144-.1,0-.025l-.036-.011Z" transform="translate(-1.887 -54.245)" fill="#fffaf1" fill-rule="evenodd"/>
            <path id="Path_823" data-name="Path 823" d="M12.2,57.151l.011.036c-.264.1-.536.194-.81.286,0-.247,0-.5-.006-.744.142-.036.25-.086.419-.142a2.454,2.454,0,0,1,.422.577Z" transform="translate(-1.887 -54.629)" fill="#fffaf1" fill-rule="evenodd"/>
            <path id="Path_824" data-name="Path 824" d="M14.9,56.679a2.275,2.275,0,0,1,.261.672c-.369.1-.672.264-1.066.333-.014-.033.025-.119-.025-.117.008-.031.058-.019.094-.025-.064-.178-.139-.344-.192-.533.294-.128.644-.2.927-.33" transform="translate(2.683 -54.467)" fill="#fffaf1" fill-rule="evenodd"/>
            <path id="Path_825" data-name="Path 825" d="M14.46,57.823a.674.674,0,0,1-.255.072,4.344,4.344,0,0,1-.167-.6c.369-.1.688-.244,1.044-.355-.008.114.211.322,0,.35.031.072.1-.044.139.022-.006.142-.139.158-.208.236l-.036.011.011.033a2.8,2.8,0,0,1-.394.211l-.033-.011-.033.014h-.047l.011-.036-.036-.011a.271.271,0,0,0-.072-.186,1.525,1.525,0,0,0,.047.208l-.011.033Zm.183-.35c.042-.014.1-.014.117-.047-.044,0-.169.031-.117.047" transform="translate(2.806 -54.007)" fill="#fffaf1" fill-rule="evenodd"/>
            <path id="Path_826" data-name="Path 826" d="M14.83,57.3l.011-.036c.047-.072.15-.083.186-.164a1.955,1.955,0,0,1,.214.508c-.175.08-.278.233-.463.305-.017-.117-.15-.114-.164-.23a2.7,2.7,0,0,0-.369.189.487.487,0,0,1-.094-.278.271.271,0,0,0,.186-.072l.042.011.028-.036a.725.725,0,0,0,.394-.211Z" transform="translate(3.004 -53.713)" fill="#fffaf1" fill-rule="evenodd"/>
            <path id="Path_827" data-name="Path 827" d="M11.652,57.015c.028.278.194.414.169.744-.239.031-.419.222-.627.192-.269-.042-.291-.414-.4-.672a5.929,5.929,0,0,1,.858-.264m-.53.608c0,.05.122-.017.208-.047s.25-.058.208-.117a2.652,2.652,0,0,1-.416.164" transform="translate(-2.954 -53.871)" fill="#fffaf1" fill-rule="evenodd"/>
            <path id="Path_828" data-name="Path 828" d="M8.053,57.388a5.531,5.531,0,0,1,.858-.264c.036.283.186.45.239.719-.269.044-.488.253-.719.191-.253-.067-.261-.38-.377-.647m.327.347c.008.055.4-.133.372-.119-.155.006-.233.094-.372.119" transform="translate(-7.82 -53.677)" fill="#fffaf1" fill-rule="evenodd"/>
            <path id="Path_829" data-name="Path 829" d="M14.487,57.571a2.228,2.228,0,0,1-.7.075c-.017-.108-.078-.172-.094-.278.289-.078.536-.2.813-.286.119.144.125.4.236.558H14.49l.011-.033Z" transform="translate(2.198 -53.75)" fill="#fffaf1" fill-rule="evenodd"/>
            <path id="Path_830" data-name="Path 830" d="M13.2,58.006c.094.058.178-.061.3-.047a1.124,1.124,0,0,0,.538.3,1.448,1.448,0,0,1-.3.466,2.736,2.736,0,0,1-.283-.394l.011-.036-.033.011c-.039-.1-.094-.1-.022,0l-.011.036.033-.011c.083.133.169.264.258.394a1.585,1.585,0,0,1-1.019.472,6.849,6.849,0,0,1-.447-.624c.172-.23.513-.294.741-.472,0-.056-.039-.067-.025-.139a.657.657,0,0,0-.4-.927c.061-.078.189-.092.255-.164l.036.011-.014-.033c.122.017.155.164.211.255s.111.186.167.278c.105.18.278.355.283.555-.117-.006-.164.056-.28.05l-.036-.011.011.033c-.13.011-.13.064,0,.022H13.2Z" transform="translate(-0.404 -54.165)" fill="#fffaf1" fill-rule="evenodd"/>
            <path id="Path_831" data-name="Path 831" d="M13.075,57.243l.014.036c-.125.105-.508.3-.605.028-.058.017.042.061.025.117-.147,0-.294,0-.441,0,.044-.108.139-.172.183-.28.067-.019.061.033.117.022,0-.044-.078-.017-.069-.069.13-.194.222-.427.486-.491.105.208.314.43.33.649Z" transform="translate(-0.692 -54.595)" fill="#fffaf1" fill-rule="evenodd"/>
            <path id="Path_832" data-name="Path 832" d="M9.973,58c.119.042.178-.064.28-.05.194.028.311.308.561.3,0,.2,0,.4.006.605-.089,0-.105.078-.208.072a3.71,3.71,0,0,0-.447-.694c.13.236.28.447.422.672a6.954,6.954,0,0,1-.883.031,3.163,3.163,0,0,1,.039-.86,4.283,4.283,0,0,1-.053-1.021l.044.011.028-.036a9.379,9.379,0,0,1,.519.858.544.544,0,0,1-.3.094l-.033-.011L9.957,58c-.133.008-.13.064,0,.022l.036.011Z" transform="translate(-4.919 -53.851)" fill="#fffaf1" fill-rule="evenodd"/>
            <path id="Path_833" data-name="Path 833" d="M12.75,57.387c-.025.119-.169.216-.255.142a4.973,4.973,0,0,0,.494.694c-.078.053-.255.008-.372.025a.086.086,0,0,1,0-.117.137.137,0,0,1-.094.025c-.133-.286-.352-.486-.494-.763.233,0,.563-.011.722-.006" transform="translate(-0.763 -53.213)" fill="#fffaf1" fill-rule="evenodd"/>
            <path id="Path_834" data-name="Path 834" d="M15.258,58.3l-.244,0c-.128-.1-.067-.136-.175-.258s-.358-.308-.425-.466c.189-.044.239-.2.411-.258.061.244.33.494.394.733" transform="translate(3.473 -53.327)" fill="#fffaf1" fill-rule="evenodd"/>
            <path id="Path_835" data-name="Path 835" d="M15.066,57.584c-.028.094-.133.117-.208.164" transform="translate(4.261 -52.86)" fill="#fffaf1" fill-rule="evenodd"/>
            <path id="Path_836" data-name="Path 836" d="M14.913,57.173c.08.183.23.3.305.486" transform="translate(4.359 -53.59)" fill="#fffaf1" fill-rule="evenodd"/>
          </g>
        </g>
      </g>
    </g>
  </g>
  <path id="Path_837" data-name="Path 837" d="M3.922,57.237c.083-.183.4-.2.708-.042a21.683,21.683,0,0,0,6.489,2.084c.361.056.658.258.649.461-.006.164-.216.275-.494.28a1.071,1.071,0,0,1-.208-.008A22.354,22.354,0,0,1,4.346,57.87L4.3,57.847a.847.847,0,0,1-.08-.058C3.98,57.625,3.85,57.4,3.922,57.237Z" transform="translate(0.697 -18.51)" fill="#fff"/>
</svg>
